M48
;DRILL file {Pcbnew (2013-03-19 BZR 4004)-stable} date 8/12/2013 12:05:26 AM
;FORMAT={-:-/ absolute / inch / decimal}
FMAT,2
INCH,TZ
T1C0.025
T2C0.032
T3C0.050
%
G90
G05
M72
T1
X4.555Y-3.9255
X4.577Y-3.9805
X4.721Y-2.829
X4.745Y-2.786
X4.794Y-2.766
X4.81Y-3.179
X4.844Y-2.764
X4.846Y-3.15
X4.878Y-2.733
X4.887Y-3.176
X4.932Y-2.746
X4.941Y-3.173
X4.967Y-2.785
X4.983Y-2.843
X5.094Y-4.132
X5.0985Y-2.8825
X5.1745Y-3.12
T2
X3.807Y-3.73
X3.807Y-3.83
X3.807Y-3.93
X3.807Y-4.03
X3.807Y-4.13
X3.807Y-4.23
X3.807Y-4.33
X3.807Y-4.43
X3.807Y-4.53
X3.807Y-4.63
X3.807Y-4.73
X3.807Y-4.83
X4.057Y-3.63
X4.307Y-3.73
X4.307Y-3.83
X4.307Y-3.93
X4.307Y-4.03
X4.307Y-4.13
X4.307Y-4.23
X4.307Y-4.33
X4.307Y-4.43
X4.307Y-4.53
X4.307Y-4.63
X4.307Y-4.73
X4.307Y-4.83
X4.696Y-3.538
X4.696Y-3.638
X4.696Y-3.738
X4.696Y-3.838
X4.696Y-3.938
X4.696Y-4.038
X4.696Y-4.138
X4.696Y-4.238
X4.696Y-4.338
X4.696Y-4.438
X4.696Y-4.538
X4.696Y-4.638
X4.696Y-4.738
X4.696Y-4.838
X4.996Y-3.538
X4.996Y-3.638
X4.996Y-3.738
X4.996Y-3.838
X4.996Y-3.938
X4.996Y-4.038
X4.996Y-4.138
X4.996Y-4.238
X4.996Y-4.338
X4.996Y-4.438
X4.996Y-4.538
X4.996Y-4.638
X4.996Y-4.738
X4.996Y-4.838
X7.8255Y-3.364
X7.8255Y-3.464
X7.8255Y-3.564
X7.8255Y-3.664
X7.8255Y-3.764
X7.8255Y-3.864
X7.8255Y-3.964
X7.8255Y-4.064
X7.8255Y-4.164
X7.8255Y-4.264
X7.8255Y-4.364
X7.8255Y-4.464
X7.8255Y-4.564
X7.8255Y-4.664
X7.8255Y-4.764
X7.8255Y-4.864
X8.0675Y-3.264
X8.3255Y-3.364
X8.3255Y-3.464
X8.3255Y-3.564
X8.3255Y-3.664
X8.3255Y-3.764
X8.3255Y-3.864
X8.3255Y-3.964
X8.3255Y-4.064
X8.3255Y-4.164
X8.3255Y-4.264
X8.3255Y-4.364
X8.3255Y-4.464
X8.3255Y-4.564
X8.3255Y-4.664
X8.3255Y-4.764
X8.3255Y-4.864
T3
X4.056Y-4.3085
X8.067Y-4.124
T0
M30
