G04 (created by PCBNEW (2013-03-19 BZR 4004)-stable) date 8/12/2013 12:05:24 AM*
%MOIN*%
G04 Gerber Fmt 3.4, Leading zero omitted, Abs format*
%FSLAX34Y34*%
G01*
G70*
G90*
G04 APERTURE LIST*
%ADD10C,0*%
%ADD11C,0.1*%
%ADD12C,0.001*%
G04 APERTURE END LIST*
G54D10*
G54D11*
X84750Y-49750D02*
X84750Y-31500D01*
X84750Y-31500D02*
X81750Y-31500D01*
X36500Y-26250D02*
X36500Y-35000D01*
X76750Y-35750D02*
X76750Y-42500D01*
X76750Y-31500D02*
X76750Y-33500D01*
X76750Y-31500D02*
X79500Y-31500D01*
X76750Y-29750D02*
X76750Y-31500D01*
X68750Y-33500D02*
X68750Y-42500D01*
X52750Y-33500D02*
X52750Y-42500D01*
X44750Y-35250D02*
X44750Y-40500D01*
X44750Y-35250D02*
X42000Y-35250D01*
X44750Y-35000D02*
X44750Y-35250D01*
X44750Y-33750D02*
X44750Y-35000D01*
X44750Y-31500D02*
X44750Y-33750D01*
X36500Y-49750D02*
X37000Y-49750D01*
X36500Y-35250D02*
X36500Y-49750D01*
X36500Y-35250D02*
X39750Y-35250D01*
X36500Y-35000D02*
X36500Y-35250D01*
X36750Y-26250D02*
X36500Y-26250D01*
X44750Y-26250D02*
X36750Y-26250D01*
X44750Y-26250D02*
X44750Y-29250D01*
X52750Y-26250D02*
X44750Y-26250D01*
X52750Y-26250D02*
X52750Y-31250D01*
X68750Y-26250D02*
X52750Y-26250D01*
X68750Y-26250D02*
X68750Y-31250D01*
X76750Y-26250D02*
X68750Y-26250D01*
X76750Y-26250D02*
X76750Y-27500D01*
X84750Y-26250D02*
X76750Y-26250D01*
X84750Y-31500D02*
X84750Y-26250D01*
X84500Y-49750D02*
X84750Y-49750D01*
X76750Y-49750D02*
X84500Y-49750D01*
X76750Y-49750D02*
X76750Y-44750D01*
X68750Y-49750D02*
X76750Y-49750D01*
X68750Y-49750D02*
X68750Y-44750D01*
X52750Y-49750D02*
X68750Y-49750D01*
X52750Y-49750D02*
X52750Y-44750D01*
X44750Y-49750D02*
X52750Y-49750D01*
X44750Y-49750D02*
X44750Y-42750D01*
X37000Y-49750D02*
X44750Y-49750D01*
G54D12*
X45170Y-26760D02*
X45175Y-26760D01*
X45170Y-49260D02*
X45180Y-49260D01*
X37170Y-26760D02*
X40170Y-26760D01*
X41570Y-26760D02*
X44170Y-26760D01*
X41570Y-26760D02*
X40170Y-26760D01*
X44170Y-49260D02*
X37170Y-49260D01*
X84170Y-49260D02*
X77170Y-49260D01*
X69170Y-26760D02*
X72170Y-26760D01*
X73570Y-26760D02*
X76170Y-26760D01*
X69170Y-38860D02*
X69170Y-40260D01*
X73570Y-26760D02*
X72170Y-26760D01*
X76170Y-49260D02*
X69170Y-49260D01*
X52170Y-49260D02*
X45170Y-49260D01*
X53170Y-49260D02*
X68170Y-49260D01*
X55770Y-26760D02*
X57170Y-26760D01*
X65570Y-26760D02*
X64170Y-26760D01*
X49570Y-26760D02*
X48170Y-26760D01*
X64170Y-26760D02*
X57170Y-26760D01*
X65570Y-26760D02*
X68170Y-26760D01*
X55770Y-26760D02*
X53170Y-26760D01*
X49570Y-26760D02*
X52170Y-26760D01*
X61615Y-50140D02*
X61615Y-50145D01*
X45170Y-26760D02*
X48170Y-26760D01*
M02*
