G04 (created by PCBNEW (2013-03-19 BZR 4004)-stable) date 8/12/2013 12:05:24 AM*
%MOIN*%
G04 Gerber Fmt 3.4, Leading zero omitted, Abs format*
%FSLAX34Y34*%
G01*
G70*
G90*
G04 APERTURE LIST*
%ADD10C,0*%
%ADD11C,0.0001*%
%ADD12R,0.0987X0.0377*%
%ADD13R,0.0377X0.0987*%
%ADD14C,0.075*%
%ADD15R,0.075X0.075*%
%ADD16C,0.0298*%
%ADD17C,0.039685*%
%ADD18R,0.05X0.08*%
G04 APERTURE END LIST*
G54D10*
G54D11*
G36*
X61929Y-42214D02*
X61923Y-42229D01*
X61907Y-42251D01*
X61885Y-42263D01*
X61871Y-42265D01*
X61861Y-42261D01*
X61846Y-42249D01*
X61832Y-42236D01*
X61817Y-42216D01*
X61805Y-42198D01*
X61801Y-42187D01*
X61796Y-42173D01*
X61787Y-42151D01*
X61776Y-42123D01*
X61765Y-42101D01*
X61749Y-42066D01*
X61730Y-42025D01*
X61711Y-41984D01*
X61700Y-41960D01*
X61684Y-41926D01*
X61666Y-41892D01*
X61649Y-41862D01*
X61637Y-41844D01*
X61623Y-41822D01*
X61613Y-41802D01*
X61609Y-41788D01*
X61608Y-41786D01*
X61606Y-41773D01*
X61603Y-41767D01*
X61592Y-41767D01*
X61576Y-41771D01*
X61561Y-41779D01*
X61554Y-41787D01*
X61545Y-41795D01*
X61540Y-41796D01*
X61530Y-41801D01*
X61522Y-41814D01*
X61520Y-41826D01*
X61521Y-41829D01*
X61524Y-41839D01*
X61526Y-41858D01*
X61527Y-41873D01*
X61528Y-41892D01*
X61531Y-41921D01*
X61533Y-41957D01*
X61537Y-41996D01*
X61539Y-42023D01*
X61543Y-42071D01*
X61544Y-42108D01*
X61544Y-42136D01*
X61542Y-42158D01*
X61537Y-42175D01*
X61530Y-42189D01*
X61523Y-42199D01*
X61509Y-42214D01*
X61492Y-42220D01*
X61488Y-42220D01*
X61472Y-42217D01*
X61459Y-42209D01*
X61446Y-42192D01*
X61432Y-42168D01*
X61428Y-42159D01*
X61424Y-42150D01*
X61422Y-42140D01*
X61420Y-42126D01*
X61419Y-42108D01*
X61418Y-42083D01*
X61418Y-42051D01*
X61418Y-42008D01*
X61418Y-41956D01*
X61419Y-41903D01*
X61420Y-41849D01*
X61421Y-41798D01*
X61422Y-41751D01*
X61423Y-41712D01*
X61424Y-41689D01*
X61426Y-41642D01*
X61428Y-41590D01*
X61428Y-41535D01*
X61428Y-41478D01*
X61428Y-41423D01*
X61426Y-41370D01*
X61424Y-41322D01*
X61422Y-41280D01*
X61419Y-41248D01*
X61415Y-41227D01*
X61410Y-41198D01*
X61410Y-41180D01*
X61411Y-41175D01*
X61416Y-41165D01*
X61420Y-41146D01*
X61422Y-41131D01*
X61426Y-41098D01*
X61430Y-41076D01*
X61435Y-41061D01*
X61440Y-41052D01*
X61448Y-41046D01*
X61453Y-41043D01*
X61476Y-41034D01*
X61509Y-41026D01*
X61550Y-41019D01*
X61595Y-41013D01*
X61619Y-41011D01*
X61648Y-41009D01*
X61667Y-41009D01*
X61683Y-41011D01*
X61697Y-41016D01*
X61716Y-41026D01*
X61720Y-41028D01*
X61752Y-41048D01*
X61777Y-41073D01*
X61796Y-41103D01*
X61810Y-41142D01*
X61821Y-41190D01*
X61826Y-41225D01*
X61829Y-41260D01*
X61831Y-41302D01*
X61832Y-41347D01*
X61831Y-41393D01*
X61830Y-41435D01*
X61827Y-41469D01*
X61824Y-41487D01*
X61815Y-41521D01*
X61801Y-41557D01*
X61780Y-41598D01*
X61752Y-41644D01*
X61751Y-41645D01*
X61751Y-41388D01*
X61746Y-41317D01*
X61742Y-41286D01*
X61735Y-41242D01*
X61727Y-41208D01*
X61719Y-41182D01*
X61708Y-41164D01*
X61694Y-41149D01*
X61675Y-41136D01*
X61655Y-41125D01*
X61640Y-41118D01*
X61627Y-41115D01*
X61612Y-41114D01*
X61589Y-41117D01*
X61576Y-41119D01*
X61547Y-41124D01*
X61527Y-41130D01*
X61514Y-41138D01*
X61510Y-41142D01*
X61496Y-41157D01*
X61503Y-41397D01*
X61505Y-41453D01*
X61507Y-41506D01*
X61508Y-41554D01*
X61509Y-41596D01*
X61510Y-41630D01*
X61511Y-41654D01*
X61511Y-41667D01*
X61511Y-41697D01*
X61538Y-41691D01*
X61565Y-41680D01*
X61592Y-41660D01*
X61593Y-41659D01*
X61615Y-41641D01*
X61641Y-41621D01*
X61656Y-41611D01*
X61692Y-41582D01*
X61719Y-41546D01*
X61738Y-41502D01*
X61748Y-41450D01*
X61751Y-41388D01*
X61751Y-41645D01*
X61715Y-41697D01*
X61695Y-41725D01*
X61688Y-41738D01*
X61685Y-41750D01*
X61689Y-41765D01*
X61699Y-41784D01*
X61716Y-41811D01*
X61718Y-41814D01*
X61752Y-41869D01*
X61774Y-41919D01*
X61784Y-41953D01*
X61791Y-41975D01*
X61799Y-41994D01*
X61803Y-42001D01*
X61809Y-42009D01*
X61806Y-42009D01*
X61804Y-42008D01*
X61803Y-42010D01*
X61807Y-42018D01*
X61814Y-42030D01*
X61823Y-42042D01*
X61830Y-42050D01*
X61831Y-42050D01*
X61836Y-42057D01*
X61846Y-42072D01*
X61860Y-42093D01*
X61871Y-42109D01*
X61887Y-42133D01*
X61902Y-42155D01*
X61913Y-42169D01*
X61917Y-42174D01*
X61929Y-42193D01*
X61929Y-42214D01*
X61929Y-42214D01*
X61929Y-42214D01*
G37*
G36*
X60943Y-41096D02*
X60936Y-41125D01*
X60930Y-41141D01*
X60920Y-41181D01*
X60917Y-41217D01*
X60917Y-41241D01*
X60915Y-41275D01*
X60914Y-41317D01*
X60911Y-41365D01*
X60908Y-41417D01*
X60905Y-41472D01*
X60902Y-41527D01*
X60899Y-41580D01*
X60895Y-41630D01*
X60892Y-41673D01*
X60889Y-41710D01*
X60887Y-41736D01*
X60885Y-41747D01*
X60872Y-41832D01*
X60859Y-41904D01*
X60846Y-41964D01*
X60833Y-42013D01*
X60820Y-42051D01*
X60806Y-42079D01*
X60792Y-42097D01*
X60791Y-42098D01*
X60756Y-42122D01*
X60715Y-42138D01*
X60665Y-42145D01*
X60660Y-42146D01*
X60631Y-42146D01*
X60609Y-42145D01*
X60588Y-42139D01*
X60570Y-42132D01*
X60529Y-42111D01*
X60496Y-42083D01*
X60471Y-42048D01*
X60454Y-42005D01*
X60444Y-41952D01*
X60440Y-41891D01*
X60443Y-41818D01*
X60443Y-41815D01*
X60445Y-41771D01*
X60447Y-41719D01*
X60447Y-41668D01*
X60446Y-41626D01*
X60445Y-41559D01*
X60448Y-41482D01*
X60454Y-41394D01*
X60463Y-41293D01*
X60468Y-41242D01*
X60473Y-41210D01*
X60478Y-41186D01*
X60486Y-41165D01*
X60497Y-41144D01*
X60500Y-41140D01*
X60518Y-41112D01*
X60537Y-41095D01*
X60553Y-41088D01*
X60566Y-41092D01*
X60575Y-41107D01*
X60575Y-41107D01*
X60580Y-41134D01*
X60583Y-41169D01*
X60584Y-41206D01*
X60582Y-41242D01*
X60578Y-41272D01*
X60577Y-41278D01*
X60561Y-41359D01*
X60554Y-41449D01*
X60553Y-41513D01*
X60554Y-41582D01*
X60555Y-41642D01*
X60555Y-41693D01*
X60555Y-41739D01*
X60554Y-41783D01*
X60553Y-41827D01*
X60553Y-41849D01*
X60550Y-41950D01*
X60570Y-41986D01*
X60582Y-42006D01*
X60593Y-42017D01*
X60606Y-42024D01*
X60622Y-42029D01*
X60652Y-42035D01*
X60674Y-42036D01*
X60691Y-42032D01*
X60707Y-42022D01*
X60712Y-42017D01*
X60722Y-42007D01*
X60732Y-41993D01*
X60739Y-41976D01*
X60746Y-41955D01*
X60752Y-41927D01*
X60757Y-41893D01*
X60761Y-41851D01*
X60765Y-41799D01*
X60768Y-41738D01*
X60772Y-41665D01*
X60774Y-41610D01*
X60777Y-41540D01*
X60781Y-41482D01*
X60786Y-41435D01*
X60791Y-41398D01*
X60793Y-41386D01*
X60799Y-41351D01*
X60804Y-41310D01*
X60808Y-41269D01*
X60809Y-41252D01*
X60813Y-41201D01*
X60822Y-41160D01*
X60835Y-41124D01*
X60855Y-41089D01*
X60863Y-41078D01*
X60884Y-41056D01*
X60903Y-41046D01*
X60922Y-41050D01*
X60933Y-41059D01*
X60942Y-41075D01*
X60943Y-41096D01*
X60943Y-41096D01*
X60943Y-41096D01*
G37*
G36*
X63037Y-41837D02*
X63035Y-41847D01*
X63031Y-41858D01*
X63026Y-41867D01*
X63010Y-41888D01*
X62989Y-41897D01*
X62962Y-41896D01*
X62930Y-41883D01*
X62897Y-41861D01*
X62884Y-41852D01*
X62872Y-41840D01*
X62859Y-41826D01*
X62844Y-41808D01*
X62825Y-41783D01*
X62803Y-41752D01*
X62776Y-41712D01*
X62746Y-41670D01*
X62736Y-41657D01*
X62728Y-41651D01*
X62726Y-41651D01*
X62724Y-41651D01*
X62725Y-41648D01*
X62724Y-41639D01*
X62713Y-41626D01*
X62710Y-41623D01*
X62697Y-41608D01*
X62691Y-41595D01*
X62690Y-41593D01*
X62687Y-41584D01*
X62683Y-41585D01*
X62678Y-41585D01*
X62679Y-41580D01*
X62678Y-41569D01*
X62674Y-41566D01*
X62666Y-41558D01*
X62659Y-41548D01*
X62659Y-41137D01*
X62657Y-41114D01*
X62653Y-41083D01*
X62653Y-41080D01*
X62644Y-41032D01*
X62632Y-40994D01*
X62613Y-40960D01*
X62587Y-40928D01*
X62573Y-40913D01*
X62540Y-40881D01*
X62463Y-40881D01*
X62427Y-40881D01*
X62400Y-40883D01*
X62380Y-40886D01*
X62364Y-40891D01*
X62359Y-40893D01*
X62343Y-40901D01*
X62333Y-40907D01*
X62332Y-40909D01*
X62334Y-40918D01*
X62340Y-40937D01*
X62349Y-40965D01*
X62360Y-41000D01*
X62374Y-41040D01*
X62389Y-41085D01*
X62405Y-41131D01*
X62422Y-41178D01*
X62438Y-41223D01*
X62453Y-41266D01*
X62466Y-41303D01*
X62478Y-41335D01*
X62487Y-41358D01*
X62492Y-41372D01*
X62493Y-41374D01*
X62501Y-41381D01*
X62508Y-41381D01*
X62520Y-41375D01*
X62527Y-41371D01*
X62543Y-41360D01*
X62563Y-41341D01*
X62584Y-41319D01*
X62594Y-41308D01*
X62614Y-41285D01*
X62627Y-41267D01*
X62636Y-41250D01*
X62643Y-41230D01*
X62649Y-41204D01*
X62655Y-41177D01*
X62658Y-41156D01*
X62659Y-41137D01*
X62659Y-41548D01*
X62655Y-41543D01*
X62651Y-41536D01*
X62642Y-41520D01*
X62633Y-41511D01*
X62630Y-41510D01*
X62622Y-41514D01*
X62607Y-41525D01*
X62589Y-41541D01*
X62588Y-41542D01*
X62554Y-41574D01*
X62598Y-41762D01*
X62611Y-41816D01*
X62621Y-41858D01*
X62628Y-41890D01*
X62635Y-41914D01*
X62640Y-41931D01*
X62644Y-41941D01*
X62649Y-41947D01*
X62653Y-41950D01*
X62657Y-41952D01*
X62658Y-41952D01*
X62676Y-41957D01*
X62687Y-41969D01*
X62690Y-41990D01*
X62690Y-41996D01*
X62689Y-42015D01*
X62683Y-42026D01*
X62676Y-42032D01*
X62663Y-42039D01*
X62658Y-42043D01*
X62650Y-42045D01*
X62634Y-42043D01*
X62627Y-42042D01*
X62600Y-42036D01*
X62545Y-41904D01*
X62527Y-41862D01*
X62513Y-41826D01*
X62501Y-41794D01*
X62491Y-41764D01*
X62482Y-41731D01*
X62472Y-41694D01*
X62462Y-41649D01*
X62454Y-41614D01*
X62444Y-41569D01*
X62434Y-41527D01*
X62426Y-41490D01*
X62420Y-41460D01*
X62415Y-41439D01*
X62414Y-41431D01*
X62408Y-41411D01*
X62400Y-41387D01*
X62397Y-41379D01*
X62382Y-41342D01*
X62364Y-41298D01*
X62346Y-41250D01*
X62327Y-41199D01*
X62308Y-41146D01*
X62290Y-41094D01*
X62272Y-41044D01*
X62257Y-40997D01*
X62243Y-40955D01*
X62232Y-40921D01*
X62225Y-40894D01*
X62221Y-40878D01*
X62221Y-40876D01*
X62226Y-40864D01*
X62239Y-40850D01*
X62256Y-40839D01*
X62265Y-40835D01*
X62280Y-40828D01*
X62288Y-40823D01*
X62309Y-40809D01*
X62339Y-40797D01*
X62381Y-40787D01*
X62434Y-40778D01*
X62447Y-40776D01*
X62485Y-40772D01*
X62513Y-40769D01*
X62534Y-40768D01*
X62550Y-40769D01*
X62564Y-40772D01*
X62570Y-40773D01*
X62599Y-40787D01*
X62628Y-40810D01*
X62655Y-40839D01*
X62672Y-40868D01*
X62681Y-40884D01*
X62688Y-40895D01*
X62690Y-40897D01*
X62693Y-40904D01*
X62699Y-40921D01*
X62707Y-40947D01*
X62716Y-40979D01*
X62722Y-41001D01*
X62732Y-41036D01*
X62740Y-41067D01*
X62747Y-41092D01*
X62752Y-41108D01*
X62754Y-41112D01*
X62762Y-41144D01*
X62762Y-41183D01*
X62759Y-41216D01*
X62756Y-41240D01*
X62754Y-41262D01*
X62755Y-41270D01*
X62754Y-41282D01*
X62750Y-41285D01*
X62749Y-41286D01*
X62749Y-41272D01*
X62746Y-41268D01*
X62742Y-41272D01*
X62746Y-41275D01*
X62749Y-41272D01*
X62749Y-41286D01*
X62745Y-41288D01*
X62740Y-41301D01*
X62740Y-41303D01*
X62734Y-41324D01*
X62725Y-41346D01*
X62723Y-41350D01*
X62717Y-41371D01*
X62717Y-41388D01*
X62724Y-41397D01*
X62730Y-41399D01*
X62737Y-41404D01*
X62740Y-41410D01*
X62745Y-41418D01*
X62757Y-41434D01*
X62775Y-41459D01*
X62798Y-41490D01*
X62825Y-41527D01*
X62856Y-41568D01*
X62890Y-41612D01*
X62890Y-41613D01*
X62930Y-41665D01*
X62962Y-41708D01*
X62988Y-41743D01*
X63007Y-41771D01*
X63021Y-41793D01*
X63030Y-41811D01*
X63035Y-41825D01*
X63037Y-41837D01*
X63037Y-41837D01*
X63037Y-41837D01*
G37*
G36*
X59979Y-41172D02*
X59979Y-41210D01*
X59978Y-41238D01*
X59977Y-41258D01*
X59974Y-41272D01*
X59970Y-41284D01*
X59964Y-41295D01*
X59962Y-41299D01*
X59943Y-41325D01*
X59923Y-41338D01*
X59902Y-41338D01*
X59893Y-41334D01*
X59874Y-41324D01*
X59876Y-41226D01*
X59878Y-41128D01*
X59813Y-41130D01*
X59777Y-41132D01*
X59751Y-41136D01*
X59730Y-41143D01*
X59712Y-41155D01*
X59693Y-41173D01*
X59685Y-41182D01*
X59660Y-41214D01*
X59643Y-41253D01*
X59631Y-41300D01*
X59630Y-41304D01*
X59625Y-41323D01*
X59615Y-41348D01*
X59604Y-41374D01*
X59604Y-41374D01*
X59594Y-41398D01*
X59582Y-41431D01*
X59569Y-41472D01*
X59557Y-41518D01*
X59545Y-41565D01*
X59534Y-41612D01*
X59533Y-41617D01*
X59524Y-41659D01*
X59518Y-41690D01*
X59514Y-41713D01*
X59512Y-41731D01*
X59511Y-41746D01*
X59513Y-41759D01*
X59515Y-41775D01*
X59519Y-41793D01*
X59526Y-41829D01*
X59533Y-41853D01*
X59540Y-41869D01*
X59547Y-41876D01*
X59557Y-41877D01*
X59561Y-41877D01*
X59583Y-41867D01*
X59607Y-41849D01*
X59630Y-41826D01*
X59643Y-41809D01*
X59653Y-41791D01*
X59664Y-41765D01*
X59675Y-41736D01*
X59679Y-41723D01*
X59695Y-41682D01*
X59713Y-41645D01*
X59733Y-41614D01*
X59753Y-41592D01*
X59767Y-41583D01*
X59786Y-41578D01*
X59803Y-41579D01*
X59816Y-41583D01*
X59821Y-41590D01*
X59823Y-41605D01*
X59823Y-41610D01*
X59821Y-41629D01*
X59816Y-41657D01*
X59808Y-41692D01*
X59798Y-41731D01*
X59788Y-41770D01*
X59777Y-41807D01*
X59767Y-41839D01*
X59758Y-41864D01*
X59754Y-41871D01*
X59728Y-41917D01*
X59700Y-41953D01*
X59673Y-41978D01*
X59654Y-41988D01*
X59632Y-41998D01*
X59613Y-42009D01*
X59607Y-42012D01*
X59583Y-42022D01*
X59552Y-42023D01*
X59517Y-42017D01*
X59517Y-42016D01*
X59500Y-42009D01*
X59478Y-41995D01*
X59460Y-41982D01*
X59442Y-41965D01*
X59431Y-41951D01*
X59424Y-41935D01*
X59419Y-41912D01*
X59410Y-41840D01*
X59407Y-41762D01*
X59411Y-41681D01*
X59415Y-41642D01*
X59420Y-41603D01*
X59427Y-41564D01*
X59437Y-41524D01*
X59448Y-41481D01*
X59464Y-41433D01*
X59482Y-41378D01*
X59506Y-41314D01*
X59523Y-41268D01*
X59547Y-41206D01*
X59569Y-41153D01*
X59590Y-41110D01*
X59612Y-41074D01*
X59634Y-41044D01*
X59658Y-41017D01*
X59686Y-40993D01*
X59702Y-40980D01*
X59753Y-40945D01*
X59799Y-40920D01*
X59838Y-40906D01*
X59862Y-40903D01*
X59885Y-40906D01*
X59904Y-40916D01*
X59921Y-40935D01*
X59937Y-40963D01*
X59954Y-41003D01*
X59956Y-41009D01*
X59965Y-41034D01*
X59971Y-41054D01*
X59975Y-41072D01*
X59978Y-41092D01*
X59979Y-41116D01*
X59979Y-41148D01*
X59979Y-41172D01*
X59979Y-41172D01*
X59979Y-41172D01*
G37*
G36*
X58617Y-40891D02*
X58616Y-40931D01*
X58613Y-40971D01*
X58608Y-41008D01*
X58602Y-41040D01*
X58596Y-41063D01*
X58593Y-41070D01*
X58584Y-41082D01*
X58568Y-41100D01*
X58547Y-41123D01*
X58522Y-41148D01*
X58496Y-41174D01*
X58471Y-41199D01*
X58471Y-40967D01*
X58470Y-40938D01*
X58462Y-40905D01*
X58458Y-40895D01*
X58449Y-40874D01*
X58435Y-40850D01*
X58420Y-40825D01*
X58404Y-40802D01*
X58388Y-40782D01*
X58377Y-40770D01*
X58370Y-40767D01*
X58362Y-40770D01*
X58355Y-40775D01*
X58350Y-40782D01*
X58339Y-40798D01*
X58323Y-40823D01*
X58305Y-40853D01*
X58283Y-40888D01*
X58260Y-40926D01*
X58237Y-40965D01*
X58214Y-41004D01*
X58193Y-41040D01*
X58174Y-41072D01*
X58158Y-41099D01*
X58147Y-41119D01*
X58142Y-41129D01*
X58142Y-41131D01*
X58147Y-41138D01*
X58163Y-41147D01*
X58185Y-41155D01*
X58211Y-41161D01*
X58223Y-41164D01*
X58255Y-41168D01*
X58277Y-41169D01*
X58295Y-41167D01*
X58312Y-41162D01*
X58333Y-41152D01*
X58335Y-41151D01*
X58381Y-41121D01*
X58419Y-41080D01*
X58447Y-41034D01*
X58464Y-40998D01*
X58471Y-40967D01*
X58471Y-41199D01*
X58470Y-41199D01*
X58447Y-41221D01*
X58429Y-41237D01*
X58416Y-41247D01*
X58414Y-41248D01*
X58352Y-41271D01*
X58295Y-41286D01*
X58240Y-41293D01*
X58183Y-41293D01*
X58176Y-41292D01*
X58148Y-41290D01*
X58122Y-41287D01*
X58103Y-41285D01*
X58099Y-41285D01*
X58092Y-41283D01*
X58086Y-41284D01*
X58079Y-41289D01*
X58072Y-41299D01*
X58062Y-41316D01*
X58048Y-41341D01*
X58031Y-41375D01*
X58012Y-41411D01*
X57993Y-41446D01*
X57975Y-41476D01*
X57960Y-41500D01*
X57954Y-41507D01*
X57941Y-41526D01*
X57933Y-41541D01*
X57930Y-41550D01*
X57931Y-41550D01*
X57931Y-41560D01*
X57923Y-41568D01*
X57908Y-41573D01*
X57892Y-41574D01*
X57876Y-41570D01*
X57867Y-41564D01*
X57862Y-41553D01*
X57860Y-41535D01*
X57859Y-41506D01*
X57860Y-41492D01*
X57861Y-41468D01*
X57862Y-41449D01*
X57865Y-41432D01*
X57871Y-41415D01*
X57881Y-41393D01*
X57894Y-41365D01*
X57903Y-41348D01*
X57915Y-41325D01*
X57932Y-41292D01*
X57954Y-41251D01*
X57980Y-41203D01*
X58009Y-41151D01*
X58040Y-41095D01*
X58072Y-41038D01*
X58092Y-41001D01*
X58123Y-40946D01*
X58152Y-40894D01*
X58179Y-40847D01*
X58203Y-40804D01*
X58222Y-40767D01*
X58238Y-40739D01*
X58248Y-40719D01*
X58252Y-40711D01*
X58264Y-40692D01*
X58282Y-40671D01*
X58303Y-40650D01*
X58324Y-40632D01*
X58342Y-40621D01*
X58347Y-40619D01*
X58355Y-40618D01*
X58366Y-40620D01*
X58380Y-40625D01*
X58399Y-40635D01*
X58424Y-40650D01*
X58459Y-40671D01*
X58477Y-40683D01*
X58512Y-40705D01*
X58538Y-40721D01*
X58556Y-40735D01*
X58570Y-40747D01*
X58581Y-40759D01*
X58591Y-40773D01*
X58597Y-40783D01*
X58606Y-40797D01*
X58612Y-40809D01*
X58615Y-40823D01*
X58617Y-40841D01*
X58617Y-40867D01*
X58617Y-40891D01*
X58617Y-40891D01*
X58617Y-40891D01*
G37*
G36*
X63991Y-41125D02*
X63991Y-41137D01*
X63987Y-41152D01*
X63987Y-41152D01*
X63978Y-41171D01*
X63964Y-41185D01*
X63950Y-41192D01*
X63934Y-41201D01*
X63923Y-41208D01*
X63922Y-41211D01*
X63916Y-41215D01*
X63909Y-41216D01*
X63900Y-41219D01*
X63899Y-41223D01*
X63898Y-41229D01*
X63893Y-41230D01*
X63881Y-41231D01*
X63878Y-41232D01*
X63870Y-41235D01*
X63854Y-41243D01*
X63833Y-41253D01*
X63809Y-41265D01*
X63786Y-41277D01*
X63769Y-41286D01*
X63753Y-41294D01*
X63737Y-41300D01*
X63724Y-41309D01*
X63722Y-41317D01*
X63723Y-41326D01*
X63716Y-41325D01*
X63708Y-41319D01*
X63702Y-41315D01*
X63700Y-41319D01*
X63695Y-41325D01*
X63692Y-41325D01*
X63686Y-41329D01*
X63686Y-41334D01*
X63686Y-41339D01*
X63681Y-41336D01*
X63669Y-41333D01*
X63647Y-41333D01*
X63640Y-41334D01*
X63606Y-41338D01*
X63581Y-41338D01*
X63560Y-41334D01*
X63540Y-41327D01*
X63519Y-41315D01*
X63497Y-41298D01*
X63486Y-41290D01*
X63480Y-41284D01*
X63474Y-41276D01*
X63467Y-41265D01*
X63458Y-41251D01*
X63448Y-41232D01*
X63436Y-41208D01*
X63421Y-41177D01*
X63403Y-41139D01*
X63381Y-41092D01*
X63355Y-41036D01*
X63325Y-40970D01*
X63299Y-40913D01*
X63270Y-40849D01*
X63242Y-40787D01*
X63216Y-40730D01*
X63193Y-40677D01*
X63173Y-40631D01*
X63156Y-40592D01*
X63144Y-40562D01*
X63136Y-40541D01*
X63132Y-40532D01*
X63130Y-40515D01*
X63130Y-40500D01*
X63135Y-40486D01*
X63146Y-40472D01*
X63163Y-40456D01*
X63188Y-40436D01*
X63223Y-40411D01*
X63237Y-40401D01*
X63282Y-40369D01*
X63319Y-40342D01*
X63348Y-40319D01*
X63367Y-40303D01*
X63377Y-40293D01*
X63378Y-40290D01*
X63382Y-40288D01*
X63396Y-40287D01*
X63403Y-40287D01*
X63425Y-40283D01*
X63454Y-40273D01*
X63479Y-40262D01*
X63504Y-40251D01*
X63527Y-40243D01*
X63543Y-40239D01*
X63545Y-40239D01*
X63564Y-40244D01*
X63577Y-40259D01*
X63581Y-40281D01*
X63580Y-40294D01*
X63578Y-40303D01*
X63572Y-40312D01*
X63563Y-40322D01*
X63547Y-40335D01*
X63524Y-40353D01*
X63492Y-40375D01*
X63487Y-40380D01*
X63451Y-40405D01*
X63415Y-40431D01*
X63380Y-40456D01*
X63351Y-40477D01*
X63341Y-40485D01*
X63285Y-40526D01*
X63284Y-40570D01*
X63284Y-40586D01*
X63285Y-40600D01*
X63287Y-40615D01*
X63293Y-40632D01*
X63301Y-40654D01*
X63314Y-40683D01*
X63331Y-40722D01*
X63333Y-40726D01*
X63351Y-40767D01*
X63365Y-40797D01*
X63376Y-40818D01*
X63385Y-40831D01*
X63391Y-40837D01*
X63395Y-40838D01*
X63405Y-40835D01*
X63424Y-40827D01*
X63450Y-40814D01*
X63482Y-40798D01*
X63516Y-40780D01*
X63550Y-40761D01*
X63580Y-40745D01*
X63605Y-40732D01*
X63622Y-40724D01*
X63629Y-40721D01*
X63629Y-40721D01*
X63638Y-40726D01*
X63650Y-40739D01*
X63663Y-40756D01*
X63674Y-40774D01*
X63680Y-40789D01*
X63681Y-40792D01*
X63679Y-40808D01*
X63676Y-40822D01*
X63668Y-40834D01*
X63654Y-40845D01*
X63633Y-40858D01*
X63604Y-40874D01*
X63564Y-40893D01*
X63560Y-40894D01*
X63526Y-40910D01*
X63496Y-40925D01*
X63472Y-40937D01*
X63457Y-40945D01*
X63451Y-40948D01*
X63451Y-40956D01*
X63456Y-40973D01*
X63466Y-40997D01*
X63478Y-41024D01*
X63492Y-41053D01*
X63506Y-41081D01*
X63519Y-41106D01*
X63531Y-41125D01*
X63539Y-41134D01*
X63552Y-41145D01*
X63563Y-41149D01*
X63579Y-41150D01*
X63595Y-41149D01*
X63632Y-41145D01*
X63665Y-41140D01*
X63692Y-41135D01*
X63707Y-41130D01*
X63728Y-41122D01*
X63754Y-41111D01*
X63781Y-41099D01*
X63807Y-41086D01*
X63829Y-41074D01*
X63844Y-41065D01*
X63850Y-41059D01*
X63850Y-41059D01*
X63854Y-41055D01*
X63856Y-41056D01*
X63866Y-41056D01*
X63881Y-41052D01*
X63884Y-41051D01*
X63904Y-41045D01*
X63924Y-41047D01*
X63931Y-41049D01*
X63947Y-41056D01*
X63960Y-41067D01*
X63973Y-41086D01*
X63976Y-41091D01*
X63987Y-41111D01*
X63991Y-41125D01*
X63991Y-41125D01*
X63991Y-41125D01*
G37*
G36*
X57806Y-40359D02*
X57802Y-40382D01*
X57788Y-40402D01*
X57773Y-40414D01*
X57758Y-40421D01*
X57755Y-40421D01*
X57743Y-40419D01*
X57724Y-40411D01*
X57698Y-40399D01*
X57664Y-40380D01*
X57620Y-40354D01*
X57602Y-40344D01*
X57583Y-40333D01*
X57568Y-40326D01*
X57562Y-40323D01*
X57556Y-40329D01*
X57543Y-40342D01*
X57526Y-40363D01*
X57506Y-40389D01*
X57484Y-40418D01*
X57461Y-40449D01*
X57440Y-40478D01*
X57421Y-40506D01*
X57406Y-40529D01*
X57395Y-40545D01*
X57392Y-40554D01*
X57397Y-40557D01*
X57402Y-40558D01*
X57412Y-40561D01*
X57430Y-40569D01*
X57455Y-40580D01*
X57477Y-40591D01*
X57511Y-40610D01*
X57535Y-40625D01*
X57550Y-40639D01*
X57555Y-40646D01*
X57564Y-40672D01*
X57561Y-40699D01*
X57546Y-40723D01*
X57536Y-40736D01*
X57534Y-40745D01*
X57534Y-40745D01*
X57530Y-40750D01*
X57516Y-40752D01*
X57496Y-40752D01*
X57473Y-40749D01*
X57450Y-40745D01*
X57447Y-40744D01*
X57428Y-40737D01*
X57413Y-40728D01*
X57397Y-40714D01*
X57378Y-40692D01*
X57361Y-40671D01*
X57344Y-40653D01*
X57332Y-40642D01*
X57330Y-40640D01*
X57323Y-40636D01*
X57316Y-40637D01*
X57309Y-40643D01*
X57298Y-40657D01*
X57282Y-40679D01*
X57267Y-40703D01*
X57254Y-40724D01*
X57246Y-40741D01*
X57245Y-40745D01*
X57236Y-40763D01*
X57224Y-40775D01*
X57213Y-40787D01*
X57196Y-40806D01*
X57177Y-40831D01*
X57156Y-40859D01*
X57136Y-40886D01*
X57120Y-40911D01*
X57114Y-40922D01*
X57104Y-40940D01*
X57100Y-40954D01*
X57103Y-40968D01*
X57105Y-40975D01*
X57111Y-40992D01*
X57121Y-41001D01*
X57136Y-41005D01*
X57154Y-41009D01*
X57180Y-41018D01*
X57213Y-41028D01*
X57250Y-41041D01*
X57287Y-41054D01*
X57323Y-41068D01*
X57353Y-41079D01*
X57377Y-41089D01*
X57387Y-41094D01*
X57403Y-41105D01*
X57410Y-41116D01*
X57412Y-41130D01*
X57406Y-41153D01*
X57397Y-41164D01*
X57386Y-41173D01*
X57379Y-41176D01*
X57371Y-41175D01*
X57355Y-41172D01*
X57350Y-41170D01*
X57332Y-41166D01*
X57306Y-41158D01*
X57277Y-41147D01*
X57265Y-41143D01*
X57235Y-41132D01*
X57205Y-41122D01*
X57181Y-41114D01*
X57174Y-41112D01*
X57160Y-41108D01*
X57139Y-41101D01*
X57111Y-41091D01*
X57080Y-41080D01*
X57049Y-41068D01*
X57020Y-41057D01*
X56995Y-41048D01*
X56978Y-41041D01*
X56970Y-41037D01*
X56969Y-41031D01*
X56967Y-41015D01*
X56965Y-40994D01*
X56960Y-40952D01*
X56995Y-40913D01*
X57010Y-40896D01*
X57021Y-40882D01*
X57031Y-40867D01*
X57042Y-40849D01*
X57053Y-40826D01*
X57068Y-40794D01*
X57075Y-40780D01*
X57084Y-40763D01*
X57100Y-40737D01*
X57122Y-40703D01*
X57148Y-40663D01*
X57179Y-40619D01*
X57212Y-40571D01*
X57246Y-40521D01*
X57282Y-40471D01*
X57317Y-40422D01*
X57351Y-40376D01*
X57382Y-40333D01*
X57410Y-40296D01*
X57434Y-40265D01*
X57452Y-40243D01*
X57461Y-40233D01*
X57496Y-40198D01*
X57530Y-40202D01*
X57563Y-40210D01*
X57588Y-40225D01*
X57605Y-40237D01*
X57619Y-40244D01*
X57624Y-40245D01*
X57635Y-40247D01*
X57654Y-40252D01*
X57679Y-40259D01*
X57691Y-40262D01*
X57722Y-40273D01*
X57745Y-40283D01*
X57763Y-40296D01*
X57774Y-40306D01*
X57796Y-40334D01*
X57806Y-40359D01*
X57806Y-40359D01*
X57806Y-40359D01*
G37*
G36*
X61589Y-40985D02*
X61586Y-40988D01*
X61582Y-40985D01*
X61586Y-40982D01*
X61589Y-40985D01*
X61589Y-40985D01*
X61589Y-40985D01*
G37*
G36*
X64864Y-40327D02*
X64862Y-40348D01*
X64853Y-40362D01*
X64845Y-40365D01*
X64831Y-40368D01*
X64809Y-40372D01*
X64797Y-40375D01*
X64778Y-40378D01*
X64763Y-40378D01*
X64747Y-40374D01*
X64726Y-40365D01*
X64719Y-40363D01*
X64696Y-40353D01*
X64676Y-40346D01*
X64664Y-40343D01*
X64664Y-40343D01*
X64654Y-40340D01*
X64652Y-40337D01*
X64646Y-40333D01*
X64631Y-40324D01*
X64607Y-40312D01*
X64577Y-40298D01*
X64549Y-40285D01*
X64511Y-40267D01*
X64465Y-40245D01*
X64415Y-40220D01*
X64365Y-40195D01*
X64318Y-40170D01*
X64313Y-40167D01*
X64275Y-40147D01*
X64241Y-40130D01*
X64213Y-40115D01*
X64192Y-40105D01*
X64180Y-40099D01*
X64177Y-40098D01*
X64179Y-40105D01*
X64185Y-40120D01*
X64194Y-40141D01*
X64197Y-40148D01*
X64210Y-40172D01*
X64230Y-40206D01*
X64259Y-40248D01*
X64295Y-40299D01*
X64331Y-40348D01*
X64376Y-40410D01*
X64415Y-40467D01*
X64448Y-40517D01*
X64475Y-40561D01*
X64494Y-40597D01*
X64507Y-40624D01*
X64511Y-40643D01*
X64511Y-40647D01*
X64503Y-40660D01*
X64485Y-40678D01*
X64457Y-40700D01*
X64447Y-40708D01*
X64438Y-40708D01*
X64421Y-40702D01*
X64398Y-40693D01*
X64385Y-40687D01*
X64329Y-40661D01*
X64186Y-40456D01*
X64154Y-40410D01*
X64123Y-40367D01*
X64095Y-40328D01*
X64072Y-40294D01*
X64052Y-40267D01*
X64039Y-40249D01*
X64032Y-40239D01*
X64031Y-40239D01*
X64023Y-40228D01*
X64020Y-40223D01*
X64016Y-40216D01*
X64006Y-40201D01*
X63991Y-40179D01*
X63971Y-40150D01*
X63948Y-40117D01*
X63934Y-40097D01*
X63848Y-39975D01*
X63830Y-39903D01*
X63823Y-39874D01*
X63818Y-39850D01*
X63816Y-39833D01*
X63816Y-39827D01*
X63825Y-39824D01*
X63842Y-39819D01*
X63865Y-39813D01*
X63867Y-39813D01*
X63890Y-39808D01*
X63906Y-39806D01*
X63918Y-39807D01*
X63930Y-39813D01*
X63939Y-39819D01*
X63958Y-39828D01*
X63973Y-39834D01*
X63977Y-39835D01*
X63990Y-39838D01*
X64005Y-39847D01*
X64005Y-39847D01*
X64022Y-39858D01*
X64039Y-39868D01*
X64057Y-39880D01*
X64079Y-39893D01*
X64106Y-39908D01*
X64140Y-39927D01*
X64180Y-39949D01*
X64230Y-39976D01*
X64271Y-39998D01*
X64318Y-40023D01*
X64362Y-40047D01*
X64402Y-40069D01*
X64435Y-40087D01*
X64462Y-40102D01*
X64479Y-40111D01*
X64486Y-40115D01*
X64501Y-40123D01*
X64523Y-40136D01*
X64548Y-40149D01*
X64550Y-40151D01*
X64596Y-40176D01*
X64494Y-40062D01*
X64458Y-40020D01*
X64418Y-39972D01*
X64376Y-39921D01*
X64336Y-39870D01*
X64301Y-39824D01*
X64296Y-39818D01*
X64268Y-39780D01*
X64240Y-39743D01*
X64215Y-39710D01*
X64194Y-39682D01*
X64178Y-39661D01*
X64172Y-39653D01*
X64152Y-39625D01*
X64144Y-39601D01*
X64147Y-39582D01*
X64156Y-39571D01*
X64174Y-39563D01*
X64197Y-39563D01*
X64223Y-39571D01*
X64246Y-39584D01*
X64257Y-39594D01*
X64274Y-39613D01*
X64296Y-39638D01*
X64321Y-39667D01*
X64345Y-39696D01*
X64371Y-39727D01*
X64395Y-39755D01*
X64416Y-39779D01*
X64432Y-39796D01*
X64441Y-39805D01*
X64451Y-39815D01*
X64467Y-39834D01*
X64484Y-39858D01*
X64495Y-39874D01*
X64513Y-39900D01*
X64541Y-39935D01*
X64577Y-39978D01*
X64622Y-40029D01*
X64676Y-40089D01*
X64691Y-40105D01*
X64738Y-40157D01*
X64778Y-40202D01*
X64810Y-40239D01*
X64835Y-40268D01*
X64851Y-40290D01*
X64859Y-40302D01*
X64859Y-40302D01*
X64864Y-40327D01*
X64864Y-40327D01*
X64864Y-40327D01*
G37*
G36*
X57076Y-39815D02*
X57074Y-39827D01*
X57069Y-39840D01*
X57058Y-39860D01*
X57042Y-39877D01*
X57039Y-39880D01*
X57025Y-39889D01*
X57012Y-39891D01*
X56999Y-39886D01*
X56947Y-39860D01*
X56905Y-39826D01*
X56883Y-39799D01*
X56858Y-39765D01*
X56838Y-39740D01*
X56822Y-39727D01*
X56815Y-39724D01*
X56807Y-39728D01*
X56794Y-39740D01*
X56779Y-39755D01*
X56766Y-39771D01*
X56756Y-39783D01*
X56753Y-39789D01*
X56750Y-39795D01*
X56739Y-39810D01*
X56723Y-39830D01*
X56704Y-39855D01*
X56701Y-39858D01*
X56679Y-39886D01*
X56658Y-39915D01*
X56642Y-39940D01*
X56632Y-39957D01*
X56620Y-39978D01*
X56607Y-39996D01*
X56599Y-40004D01*
X56588Y-40013D01*
X56584Y-40019D01*
X56589Y-40025D01*
X56602Y-40035D01*
X56621Y-40048D01*
X56642Y-40062D01*
X56663Y-40076D01*
X56681Y-40087D01*
X56692Y-40093D01*
X56693Y-40093D01*
X56704Y-40099D01*
X56722Y-40109D01*
X56744Y-40122D01*
X56745Y-40123D01*
X56765Y-40136D01*
X56778Y-40146D01*
X56784Y-40156D01*
X56786Y-40170D01*
X56787Y-40178D01*
X56786Y-40206D01*
X56778Y-40224D01*
X56761Y-40235D01*
X56733Y-40239D01*
X56726Y-40239D01*
X56704Y-40238D01*
X56687Y-40234D01*
X56671Y-40227D01*
X56651Y-40212D01*
X56650Y-40211D01*
X56627Y-40193D01*
X56599Y-40171D01*
X56573Y-40149D01*
X56569Y-40146D01*
X56548Y-40129D01*
X56531Y-40116D01*
X56518Y-40109D01*
X56516Y-40108D01*
X56507Y-40114D01*
X56493Y-40130D01*
X56475Y-40155D01*
X56454Y-40187D01*
X56438Y-40211D01*
X56426Y-40229D01*
X56407Y-40252D01*
X56385Y-40277D01*
X56366Y-40297D01*
X56339Y-40326D01*
X56320Y-40347D01*
X56307Y-40364D01*
X56300Y-40378D01*
X56298Y-40391D01*
X56297Y-40400D01*
X56299Y-40411D01*
X56305Y-40421D01*
X56317Y-40432D01*
X56339Y-40447D01*
X56342Y-40449D01*
X56363Y-40462D01*
X56389Y-40477D01*
X56417Y-40491D01*
X56444Y-40504D01*
X56466Y-40513D01*
X56481Y-40519D01*
X56483Y-40519D01*
X56491Y-40522D01*
X56506Y-40531D01*
X56521Y-40540D01*
X56553Y-40560D01*
X56549Y-40605D01*
X56547Y-40628D01*
X56544Y-40647D01*
X56542Y-40656D01*
X56532Y-40661D01*
X56513Y-40662D01*
X56490Y-40660D01*
X56465Y-40656D01*
X56444Y-40648D01*
X56441Y-40647D01*
X56380Y-40614D01*
X56322Y-40575D01*
X56264Y-40532D01*
X56239Y-40512D01*
X56217Y-40496D01*
X56200Y-40485D01*
X56191Y-40480D01*
X56191Y-40480D01*
X56180Y-40476D01*
X56166Y-40465D01*
X56158Y-40458D01*
X56145Y-40445D01*
X56138Y-40433D01*
X56135Y-40418D01*
X56134Y-40396D01*
X56136Y-40374D01*
X56140Y-40353D01*
X56149Y-40330D01*
X56162Y-40305D01*
X56181Y-40276D01*
X56206Y-40243D01*
X56238Y-40204D01*
X56278Y-40157D01*
X56318Y-40112D01*
X56341Y-40087D01*
X56368Y-40053D01*
X56399Y-40015D01*
X56431Y-39976D01*
X56461Y-39937D01*
X56462Y-39937D01*
X56520Y-39862D01*
X56573Y-39795D01*
X56619Y-39737D01*
X56660Y-39688D01*
X56694Y-39649D01*
X56721Y-39619D01*
X56742Y-39599D01*
X56751Y-39592D01*
X56768Y-39582D01*
X56781Y-39578D01*
X56794Y-39579D01*
X56812Y-39585D01*
X56836Y-39596D01*
X56865Y-39615D01*
X56896Y-39642D01*
X56924Y-39666D01*
X56956Y-39693D01*
X56986Y-39716D01*
X56996Y-39724D01*
X57021Y-39743D01*
X57043Y-39764D01*
X57059Y-39782D01*
X57063Y-39787D01*
X57073Y-39804D01*
X57076Y-39815D01*
X57076Y-39815D01*
X57076Y-39815D01*
G37*
G36*
X56421Y-39215D02*
X56420Y-39226D01*
X56417Y-39235D01*
X56411Y-39245D01*
X56400Y-39254D01*
X56383Y-39264D01*
X56359Y-39275D01*
X56327Y-39287D01*
X56286Y-39302D01*
X56234Y-39321D01*
X56198Y-39334D01*
X56144Y-39352D01*
X56101Y-39368D01*
X56068Y-39380D01*
X56043Y-39389D01*
X56025Y-39397D01*
X56013Y-39403D01*
X56005Y-39409D01*
X55999Y-39414D01*
X55996Y-39420D01*
X55995Y-39423D01*
X55988Y-39440D01*
X55985Y-39453D01*
X55985Y-39454D01*
X55981Y-39464D01*
X55973Y-39482D01*
X55961Y-39504D01*
X55959Y-39508D01*
X55944Y-39533D01*
X55932Y-39558D01*
X55924Y-39578D01*
X55923Y-39578D01*
X55915Y-39600D01*
X55905Y-39621D01*
X55904Y-39625D01*
X55896Y-39644D01*
X55891Y-39668D01*
X55890Y-39673D01*
X55887Y-39693D01*
X55881Y-39722D01*
X55871Y-39758D01*
X55861Y-39797D01*
X55849Y-39837D01*
X55838Y-39875D01*
X55827Y-39907D01*
X55824Y-39915D01*
X55815Y-39941D01*
X55803Y-39975D01*
X55790Y-40011D01*
X55782Y-40033D01*
X55769Y-40068D01*
X55759Y-40092D01*
X55749Y-40109D01*
X55738Y-40121D01*
X55736Y-40123D01*
X55710Y-40138D01*
X55684Y-40141D01*
X55660Y-40131D01*
X55650Y-40122D01*
X55634Y-40100D01*
X55622Y-40070D01*
X55614Y-40038D01*
X55613Y-40020D01*
X55615Y-40008D01*
X55621Y-39986D01*
X55630Y-39955D01*
X55643Y-39918D01*
X55657Y-39877D01*
X55668Y-39846D01*
X55683Y-39803D01*
X55697Y-39762D01*
X55709Y-39727D01*
X55719Y-39698D01*
X55725Y-39678D01*
X55727Y-39671D01*
X55732Y-39651D01*
X55739Y-39627D01*
X55743Y-39616D01*
X55750Y-39598D01*
X55758Y-39573D01*
X55767Y-39545D01*
X55775Y-39518D01*
X55782Y-39493D01*
X55787Y-39475D01*
X55789Y-39467D01*
X55784Y-39466D01*
X55776Y-39470D01*
X55760Y-39477D01*
X55751Y-39479D01*
X55730Y-39484D01*
X55714Y-39492D01*
X55699Y-39504D01*
X55684Y-39523D01*
X55667Y-39551D01*
X55654Y-39575D01*
X55634Y-39608D01*
X55613Y-39641D01*
X55592Y-39671D01*
X55577Y-39691D01*
X55560Y-39711D01*
X55548Y-39728D01*
X55542Y-39739D01*
X55541Y-39741D01*
X55537Y-39752D01*
X55530Y-39762D01*
X55520Y-39774D01*
X55507Y-39793D01*
X55496Y-39808D01*
X55478Y-39831D01*
X55457Y-39848D01*
X55430Y-39863D01*
X55409Y-39874D01*
X55394Y-39880D01*
X55385Y-39881D01*
X55376Y-39877D01*
X55369Y-39873D01*
X55349Y-39856D01*
X55337Y-39834D01*
X55332Y-39804D01*
X55332Y-39783D01*
X55340Y-39734D01*
X55361Y-39685D01*
X55395Y-39634D01*
X55441Y-39583D01*
X55470Y-39552D01*
X55489Y-39529D01*
X55498Y-39511D01*
X55499Y-39509D01*
X55506Y-39493D01*
X55519Y-39473D01*
X55534Y-39454D01*
X55546Y-39440D01*
X55565Y-39416D01*
X55588Y-39386D01*
X55614Y-39351D01*
X55642Y-39313D01*
X55659Y-39291D01*
X55701Y-39235D01*
X55743Y-39180D01*
X55784Y-39131D01*
X55821Y-39089D01*
X55828Y-39081D01*
X55857Y-39051D01*
X55884Y-39022D01*
X55909Y-38994D01*
X55928Y-38972D01*
X55936Y-38964D01*
X55972Y-38921D01*
X56002Y-38889D01*
X56029Y-38865D01*
X56052Y-38850D01*
X56074Y-38841D01*
X56096Y-38838D01*
X56099Y-38838D01*
X56116Y-38840D01*
X56124Y-38846D01*
X56126Y-38851D01*
X56132Y-38861D01*
X56138Y-38864D01*
X56147Y-38870D01*
X56153Y-38886D01*
X56154Y-38900D01*
X56150Y-38917D01*
X56141Y-38942D01*
X56127Y-38971D01*
X56111Y-39000D01*
X56095Y-39027D01*
X56079Y-39049D01*
X56068Y-39061D01*
X56053Y-39075D01*
X56044Y-39086D01*
X56043Y-39090D01*
X56040Y-39096D01*
X56038Y-39097D01*
X56031Y-39100D01*
X56018Y-39113D01*
X56000Y-39132D01*
X55979Y-39157D01*
X55956Y-39185D01*
X55950Y-39193D01*
X55931Y-39217D01*
X55908Y-39245D01*
X55884Y-39271D01*
X55880Y-39276D01*
X55863Y-39296D01*
X55850Y-39312D01*
X55844Y-39322D01*
X55844Y-39325D01*
X55851Y-39323D01*
X55867Y-39317D01*
X55891Y-39307D01*
X55920Y-39293D01*
X55933Y-39287D01*
X55969Y-39268D01*
X55994Y-39254D01*
X56009Y-39243D01*
X56014Y-39237D01*
X56014Y-39236D01*
X56013Y-39230D01*
X56019Y-39234D01*
X56029Y-39238D01*
X56045Y-39235D01*
X56050Y-39232D01*
X56069Y-39226D01*
X56094Y-39220D01*
X56112Y-39216D01*
X56133Y-39211D01*
X56164Y-39202D01*
X56198Y-39193D01*
X56229Y-39183D01*
X56278Y-39168D01*
X56320Y-39157D01*
X56354Y-39149D01*
X56378Y-39145D01*
X56391Y-39146D01*
X56401Y-39155D01*
X56410Y-39172D01*
X56418Y-39193D01*
X56421Y-39213D01*
X56421Y-39215D01*
X56421Y-39215D01*
X56421Y-39215D01*
G37*
G36*
X65597Y-39941D02*
X65594Y-39953D01*
X65586Y-39970D01*
X65581Y-39980D01*
X65570Y-39997D01*
X65560Y-40005D01*
X65545Y-40008D01*
X65540Y-40009D01*
X65520Y-40007D01*
X65494Y-40002D01*
X65479Y-39997D01*
X65458Y-39989D01*
X65441Y-39983D01*
X65434Y-39981D01*
X65428Y-39975D01*
X65416Y-39960D01*
X65396Y-39936D01*
X65372Y-39904D01*
X65341Y-39866D01*
X65307Y-39821D01*
X65269Y-39772D01*
X65227Y-39718D01*
X65184Y-39660D01*
X65170Y-39642D01*
X65126Y-39584D01*
X65084Y-39529D01*
X65045Y-39478D01*
X65009Y-39433D01*
X64978Y-39393D01*
X64951Y-39359D01*
X64930Y-39333D01*
X64916Y-39316D01*
X64908Y-39308D01*
X64907Y-39307D01*
X64902Y-39303D01*
X64902Y-39301D01*
X64900Y-39294D01*
X64891Y-39280D01*
X64878Y-39260D01*
X64862Y-39237D01*
X64844Y-39213D01*
X64828Y-39192D01*
X64814Y-39174D01*
X64808Y-39168D01*
X64802Y-39170D01*
X64789Y-39180D01*
X64770Y-39194D01*
X64747Y-39213D01*
X64724Y-39232D01*
X64701Y-39252D01*
X64681Y-39271D01*
X64671Y-39281D01*
X64655Y-39296D01*
X64635Y-39314D01*
X64614Y-39332D01*
X64594Y-39348D01*
X64577Y-39360D01*
X64566Y-39367D01*
X64562Y-39367D01*
X64557Y-39357D01*
X64547Y-39343D01*
X64536Y-39327D01*
X64524Y-39306D01*
X64512Y-39285D01*
X64503Y-39266D01*
X64499Y-39252D01*
X64499Y-39248D01*
X64505Y-39242D01*
X64520Y-39230D01*
X64541Y-39212D01*
X64569Y-39190D01*
X64600Y-39166D01*
X64608Y-39159D01*
X64652Y-39123D01*
X64700Y-39083D01*
X64750Y-39040D01*
X64799Y-38996D01*
X64847Y-38953D01*
X64890Y-38912D01*
X64927Y-38876D01*
X64956Y-38845D01*
X64961Y-38840D01*
X64980Y-38820D01*
X64992Y-38808D01*
X65000Y-38803D01*
X65005Y-38805D01*
X65007Y-38807D01*
X65016Y-38816D01*
X65021Y-38818D01*
X65027Y-38824D01*
X65035Y-38838D01*
X65040Y-38847D01*
X65046Y-38863D01*
X65049Y-38878D01*
X65046Y-38893D01*
X65038Y-38910D01*
X65022Y-38930D01*
X65000Y-38955D01*
X64968Y-38988D01*
X64960Y-38996D01*
X64881Y-39076D01*
X64952Y-39158D01*
X64975Y-39185D01*
X64996Y-39208D01*
X65012Y-39225D01*
X65023Y-39235D01*
X65026Y-39236D01*
X65029Y-39237D01*
X65029Y-39239D01*
X65032Y-39246D01*
X65043Y-39260D01*
X65061Y-39283D01*
X65084Y-39312D01*
X65111Y-39346D01*
X65142Y-39383D01*
X65175Y-39424D01*
X65210Y-39466D01*
X65245Y-39508D01*
X65279Y-39549D01*
X65312Y-39588D01*
X65342Y-39624D01*
X65369Y-39655D01*
X65391Y-39681D01*
X65408Y-39699D01*
X65418Y-39709D01*
X65420Y-39711D01*
X65426Y-39716D01*
X65424Y-39717D01*
X65421Y-39720D01*
X65424Y-39722D01*
X65431Y-39729D01*
X65443Y-39743D01*
X65459Y-39761D01*
X65475Y-39780D01*
X65489Y-39797D01*
X65499Y-39810D01*
X65500Y-39812D01*
X65507Y-39820D01*
X65519Y-39834D01*
X65530Y-39848D01*
X65561Y-39885D01*
X65582Y-39913D01*
X65594Y-39932D01*
X65597Y-39941D01*
X65597Y-39941D01*
X65597Y-39941D01*
G37*
G36*
X63779Y-38157D02*
X63775Y-38160D01*
X63772Y-38157D01*
X63775Y-38153D01*
X63779Y-38157D01*
X63779Y-38157D01*
X63779Y-38157D01*
G37*
G36*
X67448Y-35664D02*
X67445Y-35677D01*
X67439Y-35694D01*
X67431Y-35710D01*
X67424Y-35720D01*
X67421Y-35723D01*
X67416Y-35728D01*
X67408Y-35742D01*
X67400Y-35758D01*
X67397Y-35762D01*
X67394Y-35767D01*
X67389Y-35773D01*
X67383Y-35781D01*
X67374Y-35791D01*
X67363Y-35802D01*
X67349Y-35816D01*
X67333Y-35833D01*
X67313Y-35852D01*
X67290Y-35875D01*
X67263Y-35901D01*
X67232Y-35931D01*
X67196Y-35965D01*
X67156Y-36004D01*
X67110Y-36046D01*
X67060Y-36094D01*
X67003Y-36147D01*
X66941Y-36205D01*
X66873Y-36269D01*
X66798Y-36339D01*
X66716Y-36416D01*
X66628Y-36499D01*
X66532Y-36588D01*
X66428Y-36685D01*
X66316Y-36789D01*
X66196Y-36901D01*
X66068Y-37021D01*
X65930Y-37149D01*
X65784Y-37285D01*
X65732Y-37334D01*
X65656Y-37405D01*
X65654Y-37296D01*
X65654Y-37259D01*
X65654Y-37225D01*
X65655Y-37197D01*
X65656Y-37178D01*
X65657Y-37171D01*
X65658Y-37154D01*
X65655Y-37142D01*
X65652Y-37133D01*
X65654Y-37130D01*
X65656Y-37124D01*
X65658Y-37107D01*
X65659Y-37082D01*
X65661Y-37052D01*
X65661Y-37045D01*
X65663Y-36960D01*
X65630Y-36984D01*
X65613Y-36997D01*
X65601Y-37008D01*
X65597Y-37014D01*
X65592Y-37019D01*
X65590Y-37019D01*
X65584Y-37023D01*
X65568Y-37034D01*
X65543Y-37053D01*
X65508Y-37079D01*
X65464Y-37113D01*
X65410Y-37154D01*
X65346Y-37203D01*
X65272Y-37260D01*
X65189Y-37324D01*
X65095Y-37396D01*
X64991Y-37476D01*
X64877Y-37565D01*
X64754Y-37661D01*
X64724Y-37683D01*
X64676Y-37721D01*
X64631Y-37755D01*
X64590Y-37787D01*
X64554Y-37813D01*
X64524Y-37835D01*
X64502Y-37851D01*
X64488Y-37861D01*
X64483Y-37863D01*
X64482Y-37856D01*
X64481Y-37837D01*
X64479Y-37809D01*
X64478Y-37773D01*
X64477Y-37732D01*
X64476Y-37693D01*
X64473Y-37527D01*
X64118Y-37832D01*
X64059Y-37882D01*
X64004Y-37929D01*
X63952Y-37974D01*
X63905Y-38015D01*
X63864Y-38052D01*
X63828Y-38084D01*
X63800Y-38109D01*
X63779Y-38128D01*
X63766Y-38141D01*
X63763Y-38145D01*
X63763Y-38152D01*
X63759Y-38151D01*
X63754Y-38148D01*
X63749Y-38138D01*
X63749Y-38116D01*
X63750Y-38111D01*
X63753Y-38086D01*
X63755Y-38062D01*
X63755Y-38056D01*
X63758Y-38037D01*
X63761Y-38023D01*
X63761Y-38023D01*
X63763Y-38014D01*
X63766Y-37994D01*
X63770Y-37965D01*
X63775Y-37927D01*
X63781Y-37883D01*
X63788Y-37834D01*
X63791Y-37808D01*
X63799Y-37747D01*
X63806Y-37697D01*
X63811Y-37657D01*
X63815Y-37626D01*
X63818Y-37602D01*
X63821Y-37584D01*
X63823Y-37570D01*
X63824Y-37559D01*
X63825Y-37549D01*
X63827Y-37539D01*
X63828Y-37534D01*
X63832Y-37505D01*
X64028Y-37348D01*
X64068Y-37317D01*
X64117Y-37278D01*
X64173Y-37233D01*
X64234Y-37184D01*
X64300Y-37132D01*
X64368Y-37077D01*
X64438Y-37022D01*
X64507Y-36967D01*
X64574Y-36913D01*
X64586Y-36903D01*
X64948Y-36614D01*
X64952Y-36646D01*
X64953Y-36666D01*
X64952Y-36683D01*
X64951Y-36688D01*
X64948Y-36697D01*
X64945Y-36718D01*
X64941Y-36746D01*
X64937Y-36779D01*
X64936Y-36795D01*
X64931Y-36839D01*
X64925Y-36887D01*
X64920Y-36933D01*
X64915Y-36973D01*
X64915Y-36975D01*
X64911Y-37007D01*
X64909Y-37035D01*
X64907Y-37056D01*
X64907Y-37067D01*
X64907Y-37067D01*
X64912Y-37065D01*
X64928Y-37056D01*
X64954Y-37038D01*
X64990Y-37013D01*
X65037Y-36980D01*
X65093Y-36940D01*
X65160Y-36892D01*
X65238Y-36836D01*
X65325Y-36772D01*
X65423Y-36701D01*
X65483Y-36657D01*
X65560Y-36601D01*
X65633Y-36547D01*
X65704Y-36496D01*
X65770Y-36448D01*
X65830Y-36404D01*
X65886Y-36363D01*
X65935Y-36328D01*
X65977Y-36297D01*
X66011Y-36273D01*
X66037Y-36254D01*
X66053Y-36242D01*
X66060Y-36238D01*
X66060Y-36238D01*
X66063Y-36243D01*
X66066Y-36257D01*
X66067Y-36276D01*
X66068Y-36294D01*
X66067Y-36308D01*
X66065Y-36313D01*
X66061Y-36321D01*
X66061Y-36327D01*
X66061Y-36337D01*
X66060Y-36357D01*
X66060Y-36387D01*
X66058Y-36423D01*
X66057Y-36465D01*
X66056Y-36487D01*
X66055Y-36529D01*
X66054Y-36567D01*
X66054Y-36598D01*
X66054Y-36620D01*
X66054Y-36633D01*
X66055Y-36635D01*
X66061Y-36631D01*
X66076Y-36621D01*
X66100Y-36605D01*
X66130Y-36583D01*
X66167Y-36558D01*
X66210Y-36528D01*
X66256Y-36496D01*
X66304Y-36463D01*
X66355Y-36427D01*
X66406Y-36392D01*
X66456Y-36357D01*
X66505Y-36323D01*
X66550Y-36291D01*
X66592Y-36261D01*
X66629Y-36236D01*
X66659Y-36214D01*
X66682Y-36198D01*
X66697Y-36187D01*
X66701Y-36184D01*
X66709Y-36179D01*
X66725Y-36167D01*
X66748Y-36151D01*
X66776Y-36131D01*
X66799Y-36115D01*
X66830Y-36093D01*
X66868Y-36065D01*
X66911Y-36033D01*
X66957Y-35998D01*
X67003Y-35963D01*
X67046Y-35929D01*
X67084Y-35899D01*
X67115Y-35873D01*
X67120Y-35869D01*
X67132Y-35858D01*
X67150Y-35844D01*
X67174Y-35825D01*
X67205Y-35800D01*
X67245Y-35769D01*
X67268Y-35751D01*
X67299Y-35727D01*
X67326Y-35706D01*
X67348Y-35688D01*
X67363Y-35676D01*
X67369Y-35671D01*
X67377Y-35664D01*
X67391Y-35653D01*
X67408Y-35640D01*
X67423Y-35629D01*
X67434Y-35622D01*
X67440Y-35620D01*
X67440Y-35629D01*
X67439Y-35630D01*
X67439Y-35643D01*
X67442Y-35648D01*
X67447Y-35657D01*
X67448Y-35664D01*
X67448Y-35664D01*
X67448Y-35664D01*
G37*
G36*
X57510Y-38129D02*
X57509Y-38139D01*
X57508Y-38140D01*
X57502Y-38136D01*
X57489Y-38127D01*
X57483Y-38123D01*
X57469Y-38111D01*
X57459Y-38102D01*
X57458Y-38100D01*
X57454Y-38098D01*
X57450Y-38102D01*
X57445Y-38105D01*
X57440Y-38096D01*
X57438Y-38093D01*
X57429Y-38078D01*
X57419Y-38069D01*
X57404Y-38059D01*
X57397Y-38054D01*
X57390Y-38047D01*
X57374Y-38033D01*
X57351Y-38015D01*
X57324Y-37993D01*
X57304Y-37978D01*
X57280Y-37958D01*
X57247Y-37932D01*
X57208Y-37900D01*
X57163Y-37864D01*
X57115Y-37826D01*
X57065Y-37786D01*
X57015Y-37746D01*
X57005Y-37738D01*
X56960Y-37701D01*
X56917Y-37667D01*
X56879Y-37637D01*
X56846Y-37612D01*
X56820Y-37591D01*
X56801Y-37577D01*
X56790Y-37570D01*
X56788Y-37569D01*
X56787Y-37577D01*
X56788Y-37595D01*
X56789Y-37619D01*
X56792Y-37647D01*
X56796Y-37675D01*
X56799Y-37699D01*
X56803Y-37718D01*
X56806Y-37727D01*
X56810Y-37735D01*
X56806Y-37736D01*
X56802Y-37740D01*
X56805Y-37748D01*
X56809Y-37760D01*
X56808Y-37764D01*
X56808Y-37772D01*
X56811Y-37777D01*
X56815Y-37788D01*
X56818Y-37809D01*
X56819Y-37841D01*
X56820Y-37885D01*
X56819Y-37940D01*
X56819Y-37965D01*
X56817Y-37980D01*
X56815Y-37986D01*
X56810Y-37986D01*
X56804Y-37983D01*
X56791Y-37977D01*
X56784Y-37976D01*
X56780Y-37972D01*
X56779Y-37971D01*
X56776Y-37967D01*
X56773Y-37968D01*
X56768Y-37967D01*
X56768Y-37963D01*
X56764Y-37956D01*
X56758Y-37954D01*
X56746Y-37949D01*
X56738Y-37941D01*
X56729Y-37929D01*
X56713Y-37914D01*
X56698Y-37901D01*
X56680Y-37887D01*
X56654Y-37866D01*
X56620Y-37840D01*
X56579Y-37809D01*
X56533Y-37772D01*
X56481Y-37732D01*
X56425Y-37689D01*
X56366Y-37642D01*
X56303Y-37594D01*
X56239Y-37544D01*
X56174Y-37494D01*
X56109Y-37443D01*
X56044Y-37393D01*
X55981Y-37344D01*
X55920Y-37297D01*
X55862Y-37252D01*
X55808Y-37210D01*
X55758Y-37172D01*
X55714Y-37138D01*
X55677Y-37109D01*
X55647Y-37086D01*
X55624Y-37069D01*
X55611Y-37058D01*
X55607Y-37056D01*
X55603Y-37055D01*
X55601Y-37060D01*
X55601Y-37074D01*
X55602Y-37097D01*
X55603Y-37115D01*
X55606Y-37143D01*
X55609Y-37167D01*
X55613Y-37184D01*
X55615Y-37188D01*
X55619Y-37195D01*
X55614Y-37193D01*
X55614Y-37192D01*
X55609Y-37191D01*
X55607Y-37197D01*
X55608Y-37212D01*
X55610Y-37232D01*
X55612Y-37257D01*
X55614Y-37279D01*
X55615Y-37292D01*
X55618Y-37303D01*
X55622Y-37306D01*
X55623Y-37310D01*
X55621Y-37314D01*
X55614Y-37327D01*
X55612Y-37337D01*
X55610Y-37344D01*
X55606Y-37345D01*
X55597Y-37340D01*
X55582Y-37329D01*
X55571Y-37319D01*
X55547Y-37299D01*
X55524Y-37278D01*
X55506Y-37262D01*
X55496Y-37253D01*
X55478Y-37237D01*
X55452Y-37214D01*
X55419Y-37184D01*
X55379Y-37149D01*
X55333Y-37109D01*
X55282Y-37064D01*
X55227Y-37016D01*
X55169Y-36964D01*
X55108Y-36911D01*
X55098Y-36902D01*
X55037Y-36849D01*
X54978Y-36797D01*
X54923Y-36749D01*
X54871Y-36704D01*
X54825Y-36663D01*
X54784Y-36626D01*
X54749Y-36596D01*
X54721Y-36572D01*
X54702Y-36555D01*
X54691Y-36545D01*
X54690Y-36544D01*
X54672Y-36528D01*
X54649Y-36508D01*
X54625Y-36487D01*
X54622Y-36484D01*
X54609Y-36473D01*
X54587Y-36454D01*
X54558Y-36428D01*
X54522Y-36396D01*
X54481Y-36360D01*
X54436Y-36320D01*
X54387Y-36277D01*
X54336Y-36232D01*
X54316Y-36214D01*
X54266Y-36170D01*
X54219Y-36129D01*
X54175Y-36091D01*
X54135Y-36057D01*
X54102Y-36028D01*
X54075Y-36005D01*
X54055Y-35989D01*
X54043Y-35980D01*
X54041Y-35979D01*
X54031Y-35972D01*
X54029Y-35968D01*
X54024Y-35960D01*
X54011Y-35948D01*
X53998Y-35938D01*
X53980Y-35923D01*
X53965Y-35911D01*
X53959Y-35905D01*
X53953Y-35899D01*
X53951Y-35900D01*
X53948Y-35901D01*
X53939Y-35894D01*
X53922Y-35880D01*
X53897Y-35857D01*
X53889Y-35849D01*
X53871Y-35833D01*
X53858Y-35822D01*
X53851Y-35818D01*
X53851Y-35818D01*
X53846Y-35816D01*
X53840Y-35807D01*
X53829Y-35792D01*
X53816Y-35778D01*
X53799Y-35764D01*
X53833Y-35760D01*
X53855Y-35758D01*
X53875Y-35760D01*
X53881Y-35761D01*
X53897Y-35770D01*
X53911Y-35783D01*
X53918Y-35796D01*
X53918Y-35797D01*
X53923Y-35804D01*
X53924Y-35804D01*
X53931Y-35808D01*
X53943Y-35819D01*
X53947Y-35822D01*
X53960Y-35833D01*
X53969Y-35839D01*
X53971Y-35840D01*
X53979Y-35844D01*
X53988Y-35852D01*
X53998Y-35860D01*
X54017Y-35875D01*
X54045Y-35895D01*
X54080Y-35921D01*
X54121Y-35950D01*
X54167Y-35982D01*
X54217Y-36017D01*
X54245Y-36037D01*
X54270Y-36053D01*
X54291Y-36066D01*
X54306Y-36074D01*
X54313Y-36076D01*
X54315Y-36075D01*
X54314Y-36078D01*
X54317Y-36085D01*
X54328Y-36094D01*
X54333Y-36097D01*
X54347Y-36106D01*
X54355Y-36114D01*
X54355Y-36115D01*
X54359Y-36118D01*
X54362Y-36117D01*
X54368Y-36117D01*
X54368Y-36118D01*
X54373Y-36126D01*
X54386Y-36137D01*
X54404Y-36149D01*
X54423Y-36161D01*
X54440Y-36171D01*
X54452Y-36175D01*
X54454Y-36175D01*
X54458Y-36174D01*
X54457Y-36177D01*
X54458Y-36186D01*
X54466Y-36194D01*
X54476Y-36197D01*
X54477Y-36197D01*
X54482Y-36199D01*
X54482Y-36200D01*
X54487Y-36206D01*
X54500Y-36216D01*
X54505Y-36219D01*
X54524Y-36232D01*
X54541Y-36244D01*
X54561Y-36258D01*
X54585Y-36276D01*
X54595Y-36283D01*
X54621Y-36301D01*
X54648Y-36321D01*
X54668Y-36335D01*
X54692Y-36352D01*
X54716Y-36370D01*
X54728Y-36379D01*
X54744Y-36390D01*
X54757Y-36396D01*
X54761Y-36396D01*
X54766Y-36398D01*
X54766Y-36399D01*
X54771Y-36407D01*
X54784Y-36417D01*
X54800Y-36428D01*
X54817Y-36437D01*
X54829Y-36442D01*
X54833Y-36441D01*
X54837Y-36441D01*
X54835Y-36444D01*
X54838Y-36451D01*
X54850Y-36462D01*
X54867Y-36475D01*
X54869Y-36476D01*
X54888Y-36489D01*
X54902Y-36500D01*
X54909Y-36505D01*
X54909Y-36505D01*
X54918Y-36512D01*
X54933Y-36523D01*
X54950Y-36534D01*
X54967Y-36544D01*
X54979Y-36551D01*
X54983Y-36552D01*
X54987Y-36555D01*
X54987Y-36557D01*
X54991Y-36562D01*
X54992Y-36561D01*
X55000Y-36564D01*
X55011Y-36573D01*
X55023Y-36584D01*
X55042Y-36598D01*
X55060Y-36611D01*
X55079Y-36624D01*
X55106Y-36643D01*
X55135Y-36665D01*
X55163Y-36684D01*
X55189Y-36702D01*
X55210Y-36716D01*
X55226Y-36725D01*
X55233Y-36728D01*
X55233Y-36728D01*
X55233Y-36720D01*
X55229Y-36701D01*
X55224Y-36673D01*
X55217Y-36637D01*
X55209Y-36595D01*
X55199Y-36548D01*
X55196Y-36532D01*
X55186Y-36484D01*
X55177Y-36440D01*
X55169Y-36401D01*
X55163Y-36370D01*
X55159Y-36347D01*
X55157Y-36335D01*
X55157Y-36334D01*
X55163Y-36326D01*
X55180Y-36318D01*
X55193Y-36314D01*
X55228Y-36304D01*
X55280Y-36343D01*
X55303Y-36359D01*
X55322Y-36371D01*
X55335Y-36377D01*
X55339Y-36378D01*
X55345Y-36379D01*
X55346Y-36383D01*
X55347Y-36385D01*
X55350Y-36389D01*
X55356Y-36394D01*
X55366Y-36402D01*
X55379Y-36413D01*
X55396Y-36427D01*
X55418Y-36444D01*
X55446Y-36464D01*
X55478Y-36489D01*
X55517Y-36518D01*
X55563Y-36553D01*
X55616Y-36592D01*
X55676Y-36637D01*
X55744Y-36688D01*
X55821Y-36745D01*
X55907Y-36808D01*
X56002Y-36879D01*
X56108Y-36957D01*
X56124Y-36969D01*
X56173Y-37005D01*
X56220Y-37040D01*
X56263Y-37072D01*
X56300Y-37100D01*
X56332Y-37124D01*
X56357Y-37142D01*
X56373Y-37154D01*
X56377Y-37157D01*
X56392Y-37169D01*
X56399Y-37172D01*
X56400Y-37168D01*
X56398Y-37162D01*
X56395Y-37152D01*
X56390Y-37131D01*
X56381Y-37101D01*
X56371Y-37063D01*
X56358Y-37020D01*
X56345Y-36972D01*
X56337Y-36944D01*
X56323Y-36895D01*
X56310Y-36850D01*
X56300Y-36811D01*
X56291Y-36779D01*
X56285Y-36756D01*
X56282Y-36743D01*
X56281Y-36740D01*
X56288Y-36737D01*
X56304Y-36732D01*
X56326Y-36725D01*
X56331Y-36723D01*
X56379Y-36709D01*
X56914Y-37143D01*
X56987Y-37202D01*
X57057Y-37258D01*
X57123Y-37313D01*
X57186Y-37363D01*
X57243Y-37411D01*
X57294Y-37453D01*
X57340Y-37491D01*
X57378Y-37523D01*
X57409Y-37549D01*
X57432Y-37569D01*
X57446Y-37581D01*
X57451Y-37586D01*
X57455Y-37599D01*
X57460Y-37608D01*
X57466Y-37623D01*
X57463Y-37637D01*
X57461Y-37649D01*
X57461Y-37672D01*
X57464Y-37705D01*
X57468Y-37750D01*
X57470Y-37771D01*
X57475Y-37816D01*
X57479Y-37850D01*
X57482Y-37875D01*
X57484Y-37892D01*
X57486Y-37902D01*
X57488Y-37909D01*
X57489Y-37912D01*
X57490Y-37915D01*
X57493Y-37927D01*
X57493Y-37937D01*
X57494Y-37948D01*
X57499Y-37951D01*
X57501Y-37954D01*
X57498Y-37959D01*
X57494Y-37969D01*
X57498Y-37980D01*
X57500Y-37989D01*
X57502Y-38008D01*
X57505Y-38032D01*
X57507Y-38059D01*
X57509Y-38087D01*
X57510Y-38111D01*
X57510Y-38129D01*
X57510Y-38129D01*
X57510Y-38129D01*
G37*
G36*
X55587Y-37342D02*
X55584Y-37345D01*
X55580Y-37342D01*
X55584Y-37339D01*
X55587Y-37342D01*
X55587Y-37342D01*
X55587Y-37342D01*
G37*
G36*
X55633Y-37277D02*
X55629Y-37280D01*
X55626Y-37277D01*
X55629Y-37274D01*
X55633Y-37277D01*
X55633Y-37277D01*
X55633Y-37277D01*
G37*
G36*
X55626Y-37251D02*
X55623Y-37254D01*
X55620Y-37251D01*
X55623Y-37248D01*
X55626Y-37251D01*
X55626Y-37251D01*
X55626Y-37251D01*
G37*
G36*
X55633Y-37231D02*
X55629Y-37234D01*
X55626Y-37231D01*
X55629Y-37228D01*
X55633Y-37231D01*
X55633Y-37231D01*
X55633Y-37231D01*
G37*
G36*
X55623Y-37208D02*
X55622Y-37214D01*
X55620Y-37215D01*
X55613Y-37210D01*
X55613Y-37208D01*
X55615Y-37202D01*
X55616Y-37202D01*
X55621Y-37206D01*
X55623Y-37208D01*
X55623Y-37208D01*
X55623Y-37208D01*
G37*
G36*
X65649Y-37146D02*
X65646Y-37150D01*
X65642Y-37146D01*
X65646Y-37143D01*
X65649Y-37146D01*
X65649Y-37146D01*
X65649Y-37146D01*
G37*
G36*
X65655Y-37120D02*
X65652Y-37124D01*
X65649Y-37120D01*
X65652Y-37117D01*
X65655Y-37120D01*
X65655Y-37120D01*
X65655Y-37120D01*
G37*
G36*
X54538Y-36234D02*
X54534Y-36237D01*
X54531Y-36234D01*
X54534Y-36231D01*
X54538Y-36234D01*
X54538Y-36234D01*
X54538Y-36234D01*
G37*
G54D12*
X46734Y-32453D03*
X46734Y-32138D03*
X46734Y-31823D03*
X46734Y-31508D03*
X46734Y-31193D03*
X46734Y-30878D03*
X46734Y-30563D03*
X46734Y-30248D03*
X50500Y-30250D03*
X50500Y-32460D03*
X50500Y-32140D03*
X50500Y-31820D03*
X50500Y-31510D03*
X50500Y-31190D03*
X50500Y-30880D03*
X50500Y-30560D03*
G54D13*
X47518Y-29460D03*
X47832Y-29460D03*
X48148Y-29460D03*
X48462Y-29460D03*
X48778Y-29460D03*
X49092Y-29460D03*
X49408Y-29460D03*
X49722Y-29460D03*
X47520Y-33240D03*
X47830Y-33240D03*
X48150Y-33240D03*
X48460Y-33240D03*
X48770Y-33240D03*
X49090Y-33240D03*
X49410Y-33240D03*
X49730Y-33240D03*
G54D14*
X46960Y-36380D03*
X46960Y-37380D03*
X46960Y-38380D03*
X46960Y-39380D03*
X46960Y-40380D03*
X46960Y-41380D03*
X46960Y-42380D03*
X46960Y-43380D03*
X46960Y-44380D03*
X46960Y-45380D03*
X46960Y-46380D03*
X46960Y-47380D03*
X46960Y-48380D03*
G54D15*
X46960Y-35380D03*
G54D14*
X49960Y-48380D03*
X49960Y-47380D03*
X49960Y-46380D03*
X49960Y-45380D03*
X49960Y-44380D03*
X49960Y-43380D03*
X49960Y-42380D03*
X49960Y-41380D03*
X49960Y-40380D03*
X49960Y-39380D03*
X49960Y-38380D03*
X49960Y-37380D03*
X49960Y-36380D03*
X49960Y-35380D03*
X38070Y-37300D03*
X38070Y-38300D03*
X38070Y-39300D03*
X38070Y-40300D03*
X38070Y-41300D03*
X38070Y-42300D03*
X38070Y-43300D03*
X38070Y-44300D03*
X38070Y-45300D03*
X38070Y-46300D03*
X38070Y-47300D03*
X38070Y-48300D03*
X43070Y-48300D03*
X43070Y-47300D03*
X43070Y-46300D03*
X43070Y-45300D03*
X43070Y-44300D03*
X43070Y-43300D03*
X43070Y-42300D03*
X43070Y-41300D03*
X43070Y-40300D03*
X43070Y-39300D03*
X43070Y-38300D03*
X43070Y-37300D03*
X78255Y-33640D03*
X78255Y-34640D03*
X78255Y-35640D03*
X78255Y-36640D03*
X78255Y-37640D03*
X78255Y-38640D03*
X78255Y-39640D03*
X78255Y-40640D03*
X78255Y-41640D03*
X78255Y-42640D03*
X78255Y-43640D03*
X78255Y-44640D03*
X78255Y-45640D03*
X78255Y-46640D03*
X78255Y-47640D03*
X78255Y-48640D03*
X83255Y-48640D03*
X83255Y-47640D03*
X83255Y-46640D03*
X83255Y-45640D03*
X83255Y-44640D03*
X83255Y-43640D03*
X83255Y-42640D03*
X83255Y-41640D03*
X83255Y-40640D03*
X83255Y-39640D03*
X83255Y-38640D03*
X83255Y-37640D03*
X83255Y-36640D03*
X83255Y-35640D03*
X83255Y-34640D03*
X83255Y-33640D03*
X80675Y-32640D03*
G54D10*
G36*
X40560Y-42247D02*
X41397Y-43085D01*
X40560Y-43922D01*
X39722Y-43085D01*
X40560Y-42247D01*
X40560Y-42247D01*
G37*
G54D16*
X40274Y-42103D02*
X40428Y-42257D01*
X40135Y-42243D02*
X40288Y-42396D01*
X39996Y-42382D02*
X40149Y-42535D01*
X39857Y-42521D02*
X40010Y-42674D01*
X39718Y-42660D02*
X39871Y-42813D01*
X39578Y-42799D02*
X39732Y-42953D01*
X39578Y-43370D02*
X39732Y-43216D01*
X39718Y-43509D02*
X39871Y-43356D01*
X39857Y-43648D02*
X40010Y-43495D01*
X39996Y-43787D02*
X40149Y-43634D01*
X40135Y-43926D02*
X40288Y-43773D01*
X40274Y-44066D02*
X40428Y-43912D01*
X40845Y-44066D02*
X40691Y-43912D01*
X40984Y-43926D02*
X40831Y-43773D01*
X41123Y-43787D02*
X40970Y-43634D01*
X41262Y-43648D02*
X41109Y-43495D01*
X41401Y-43509D02*
X41248Y-43356D01*
X41541Y-43370D02*
X41387Y-43216D01*
X41541Y-42799D02*
X41387Y-42953D01*
X41401Y-42660D02*
X41248Y-42813D01*
X41262Y-42521D02*
X41109Y-42674D01*
X41123Y-42382D02*
X40970Y-42535D01*
X40984Y-42243D02*
X40831Y-42396D01*
X40845Y-42103D02*
X40691Y-42257D01*
G54D14*
X40570Y-36300D03*
G54D10*
G36*
X80735Y-40267D02*
X81088Y-39913D01*
X81300Y-40125D01*
X80947Y-40479D01*
X80735Y-40267D01*
X80735Y-40267D01*
G37*
G36*
X80874Y-40406D02*
X81227Y-40052D01*
X81440Y-40264D01*
X81086Y-40618D01*
X80874Y-40406D01*
X80874Y-40406D01*
G37*
G36*
X81013Y-40545D02*
X81367Y-40192D01*
X81579Y-40404D01*
X81225Y-40757D01*
X81013Y-40545D01*
X81013Y-40545D01*
G37*
G36*
X80595Y-40127D02*
X80949Y-39774D01*
X81161Y-39986D01*
X80807Y-40339D01*
X80595Y-40127D01*
X80595Y-40127D01*
G37*
G36*
X80532Y-40339D02*
X80178Y-39986D01*
X80390Y-39774D01*
X80744Y-40127D01*
X80532Y-40339D01*
X80532Y-40339D01*
G37*
G36*
X80392Y-40479D02*
X80039Y-40125D01*
X80251Y-39913D01*
X80604Y-40267D01*
X80392Y-40479D01*
X80392Y-40479D01*
G37*
G36*
X80253Y-40618D02*
X79899Y-40264D01*
X80112Y-40052D01*
X80465Y-40406D01*
X80253Y-40618D01*
X80253Y-40618D01*
G37*
G36*
X80114Y-40757D02*
X79760Y-40404D01*
X79972Y-40192D01*
X80326Y-40545D01*
X80114Y-40757D01*
X80114Y-40757D01*
G37*
G36*
X79975Y-40896D02*
X79622Y-40542D01*
X79834Y-40330D01*
X80187Y-40684D01*
X79975Y-40896D01*
X79975Y-40896D01*
G37*
G36*
X79836Y-41035D02*
X79482Y-40682D01*
X79694Y-40469D01*
X80048Y-40823D01*
X79836Y-41035D01*
X79836Y-41035D01*
G37*
G36*
X79697Y-41174D02*
X79343Y-40821D01*
X79555Y-40609D01*
X79909Y-40962D01*
X79697Y-41174D01*
X79697Y-41174D01*
G37*
G36*
X79557Y-41314D02*
X79204Y-40960D01*
X79416Y-40748D01*
X79769Y-41102D01*
X79557Y-41314D01*
X79557Y-41314D01*
G37*
G36*
X80178Y-42493D02*
X80532Y-42140D01*
X80744Y-42352D01*
X80390Y-42705D01*
X80178Y-42493D01*
X80178Y-42493D01*
G37*
G36*
X79204Y-41519D02*
X79557Y-41165D01*
X79769Y-41377D01*
X79416Y-41731D01*
X79204Y-41519D01*
X79204Y-41519D01*
G37*
G36*
X79343Y-41658D02*
X79697Y-41305D01*
X79909Y-41517D01*
X79555Y-41870D01*
X79343Y-41658D01*
X79343Y-41658D01*
G37*
G36*
X79482Y-41797D02*
X79836Y-41444D01*
X80048Y-41656D01*
X79694Y-42010D01*
X79482Y-41797D01*
X79482Y-41797D01*
G37*
G36*
X79622Y-41937D02*
X79975Y-41583D01*
X80187Y-41795D01*
X79834Y-42149D01*
X79622Y-41937D01*
X79622Y-41937D01*
G37*
G36*
X79760Y-42075D02*
X80114Y-41722D01*
X80326Y-41934D01*
X79972Y-42287D01*
X79760Y-42075D01*
X79760Y-42075D01*
G37*
G36*
X79899Y-42215D02*
X80253Y-41861D01*
X80465Y-42073D01*
X80112Y-42427D01*
X79899Y-42215D01*
X79899Y-42215D01*
G37*
G36*
X80039Y-42354D02*
X80392Y-42000D01*
X80604Y-42212D01*
X80251Y-42566D01*
X80039Y-42354D01*
X80039Y-42354D01*
G37*
G36*
X80949Y-42705D02*
X80595Y-42352D01*
X80807Y-42140D01*
X81161Y-42493D01*
X80949Y-42705D01*
X80949Y-42705D01*
G37*
G36*
X81088Y-42566D02*
X80735Y-42212D01*
X80947Y-42000D01*
X81300Y-42354D01*
X81088Y-42566D01*
X81088Y-42566D01*
G37*
G36*
X81227Y-42427D02*
X80874Y-42073D01*
X81086Y-41861D01*
X81440Y-42215D01*
X81227Y-42427D01*
X81227Y-42427D01*
G37*
G36*
X81367Y-42287D02*
X81013Y-41934D01*
X81225Y-41722D01*
X81579Y-42075D01*
X81367Y-42287D01*
X81367Y-42287D01*
G37*
G36*
X81505Y-42149D02*
X81152Y-41795D01*
X81364Y-41583D01*
X81717Y-41937D01*
X81505Y-42149D01*
X81505Y-42149D01*
G37*
G36*
X81645Y-42010D02*
X81291Y-41656D01*
X81503Y-41444D01*
X81857Y-41797D01*
X81645Y-42010D01*
X81645Y-42010D01*
G37*
G36*
X81784Y-41870D02*
X81430Y-41517D01*
X81642Y-41305D01*
X81996Y-41658D01*
X81784Y-41870D01*
X81784Y-41870D01*
G37*
G36*
X81923Y-41731D02*
X81570Y-41377D01*
X81782Y-41165D01*
X82135Y-41519D01*
X81923Y-41731D01*
X81923Y-41731D01*
G37*
G36*
X81570Y-41102D02*
X81923Y-40748D01*
X82135Y-40960D01*
X81782Y-41314D01*
X81570Y-41102D01*
X81570Y-41102D01*
G37*
G36*
X81430Y-40962D02*
X81784Y-40609D01*
X81996Y-40821D01*
X81642Y-41174D01*
X81430Y-40962D01*
X81430Y-40962D01*
G37*
G36*
X81291Y-40823D02*
X81645Y-40469D01*
X81857Y-40682D01*
X81503Y-41035D01*
X81291Y-40823D01*
X81291Y-40823D01*
G37*
G36*
X81152Y-40684D02*
X81505Y-40330D01*
X81717Y-40542D01*
X81364Y-40896D01*
X81152Y-40684D01*
X81152Y-40684D01*
G37*
G36*
X79693Y-41240D02*
X80670Y-40263D01*
X81646Y-41240D01*
X80670Y-42216D01*
X79693Y-41240D01*
X79693Y-41240D01*
G37*
G54D17*
X44460Y-30753D03*
X44460Y-30360D03*
X44460Y-29966D03*
X45030Y-30753D03*
X45030Y-30360D03*
X45030Y-29966D03*
X40466Y-35590D03*
X40860Y-35590D03*
X41253Y-35590D03*
X40476Y-34910D03*
X40870Y-34910D03*
X41263Y-34910D03*
X44450Y-42033D03*
X44450Y-41640D03*
X44450Y-41246D03*
X45060Y-42033D03*
X45060Y-41640D03*
X45060Y-41246D03*
X76450Y-29023D03*
X76450Y-28630D03*
X76450Y-28236D03*
X77040Y-29023D03*
X77040Y-28630D03*
X77040Y-28236D03*
X80226Y-31200D03*
X80620Y-31200D03*
X81013Y-31200D03*
X80206Y-31800D03*
X80600Y-31800D03*
X80993Y-31800D03*
X76410Y-35043D03*
X76410Y-34650D03*
X76410Y-34256D03*
X77060Y-35053D03*
X77060Y-34660D03*
X77060Y-34266D03*
X76450Y-44023D03*
X76450Y-43630D03*
X76450Y-43236D03*
X77060Y-44013D03*
X77060Y-43620D03*
X77060Y-43226D03*
X68450Y-44023D03*
X68450Y-43630D03*
X68450Y-43236D03*
X69050Y-44023D03*
X69050Y-43630D03*
X69050Y-43236D03*
X68420Y-32773D03*
X68420Y-32380D03*
X68420Y-31986D03*
X69070Y-32783D03*
X69070Y-32390D03*
X69070Y-31996D03*
X52430Y-32783D03*
X52430Y-32390D03*
X52430Y-31996D03*
X53060Y-32783D03*
X53060Y-32390D03*
X53060Y-31996D03*
X52470Y-44023D03*
X52470Y-43630D03*
X52470Y-43236D03*
X53030Y-44013D03*
X53030Y-43620D03*
X53030Y-43226D03*
G54D18*
X82500Y-51751D03*
X83000Y-51751D03*
X83500Y-51751D03*
X84000Y-51751D03*
X84500Y-51751D03*
X85000Y-51751D03*
X85500Y-51751D03*
X86000Y-51751D03*
X86500Y-51751D03*
X87000Y-51751D03*
X87500Y-51751D03*
X88050Y-51751D03*
X82500Y-48751D03*
X83000Y-48751D03*
X83500Y-48751D03*
X84000Y-48751D03*
X84500Y-48751D03*
X85000Y-48751D03*
X85500Y-48751D03*
X86000Y-48751D03*
X86500Y-48751D03*
X87000Y-48751D03*
X87500Y-48751D03*
X88000Y-48751D03*
M02*
