G04 (created by PCBNEW (2013-03-19 BZR 4004)-stable) date 8/12/2013 12:05:24 AM*
%MOIN*%
G04 Gerber Fmt 3.4, Leading zero omitted, Abs format*
%FSLAX34Y34*%
G01*
G70*
G90*
G04 APERTURE LIST*
%ADD10C,0*%
%ADD11C,0.075*%
%ADD12R,0.075X0.075*%
%ADD13C,0.039685*%
G04 APERTURE END LIST*
G54D10*
G54D11*
X46960Y-36380D03*
X46960Y-37380D03*
X46960Y-38380D03*
X46960Y-39380D03*
X46960Y-40380D03*
X46960Y-41380D03*
X46960Y-42380D03*
X46960Y-43380D03*
X46960Y-44380D03*
X46960Y-45380D03*
X46960Y-46380D03*
X46960Y-47380D03*
X46960Y-48380D03*
G54D12*
X46960Y-35380D03*
G54D11*
X49960Y-48380D03*
X49960Y-47380D03*
X49960Y-46380D03*
X49960Y-45380D03*
X49960Y-44380D03*
X49960Y-43380D03*
X49960Y-42380D03*
X49960Y-41380D03*
X49960Y-40380D03*
X49960Y-39380D03*
X49960Y-38380D03*
X49960Y-37380D03*
X49960Y-36380D03*
X49960Y-35380D03*
X38070Y-37300D03*
X38070Y-38300D03*
X38070Y-39300D03*
X38070Y-40300D03*
X38070Y-41300D03*
X38070Y-42300D03*
X38070Y-43300D03*
X38070Y-44300D03*
X38070Y-45300D03*
X38070Y-46300D03*
X38070Y-47300D03*
X38070Y-48300D03*
X43070Y-48300D03*
X43070Y-47300D03*
X43070Y-46300D03*
X43070Y-45300D03*
X43070Y-44300D03*
X43070Y-43300D03*
X43070Y-42300D03*
X43070Y-41300D03*
X43070Y-40300D03*
X43070Y-39300D03*
X43070Y-38300D03*
X43070Y-37300D03*
X78255Y-33640D03*
X78255Y-34640D03*
X78255Y-35640D03*
X78255Y-36640D03*
X78255Y-37640D03*
X78255Y-38640D03*
X78255Y-39640D03*
X78255Y-40640D03*
X78255Y-41640D03*
X78255Y-42640D03*
X78255Y-43640D03*
X78255Y-44640D03*
X78255Y-45640D03*
X78255Y-46640D03*
X78255Y-47640D03*
X78255Y-48640D03*
X83255Y-48640D03*
X83255Y-47640D03*
X83255Y-46640D03*
X83255Y-45640D03*
X83255Y-44640D03*
X83255Y-43640D03*
X83255Y-42640D03*
X83255Y-41640D03*
X83255Y-40640D03*
X83255Y-39640D03*
X83255Y-38640D03*
X83255Y-37640D03*
X83255Y-36640D03*
X83255Y-35640D03*
X83255Y-34640D03*
X83255Y-33640D03*
X80675Y-32640D03*
G54D10*
G36*
X40560Y-42247D02*
X41397Y-43085D01*
X40560Y-43922D01*
X39722Y-43085D01*
X40560Y-42247D01*
X40560Y-42247D01*
G37*
G54D11*
X40570Y-36300D03*
G54D10*
G36*
X79693Y-41240D02*
X80670Y-40263D01*
X81646Y-41240D01*
X80670Y-42216D01*
X79693Y-41240D01*
X79693Y-41240D01*
G37*
G54D13*
X44460Y-30753D03*
X44460Y-30360D03*
X44460Y-29966D03*
X45030Y-30753D03*
X45030Y-30360D03*
X45030Y-29966D03*
X40466Y-35590D03*
X40860Y-35590D03*
X41253Y-35590D03*
X40476Y-34910D03*
X40870Y-34910D03*
X41263Y-34910D03*
X44450Y-42033D03*
X44450Y-41640D03*
X44450Y-41246D03*
X45060Y-42033D03*
X45060Y-41640D03*
X45060Y-41246D03*
X76450Y-29023D03*
X76450Y-28630D03*
X76450Y-28236D03*
X77040Y-29023D03*
X77040Y-28630D03*
X77040Y-28236D03*
X80226Y-31200D03*
X80620Y-31200D03*
X81013Y-31200D03*
X80206Y-31800D03*
X80600Y-31800D03*
X80993Y-31800D03*
X76410Y-35043D03*
X76410Y-34650D03*
X76410Y-34256D03*
X77060Y-35053D03*
X77060Y-34660D03*
X77060Y-34266D03*
X76450Y-44023D03*
X76450Y-43630D03*
X76450Y-43236D03*
X77060Y-44013D03*
X77060Y-43620D03*
X77060Y-43226D03*
X68450Y-44023D03*
X68450Y-43630D03*
X68450Y-43236D03*
X69050Y-44023D03*
X69050Y-43630D03*
X69050Y-43236D03*
X68420Y-32773D03*
X68420Y-32380D03*
X68420Y-31986D03*
X69070Y-32783D03*
X69070Y-32390D03*
X69070Y-31996D03*
X52430Y-32783D03*
X52430Y-32390D03*
X52430Y-31996D03*
X53060Y-32783D03*
X53060Y-32390D03*
X53060Y-31996D03*
X52470Y-44023D03*
X52470Y-43630D03*
X52470Y-43236D03*
X53030Y-44013D03*
X53030Y-43620D03*
X53030Y-43226D03*
M02*
