G04 (created by PCBNEW (2013-03-19 BZR 4004)-stable) date 9/9/2013 12:01:22 AM*
%MOIN*%
G04 Gerber Fmt 3.4, Leading zero omitted, Abs format*
%FSLAX34Y34*%
G01*
G70*
G90*
G04 APERTURE LIST*
%ADD10C,0*%
G04 APERTURE END LIST*
G54D10*
G36*
X38155Y-27520D02*
X38154Y-27588D01*
X38140Y-27651D01*
X38116Y-27705D01*
X38078Y-27758D01*
X38036Y-27798D01*
X37981Y-27833D01*
X37926Y-27854D01*
X37862Y-27865D01*
X37804Y-27864D01*
X37740Y-27850D01*
X37686Y-27827D01*
X37633Y-27790D01*
X37592Y-27747D01*
X37557Y-27693D01*
X37536Y-27638D01*
X37524Y-27574D01*
X37525Y-27516D01*
X37538Y-27452D01*
X37561Y-27398D01*
X37598Y-27345D01*
X37640Y-27304D01*
X37694Y-27268D01*
X37748Y-27246D01*
X37813Y-27234D01*
X37871Y-27234D01*
X37935Y-27248D01*
X37988Y-27270D01*
X38043Y-27307D01*
X38084Y-27348D01*
X38120Y-27403D01*
X38142Y-27456D01*
X38155Y-27520D01*
X38155Y-27520D01*
G37*
G36*
X38155Y-28520D02*
X38154Y-28588D01*
X38140Y-28651D01*
X38116Y-28705D01*
X38078Y-28758D01*
X38036Y-28798D01*
X37981Y-28833D01*
X37926Y-28854D01*
X37862Y-28865D01*
X37804Y-28864D01*
X37740Y-28850D01*
X37686Y-28827D01*
X37633Y-28790D01*
X37592Y-28747D01*
X37557Y-28693D01*
X37536Y-28638D01*
X37524Y-28574D01*
X37525Y-28516D01*
X37538Y-28452D01*
X37561Y-28398D01*
X37598Y-28345D01*
X37640Y-28304D01*
X37694Y-28268D01*
X37748Y-28246D01*
X37813Y-28234D01*
X37871Y-28234D01*
X37935Y-28248D01*
X37988Y-28270D01*
X38043Y-28307D01*
X38084Y-28348D01*
X38120Y-28403D01*
X38142Y-28456D01*
X38155Y-28520D01*
X38155Y-28520D01*
G37*
G36*
X38155Y-29520D02*
X38154Y-29588D01*
X38140Y-29651D01*
X38116Y-29705D01*
X38078Y-29758D01*
X38036Y-29798D01*
X37981Y-29833D01*
X37926Y-29854D01*
X37862Y-29865D01*
X37804Y-29864D01*
X37740Y-29850D01*
X37686Y-29827D01*
X37633Y-29790D01*
X37592Y-29747D01*
X37557Y-29693D01*
X37536Y-29638D01*
X37524Y-29574D01*
X37525Y-29516D01*
X37538Y-29452D01*
X37561Y-29398D01*
X37598Y-29345D01*
X37640Y-29304D01*
X37694Y-29268D01*
X37748Y-29246D01*
X37813Y-29234D01*
X37871Y-29234D01*
X37935Y-29248D01*
X37988Y-29270D01*
X38043Y-29307D01*
X38084Y-29348D01*
X38120Y-29403D01*
X38142Y-29456D01*
X38155Y-29520D01*
X38155Y-29520D01*
G37*
G36*
X38155Y-30520D02*
X38154Y-30588D01*
X38140Y-30651D01*
X38116Y-30705D01*
X38078Y-30758D01*
X38036Y-30798D01*
X37981Y-30833D01*
X37926Y-30854D01*
X37862Y-30865D01*
X37804Y-30864D01*
X37740Y-30850D01*
X37686Y-30827D01*
X37633Y-30790D01*
X37592Y-30747D01*
X37557Y-30693D01*
X37536Y-30638D01*
X37524Y-30574D01*
X37525Y-30516D01*
X37538Y-30452D01*
X37561Y-30398D01*
X37598Y-30345D01*
X37640Y-30304D01*
X37694Y-30268D01*
X37748Y-30246D01*
X37813Y-30234D01*
X37871Y-30234D01*
X37935Y-30248D01*
X37988Y-30270D01*
X38043Y-30307D01*
X38084Y-30348D01*
X38120Y-30403D01*
X38142Y-30456D01*
X38155Y-30520D01*
X38155Y-30520D01*
G37*
G36*
X38155Y-31520D02*
X38154Y-31588D01*
X38140Y-31651D01*
X38116Y-31705D01*
X38078Y-31758D01*
X38036Y-31798D01*
X37981Y-31833D01*
X37926Y-31854D01*
X37862Y-31865D01*
X37804Y-31864D01*
X37740Y-31850D01*
X37686Y-31827D01*
X37633Y-31790D01*
X37592Y-31747D01*
X37557Y-31693D01*
X37536Y-31638D01*
X37524Y-31574D01*
X37525Y-31516D01*
X37538Y-31452D01*
X37561Y-31398D01*
X37598Y-31345D01*
X37640Y-31304D01*
X37694Y-31268D01*
X37748Y-31246D01*
X37813Y-31234D01*
X37871Y-31234D01*
X37935Y-31248D01*
X37988Y-31270D01*
X38043Y-31307D01*
X38084Y-31348D01*
X38120Y-31403D01*
X38142Y-31456D01*
X38155Y-31520D01*
X38155Y-31520D01*
G37*
G36*
X38155Y-32520D02*
X38154Y-32588D01*
X38140Y-32651D01*
X38116Y-32705D01*
X38078Y-32758D01*
X38036Y-32798D01*
X37981Y-32833D01*
X37926Y-32854D01*
X37862Y-32865D01*
X37804Y-32864D01*
X37740Y-32850D01*
X37686Y-32827D01*
X37633Y-32790D01*
X37592Y-32747D01*
X37557Y-32693D01*
X37536Y-32638D01*
X37524Y-32574D01*
X37525Y-32516D01*
X37538Y-32452D01*
X37561Y-32398D01*
X37598Y-32345D01*
X37640Y-32304D01*
X37694Y-32268D01*
X37748Y-32246D01*
X37813Y-32234D01*
X37871Y-32234D01*
X37935Y-32248D01*
X37988Y-32270D01*
X38043Y-32307D01*
X38084Y-32348D01*
X38120Y-32403D01*
X38142Y-32456D01*
X38155Y-32520D01*
X38155Y-32520D01*
G37*
G36*
X38155Y-33520D02*
X38154Y-33588D01*
X38140Y-33651D01*
X38116Y-33705D01*
X38078Y-33758D01*
X38036Y-33798D01*
X37981Y-33833D01*
X37926Y-33854D01*
X37862Y-33865D01*
X37804Y-33864D01*
X37740Y-33850D01*
X37686Y-33827D01*
X37633Y-33790D01*
X37592Y-33747D01*
X37557Y-33693D01*
X37536Y-33638D01*
X37524Y-33574D01*
X37525Y-33516D01*
X37538Y-33452D01*
X37561Y-33398D01*
X37598Y-33345D01*
X37640Y-33304D01*
X37694Y-33268D01*
X37748Y-33246D01*
X37813Y-33234D01*
X37871Y-33234D01*
X37935Y-33248D01*
X37988Y-33270D01*
X38043Y-33307D01*
X38084Y-33348D01*
X38120Y-33403D01*
X38142Y-33456D01*
X38155Y-33520D01*
X38155Y-33520D01*
G37*
G36*
X38425Y-37266D02*
X38424Y-37343D01*
X38408Y-37414D01*
X38381Y-37475D01*
X38339Y-37534D01*
X38290Y-37580D01*
X38229Y-37619D01*
X38167Y-37643D01*
X38095Y-37655D01*
X38029Y-37654D01*
X37958Y-37638D01*
X37897Y-37612D01*
X37837Y-37570D01*
X37791Y-37522D01*
X37751Y-37461D01*
X37727Y-37399D01*
X37714Y-37328D01*
X37715Y-37261D01*
X37730Y-37190D01*
X37756Y-37129D01*
X37797Y-37069D01*
X37844Y-37022D01*
X37906Y-36982D01*
X37967Y-36958D01*
X38039Y-36944D01*
X38105Y-36944D01*
X38177Y-36959D01*
X38238Y-36985D01*
X38298Y-37026D01*
X38345Y-37072D01*
X38386Y-37134D01*
X38411Y-37194D01*
X38425Y-37266D01*
X38425Y-37266D01*
G37*
G36*
X38425Y-38266D02*
X38424Y-38343D01*
X38408Y-38414D01*
X38381Y-38475D01*
X38339Y-38534D01*
X38290Y-38580D01*
X38229Y-38619D01*
X38167Y-38643D01*
X38095Y-38655D01*
X38029Y-38654D01*
X37958Y-38638D01*
X37897Y-38612D01*
X37837Y-38570D01*
X37791Y-38522D01*
X37751Y-38461D01*
X37727Y-38399D01*
X37714Y-38328D01*
X37715Y-38261D01*
X37730Y-38190D01*
X37756Y-38129D01*
X37797Y-38069D01*
X37844Y-38022D01*
X37906Y-37982D01*
X37967Y-37958D01*
X38039Y-37944D01*
X38105Y-37944D01*
X38177Y-37959D01*
X38238Y-37985D01*
X38298Y-38026D01*
X38345Y-38072D01*
X38386Y-38134D01*
X38411Y-38194D01*
X38425Y-38266D01*
X38425Y-38266D01*
G37*
G36*
X38425Y-39266D02*
X38424Y-39343D01*
X38408Y-39414D01*
X38381Y-39475D01*
X38339Y-39534D01*
X38290Y-39580D01*
X38229Y-39619D01*
X38167Y-39643D01*
X38095Y-39655D01*
X38029Y-39654D01*
X37958Y-39638D01*
X37897Y-39612D01*
X37837Y-39570D01*
X37791Y-39522D01*
X37751Y-39461D01*
X37727Y-39399D01*
X37714Y-39328D01*
X37715Y-39261D01*
X37730Y-39190D01*
X37756Y-39129D01*
X37797Y-39069D01*
X37844Y-39022D01*
X37906Y-38982D01*
X37967Y-38958D01*
X38039Y-38944D01*
X38105Y-38944D01*
X38177Y-38959D01*
X38238Y-38985D01*
X38298Y-39026D01*
X38345Y-39072D01*
X38386Y-39134D01*
X38411Y-39194D01*
X38425Y-39266D01*
X38425Y-39266D01*
G37*
G36*
X38425Y-40266D02*
X38424Y-40343D01*
X38408Y-40414D01*
X38381Y-40475D01*
X38339Y-40534D01*
X38290Y-40580D01*
X38229Y-40619D01*
X38167Y-40643D01*
X38095Y-40655D01*
X38029Y-40654D01*
X37958Y-40638D01*
X37897Y-40612D01*
X37837Y-40570D01*
X37791Y-40522D01*
X37751Y-40461D01*
X37727Y-40399D01*
X37714Y-40328D01*
X37715Y-40261D01*
X37730Y-40190D01*
X37756Y-40129D01*
X37797Y-40069D01*
X37844Y-40022D01*
X37906Y-39982D01*
X37967Y-39958D01*
X38039Y-39944D01*
X38105Y-39944D01*
X38177Y-39959D01*
X38238Y-39985D01*
X38298Y-40026D01*
X38345Y-40072D01*
X38386Y-40134D01*
X38411Y-40194D01*
X38425Y-40266D01*
X38425Y-40266D01*
G37*
G36*
X38425Y-41266D02*
X38424Y-41343D01*
X38408Y-41414D01*
X38381Y-41475D01*
X38339Y-41534D01*
X38290Y-41580D01*
X38229Y-41619D01*
X38167Y-41643D01*
X38095Y-41655D01*
X38029Y-41654D01*
X37958Y-41638D01*
X37897Y-41612D01*
X37837Y-41570D01*
X37791Y-41522D01*
X37751Y-41461D01*
X37727Y-41399D01*
X37714Y-41328D01*
X37715Y-41261D01*
X37730Y-41190D01*
X37756Y-41129D01*
X37797Y-41069D01*
X37844Y-41022D01*
X37906Y-40982D01*
X37967Y-40958D01*
X38039Y-40944D01*
X38105Y-40944D01*
X38177Y-40959D01*
X38238Y-40985D01*
X38298Y-41026D01*
X38345Y-41072D01*
X38386Y-41134D01*
X38411Y-41194D01*
X38425Y-41266D01*
X38425Y-41266D01*
G37*
G36*
X38425Y-42266D02*
X38424Y-42343D01*
X38408Y-42414D01*
X38381Y-42475D01*
X38339Y-42534D01*
X38290Y-42580D01*
X38229Y-42619D01*
X38167Y-42643D01*
X38095Y-42655D01*
X38029Y-42654D01*
X37958Y-42638D01*
X37897Y-42612D01*
X37837Y-42570D01*
X37791Y-42522D01*
X37751Y-42461D01*
X37727Y-42399D01*
X37714Y-42328D01*
X37715Y-42261D01*
X37730Y-42190D01*
X37756Y-42129D01*
X37797Y-42069D01*
X37844Y-42022D01*
X37906Y-41982D01*
X37967Y-41958D01*
X38039Y-41944D01*
X38105Y-41944D01*
X38177Y-41959D01*
X38238Y-41985D01*
X38298Y-42026D01*
X38345Y-42072D01*
X38386Y-42134D01*
X38411Y-42194D01*
X38425Y-42266D01*
X38425Y-42266D01*
G37*
G36*
X38425Y-43266D02*
X38424Y-43343D01*
X38408Y-43414D01*
X38381Y-43475D01*
X38339Y-43534D01*
X38290Y-43580D01*
X38229Y-43619D01*
X38167Y-43643D01*
X38095Y-43655D01*
X38029Y-43654D01*
X37958Y-43638D01*
X37897Y-43612D01*
X37837Y-43570D01*
X37791Y-43522D01*
X37751Y-43461D01*
X37727Y-43399D01*
X37714Y-43328D01*
X37715Y-43261D01*
X37730Y-43190D01*
X37756Y-43129D01*
X37797Y-43069D01*
X37844Y-43022D01*
X37906Y-42982D01*
X37967Y-42958D01*
X38039Y-42944D01*
X38105Y-42944D01*
X38177Y-42959D01*
X38238Y-42985D01*
X38298Y-43026D01*
X38345Y-43072D01*
X38386Y-43134D01*
X38411Y-43194D01*
X38425Y-43266D01*
X38425Y-43266D01*
G37*
G36*
X38425Y-44266D02*
X38424Y-44343D01*
X38408Y-44414D01*
X38381Y-44475D01*
X38339Y-44534D01*
X38290Y-44580D01*
X38229Y-44619D01*
X38167Y-44643D01*
X38095Y-44655D01*
X38029Y-44654D01*
X37958Y-44638D01*
X37897Y-44612D01*
X37837Y-44570D01*
X37791Y-44522D01*
X37751Y-44461D01*
X37727Y-44399D01*
X37714Y-44328D01*
X37715Y-44261D01*
X37730Y-44190D01*
X37756Y-44129D01*
X37797Y-44069D01*
X37844Y-44022D01*
X37906Y-43982D01*
X37967Y-43958D01*
X38039Y-43944D01*
X38105Y-43944D01*
X38177Y-43959D01*
X38238Y-43985D01*
X38298Y-44026D01*
X38345Y-44072D01*
X38386Y-44134D01*
X38411Y-44194D01*
X38425Y-44266D01*
X38425Y-44266D01*
G37*
G36*
X38425Y-45266D02*
X38424Y-45343D01*
X38408Y-45414D01*
X38381Y-45475D01*
X38339Y-45534D01*
X38290Y-45580D01*
X38229Y-45619D01*
X38167Y-45643D01*
X38095Y-45655D01*
X38029Y-45654D01*
X37958Y-45638D01*
X37897Y-45612D01*
X37837Y-45570D01*
X37791Y-45522D01*
X37751Y-45461D01*
X37727Y-45399D01*
X37714Y-45328D01*
X37715Y-45261D01*
X37730Y-45190D01*
X37756Y-45129D01*
X37797Y-45069D01*
X37844Y-45022D01*
X37906Y-44982D01*
X37967Y-44958D01*
X38039Y-44944D01*
X38105Y-44944D01*
X38177Y-44959D01*
X38238Y-44985D01*
X38298Y-45026D01*
X38345Y-45072D01*
X38386Y-45134D01*
X38411Y-45194D01*
X38425Y-45266D01*
X38425Y-45266D01*
G37*
G36*
X38425Y-46266D02*
X38424Y-46343D01*
X38408Y-46414D01*
X38381Y-46475D01*
X38339Y-46534D01*
X38290Y-46580D01*
X38229Y-46619D01*
X38167Y-46643D01*
X38095Y-46655D01*
X38029Y-46654D01*
X37958Y-46638D01*
X37897Y-46612D01*
X37837Y-46570D01*
X37791Y-46522D01*
X37751Y-46461D01*
X37727Y-46399D01*
X37714Y-46328D01*
X37715Y-46261D01*
X37730Y-46190D01*
X37756Y-46129D01*
X37797Y-46069D01*
X37844Y-46022D01*
X37906Y-45982D01*
X37967Y-45958D01*
X38039Y-45944D01*
X38105Y-45944D01*
X38177Y-45959D01*
X38238Y-45985D01*
X38298Y-46026D01*
X38345Y-46072D01*
X38386Y-46134D01*
X38411Y-46194D01*
X38425Y-46266D01*
X38425Y-46266D01*
G37*
G36*
X38425Y-47266D02*
X38424Y-47343D01*
X38408Y-47414D01*
X38381Y-47475D01*
X38339Y-47534D01*
X38290Y-47580D01*
X38229Y-47619D01*
X38167Y-47643D01*
X38095Y-47655D01*
X38029Y-47654D01*
X37958Y-47638D01*
X37897Y-47612D01*
X37837Y-47570D01*
X37791Y-47522D01*
X37751Y-47461D01*
X37727Y-47399D01*
X37714Y-47328D01*
X37715Y-47261D01*
X37730Y-47190D01*
X37756Y-47129D01*
X37797Y-47069D01*
X37844Y-47022D01*
X37906Y-46982D01*
X37967Y-46958D01*
X38039Y-46944D01*
X38105Y-46944D01*
X38177Y-46959D01*
X38238Y-46985D01*
X38298Y-47026D01*
X38345Y-47072D01*
X38386Y-47134D01*
X38411Y-47194D01*
X38425Y-47266D01*
X38425Y-47266D01*
G37*
G36*
X38425Y-48266D02*
X38424Y-48343D01*
X38408Y-48414D01*
X38381Y-48475D01*
X38339Y-48534D01*
X38290Y-48580D01*
X38229Y-48619D01*
X38167Y-48643D01*
X38095Y-48655D01*
X38029Y-48654D01*
X37958Y-48638D01*
X37897Y-48612D01*
X37837Y-48570D01*
X37791Y-48522D01*
X37751Y-48461D01*
X37727Y-48399D01*
X37714Y-48328D01*
X37715Y-48261D01*
X37730Y-48190D01*
X37756Y-48129D01*
X37797Y-48069D01*
X37844Y-48022D01*
X37906Y-47982D01*
X37967Y-47958D01*
X38039Y-47944D01*
X38105Y-47944D01*
X38177Y-47959D01*
X38238Y-47985D01*
X38298Y-48026D01*
X38345Y-48072D01*
X38386Y-48134D01*
X38411Y-48194D01*
X38425Y-48266D01*
X38425Y-48266D01*
G37*
G36*
X39526Y-29789D02*
X38933Y-29789D01*
X38933Y-29590D01*
X39526Y-29590D01*
X39526Y-29789D01*
X39526Y-29789D01*
G37*
G36*
X39526Y-30039D02*
X38933Y-30039D01*
X38933Y-29840D01*
X39526Y-29840D01*
X39526Y-30039D01*
X39526Y-30039D01*
G37*
G36*
X39526Y-30299D02*
X38933Y-30299D01*
X38933Y-30100D01*
X39526Y-30100D01*
X39526Y-30299D01*
X39526Y-30299D01*
G37*
G36*
X39526Y-30549D02*
X38933Y-30549D01*
X38933Y-30350D01*
X39526Y-30350D01*
X39526Y-30549D01*
X39526Y-30549D01*
G37*
G36*
X39526Y-30809D02*
X38933Y-30809D01*
X38933Y-30610D01*
X39526Y-30610D01*
X39526Y-30809D01*
X39526Y-30809D01*
G37*
G36*
X39526Y-31064D02*
X38933Y-31064D01*
X38933Y-30865D01*
X39526Y-30865D01*
X39526Y-31064D01*
X39526Y-31064D01*
G37*
G36*
X39526Y-31319D02*
X38933Y-31319D01*
X38933Y-31120D01*
X39526Y-31120D01*
X39526Y-31319D01*
X39526Y-31319D01*
G37*
G36*
X40517Y-42258D02*
X40515Y-42276D01*
X40510Y-42292D01*
X40502Y-42308D01*
X40491Y-42321D01*
X40477Y-42332D01*
X40462Y-42340D01*
X40445Y-42345D01*
X40428Y-42347D01*
X40411Y-42345D01*
X40395Y-42340D01*
X40387Y-42340D01*
X40380Y-42343D01*
X40375Y-42349D01*
X40372Y-42356D01*
X40372Y-42364D01*
X40377Y-42381D01*
X40378Y-42398D01*
X40376Y-42415D01*
X40371Y-42431D01*
X40363Y-42447D01*
X40352Y-42460D01*
X40338Y-42471D01*
X40323Y-42479D01*
X40306Y-42484D01*
X40289Y-42486D01*
X40271Y-42484D01*
X40256Y-42479D01*
X40248Y-42479D01*
X40241Y-42482D01*
X40235Y-42488D01*
X40232Y-42495D01*
X40232Y-42503D01*
X40237Y-42520D01*
X40239Y-42537D01*
X40237Y-42555D01*
X40232Y-42571D01*
X40223Y-42586D01*
X40212Y-42599D01*
X40199Y-42611D01*
X40183Y-42619D01*
X40167Y-42624D01*
X40150Y-42625D01*
X40132Y-42623D01*
X40118Y-42619D01*
X40110Y-42619D01*
X40103Y-42622D01*
X40097Y-42627D01*
X40094Y-42635D01*
X40094Y-42642D01*
X40099Y-42659D01*
X40100Y-42675D01*
X40098Y-42693D01*
X40093Y-42709D01*
X40085Y-42725D01*
X40074Y-42738D01*
X40060Y-42749D01*
X40045Y-42757D01*
X40028Y-42762D01*
X40011Y-42764D01*
X39994Y-42762D01*
X39978Y-42757D01*
X39970Y-42757D01*
X39963Y-42760D01*
X39957Y-42766D01*
X39954Y-42773D01*
X39954Y-42781D01*
X39959Y-42798D01*
X39961Y-42815D01*
X39959Y-42832D01*
X39954Y-42849D01*
X39945Y-42864D01*
X39934Y-42877D01*
X39921Y-42888D01*
X39906Y-42896D01*
X39889Y-42901D01*
X39872Y-42903D01*
X39854Y-42901D01*
X39839Y-42897D01*
X39831Y-42897D01*
X39824Y-42900D01*
X39818Y-42905D01*
X39815Y-42912D01*
X39815Y-42920D01*
X39820Y-42937D01*
X39822Y-42954D01*
X39820Y-42972D01*
X39815Y-42988D01*
X39806Y-43004D01*
X39795Y-43017D01*
X39781Y-43028D01*
X39766Y-43036D01*
X39749Y-43041D01*
X39732Y-43042D01*
X39715Y-43041D01*
X39698Y-43036D01*
X39683Y-43027D01*
X39667Y-43014D01*
X39667Y-43014D01*
X39517Y-42864D01*
X39517Y-42864D01*
X39516Y-42863D01*
X39514Y-42861D01*
X39514Y-42861D01*
X39503Y-42847D01*
X39503Y-42847D01*
X39503Y-42847D01*
X39495Y-42832D01*
X39490Y-42815D01*
X39489Y-42798D01*
X39491Y-42780D01*
X39496Y-42764D01*
X39504Y-42748D01*
X39515Y-42735D01*
X39529Y-42724D01*
X39544Y-42716D01*
X39561Y-42711D01*
X39578Y-42709D01*
X39595Y-42711D01*
X39611Y-42716D01*
X39619Y-42716D01*
X39626Y-42713D01*
X39631Y-42707D01*
X39634Y-42700D01*
X39634Y-42692D01*
X39629Y-42675D01*
X39628Y-42658D01*
X39630Y-42641D01*
X39635Y-42625D01*
X39643Y-42609D01*
X39654Y-42596D01*
X39668Y-42585D01*
X39683Y-42577D01*
X39700Y-42572D01*
X39717Y-42570D01*
X39735Y-42572D01*
X39750Y-42577D01*
X39758Y-42577D01*
X39765Y-42574D01*
X39771Y-42568D01*
X39774Y-42561D01*
X39774Y-42553D01*
X39769Y-42536D01*
X39767Y-42519D01*
X39769Y-42501D01*
X39774Y-42485D01*
X39783Y-42470D01*
X39794Y-42457D01*
X39807Y-42445D01*
X39823Y-42437D01*
X39839Y-42432D01*
X39856Y-42431D01*
X39874Y-42433D01*
X39888Y-42437D01*
X39896Y-42437D01*
X39904Y-42434D01*
X39909Y-42429D01*
X39912Y-42421D01*
X39912Y-42414D01*
X39907Y-42397D01*
X39906Y-42381D01*
X39908Y-42363D01*
X39913Y-42347D01*
X39921Y-42331D01*
X39932Y-42318D01*
X39946Y-42307D01*
X39961Y-42299D01*
X39978Y-42294D01*
X39995Y-42292D01*
X40012Y-42294D01*
X40028Y-42299D01*
X40036Y-42299D01*
X40043Y-42296D01*
X40049Y-42290D01*
X40052Y-42283D01*
X40052Y-42275D01*
X40047Y-42258D01*
X40045Y-42241D01*
X40047Y-42224D01*
X40052Y-42207D01*
X40061Y-42192D01*
X40072Y-42179D01*
X40085Y-42168D01*
X40100Y-42160D01*
X40117Y-42155D01*
X40134Y-42153D01*
X40152Y-42155D01*
X40167Y-42159D01*
X40175Y-42159D01*
X40182Y-42156D01*
X40188Y-42151D01*
X40191Y-42144D01*
X40191Y-42136D01*
X40186Y-42119D01*
X40184Y-42102D01*
X40186Y-42084D01*
X40191Y-42068D01*
X40200Y-42052D01*
X40211Y-42039D01*
X40225Y-42028D01*
X40240Y-42020D01*
X40257Y-42015D01*
X40274Y-42014D01*
X40291Y-42015D01*
X40308Y-42020D01*
X40323Y-42029D01*
X40339Y-42042D01*
X40339Y-42042D01*
X40489Y-42192D01*
X40489Y-42192D01*
X40490Y-42193D01*
X40492Y-42195D01*
X40492Y-42195D01*
X40503Y-42209D01*
X40503Y-42209D01*
X40503Y-42209D01*
X40511Y-42224D01*
X40516Y-42241D01*
X40517Y-42258D01*
X40517Y-42258D01*
G37*
G36*
X40517Y-43912D02*
X40516Y-43929D01*
X40511Y-43946D01*
X40502Y-43961D01*
X40489Y-43977D01*
X40489Y-43977D01*
X40339Y-44127D01*
X40338Y-44128D01*
X40336Y-44130D01*
X40336Y-44130D01*
X40322Y-44141D01*
X40322Y-44141D01*
X40322Y-44141D01*
X40307Y-44149D01*
X40290Y-44154D01*
X40273Y-44155D01*
X40255Y-44153D01*
X40239Y-44148D01*
X40223Y-44140D01*
X40210Y-44129D01*
X40199Y-44115D01*
X40191Y-44100D01*
X40186Y-44083D01*
X40184Y-44066D01*
X40186Y-44049D01*
X40191Y-44033D01*
X40191Y-44025D01*
X40188Y-44018D01*
X40182Y-44013D01*
X40175Y-44010D01*
X40167Y-44010D01*
X40150Y-44015D01*
X40133Y-44016D01*
X40116Y-44014D01*
X40100Y-44009D01*
X40084Y-44001D01*
X40071Y-43990D01*
X40060Y-43976D01*
X40052Y-43961D01*
X40047Y-43944D01*
X40045Y-43927D01*
X40047Y-43909D01*
X40052Y-43894D01*
X40052Y-43886D01*
X40049Y-43879D01*
X40043Y-43873D01*
X40036Y-43870D01*
X40028Y-43870D01*
X40011Y-43875D01*
X39994Y-43877D01*
X39976Y-43875D01*
X39960Y-43870D01*
X39945Y-43861D01*
X39932Y-43850D01*
X39920Y-43837D01*
X39912Y-43821D01*
X39907Y-43805D01*
X39906Y-43788D01*
X39908Y-43770D01*
X39912Y-43756D01*
X39912Y-43748D01*
X39909Y-43740D01*
X39904Y-43735D01*
X39896Y-43732D01*
X39889Y-43732D01*
X39872Y-43737D01*
X39856Y-43738D01*
X39838Y-43736D01*
X39822Y-43731D01*
X39806Y-43723D01*
X39793Y-43712D01*
X39782Y-43698D01*
X39774Y-43683D01*
X39769Y-43666D01*
X39767Y-43649D01*
X39769Y-43632D01*
X39774Y-43616D01*
X39774Y-43608D01*
X39771Y-43601D01*
X39765Y-43595D01*
X39758Y-43592D01*
X39750Y-43592D01*
X39733Y-43597D01*
X39716Y-43599D01*
X39699Y-43597D01*
X39682Y-43592D01*
X39667Y-43583D01*
X39654Y-43572D01*
X39643Y-43559D01*
X39635Y-43544D01*
X39630Y-43527D01*
X39628Y-43510D01*
X39630Y-43492D01*
X39634Y-43477D01*
X39634Y-43469D01*
X39631Y-43462D01*
X39626Y-43456D01*
X39619Y-43453D01*
X39611Y-43453D01*
X39594Y-43458D01*
X39577Y-43460D01*
X39559Y-43458D01*
X39543Y-43453D01*
X39527Y-43444D01*
X39514Y-43433D01*
X39503Y-43419D01*
X39495Y-43404D01*
X39490Y-43387D01*
X39489Y-43370D01*
X39490Y-43353D01*
X39495Y-43336D01*
X39504Y-43321D01*
X39517Y-43305D01*
X39517Y-43305D01*
X39667Y-43155D01*
X39667Y-43155D01*
X39668Y-43154D01*
X39670Y-43152D01*
X39670Y-43152D01*
X39684Y-43141D01*
X39684Y-43141D01*
X39684Y-43141D01*
X39699Y-43133D01*
X39716Y-43128D01*
X39733Y-43127D01*
X39751Y-43129D01*
X39767Y-43134D01*
X39783Y-43142D01*
X39796Y-43153D01*
X39807Y-43167D01*
X39815Y-43182D01*
X39820Y-43199D01*
X39822Y-43216D01*
X39820Y-43233D01*
X39815Y-43249D01*
X39815Y-43257D01*
X39818Y-43264D01*
X39824Y-43269D01*
X39831Y-43272D01*
X39839Y-43272D01*
X39856Y-43267D01*
X39873Y-43266D01*
X39890Y-43268D01*
X39906Y-43273D01*
X39922Y-43281D01*
X39935Y-43292D01*
X39946Y-43306D01*
X39954Y-43321D01*
X39959Y-43338D01*
X39961Y-43355D01*
X39959Y-43373D01*
X39954Y-43388D01*
X39954Y-43396D01*
X39957Y-43403D01*
X39963Y-43409D01*
X39970Y-43412D01*
X39978Y-43412D01*
X39995Y-43407D01*
X40012Y-43405D01*
X40030Y-43407D01*
X40046Y-43412D01*
X40061Y-43421D01*
X40074Y-43432D01*
X40086Y-43445D01*
X40094Y-43461D01*
X40099Y-43477D01*
X40100Y-43494D01*
X40098Y-43512D01*
X40094Y-43526D01*
X40094Y-43534D01*
X40097Y-43541D01*
X40102Y-43547D01*
X40110Y-43550D01*
X40117Y-43550D01*
X40134Y-43545D01*
X40150Y-43544D01*
X40168Y-43546D01*
X40184Y-43551D01*
X40200Y-43559D01*
X40213Y-43570D01*
X40224Y-43584D01*
X40232Y-43599D01*
X40237Y-43616D01*
X40239Y-43633D01*
X40237Y-43650D01*
X40232Y-43666D01*
X40232Y-43674D01*
X40235Y-43681D01*
X40241Y-43687D01*
X40248Y-43690D01*
X40256Y-43690D01*
X40273Y-43685D01*
X40290Y-43683D01*
X40307Y-43685D01*
X40324Y-43690D01*
X40339Y-43699D01*
X40352Y-43710D01*
X40363Y-43723D01*
X40371Y-43738D01*
X40376Y-43755D01*
X40378Y-43772D01*
X40376Y-43790D01*
X40372Y-43805D01*
X40372Y-43813D01*
X40375Y-43820D01*
X40380Y-43826D01*
X40387Y-43829D01*
X40395Y-43829D01*
X40412Y-43824D01*
X40429Y-43822D01*
X40447Y-43824D01*
X40463Y-43829D01*
X40479Y-43838D01*
X40492Y-43849D01*
X40503Y-43863D01*
X40511Y-43878D01*
X40516Y-43895D01*
X40517Y-43912D01*
X40517Y-43912D01*
G37*
G36*
X40585Y-35579D02*
X40584Y-35603D01*
X40578Y-35628D01*
X40570Y-35647D01*
X40555Y-35668D01*
X40540Y-35682D01*
X40518Y-35697D01*
X40499Y-35704D01*
X40473Y-35708D01*
X40453Y-35708D01*
X40427Y-35702D01*
X40409Y-35694D01*
X40387Y-35679D01*
X40373Y-35665D01*
X40359Y-35642D01*
X40352Y-35624D01*
X40347Y-35598D01*
X40347Y-35578D01*
X40353Y-35552D01*
X40361Y-35534D01*
X40376Y-35512D01*
X40390Y-35498D01*
X40412Y-35483D01*
X40430Y-35476D01*
X40457Y-35471D01*
X40476Y-35471D01*
X40503Y-35476D01*
X40521Y-35484D01*
X40543Y-35499D01*
X40557Y-35513D01*
X40572Y-35535D01*
X40579Y-35553D01*
X40585Y-35579D01*
X40585Y-35579D01*
G37*
G36*
X40595Y-34899D02*
X40594Y-34923D01*
X40588Y-34948D01*
X40580Y-34967D01*
X40565Y-34988D01*
X40550Y-35002D01*
X40528Y-35017D01*
X40509Y-35024D01*
X40483Y-35028D01*
X40463Y-35028D01*
X40437Y-35022D01*
X40419Y-35014D01*
X40397Y-34999D01*
X40383Y-34985D01*
X40369Y-34962D01*
X40362Y-34944D01*
X40357Y-34918D01*
X40357Y-34898D01*
X40363Y-34872D01*
X40371Y-34854D01*
X40386Y-34832D01*
X40400Y-34818D01*
X40422Y-34803D01*
X40440Y-34796D01*
X40467Y-34791D01*
X40486Y-34791D01*
X40513Y-34796D01*
X40531Y-34804D01*
X40553Y-34819D01*
X40567Y-34833D01*
X40582Y-34855D01*
X40589Y-34873D01*
X40595Y-34899D01*
X40595Y-34899D01*
G37*
G36*
X40885Y-36270D02*
X40884Y-36338D01*
X40870Y-36401D01*
X40846Y-36455D01*
X40808Y-36508D01*
X40766Y-36548D01*
X40711Y-36583D01*
X40656Y-36604D01*
X40592Y-36615D01*
X40534Y-36614D01*
X40470Y-36600D01*
X40416Y-36577D01*
X40363Y-36540D01*
X40322Y-36497D01*
X40287Y-36443D01*
X40266Y-36388D01*
X40254Y-36324D01*
X40255Y-36266D01*
X40268Y-36202D01*
X40291Y-36148D01*
X40328Y-36095D01*
X40370Y-36054D01*
X40424Y-36018D01*
X40478Y-35996D01*
X40543Y-35984D01*
X40601Y-35984D01*
X40665Y-35998D01*
X40718Y-36020D01*
X40773Y-36057D01*
X40814Y-36098D01*
X40850Y-36153D01*
X40872Y-36206D01*
X40885Y-36270D01*
X40885Y-36270D01*
G37*
G36*
X40934Y-44067D02*
X40933Y-44084D01*
X40927Y-44101D01*
X40919Y-44116D01*
X40908Y-44130D01*
X40894Y-44141D01*
X40879Y-44149D01*
X40862Y-44154D01*
X40845Y-44155D01*
X40828Y-44154D01*
X40811Y-44148D01*
X40796Y-44140D01*
X40783Y-44129D01*
X40628Y-43974D01*
X40627Y-43974D01*
X40616Y-43960D01*
X40608Y-43945D01*
X40603Y-43928D01*
X40602Y-43911D01*
X40604Y-43893D01*
X40609Y-43877D01*
X40617Y-43861D01*
X40628Y-43848D01*
X40642Y-43837D01*
X40657Y-43829D01*
X40674Y-43824D01*
X40691Y-43822D01*
X40708Y-43824D01*
X40725Y-43829D01*
X40740Y-43838D01*
X40754Y-43849D01*
X40908Y-44003D01*
X40909Y-44004D01*
X40920Y-44018D01*
X40928Y-44033D01*
X40933Y-44050D01*
X40934Y-44067D01*
X40934Y-44067D01*
G37*
G36*
X40934Y-42103D02*
X40933Y-42120D01*
X40928Y-42137D01*
X40919Y-42152D01*
X40908Y-42166D01*
X40754Y-42320D01*
X40753Y-42321D01*
X40739Y-42332D01*
X40724Y-42340D01*
X40707Y-42345D01*
X40690Y-42347D01*
X40672Y-42345D01*
X40656Y-42339D01*
X40641Y-42331D01*
X40627Y-42320D01*
X40616Y-42307D01*
X40608Y-42291D01*
X40603Y-42274D01*
X40602Y-42257D01*
X40603Y-42240D01*
X40609Y-42223D01*
X40617Y-42208D01*
X40628Y-42195D01*
X40783Y-42040D01*
X40783Y-42039D01*
X40797Y-42028D01*
X40812Y-42020D01*
X40829Y-42015D01*
X40846Y-42014D01*
X40864Y-42016D01*
X40880Y-42021D01*
X40896Y-42029D01*
X40909Y-42040D01*
X40920Y-42054D01*
X40928Y-42069D01*
X40933Y-42086D01*
X40934Y-42103D01*
X40934Y-42103D01*
G37*
G36*
X40978Y-35579D02*
X40978Y-35603D01*
X40972Y-35628D01*
X40964Y-35647D01*
X40949Y-35668D01*
X40934Y-35682D01*
X40912Y-35697D01*
X40893Y-35704D01*
X40867Y-35708D01*
X40847Y-35708D01*
X40821Y-35702D01*
X40803Y-35694D01*
X40781Y-35679D01*
X40767Y-35665D01*
X40753Y-35642D01*
X40745Y-35624D01*
X40741Y-35598D01*
X40741Y-35578D01*
X40746Y-35552D01*
X40754Y-35534D01*
X40769Y-35512D01*
X40783Y-35498D01*
X40806Y-35483D01*
X40824Y-35476D01*
X40851Y-35471D01*
X40870Y-35471D01*
X40897Y-35476D01*
X40915Y-35484D01*
X40937Y-35499D01*
X40951Y-35513D01*
X40966Y-35535D01*
X40973Y-35553D01*
X40978Y-35579D01*
X40978Y-35579D01*
G37*
G36*
X40988Y-34899D02*
X40988Y-34923D01*
X40982Y-34948D01*
X40974Y-34967D01*
X40959Y-34988D01*
X40944Y-35002D01*
X40922Y-35017D01*
X40903Y-35024D01*
X40877Y-35028D01*
X40857Y-35028D01*
X40831Y-35022D01*
X40813Y-35014D01*
X40791Y-34999D01*
X40777Y-34985D01*
X40763Y-34962D01*
X40755Y-34944D01*
X40751Y-34918D01*
X40751Y-34898D01*
X40756Y-34872D01*
X40764Y-34854D01*
X40779Y-34832D01*
X40793Y-34818D01*
X40816Y-34803D01*
X40834Y-34796D01*
X40861Y-34791D01*
X40880Y-34791D01*
X40907Y-34796D01*
X40925Y-34804D01*
X40947Y-34819D01*
X40961Y-34833D01*
X40976Y-34855D01*
X40983Y-34873D01*
X40988Y-34899D01*
X40988Y-34899D01*
G37*
G36*
X41074Y-43928D02*
X41072Y-43945D01*
X41067Y-43962D01*
X41058Y-43977D01*
X41047Y-43990D01*
X41034Y-44001D01*
X41018Y-44009D01*
X41002Y-44014D01*
X40984Y-44016D01*
X40967Y-44014D01*
X40951Y-44009D01*
X40935Y-44001D01*
X40922Y-43990D01*
X40767Y-43835D01*
X40766Y-43834D01*
X40755Y-43821D01*
X40747Y-43805D01*
X40743Y-43789D01*
X40741Y-43771D01*
X40743Y-43754D01*
X40748Y-43737D01*
X40756Y-43722D01*
X40768Y-43709D01*
X40781Y-43698D01*
X40796Y-43690D01*
X40813Y-43685D01*
X40830Y-43683D01*
X40848Y-43685D01*
X40864Y-43690D01*
X40880Y-43698D01*
X40893Y-43709D01*
X41048Y-43864D01*
X41049Y-43865D01*
X41059Y-43879D01*
X41067Y-43894D01*
X41072Y-43911D01*
X41074Y-43928D01*
X41074Y-43928D01*
G37*
G36*
X41074Y-42242D02*
X41072Y-42260D01*
X41067Y-42276D01*
X41059Y-42292D01*
X41048Y-42305D01*
X40893Y-42460D01*
X40892Y-42461D01*
X40878Y-42471D01*
X40863Y-42479D01*
X40846Y-42484D01*
X40829Y-42486D01*
X40812Y-42484D01*
X40795Y-42479D01*
X40780Y-42470D01*
X40767Y-42459D01*
X40756Y-42446D01*
X40748Y-42430D01*
X40743Y-42414D01*
X40741Y-42396D01*
X40743Y-42379D01*
X40748Y-42363D01*
X40756Y-42347D01*
X40767Y-42334D01*
X40922Y-42179D01*
X40923Y-42178D01*
X40936Y-42167D01*
X40952Y-42159D01*
X40968Y-42155D01*
X40986Y-42153D01*
X41003Y-42155D01*
X41020Y-42160D01*
X41035Y-42168D01*
X41048Y-42180D01*
X41059Y-42193D01*
X41067Y-42208D01*
X41072Y-42225D01*
X41074Y-42242D01*
X41074Y-42242D01*
G37*
G36*
X41213Y-43789D02*
X41211Y-43806D01*
X41206Y-43822D01*
X41198Y-43838D01*
X41187Y-43851D01*
X41173Y-43862D01*
X41158Y-43870D01*
X41141Y-43875D01*
X41124Y-43877D01*
X41107Y-43875D01*
X41090Y-43870D01*
X41075Y-43862D01*
X41061Y-43851D01*
X40906Y-43696D01*
X40905Y-43695D01*
X40895Y-43681D01*
X40887Y-43666D01*
X40882Y-43649D01*
X40880Y-43632D01*
X40882Y-43615D01*
X40887Y-43598D01*
X40896Y-43583D01*
X40907Y-43570D01*
X40920Y-43559D01*
X40936Y-43550D01*
X40952Y-43546D01*
X40970Y-43544D01*
X40987Y-43546D01*
X41004Y-43551D01*
X41019Y-43559D01*
X41032Y-43570D01*
X41187Y-43725D01*
X41188Y-43726D01*
X41199Y-43739D01*
X41207Y-43755D01*
X41212Y-43771D01*
X41213Y-43789D01*
X41213Y-43789D01*
G37*
G36*
X41213Y-42382D02*
X41211Y-42399D01*
X41206Y-42416D01*
X41198Y-42431D01*
X41187Y-42444D01*
X41032Y-42599D01*
X41031Y-42600D01*
X41018Y-42611D01*
X41002Y-42619D01*
X40986Y-42624D01*
X40968Y-42625D01*
X40951Y-42623D01*
X40935Y-42618D01*
X40919Y-42610D01*
X40906Y-42599D01*
X40895Y-42585D01*
X40887Y-42570D01*
X40882Y-42553D01*
X40880Y-42536D01*
X40882Y-42519D01*
X40887Y-42502D01*
X40895Y-42487D01*
X40906Y-42473D01*
X41061Y-42318D01*
X41062Y-42318D01*
X41076Y-42307D01*
X41091Y-42299D01*
X41108Y-42294D01*
X41125Y-42292D01*
X41142Y-42294D01*
X41159Y-42299D01*
X41174Y-42308D01*
X41187Y-42319D01*
X41198Y-42332D01*
X41206Y-42348D01*
X41211Y-42364D01*
X41213Y-42382D01*
X41213Y-42382D01*
G37*
G36*
X41312Y-43084D02*
X40559Y-43837D01*
X39807Y-43084D01*
X40559Y-42332D01*
X41312Y-43084D01*
X41312Y-43084D01*
G37*
G36*
X41352Y-43650D02*
X41350Y-43667D01*
X41345Y-43684D01*
X41336Y-43699D01*
X41325Y-43712D01*
X41312Y-43723D01*
X41296Y-43731D01*
X41280Y-43736D01*
X41262Y-43738D01*
X41245Y-43736D01*
X41228Y-43731D01*
X41213Y-43723D01*
X41200Y-43712D01*
X41045Y-43557D01*
X41044Y-43556D01*
X41033Y-43543D01*
X41025Y-43527D01*
X41020Y-43511D01*
X41019Y-43493D01*
X41021Y-43476D01*
X41026Y-43460D01*
X41034Y-43444D01*
X41045Y-43431D01*
X41059Y-43420D01*
X41074Y-43412D01*
X41091Y-43407D01*
X41108Y-43405D01*
X41125Y-43407D01*
X41142Y-43412D01*
X41157Y-43420D01*
X41171Y-43431D01*
X41326Y-43586D01*
X41326Y-43587D01*
X41337Y-43601D01*
X41345Y-43616D01*
X41350Y-43633D01*
X41352Y-43650D01*
X41352Y-43650D01*
G37*
G36*
X41352Y-42520D02*
X41350Y-42537D01*
X41345Y-42554D01*
X41337Y-42569D01*
X41326Y-42583D01*
X41171Y-42738D01*
X41170Y-42739D01*
X41156Y-42749D01*
X41141Y-42757D01*
X41124Y-42762D01*
X41107Y-42764D01*
X41090Y-42762D01*
X41073Y-42757D01*
X41058Y-42748D01*
X41045Y-42737D01*
X41034Y-42724D01*
X41025Y-42708D01*
X41021Y-42692D01*
X41019Y-42674D01*
X41021Y-42657D01*
X41026Y-42640D01*
X41034Y-42625D01*
X41045Y-42612D01*
X41200Y-42457D01*
X41201Y-42456D01*
X41214Y-42445D01*
X41230Y-42437D01*
X41246Y-42432D01*
X41264Y-42431D01*
X41281Y-42433D01*
X41297Y-42438D01*
X41313Y-42446D01*
X41326Y-42457D01*
X41337Y-42471D01*
X41345Y-42486D01*
X41350Y-42503D01*
X41352Y-42520D01*
X41352Y-42520D01*
G37*
G36*
X41372Y-35579D02*
X41372Y-35603D01*
X41366Y-35628D01*
X41358Y-35647D01*
X41342Y-35668D01*
X41328Y-35682D01*
X41306Y-35697D01*
X41287Y-35704D01*
X41261Y-35708D01*
X41241Y-35708D01*
X41215Y-35702D01*
X41196Y-35694D01*
X41175Y-35679D01*
X41161Y-35665D01*
X41146Y-35642D01*
X41139Y-35624D01*
X41134Y-35598D01*
X41135Y-35578D01*
X41140Y-35552D01*
X41148Y-35534D01*
X41163Y-35512D01*
X41177Y-35498D01*
X41200Y-35483D01*
X41218Y-35476D01*
X41244Y-35471D01*
X41264Y-35471D01*
X41290Y-35476D01*
X41308Y-35484D01*
X41331Y-35499D01*
X41344Y-35513D01*
X41359Y-35535D01*
X41367Y-35553D01*
X41372Y-35579D01*
X41372Y-35579D01*
G37*
G36*
X41382Y-34899D02*
X41382Y-34923D01*
X41376Y-34948D01*
X41368Y-34967D01*
X41352Y-34988D01*
X41338Y-35002D01*
X41316Y-35017D01*
X41297Y-35024D01*
X41271Y-35028D01*
X41251Y-35028D01*
X41225Y-35022D01*
X41206Y-35014D01*
X41185Y-34999D01*
X41171Y-34985D01*
X41156Y-34962D01*
X41149Y-34944D01*
X41144Y-34918D01*
X41145Y-34898D01*
X41150Y-34872D01*
X41158Y-34854D01*
X41173Y-34832D01*
X41187Y-34818D01*
X41210Y-34803D01*
X41228Y-34796D01*
X41254Y-34791D01*
X41274Y-34791D01*
X41300Y-34796D01*
X41318Y-34804D01*
X41341Y-34819D01*
X41354Y-34833D01*
X41369Y-34855D01*
X41377Y-34873D01*
X41382Y-34899D01*
X41382Y-34899D01*
G37*
G36*
X41491Y-43511D02*
X41489Y-43528D01*
X41484Y-43545D01*
X41476Y-43560D01*
X41464Y-43573D01*
X41451Y-43584D01*
X41436Y-43592D01*
X41419Y-43597D01*
X41402Y-43599D01*
X41384Y-43597D01*
X41368Y-43592D01*
X41352Y-43584D01*
X41339Y-43573D01*
X41184Y-43418D01*
X41183Y-43417D01*
X41173Y-43403D01*
X41165Y-43388D01*
X41160Y-43371D01*
X41158Y-43354D01*
X41160Y-43337D01*
X41165Y-43320D01*
X41174Y-43305D01*
X41185Y-43292D01*
X41198Y-43281D01*
X41214Y-43273D01*
X41230Y-43268D01*
X41248Y-43266D01*
X41265Y-43268D01*
X41281Y-43273D01*
X41297Y-43281D01*
X41310Y-43292D01*
X41465Y-43447D01*
X41466Y-43448D01*
X41477Y-43461D01*
X41485Y-43477D01*
X41489Y-43493D01*
X41491Y-43511D01*
X41491Y-43511D01*
G37*
G36*
X41491Y-42660D02*
X41489Y-42677D01*
X41484Y-42693D01*
X41476Y-42709D01*
X41465Y-42722D01*
X41310Y-42877D01*
X41309Y-42878D01*
X41296Y-42889D01*
X41280Y-42897D01*
X41264Y-42901D01*
X41246Y-42903D01*
X41229Y-42901D01*
X41212Y-42896D01*
X41197Y-42888D01*
X41184Y-42876D01*
X41173Y-42863D01*
X41165Y-42848D01*
X41160Y-42831D01*
X41158Y-42814D01*
X41160Y-42796D01*
X41165Y-42780D01*
X41173Y-42764D01*
X41184Y-42751D01*
X41339Y-42596D01*
X41340Y-42595D01*
X41354Y-42585D01*
X41369Y-42577D01*
X41386Y-42572D01*
X41403Y-42570D01*
X41420Y-42572D01*
X41437Y-42577D01*
X41452Y-42586D01*
X41465Y-42597D01*
X41476Y-42610D01*
X41484Y-42626D01*
X41489Y-42642D01*
X41491Y-42660D01*
X41491Y-42660D01*
G37*
G36*
X41630Y-43371D02*
X41628Y-43389D01*
X41623Y-43405D01*
X41615Y-43421D01*
X41604Y-43434D01*
X41590Y-43445D01*
X41575Y-43453D01*
X41558Y-43458D01*
X41541Y-43459D01*
X41524Y-43458D01*
X41507Y-43453D01*
X41492Y-43444D01*
X41478Y-43433D01*
X41324Y-43279D01*
X41323Y-43278D01*
X41312Y-43264D01*
X41304Y-43249D01*
X41299Y-43232D01*
X41297Y-43215D01*
X41299Y-43197D01*
X41305Y-43181D01*
X41313Y-43166D01*
X41324Y-43152D01*
X41338Y-43141D01*
X41353Y-43133D01*
X41370Y-43128D01*
X41387Y-43127D01*
X41404Y-43128D01*
X41421Y-43134D01*
X41436Y-43142D01*
X41449Y-43153D01*
X41604Y-43308D01*
X41605Y-43308D01*
X41616Y-43322D01*
X41624Y-43337D01*
X41629Y-43354D01*
X41630Y-43371D01*
X41630Y-43371D01*
G37*
G36*
X41630Y-42799D02*
X41629Y-42816D01*
X41623Y-42833D01*
X41615Y-42848D01*
X41604Y-42861D01*
X41449Y-43016D01*
X41449Y-43017D01*
X41435Y-43028D01*
X41420Y-43036D01*
X41403Y-43041D01*
X41386Y-43042D01*
X41368Y-43040D01*
X41352Y-43035D01*
X41336Y-43027D01*
X41323Y-43016D01*
X41312Y-43002D01*
X41304Y-42987D01*
X41299Y-42970D01*
X41297Y-42953D01*
X41299Y-42936D01*
X41304Y-42919D01*
X41313Y-42904D01*
X41324Y-42890D01*
X41478Y-42736D01*
X41479Y-42735D01*
X41493Y-42724D01*
X41508Y-42716D01*
X41525Y-42711D01*
X41542Y-42710D01*
X41559Y-42711D01*
X41576Y-42717D01*
X41591Y-42725D01*
X41605Y-42736D01*
X41616Y-42750D01*
X41624Y-42765D01*
X41629Y-42782D01*
X41630Y-42799D01*
X41630Y-42799D01*
G37*
G36*
X41726Y-29784D02*
X41133Y-29784D01*
X41133Y-29585D01*
X41726Y-29585D01*
X41726Y-29784D01*
X41726Y-29784D01*
G37*
G36*
X41726Y-30039D02*
X41133Y-30039D01*
X41133Y-29840D01*
X41726Y-29840D01*
X41726Y-30039D01*
X41726Y-30039D01*
G37*
G36*
X41726Y-30294D02*
X41133Y-30294D01*
X41133Y-30095D01*
X41726Y-30095D01*
X41726Y-30294D01*
X41726Y-30294D01*
G37*
G36*
X41726Y-30549D02*
X41133Y-30549D01*
X41133Y-30350D01*
X41726Y-30350D01*
X41726Y-30549D01*
X41726Y-30549D01*
G37*
G36*
X41726Y-30809D02*
X41133Y-30809D01*
X41133Y-30610D01*
X41726Y-30610D01*
X41726Y-30809D01*
X41726Y-30809D01*
G37*
G36*
X41726Y-31064D02*
X41133Y-31064D01*
X41133Y-30865D01*
X41726Y-30865D01*
X41726Y-31064D01*
X41726Y-31064D01*
G37*
G36*
X41726Y-31319D02*
X41133Y-31319D01*
X41133Y-31120D01*
X41726Y-31120D01*
X41726Y-31319D01*
X41726Y-31319D01*
G37*
G36*
X43155Y-27520D02*
X43154Y-27588D01*
X43140Y-27651D01*
X43116Y-27705D01*
X43078Y-27758D01*
X43036Y-27798D01*
X42981Y-27833D01*
X42926Y-27854D01*
X42862Y-27865D01*
X42804Y-27864D01*
X42740Y-27850D01*
X42686Y-27827D01*
X42633Y-27790D01*
X42592Y-27747D01*
X42557Y-27693D01*
X42536Y-27638D01*
X42524Y-27574D01*
X42525Y-27516D01*
X42538Y-27452D01*
X42561Y-27398D01*
X42598Y-27345D01*
X42640Y-27304D01*
X42694Y-27268D01*
X42748Y-27246D01*
X42813Y-27234D01*
X42871Y-27234D01*
X42935Y-27248D01*
X42988Y-27270D01*
X43043Y-27307D01*
X43084Y-27348D01*
X43120Y-27403D01*
X43142Y-27456D01*
X43155Y-27520D01*
X43155Y-27520D01*
G37*
G36*
X43155Y-28520D02*
X43154Y-28588D01*
X43140Y-28651D01*
X43116Y-28705D01*
X43078Y-28758D01*
X43036Y-28798D01*
X42981Y-28833D01*
X42926Y-28854D01*
X42862Y-28865D01*
X42804Y-28864D01*
X42740Y-28850D01*
X42686Y-28827D01*
X42633Y-28790D01*
X42592Y-28747D01*
X42557Y-28693D01*
X42536Y-28638D01*
X42524Y-28574D01*
X42525Y-28516D01*
X42538Y-28452D01*
X42561Y-28398D01*
X42598Y-28345D01*
X42640Y-28304D01*
X42694Y-28268D01*
X42748Y-28246D01*
X42813Y-28234D01*
X42871Y-28234D01*
X42935Y-28248D01*
X42988Y-28270D01*
X43043Y-28307D01*
X43084Y-28348D01*
X43120Y-28403D01*
X43142Y-28456D01*
X43155Y-28520D01*
X43155Y-28520D01*
G37*
G36*
X43155Y-29520D02*
X43154Y-29588D01*
X43140Y-29651D01*
X43116Y-29705D01*
X43078Y-29758D01*
X43036Y-29798D01*
X42981Y-29833D01*
X42926Y-29854D01*
X42862Y-29865D01*
X42804Y-29864D01*
X42740Y-29850D01*
X42686Y-29827D01*
X42633Y-29790D01*
X42592Y-29747D01*
X42557Y-29693D01*
X42536Y-29638D01*
X42524Y-29574D01*
X42525Y-29516D01*
X42538Y-29452D01*
X42561Y-29398D01*
X42598Y-29345D01*
X42640Y-29304D01*
X42694Y-29268D01*
X42748Y-29246D01*
X42813Y-29234D01*
X42871Y-29234D01*
X42935Y-29248D01*
X42988Y-29270D01*
X43043Y-29307D01*
X43084Y-29348D01*
X43120Y-29403D01*
X43142Y-29456D01*
X43155Y-29520D01*
X43155Y-29520D01*
G37*
G36*
X43155Y-30520D02*
X43154Y-30588D01*
X43140Y-30651D01*
X43116Y-30705D01*
X43078Y-30758D01*
X43036Y-30798D01*
X42981Y-30833D01*
X42926Y-30854D01*
X42862Y-30865D01*
X42804Y-30864D01*
X42740Y-30850D01*
X42686Y-30827D01*
X42633Y-30790D01*
X42592Y-30747D01*
X42557Y-30693D01*
X42536Y-30638D01*
X42524Y-30574D01*
X42525Y-30516D01*
X42538Y-30452D01*
X42561Y-30398D01*
X42598Y-30345D01*
X42640Y-30304D01*
X42694Y-30268D01*
X42748Y-30246D01*
X42813Y-30234D01*
X42871Y-30234D01*
X42935Y-30248D01*
X42988Y-30270D01*
X43043Y-30307D01*
X43084Y-30348D01*
X43120Y-30403D01*
X43142Y-30456D01*
X43155Y-30520D01*
X43155Y-30520D01*
G37*
G36*
X43155Y-31520D02*
X43154Y-31588D01*
X43140Y-31651D01*
X43116Y-31705D01*
X43078Y-31758D01*
X43036Y-31798D01*
X42981Y-31833D01*
X42926Y-31854D01*
X42862Y-31865D01*
X42804Y-31864D01*
X42740Y-31850D01*
X42686Y-31827D01*
X42633Y-31790D01*
X42592Y-31747D01*
X42557Y-31693D01*
X42536Y-31638D01*
X42524Y-31574D01*
X42525Y-31516D01*
X42538Y-31452D01*
X42561Y-31398D01*
X42598Y-31345D01*
X42640Y-31304D01*
X42694Y-31268D01*
X42748Y-31246D01*
X42813Y-31234D01*
X42871Y-31234D01*
X42935Y-31248D01*
X42988Y-31270D01*
X43043Y-31307D01*
X43084Y-31348D01*
X43120Y-31403D01*
X43142Y-31456D01*
X43155Y-31520D01*
X43155Y-31520D01*
G37*
G36*
X43155Y-32520D02*
X43154Y-32588D01*
X43140Y-32651D01*
X43116Y-32705D01*
X43078Y-32758D01*
X43036Y-32798D01*
X42981Y-32833D01*
X42926Y-32854D01*
X42862Y-32865D01*
X42804Y-32864D01*
X42740Y-32850D01*
X42686Y-32827D01*
X42633Y-32790D01*
X42592Y-32747D01*
X42557Y-32693D01*
X42536Y-32638D01*
X42524Y-32574D01*
X42525Y-32516D01*
X42538Y-32452D01*
X42561Y-32398D01*
X42598Y-32345D01*
X42640Y-32304D01*
X42694Y-32268D01*
X42748Y-32246D01*
X42813Y-32234D01*
X42871Y-32234D01*
X42935Y-32248D01*
X42988Y-32270D01*
X43043Y-32307D01*
X43084Y-32348D01*
X43120Y-32403D01*
X43142Y-32456D01*
X43155Y-32520D01*
X43155Y-32520D01*
G37*
G36*
X43155Y-33520D02*
X43154Y-33588D01*
X43140Y-33651D01*
X43116Y-33705D01*
X43078Y-33758D01*
X43036Y-33798D01*
X42981Y-33833D01*
X42926Y-33854D01*
X42862Y-33865D01*
X42804Y-33864D01*
X42740Y-33850D01*
X42686Y-33827D01*
X42633Y-33790D01*
X42592Y-33747D01*
X42557Y-33693D01*
X42536Y-33638D01*
X42524Y-33574D01*
X42525Y-33516D01*
X42538Y-33452D01*
X42561Y-33398D01*
X42598Y-33345D01*
X42640Y-33304D01*
X42694Y-33268D01*
X42748Y-33246D01*
X42813Y-33234D01*
X42871Y-33234D01*
X42935Y-33248D01*
X42988Y-33270D01*
X43043Y-33307D01*
X43084Y-33348D01*
X43120Y-33403D01*
X43142Y-33456D01*
X43155Y-33520D01*
X43155Y-33520D01*
G37*
G36*
X43425Y-41265D02*
X43423Y-41344D01*
X43408Y-41412D01*
X43380Y-41476D01*
X43340Y-41533D01*
X43289Y-41581D01*
X43230Y-41618D01*
X43165Y-41643D01*
X43097Y-41655D01*
X43027Y-41654D01*
X42959Y-41639D01*
X42895Y-41611D01*
X42838Y-41571D01*
X42790Y-41521D01*
X42752Y-41463D01*
X42727Y-41398D01*
X42714Y-41329D01*
X42715Y-41260D01*
X42729Y-41192D01*
X42757Y-41128D01*
X42796Y-41070D01*
X42846Y-41021D01*
X42904Y-40983D01*
X42969Y-40957D01*
X43037Y-40944D01*
X43107Y-40945D01*
X43175Y-40959D01*
X43239Y-40986D01*
X43297Y-41025D01*
X43346Y-41074D01*
X43384Y-41132D01*
X43411Y-41196D01*
X43425Y-41265D01*
X43425Y-41265D01*
G37*
G36*
X43425Y-42265D02*
X43423Y-42344D01*
X43408Y-42412D01*
X43380Y-42476D01*
X43340Y-42533D01*
X43289Y-42581D01*
X43230Y-42618D01*
X43165Y-42643D01*
X43097Y-42655D01*
X43027Y-42654D01*
X42959Y-42639D01*
X42895Y-42611D01*
X42838Y-42571D01*
X42790Y-42521D01*
X42752Y-42463D01*
X42727Y-42398D01*
X42714Y-42329D01*
X42715Y-42260D01*
X42729Y-42192D01*
X42757Y-42128D01*
X42796Y-42070D01*
X42846Y-42021D01*
X42904Y-41983D01*
X42969Y-41957D01*
X43037Y-41944D01*
X43107Y-41945D01*
X43175Y-41959D01*
X43239Y-41986D01*
X43297Y-42025D01*
X43346Y-42074D01*
X43384Y-42132D01*
X43411Y-42196D01*
X43425Y-42265D01*
X43425Y-42265D01*
G37*
G36*
X43425Y-43265D02*
X43423Y-43344D01*
X43408Y-43412D01*
X43380Y-43476D01*
X43340Y-43533D01*
X43289Y-43581D01*
X43230Y-43618D01*
X43165Y-43643D01*
X43097Y-43655D01*
X43027Y-43654D01*
X42959Y-43639D01*
X42895Y-43611D01*
X42838Y-43571D01*
X42790Y-43521D01*
X42752Y-43463D01*
X42727Y-43398D01*
X42714Y-43329D01*
X42715Y-43260D01*
X42729Y-43192D01*
X42757Y-43128D01*
X42796Y-43070D01*
X42846Y-43021D01*
X42904Y-42983D01*
X42969Y-42957D01*
X43037Y-42944D01*
X43107Y-42945D01*
X43175Y-42959D01*
X43239Y-42986D01*
X43297Y-43025D01*
X43346Y-43074D01*
X43384Y-43132D01*
X43411Y-43196D01*
X43425Y-43265D01*
X43425Y-43265D01*
G37*
G36*
X43425Y-44265D02*
X43423Y-44344D01*
X43408Y-44412D01*
X43380Y-44476D01*
X43340Y-44533D01*
X43289Y-44581D01*
X43230Y-44618D01*
X43165Y-44643D01*
X43097Y-44655D01*
X43027Y-44654D01*
X42959Y-44639D01*
X42895Y-44611D01*
X42838Y-44571D01*
X42790Y-44521D01*
X42752Y-44463D01*
X42727Y-44398D01*
X42714Y-44329D01*
X42715Y-44260D01*
X42729Y-44192D01*
X42757Y-44128D01*
X42796Y-44070D01*
X42846Y-44021D01*
X42904Y-43983D01*
X42969Y-43957D01*
X43037Y-43944D01*
X43107Y-43945D01*
X43175Y-43959D01*
X43239Y-43986D01*
X43297Y-44025D01*
X43346Y-44074D01*
X43384Y-44132D01*
X43411Y-44196D01*
X43425Y-44265D01*
X43425Y-44265D01*
G37*
G36*
X43425Y-45265D02*
X43423Y-45344D01*
X43408Y-45412D01*
X43380Y-45476D01*
X43340Y-45533D01*
X43289Y-45581D01*
X43230Y-45618D01*
X43165Y-45643D01*
X43097Y-45655D01*
X43027Y-45654D01*
X42959Y-45639D01*
X42895Y-45611D01*
X42838Y-45571D01*
X42790Y-45521D01*
X42752Y-45463D01*
X42727Y-45398D01*
X42714Y-45329D01*
X42715Y-45260D01*
X42729Y-45192D01*
X42757Y-45128D01*
X42796Y-45070D01*
X42846Y-45021D01*
X42904Y-44983D01*
X42969Y-44957D01*
X43037Y-44944D01*
X43107Y-44945D01*
X43175Y-44959D01*
X43239Y-44986D01*
X43297Y-45025D01*
X43346Y-45074D01*
X43384Y-45132D01*
X43411Y-45196D01*
X43425Y-45265D01*
X43425Y-45265D01*
G37*
G36*
X43425Y-46265D02*
X43423Y-46344D01*
X43408Y-46412D01*
X43380Y-46476D01*
X43340Y-46533D01*
X43289Y-46581D01*
X43230Y-46618D01*
X43165Y-46643D01*
X43097Y-46655D01*
X43027Y-46654D01*
X42959Y-46639D01*
X42895Y-46611D01*
X42838Y-46571D01*
X42790Y-46521D01*
X42752Y-46463D01*
X42727Y-46398D01*
X42714Y-46329D01*
X42715Y-46260D01*
X42729Y-46192D01*
X42757Y-46128D01*
X42796Y-46070D01*
X42846Y-46021D01*
X42904Y-45983D01*
X42969Y-45957D01*
X43037Y-45944D01*
X43107Y-45945D01*
X43175Y-45959D01*
X43239Y-45986D01*
X43297Y-46025D01*
X43346Y-46074D01*
X43384Y-46132D01*
X43411Y-46196D01*
X43425Y-46265D01*
X43425Y-46265D01*
G37*
G36*
X43425Y-47265D02*
X43423Y-47344D01*
X43408Y-47412D01*
X43380Y-47476D01*
X43340Y-47533D01*
X43289Y-47581D01*
X43230Y-47618D01*
X43165Y-47643D01*
X43097Y-47655D01*
X43027Y-47654D01*
X42959Y-47639D01*
X42895Y-47611D01*
X42838Y-47571D01*
X42790Y-47521D01*
X42752Y-47463D01*
X42727Y-47398D01*
X42714Y-47329D01*
X42715Y-47260D01*
X42729Y-47192D01*
X42757Y-47128D01*
X42796Y-47070D01*
X42846Y-47021D01*
X42904Y-46983D01*
X42969Y-46957D01*
X43037Y-46944D01*
X43107Y-46945D01*
X43175Y-46959D01*
X43239Y-46986D01*
X43297Y-47025D01*
X43346Y-47074D01*
X43384Y-47132D01*
X43411Y-47196D01*
X43425Y-47265D01*
X43425Y-47265D01*
G37*
G36*
X43425Y-48265D02*
X43423Y-48344D01*
X43408Y-48412D01*
X43380Y-48476D01*
X43340Y-48533D01*
X43289Y-48581D01*
X43230Y-48618D01*
X43165Y-48643D01*
X43097Y-48655D01*
X43027Y-48654D01*
X42959Y-48639D01*
X42895Y-48611D01*
X42838Y-48571D01*
X42790Y-48521D01*
X42752Y-48463D01*
X42727Y-48398D01*
X42714Y-48329D01*
X42715Y-48260D01*
X42729Y-48192D01*
X42757Y-48128D01*
X42796Y-48070D01*
X42846Y-48021D01*
X42904Y-47983D01*
X42969Y-47957D01*
X43037Y-47944D01*
X43107Y-47945D01*
X43175Y-47959D01*
X43239Y-47986D01*
X43297Y-48025D01*
X43346Y-48074D01*
X43384Y-48132D01*
X43411Y-48196D01*
X43425Y-48265D01*
X43425Y-48265D01*
G37*
G36*
X43425Y-37266D02*
X43424Y-37343D01*
X43408Y-37414D01*
X43381Y-37475D01*
X43339Y-37534D01*
X43290Y-37580D01*
X43229Y-37619D01*
X43167Y-37643D01*
X43095Y-37655D01*
X43029Y-37654D01*
X42958Y-37638D01*
X42897Y-37612D01*
X42837Y-37570D01*
X42791Y-37522D01*
X42751Y-37461D01*
X42727Y-37399D01*
X42714Y-37328D01*
X42715Y-37261D01*
X42730Y-37190D01*
X42756Y-37129D01*
X42797Y-37069D01*
X42844Y-37022D01*
X42906Y-36982D01*
X42967Y-36958D01*
X43039Y-36944D01*
X43105Y-36944D01*
X43177Y-36959D01*
X43238Y-36985D01*
X43298Y-37026D01*
X43345Y-37072D01*
X43386Y-37134D01*
X43411Y-37194D01*
X43425Y-37266D01*
X43425Y-37266D01*
G37*
G36*
X43425Y-38266D02*
X43424Y-38343D01*
X43408Y-38414D01*
X43381Y-38475D01*
X43339Y-38534D01*
X43290Y-38580D01*
X43229Y-38619D01*
X43167Y-38643D01*
X43095Y-38655D01*
X43029Y-38654D01*
X42958Y-38638D01*
X42897Y-38612D01*
X42837Y-38570D01*
X42791Y-38522D01*
X42751Y-38461D01*
X42727Y-38399D01*
X42714Y-38328D01*
X42715Y-38261D01*
X42730Y-38190D01*
X42756Y-38129D01*
X42797Y-38069D01*
X42844Y-38022D01*
X42906Y-37982D01*
X42967Y-37958D01*
X43039Y-37944D01*
X43105Y-37944D01*
X43177Y-37959D01*
X43238Y-37985D01*
X43298Y-38026D01*
X43345Y-38072D01*
X43386Y-38134D01*
X43411Y-38194D01*
X43425Y-38266D01*
X43425Y-38266D01*
G37*
G36*
X43425Y-39266D02*
X43424Y-39343D01*
X43408Y-39414D01*
X43381Y-39475D01*
X43339Y-39534D01*
X43290Y-39580D01*
X43229Y-39619D01*
X43167Y-39643D01*
X43095Y-39655D01*
X43029Y-39654D01*
X42958Y-39638D01*
X42897Y-39612D01*
X42837Y-39570D01*
X42791Y-39522D01*
X42751Y-39461D01*
X42727Y-39399D01*
X42714Y-39328D01*
X42715Y-39261D01*
X42730Y-39190D01*
X42756Y-39129D01*
X42797Y-39069D01*
X42844Y-39022D01*
X42906Y-38982D01*
X42967Y-38958D01*
X43039Y-38944D01*
X43105Y-38944D01*
X43177Y-38959D01*
X43238Y-38985D01*
X43298Y-39026D01*
X43345Y-39072D01*
X43386Y-39134D01*
X43411Y-39194D01*
X43425Y-39266D01*
X43425Y-39266D01*
G37*
G36*
X43425Y-40266D02*
X43424Y-40343D01*
X43408Y-40414D01*
X43381Y-40475D01*
X43339Y-40534D01*
X43290Y-40580D01*
X43229Y-40619D01*
X43167Y-40643D01*
X43095Y-40655D01*
X43029Y-40654D01*
X42958Y-40638D01*
X42897Y-40612D01*
X42837Y-40570D01*
X42791Y-40522D01*
X42751Y-40461D01*
X42727Y-40399D01*
X42714Y-40328D01*
X42715Y-40261D01*
X42730Y-40190D01*
X42756Y-40129D01*
X42797Y-40069D01*
X42844Y-40022D01*
X42906Y-39982D01*
X42967Y-39958D01*
X43039Y-39944D01*
X43105Y-39944D01*
X43177Y-39959D01*
X43238Y-39985D01*
X43298Y-40026D01*
X43345Y-40072D01*
X43386Y-40134D01*
X43411Y-40194D01*
X43425Y-40266D01*
X43425Y-40266D01*
G37*
G36*
X44568Y-41628D02*
X44568Y-41654D01*
X44562Y-41677D01*
X44553Y-41698D01*
X44540Y-41717D01*
X44523Y-41733D01*
X44503Y-41746D01*
X44482Y-41754D01*
X44459Y-41758D01*
X44435Y-41758D01*
X44413Y-41753D01*
X44391Y-41743D01*
X44372Y-41730D01*
X44356Y-41713D01*
X44344Y-41694D01*
X44335Y-41672D01*
X44331Y-41649D01*
X44331Y-41626D01*
X44336Y-41604D01*
X44345Y-41582D01*
X44358Y-41563D01*
X44375Y-41547D01*
X44394Y-41534D01*
X44416Y-41525D01*
X44439Y-41521D01*
X44462Y-41521D01*
X44485Y-41526D01*
X44506Y-41535D01*
X44525Y-41548D01*
X44542Y-41564D01*
X44555Y-41584D01*
X44563Y-41605D01*
X44568Y-41628D01*
X44568Y-41628D01*
G37*
G36*
X44568Y-42022D02*
X44568Y-42048D01*
X44562Y-42071D01*
X44553Y-42092D01*
X44540Y-42111D01*
X44523Y-42127D01*
X44503Y-42139D01*
X44482Y-42148D01*
X44459Y-42152D01*
X44435Y-42151D01*
X44413Y-42146D01*
X44391Y-42137D01*
X44372Y-42124D01*
X44356Y-42107D01*
X44344Y-42088D01*
X44335Y-42066D01*
X44331Y-42043D01*
X44331Y-42020D01*
X44336Y-41997D01*
X44345Y-41976D01*
X44358Y-41957D01*
X44375Y-41940D01*
X44394Y-41928D01*
X44416Y-41919D01*
X44439Y-41915D01*
X44462Y-41915D01*
X44485Y-41920D01*
X44506Y-41929D01*
X44525Y-41942D01*
X44542Y-41958D01*
X44555Y-41977D01*
X44563Y-41999D01*
X44568Y-42022D01*
X44568Y-42022D01*
G37*
G36*
X44568Y-41236D02*
X44568Y-41259D01*
X44562Y-41285D01*
X44554Y-41303D01*
X44539Y-41325D01*
X44524Y-41339D01*
X44502Y-41353D01*
X44483Y-41360D01*
X44457Y-41365D01*
X44437Y-41364D01*
X44411Y-41359D01*
X44393Y-41351D01*
X44371Y-41335D01*
X44357Y-41321D01*
X44343Y-41299D01*
X44335Y-41280D01*
X44331Y-41254D01*
X44331Y-41234D01*
X44336Y-41208D01*
X44344Y-41190D01*
X44359Y-41168D01*
X44373Y-41154D01*
X44396Y-41139D01*
X44414Y-41132D01*
X44441Y-41127D01*
X44460Y-41127D01*
X44487Y-41132D01*
X44505Y-41140D01*
X44527Y-41155D01*
X44541Y-41169D01*
X44556Y-41192D01*
X44563Y-41209D01*
X44568Y-41236D01*
X44568Y-41236D01*
G37*
G36*
X44578Y-29956D02*
X44578Y-29979D01*
X44572Y-30005D01*
X44564Y-30023D01*
X44549Y-30045D01*
X44534Y-30059D01*
X44512Y-30073D01*
X44493Y-30080D01*
X44467Y-30085D01*
X44447Y-30084D01*
X44421Y-30079D01*
X44403Y-30071D01*
X44381Y-30055D01*
X44367Y-30041D01*
X44353Y-30019D01*
X44345Y-30000D01*
X44341Y-29974D01*
X44341Y-29954D01*
X44346Y-29928D01*
X44354Y-29910D01*
X44369Y-29888D01*
X44383Y-29874D01*
X44406Y-29859D01*
X44424Y-29852D01*
X44451Y-29847D01*
X44470Y-29847D01*
X44497Y-29852D01*
X44515Y-29860D01*
X44537Y-29875D01*
X44551Y-29889D01*
X44566Y-29912D01*
X44573Y-29929D01*
X44578Y-29956D01*
X44578Y-29956D01*
G37*
G36*
X44578Y-30349D02*
X44578Y-30373D01*
X44572Y-30398D01*
X44564Y-30417D01*
X44549Y-30438D01*
X44534Y-30452D01*
X44512Y-30467D01*
X44493Y-30474D01*
X44467Y-30478D01*
X44447Y-30478D01*
X44421Y-30472D01*
X44403Y-30464D01*
X44381Y-30449D01*
X44367Y-30435D01*
X44353Y-30412D01*
X44345Y-30394D01*
X44341Y-30368D01*
X44341Y-30348D01*
X44346Y-30322D01*
X44354Y-30304D01*
X44369Y-30282D01*
X44383Y-30268D01*
X44406Y-30253D01*
X44424Y-30246D01*
X44451Y-30241D01*
X44470Y-30241D01*
X44497Y-30246D01*
X44515Y-30254D01*
X44537Y-30269D01*
X44551Y-30283D01*
X44566Y-30305D01*
X44573Y-30323D01*
X44578Y-30349D01*
X44578Y-30349D01*
G37*
G36*
X44578Y-30743D02*
X44578Y-30767D01*
X44572Y-30792D01*
X44564Y-30811D01*
X44549Y-30832D01*
X44534Y-30846D01*
X44512Y-30860D01*
X44493Y-30868D01*
X44467Y-30872D01*
X44447Y-30872D01*
X44421Y-30866D01*
X44403Y-30858D01*
X44381Y-30843D01*
X44367Y-30828D01*
X44353Y-30806D01*
X44345Y-30788D01*
X44341Y-30761D01*
X44341Y-30742D01*
X44346Y-30716D01*
X44354Y-30697D01*
X44369Y-30675D01*
X44383Y-30661D01*
X44406Y-30647D01*
X44424Y-30639D01*
X44451Y-30634D01*
X44470Y-30634D01*
X44497Y-30640D01*
X44515Y-30647D01*
X44537Y-30663D01*
X44551Y-30676D01*
X44566Y-30699D01*
X44573Y-30717D01*
X44578Y-30743D01*
X44578Y-30743D01*
G37*
G36*
X45148Y-29956D02*
X45148Y-29979D01*
X45142Y-30005D01*
X45134Y-30023D01*
X45119Y-30045D01*
X45104Y-30059D01*
X45082Y-30073D01*
X45063Y-30080D01*
X45037Y-30085D01*
X45017Y-30084D01*
X44991Y-30079D01*
X44973Y-30071D01*
X44951Y-30055D01*
X44937Y-30041D01*
X44923Y-30019D01*
X44915Y-30000D01*
X44911Y-29974D01*
X44911Y-29954D01*
X44916Y-29928D01*
X44924Y-29910D01*
X44939Y-29888D01*
X44953Y-29874D01*
X44976Y-29859D01*
X44994Y-29852D01*
X45021Y-29847D01*
X45040Y-29847D01*
X45067Y-29852D01*
X45085Y-29860D01*
X45107Y-29875D01*
X45121Y-29889D01*
X45136Y-29912D01*
X45143Y-29929D01*
X45148Y-29956D01*
X45148Y-29956D01*
G37*
G36*
X45148Y-30349D02*
X45148Y-30373D01*
X45142Y-30398D01*
X45134Y-30417D01*
X45119Y-30438D01*
X45104Y-30452D01*
X45082Y-30467D01*
X45063Y-30474D01*
X45037Y-30478D01*
X45017Y-30478D01*
X44991Y-30472D01*
X44973Y-30464D01*
X44951Y-30449D01*
X44937Y-30435D01*
X44923Y-30412D01*
X44915Y-30394D01*
X44911Y-30368D01*
X44911Y-30348D01*
X44916Y-30322D01*
X44924Y-30304D01*
X44939Y-30282D01*
X44953Y-30268D01*
X44976Y-30253D01*
X44994Y-30246D01*
X45021Y-30241D01*
X45040Y-30241D01*
X45067Y-30246D01*
X45085Y-30254D01*
X45107Y-30269D01*
X45121Y-30283D01*
X45136Y-30305D01*
X45143Y-30323D01*
X45148Y-30349D01*
X45148Y-30349D01*
G37*
G36*
X45148Y-30743D02*
X45148Y-30767D01*
X45142Y-30792D01*
X45134Y-30811D01*
X45119Y-30832D01*
X45104Y-30846D01*
X45082Y-30860D01*
X45063Y-30868D01*
X45037Y-30872D01*
X45017Y-30872D01*
X44991Y-30866D01*
X44973Y-30858D01*
X44951Y-30843D01*
X44937Y-30828D01*
X44923Y-30806D01*
X44915Y-30788D01*
X44911Y-30761D01*
X44911Y-30742D01*
X44916Y-30716D01*
X44924Y-30697D01*
X44939Y-30675D01*
X44953Y-30661D01*
X44976Y-30647D01*
X44994Y-30639D01*
X45021Y-30634D01*
X45040Y-30634D01*
X45067Y-30640D01*
X45085Y-30647D01*
X45107Y-30663D01*
X45121Y-30676D01*
X45136Y-30699D01*
X45143Y-30717D01*
X45148Y-30743D01*
X45148Y-30743D01*
G37*
G36*
X45178Y-41628D02*
X45178Y-41654D01*
X45172Y-41677D01*
X45163Y-41698D01*
X45150Y-41717D01*
X45133Y-41733D01*
X45113Y-41746D01*
X45092Y-41754D01*
X45069Y-41758D01*
X45045Y-41758D01*
X45023Y-41753D01*
X45001Y-41743D01*
X44982Y-41730D01*
X44966Y-41713D01*
X44954Y-41694D01*
X44945Y-41672D01*
X44941Y-41649D01*
X44941Y-41626D01*
X44946Y-41604D01*
X44955Y-41582D01*
X44968Y-41563D01*
X44985Y-41547D01*
X45004Y-41534D01*
X45026Y-41525D01*
X45049Y-41521D01*
X45072Y-41521D01*
X45095Y-41526D01*
X45116Y-41535D01*
X45135Y-41548D01*
X45152Y-41564D01*
X45165Y-41584D01*
X45173Y-41605D01*
X45178Y-41628D01*
X45178Y-41628D01*
G37*
G36*
X45178Y-42022D02*
X45178Y-42048D01*
X45172Y-42071D01*
X45163Y-42092D01*
X45150Y-42111D01*
X45133Y-42127D01*
X45113Y-42139D01*
X45092Y-42148D01*
X45069Y-42152D01*
X45045Y-42151D01*
X45023Y-42146D01*
X45001Y-42137D01*
X44982Y-42124D01*
X44966Y-42107D01*
X44954Y-42088D01*
X44945Y-42066D01*
X44941Y-42043D01*
X44941Y-42020D01*
X44946Y-41997D01*
X44955Y-41976D01*
X44968Y-41957D01*
X44985Y-41940D01*
X45004Y-41928D01*
X45026Y-41919D01*
X45049Y-41915D01*
X45072Y-41915D01*
X45095Y-41920D01*
X45116Y-41929D01*
X45135Y-41942D01*
X45152Y-41958D01*
X45165Y-41977D01*
X45173Y-41999D01*
X45178Y-42022D01*
X45178Y-42022D01*
G37*
G36*
X45178Y-41236D02*
X45178Y-41259D01*
X45172Y-41285D01*
X45164Y-41303D01*
X45149Y-41325D01*
X45134Y-41339D01*
X45112Y-41353D01*
X45093Y-41360D01*
X45067Y-41365D01*
X45047Y-41364D01*
X45021Y-41359D01*
X45003Y-41351D01*
X44981Y-41335D01*
X44967Y-41321D01*
X44953Y-41299D01*
X44945Y-41280D01*
X44941Y-41254D01*
X44941Y-41234D01*
X44946Y-41208D01*
X44954Y-41190D01*
X44969Y-41168D01*
X44983Y-41154D01*
X45006Y-41139D01*
X45024Y-41132D01*
X45051Y-41127D01*
X45070Y-41127D01*
X45097Y-41132D01*
X45115Y-41140D01*
X45137Y-41155D01*
X45151Y-41169D01*
X45166Y-41192D01*
X45173Y-41209D01*
X45178Y-41236D01*
X45178Y-41236D01*
G37*
G36*
X47167Y-30376D02*
X46300Y-30376D01*
X46300Y-30119D01*
X47167Y-30119D01*
X47167Y-30376D01*
X47167Y-30376D01*
G37*
G36*
X47167Y-30691D02*
X46300Y-30691D01*
X46300Y-30434D01*
X47167Y-30434D01*
X47167Y-30691D01*
X47167Y-30691D01*
G37*
G36*
X47167Y-31006D02*
X46300Y-31006D01*
X46300Y-30749D01*
X47167Y-30749D01*
X47167Y-31006D01*
X47167Y-31006D01*
G37*
G36*
X47167Y-31321D02*
X46300Y-31321D01*
X46300Y-31064D01*
X47167Y-31064D01*
X47167Y-31321D01*
X47167Y-31321D01*
G37*
G36*
X47167Y-31636D02*
X46300Y-31636D01*
X46300Y-31379D01*
X47167Y-31379D01*
X47167Y-31636D01*
X47167Y-31636D01*
G37*
G36*
X47167Y-31951D02*
X46300Y-31951D01*
X46300Y-31694D01*
X47167Y-31694D01*
X47167Y-31951D01*
X47167Y-31951D01*
G37*
G36*
X47167Y-32266D02*
X46300Y-32266D01*
X46300Y-32009D01*
X47167Y-32009D01*
X47167Y-32266D01*
X47167Y-32266D01*
G37*
G36*
X47167Y-32581D02*
X46300Y-32581D01*
X46300Y-32324D01*
X47167Y-32324D01*
X47167Y-32581D01*
X47167Y-32581D01*
G37*
G36*
X47275Y-37349D02*
X47274Y-37419D01*
X47260Y-37479D01*
X47235Y-37536D01*
X47199Y-37586D01*
X47154Y-37629D01*
X47102Y-37662D01*
X47045Y-37684D01*
X46984Y-37695D01*
X46922Y-37694D01*
X46862Y-37681D01*
X46805Y-37656D01*
X46754Y-37621D01*
X46711Y-37576D01*
X46678Y-37524D01*
X46655Y-37467D01*
X46644Y-37406D01*
X46645Y-37344D01*
X46658Y-37284D01*
X46682Y-37227D01*
X46717Y-37176D01*
X46761Y-37133D01*
X46813Y-37099D01*
X46870Y-37076D01*
X46931Y-37064D01*
X46993Y-37065D01*
X47053Y-37077D01*
X47110Y-37101D01*
X47161Y-37136D01*
X47205Y-37179D01*
X47239Y-37231D01*
X47263Y-37288D01*
X47275Y-37349D01*
X47275Y-37349D01*
G37*
G36*
X47275Y-38349D02*
X47274Y-38419D01*
X47260Y-38479D01*
X47235Y-38536D01*
X47199Y-38586D01*
X47154Y-38629D01*
X47102Y-38662D01*
X47045Y-38684D01*
X46984Y-38695D01*
X46922Y-38694D01*
X46862Y-38681D01*
X46805Y-38656D01*
X46754Y-38621D01*
X46711Y-38576D01*
X46678Y-38524D01*
X46655Y-38467D01*
X46644Y-38406D01*
X46645Y-38344D01*
X46658Y-38284D01*
X46682Y-38227D01*
X46717Y-38176D01*
X46761Y-38133D01*
X46813Y-38099D01*
X46870Y-38076D01*
X46931Y-38064D01*
X46993Y-38065D01*
X47053Y-38077D01*
X47110Y-38101D01*
X47161Y-38136D01*
X47205Y-38179D01*
X47239Y-38231D01*
X47263Y-38288D01*
X47275Y-38349D01*
X47275Y-38349D01*
G37*
G36*
X47275Y-39349D02*
X47274Y-39419D01*
X47260Y-39479D01*
X47235Y-39536D01*
X47199Y-39586D01*
X47154Y-39629D01*
X47102Y-39662D01*
X47045Y-39684D01*
X46984Y-39695D01*
X46922Y-39694D01*
X46862Y-39681D01*
X46805Y-39656D01*
X46754Y-39621D01*
X46711Y-39576D01*
X46678Y-39524D01*
X46655Y-39467D01*
X46644Y-39406D01*
X46645Y-39344D01*
X46658Y-39284D01*
X46682Y-39227D01*
X46717Y-39176D01*
X46761Y-39133D01*
X46813Y-39099D01*
X46870Y-39076D01*
X46931Y-39064D01*
X46993Y-39065D01*
X47053Y-39077D01*
X47110Y-39101D01*
X47161Y-39136D01*
X47205Y-39179D01*
X47239Y-39231D01*
X47263Y-39288D01*
X47275Y-39349D01*
X47275Y-39349D01*
G37*
G36*
X47275Y-40349D02*
X47274Y-40419D01*
X47260Y-40479D01*
X47235Y-40536D01*
X47199Y-40586D01*
X47154Y-40629D01*
X47102Y-40662D01*
X47045Y-40684D01*
X46984Y-40695D01*
X46922Y-40694D01*
X46862Y-40681D01*
X46805Y-40656D01*
X46754Y-40621D01*
X46711Y-40576D01*
X46678Y-40524D01*
X46655Y-40467D01*
X46644Y-40406D01*
X46645Y-40344D01*
X46658Y-40284D01*
X46682Y-40227D01*
X46717Y-40176D01*
X46761Y-40133D01*
X46813Y-40099D01*
X46870Y-40076D01*
X46931Y-40064D01*
X46993Y-40065D01*
X47053Y-40077D01*
X47110Y-40101D01*
X47161Y-40136D01*
X47205Y-40179D01*
X47239Y-40231D01*
X47263Y-40288D01*
X47275Y-40349D01*
X47275Y-40349D01*
G37*
G36*
X47275Y-41349D02*
X47274Y-41419D01*
X47260Y-41479D01*
X47235Y-41536D01*
X47199Y-41586D01*
X47154Y-41629D01*
X47102Y-41662D01*
X47045Y-41684D01*
X46984Y-41695D01*
X46922Y-41694D01*
X46862Y-41681D01*
X46805Y-41656D01*
X46754Y-41621D01*
X46711Y-41576D01*
X46678Y-41524D01*
X46655Y-41467D01*
X46644Y-41406D01*
X46645Y-41344D01*
X46658Y-41284D01*
X46682Y-41227D01*
X46717Y-41176D01*
X46761Y-41133D01*
X46813Y-41099D01*
X46870Y-41076D01*
X46931Y-41064D01*
X46993Y-41065D01*
X47053Y-41077D01*
X47110Y-41101D01*
X47161Y-41136D01*
X47205Y-41179D01*
X47239Y-41231D01*
X47263Y-41288D01*
X47275Y-41349D01*
X47275Y-41349D01*
G37*
G36*
X47275Y-42349D02*
X47274Y-42419D01*
X47260Y-42479D01*
X47235Y-42536D01*
X47199Y-42586D01*
X47154Y-42629D01*
X47102Y-42662D01*
X47045Y-42684D01*
X46984Y-42695D01*
X46922Y-42694D01*
X46862Y-42681D01*
X46805Y-42656D01*
X46754Y-42621D01*
X46711Y-42576D01*
X46678Y-42524D01*
X46655Y-42467D01*
X46644Y-42406D01*
X46645Y-42344D01*
X46658Y-42284D01*
X46682Y-42227D01*
X46717Y-42176D01*
X46761Y-42133D01*
X46813Y-42099D01*
X46870Y-42076D01*
X46931Y-42064D01*
X46993Y-42065D01*
X47053Y-42077D01*
X47110Y-42101D01*
X47161Y-42136D01*
X47205Y-42179D01*
X47239Y-42231D01*
X47263Y-42288D01*
X47275Y-42349D01*
X47275Y-42349D01*
G37*
G36*
X47275Y-43349D02*
X47274Y-43419D01*
X47260Y-43479D01*
X47235Y-43536D01*
X47199Y-43586D01*
X47154Y-43629D01*
X47102Y-43662D01*
X47045Y-43684D01*
X46984Y-43695D01*
X46922Y-43694D01*
X46862Y-43681D01*
X46805Y-43656D01*
X46754Y-43621D01*
X46711Y-43576D01*
X46678Y-43524D01*
X46655Y-43467D01*
X46644Y-43406D01*
X46645Y-43344D01*
X46658Y-43284D01*
X46682Y-43227D01*
X46717Y-43176D01*
X46761Y-43133D01*
X46813Y-43099D01*
X46870Y-43076D01*
X46931Y-43064D01*
X46993Y-43065D01*
X47053Y-43077D01*
X47110Y-43101D01*
X47161Y-43136D01*
X47205Y-43179D01*
X47239Y-43231D01*
X47263Y-43288D01*
X47275Y-43349D01*
X47275Y-43349D01*
G37*
G36*
X47275Y-44349D02*
X47274Y-44419D01*
X47260Y-44479D01*
X47235Y-44536D01*
X47199Y-44586D01*
X47154Y-44629D01*
X47102Y-44662D01*
X47045Y-44684D01*
X46984Y-44695D01*
X46922Y-44694D01*
X46862Y-44681D01*
X46805Y-44656D01*
X46754Y-44621D01*
X46711Y-44576D01*
X46678Y-44524D01*
X46655Y-44467D01*
X46644Y-44406D01*
X46645Y-44344D01*
X46658Y-44284D01*
X46682Y-44227D01*
X46717Y-44176D01*
X46761Y-44133D01*
X46813Y-44099D01*
X46870Y-44076D01*
X46931Y-44064D01*
X46993Y-44065D01*
X47053Y-44077D01*
X47110Y-44101D01*
X47161Y-44136D01*
X47205Y-44179D01*
X47239Y-44231D01*
X47263Y-44288D01*
X47275Y-44349D01*
X47275Y-44349D01*
G37*
G36*
X47275Y-45349D02*
X47274Y-45419D01*
X47260Y-45479D01*
X47235Y-45536D01*
X47199Y-45586D01*
X47154Y-45629D01*
X47102Y-45662D01*
X47045Y-45684D01*
X46984Y-45695D01*
X46922Y-45694D01*
X46862Y-45681D01*
X46805Y-45656D01*
X46754Y-45621D01*
X46711Y-45576D01*
X46678Y-45524D01*
X46655Y-45467D01*
X46644Y-45406D01*
X46645Y-45344D01*
X46658Y-45284D01*
X46682Y-45227D01*
X46717Y-45176D01*
X46761Y-45133D01*
X46813Y-45099D01*
X46870Y-45076D01*
X46931Y-45064D01*
X46993Y-45065D01*
X47053Y-45077D01*
X47110Y-45101D01*
X47161Y-45136D01*
X47205Y-45179D01*
X47239Y-45231D01*
X47263Y-45288D01*
X47275Y-45349D01*
X47275Y-45349D01*
G37*
G36*
X47275Y-46349D02*
X47274Y-46419D01*
X47260Y-46479D01*
X47235Y-46536D01*
X47199Y-46586D01*
X47154Y-46629D01*
X47102Y-46662D01*
X47045Y-46684D01*
X46984Y-46695D01*
X46922Y-46694D01*
X46862Y-46681D01*
X46805Y-46656D01*
X46754Y-46621D01*
X46711Y-46576D01*
X46678Y-46524D01*
X46655Y-46467D01*
X46644Y-46406D01*
X46645Y-46344D01*
X46658Y-46284D01*
X46682Y-46227D01*
X46717Y-46176D01*
X46761Y-46133D01*
X46813Y-46099D01*
X46870Y-46076D01*
X46931Y-46064D01*
X46993Y-46065D01*
X47053Y-46077D01*
X47110Y-46101D01*
X47161Y-46136D01*
X47205Y-46179D01*
X47239Y-46231D01*
X47263Y-46288D01*
X47275Y-46349D01*
X47275Y-46349D01*
G37*
G36*
X47275Y-47349D02*
X47274Y-47419D01*
X47260Y-47479D01*
X47235Y-47536D01*
X47199Y-47586D01*
X47154Y-47629D01*
X47102Y-47662D01*
X47045Y-47684D01*
X46984Y-47695D01*
X46922Y-47694D01*
X46862Y-47681D01*
X46805Y-47656D01*
X46754Y-47621D01*
X46711Y-47576D01*
X46678Y-47524D01*
X46655Y-47467D01*
X46644Y-47406D01*
X46645Y-47344D01*
X46658Y-47284D01*
X46682Y-47227D01*
X46717Y-47176D01*
X46761Y-47133D01*
X46813Y-47099D01*
X46870Y-47076D01*
X46931Y-47064D01*
X46993Y-47065D01*
X47053Y-47077D01*
X47110Y-47101D01*
X47161Y-47136D01*
X47205Y-47179D01*
X47239Y-47231D01*
X47263Y-47288D01*
X47275Y-47349D01*
X47275Y-47349D01*
G37*
G36*
X47275Y-48349D02*
X47274Y-48419D01*
X47260Y-48479D01*
X47235Y-48536D01*
X47199Y-48586D01*
X47154Y-48629D01*
X47102Y-48662D01*
X47045Y-48684D01*
X46984Y-48695D01*
X46922Y-48694D01*
X46862Y-48681D01*
X46805Y-48656D01*
X46754Y-48621D01*
X46711Y-48576D01*
X46678Y-48524D01*
X46655Y-48467D01*
X46644Y-48406D01*
X46645Y-48344D01*
X46658Y-48284D01*
X46682Y-48227D01*
X46717Y-48176D01*
X46761Y-48133D01*
X46813Y-48099D01*
X46870Y-48076D01*
X46931Y-48064D01*
X46993Y-48065D01*
X47053Y-48077D01*
X47110Y-48101D01*
X47161Y-48136D01*
X47205Y-48179D01*
X47239Y-48231D01*
X47263Y-48288D01*
X47275Y-48349D01*
X47275Y-48349D01*
G37*
G36*
X47275Y-36350D02*
X47274Y-36418D01*
X47260Y-36481D01*
X47236Y-36535D01*
X47198Y-36588D01*
X47156Y-36628D01*
X47101Y-36663D01*
X47046Y-36684D01*
X46982Y-36695D01*
X46924Y-36694D01*
X46860Y-36680D01*
X46806Y-36657D01*
X46753Y-36620D01*
X46712Y-36577D01*
X46677Y-36523D01*
X46656Y-36468D01*
X46644Y-36404D01*
X46645Y-36346D01*
X46658Y-36282D01*
X46681Y-36228D01*
X46718Y-36175D01*
X46760Y-36134D01*
X46814Y-36098D01*
X46868Y-36076D01*
X46933Y-36064D01*
X46991Y-36064D01*
X47055Y-36078D01*
X47108Y-36100D01*
X47163Y-36137D01*
X47204Y-36178D01*
X47240Y-36233D01*
X47262Y-36286D01*
X47275Y-36350D01*
X47275Y-36350D01*
G37*
G36*
X47275Y-35695D02*
X46644Y-35695D01*
X46644Y-35064D01*
X47275Y-35064D01*
X47275Y-35695D01*
X47275Y-35695D01*
G37*
G36*
X47646Y-29893D02*
X47389Y-29893D01*
X47389Y-29026D01*
X47646Y-29026D01*
X47646Y-29893D01*
X47646Y-29893D01*
G37*
G36*
X47648Y-33673D02*
X47391Y-33673D01*
X47391Y-32806D01*
X47648Y-32806D01*
X47648Y-33673D01*
X47648Y-33673D01*
G37*
G36*
X47958Y-33673D02*
X47701Y-33673D01*
X47701Y-32806D01*
X47958Y-32806D01*
X47958Y-33673D01*
X47958Y-33673D01*
G37*
G36*
X47960Y-29893D02*
X47703Y-29893D01*
X47703Y-29026D01*
X47960Y-29026D01*
X47960Y-29893D01*
X47960Y-29893D01*
G37*
G36*
X48276Y-29893D02*
X48019Y-29893D01*
X48019Y-29026D01*
X48276Y-29026D01*
X48276Y-29893D01*
X48276Y-29893D01*
G37*
G36*
X48278Y-33673D02*
X48021Y-33673D01*
X48021Y-32806D01*
X48278Y-32806D01*
X48278Y-33673D01*
X48278Y-33673D01*
G37*
G36*
X48588Y-33673D02*
X48331Y-33673D01*
X48331Y-32806D01*
X48588Y-32806D01*
X48588Y-33673D01*
X48588Y-33673D01*
G37*
G36*
X48590Y-29893D02*
X48333Y-29893D01*
X48333Y-29026D01*
X48590Y-29026D01*
X48590Y-29893D01*
X48590Y-29893D01*
G37*
G36*
X48898Y-33673D02*
X48641Y-33673D01*
X48641Y-32806D01*
X48898Y-32806D01*
X48898Y-33673D01*
X48898Y-33673D01*
G37*
G36*
X48906Y-29893D02*
X48649Y-29893D01*
X48649Y-29026D01*
X48906Y-29026D01*
X48906Y-29893D01*
X48906Y-29893D01*
G37*
G36*
X49218Y-33673D02*
X48961Y-33673D01*
X48961Y-32806D01*
X49218Y-32806D01*
X49218Y-33673D01*
X49218Y-33673D01*
G37*
G36*
X49220Y-29893D02*
X48963Y-29893D01*
X48963Y-29026D01*
X49220Y-29026D01*
X49220Y-29893D01*
X49220Y-29893D01*
G37*
G36*
X49536Y-29893D02*
X49279Y-29893D01*
X49279Y-29026D01*
X49536Y-29026D01*
X49536Y-29893D01*
X49536Y-29893D01*
G37*
G36*
X49538Y-33673D02*
X49281Y-33673D01*
X49281Y-32806D01*
X49538Y-32806D01*
X49538Y-33673D01*
X49538Y-33673D01*
G37*
G36*
X49850Y-29893D02*
X49593Y-29893D01*
X49593Y-29026D01*
X49850Y-29026D01*
X49850Y-29893D01*
X49850Y-29893D01*
G37*
G36*
X49858Y-33673D02*
X49601Y-33673D01*
X49601Y-32806D01*
X49858Y-32806D01*
X49858Y-33673D01*
X49858Y-33673D01*
G37*
G36*
X50275Y-36349D02*
X50274Y-36419D01*
X50260Y-36479D01*
X50235Y-36536D01*
X50199Y-36586D01*
X50154Y-36629D01*
X50102Y-36662D01*
X50045Y-36684D01*
X49984Y-36695D01*
X49922Y-36694D01*
X49862Y-36681D01*
X49805Y-36656D01*
X49754Y-36621D01*
X49711Y-36576D01*
X49678Y-36524D01*
X49655Y-36467D01*
X49644Y-36406D01*
X49645Y-36344D01*
X49658Y-36284D01*
X49682Y-36227D01*
X49717Y-36176D01*
X49761Y-36133D01*
X49813Y-36099D01*
X49870Y-36076D01*
X49931Y-36064D01*
X49993Y-36065D01*
X50053Y-36077D01*
X50110Y-36101D01*
X50161Y-36136D01*
X50205Y-36179D01*
X50239Y-36231D01*
X50263Y-36288D01*
X50275Y-36349D01*
X50275Y-36349D01*
G37*
G36*
X50275Y-37349D02*
X50274Y-37419D01*
X50260Y-37479D01*
X50235Y-37536D01*
X50199Y-37586D01*
X50154Y-37629D01*
X50102Y-37662D01*
X50045Y-37684D01*
X49984Y-37695D01*
X49922Y-37694D01*
X49862Y-37681D01*
X49805Y-37656D01*
X49754Y-37621D01*
X49711Y-37576D01*
X49678Y-37524D01*
X49655Y-37467D01*
X49644Y-37406D01*
X49645Y-37344D01*
X49658Y-37284D01*
X49682Y-37227D01*
X49717Y-37176D01*
X49761Y-37133D01*
X49813Y-37099D01*
X49870Y-37076D01*
X49931Y-37064D01*
X49993Y-37065D01*
X50053Y-37077D01*
X50110Y-37101D01*
X50161Y-37136D01*
X50205Y-37179D01*
X50239Y-37231D01*
X50263Y-37288D01*
X50275Y-37349D01*
X50275Y-37349D01*
G37*
G36*
X50275Y-38349D02*
X50274Y-38419D01*
X50260Y-38479D01*
X50235Y-38536D01*
X50199Y-38586D01*
X50154Y-38629D01*
X50102Y-38662D01*
X50045Y-38684D01*
X49984Y-38695D01*
X49922Y-38694D01*
X49862Y-38681D01*
X49805Y-38656D01*
X49754Y-38621D01*
X49711Y-38576D01*
X49678Y-38524D01*
X49655Y-38467D01*
X49644Y-38406D01*
X49645Y-38344D01*
X49658Y-38284D01*
X49682Y-38227D01*
X49717Y-38176D01*
X49761Y-38133D01*
X49813Y-38099D01*
X49870Y-38076D01*
X49931Y-38064D01*
X49993Y-38065D01*
X50053Y-38077D01*
X50110Y-38101D01*
X50161Y-38136D01*
X50205Y-38179D01*
X50239Y-38231D01*
X50263Y-38288D01*
X50275Y-38349D01*
X50275Y-38349D01*
G37*
G36*
X50275Y-39349D02*
X50274Y-39419D01*
X50260Y-39479D01*
X50235Y-39536D01*
X50199Y-39586D01*
X50154Y-39629D01*
X50102Y-39662D01*
X50045Y-39684D01*
X49984Y-39695D01*
X49922Y-39694D01*
X49862Y-39681D01*
X49805Y-39656D01*
X49754Y-39621D01*
X49711Y-39576D01*
X49678Y-39524D01*
X49655Y-39467D01*
X49644Y-39406D01*
X49645Y-39344D01*
X49658Y-39284D01*
X49682Y-39227D01*
X49717Y-39176D01*
X49761Y-39133D01*
X49813Y-39099D01*
X49870Y-39076D01*
X49931Y-39064D01*
X49993Y-39065D01*
X50053Y-39077D01*
X50110Y-39101D01*
X50161Y-39136D01*
X50205Y-39179D01*
X50239Y-39231D01*
X50263Y-39288D01*
X50275Y-39349D01*
X50275Y-39349D01*
G37*
G36*
X50275Y-40349D02*
X50274Y-40419D01*
X50260Y-40479D01*
X50235Y-40536D01*
X50199Y-40586D01*
X50154Y-40629D01*
X50102Y-40662D01*
X50045Y-40684D01*
X49984Y-40695D01*
X49922Y-40694D01*
X49862Y-40681D01*
X49805Y-40656D01*
X49754Y-40621D01*
X49711Y-40576D01*
X49678Y-40524D01*
X49655Y-40467D01*
X49644Y-40406D01*
X49645Y-40344D01*
X49658Y-40284D01*
X49682Y-40227D01*
X49717Y-40176D01*
X49761Y-40133D01*
X49813Y-40099D01*
X49870Y-40076D01*
X49931Y-40064D01*
X49993Y-40065D01*
X50053Y-40077D01*
X50110Y-40101D01*
X50161Y-40136D01*
X50205Y-40179D01*
X50239Y-40231D01*
X50263Y-40288D01*
X50275Y-40349D01*
X50275Y-40349D01*
G37*
G36*
X50275Y-41349D02*
X50274Y-41419D01*
X50260Y-41479D01*
X50235Y-41536D01*
X50199Y-41586D01*
X50154Y-41629D01*
X50102Y-41662D01*
X50045Y-41684D01*
X49984Y-41695D01*
X49922Y-41694D01*
X49862Y-41681D01*
X49805Y-41656D01*
X49754Y-41621D01*
X49711Y-41576D01*
X49678Y-41524D01*
X49655Y-41467D01*
X49644Y-41406D01*
X49645Y-41344D01*
X49658Y-41284D01*
X49682Y-41227D01*
X49717Y-41176D01*
X49761Y-41133D01*
X49813Y-41099D01*
X49870Y-41076D01*
X49931Y-41064D01*
X49993Y-41065D01*
X50053Y-41077D01*
X50110Y-41101D01*
X50161Y-41136D01*
X50205Y-41179D01*
X50239Y-41231D01*
X50263Y-41288D01*
X50275Y-41349D01*
X50275Y-41349D01*
G37*
G36*
X50275Y-42349D02*
X50274Y-42419D01*
X50260Y-42479D01*
X50235Y-42536D01*
X50199Y-42586D01*
X50154Y-42629D01*
X50102Y-42662D01*
X50045Y-42684D01*
X49984Y-42695D01*
X49922Y-42694D01*
X49862Y-42681D01*
X49805Y-42656D01*
X49754Y-42621D01*
X49711Y-42576D01*
X49678Y-42524D01*
X49655Y-42467D01*
X49644Y-42406D01*
X49645Y-42344D01*
X49658Y-42284D01*
X49682Y-42227D01*
X49717Y-42176D01*
X49761Y-42133D01*
X49813Y-42099D01*
X49870Y-42076D01*
X49931Y-42064D01*
X49993Y-42065D01*
X50053Y-42077D01*
X50110Y-42101D01*
X50161Y-42136D01*
X50205Y-42179D01*
X50239Y-42231D01*
X50263Y-42288D01*
X50275Y-42349D01*
X50275Y-42349D01*
G37*
G36*
X50275Y-43349D02*
X50274Y-43419D01*
X50260Y-43479D01*
X50235Y-43536D01*
X50199Y-43586D01*
X50154Y-43629D01*
X50102Y-43662D01*
X50045Y-43684D01*
X49984Y-43695D01*
X49922Y-43694D01*
X49862Y-43681D01*
X49805Y-43656D01*
X49754Y-43621D01*
X49711Y-43576D01*
X49678Y-43524D01*
X49655Y-43467D01*
X49644Y-43406D01*
X49645Y-43344D01*
X49658Y-43284D01*
X49682Y-43227D01*
X49717Y-43176D01*
X49761Y-43133D01*
X49813Y-43099D01*
X49870Y-43076D01*
X49931Y-43064D01*
X49993Y-43065D01*
X50053Y-43077D01*
X50110Y-43101D01*
X50161Y-43136D01*
X50205Y-43179D01*
X50239Y-43231D01*
X50263Y-43288D01*
X50275Y-43349D01*
X50275Y-43349D01*
G37*
G36*
X50275Y-44349D02*
X50274Y-44419D01*
X50260Y-44479D01*
X50235Y-44536D01*
X50199Y-44586D01*
X50154Y-44629D01*
X50102Y-44662D01*
X50045Y-44684D01*
X49984Y-44695D01*
X49922Y-44694D01*
X49862Y-44681D01*
X49805Y-44656D01*
X49754Y-44621D01*
X49711Y-44576D01*
X49678Y-44524D01*
X49655Y-44467D01*
X49644Y-44406D01*
X49645Y-44344D01*
X49658Y-44284D01*
X49682Y-44227D01*
X49717Y-44176D01*
X49761Y-44133D01*
X49813Y-44099D01*
X49870Y-44076D01*
X49931Y-44064D01*
X49993Y-44065D01*
X50053Y-44077D01*
X50110Y-44101D01*
X50161Y-44136D01*
X50205Y-44179D01*
X50239Y-44231D01*
X50263Y-44288D01*
X50275Y-44349D01*
X50275Y-44349D01*
G37*
G36*
X50275Y-45349D02*
X50274Y-45419D01*
X50260Y-45479D01*
X50235Y-45536D01*
X50199Y-45586D01*
X50154Y-45629D01*
X50102Y-45662D01*
X50045Y-45684D01*
X49984Y-45695D01*
X49922Y-45694D01*
X49862Y-45681D01*
X49805Y-45656D01*
X49754Y-45621D01*
X49711Y-45576D01*
X49678Y-45524D01*
X49655Y-45467D01*
X49644Y-45406D01*
X49645Y-45344D01*
X49658Y-45284D01*
X49682Y-45227D01*
X49717Y-45176D01*
X49761Y-45133D01*
X49813Y-45099D01*
X49870Y-45076D01*
X49931Y-45064D01*
X49993Y-45065D01*
X50053Y-45077D01*
X50110Y-45101D01*
X50161Y-45136D01*
X50205Y-45179D01*
X50239Y-45231D01*
X50263Y-45288D01*
X50275Y-45349D01*
X50275Y-45349D01*
G37*
G36*
X50275Y-46349D02*
X50274Y-46419D01*
X50260Y-46479D01*
X50235Y-46536D01*
X50199Y-46586D01*
X50154Y-46629D01*
X50102Y-46662D01*
X50045Y-46684D01*
X49984Y-46695D01*
X49922Y-46694D01*
X49862Y-46681D01*
X49805Y-46656D01*
X49754Y-46621D01*
X49711Y-46576D01*
X49678Y-46524D01*
X49655Y-46467D01*
X49644Y-46406D01*
X49645Y-46344D01*
X49658Y-46284D01*
X49682Y-46227D01*
X49717Y-46176D01*
X49761Y-46133D01*
X49813Y-46099D01*
X49870Y-46076D01*
X49931Y-46064D01*
X49993Y-46065D01*
X50053Y-46077D01*
X50110Y-46101D01*
X50161Y-46136D01*
X50205Y-46179D01*
X50239Y-46231D01*
X50263Y-46288D01*
X50275Y-46349D01*
X50275Y-46349D01*
G37*
G36*
X50275Y-47349D02*
X50274Y-47419D01*
X50260Y-47479D01*
X50235Y-47536D01*
X50199Y-47586D01*
X50154Y-47629D01*
X50102Y-47662D01*
X50045Y-47684D01*
X49984Y-47695D01*
X49922Y-47694D01*
X49862Y-47681D01*
X49805Y-47656D01*
X49754Y-47621D01*
X49711Y-47576D01*
X49678Y-47524D01*
X49655Y-47467D01*
X49644Y-47406D01*
X49645Y-47344D01*
X49658Y-47284D01*
X49682Y-47227D01*
X49717Y-47176D01*
X49761Y-47133D01*
X49813Y-47099D01*
X49870Y-47076D01*
X49931Y-47064D01*
X49993Y-47065D01*
X50053Y-47077D01*
X50110Y-47101D01*
X50161Y-47136D01*
X50205Y-47179D01*
X50239Y-47231D01*
X50263Y-47288D01*
X50275Y-47349D01*
X50275Y-47349D01*
G37*
G36*
X50275Y-48349D02*
X50274Y-48419D01*
X50260Y-48479D01*
X50235Y-48536D01*
X50199Y-48586D01*
X50154Y-48629D01*
X50102Y-48662D01*
X50045Y-48684D01*
X49984Y-48695D01*
X49922Y-48694D01*
X49862Y-48681D01*
X49805Y-48656D01*
X49754Y-48621D01*
X49711Y-48576D01*
X49678Y-48524D01*
X49655Y-48467D01*
X49644Y-48406D01*
X49645Y-48344D01*
X49658Y-48284D01*
X49682Y-48227D01*
X49717Y-48176D01*
X49761Y-48133D01*
X49813Y-48099D01*
X49870Y-48076D01*
X49931Y-48064D01*
X49993Y-48065D01*
X50053Y-48077D01*
X50110Y-48101D01*
X50161Y-48136D01*
X50205Y-48179D01*
X50239Y-48231D01*
X50263Y-48288D01*
X50275Y-48349D01*
X50275Y-48349D01*
G37*
G36*
X50275Y-35350D02*
X50274Y-35418D01*
X50260Y-35481D01*
X50236Y-35535D01*
X50198Y-35588D01*
X50156Y-35628D01*
X50101Y-35663D01*
X50046Y-35684D01*
X49982Y-35695D01*
X49924Y-35694D01*
X49860Y-35680D01*
X49806Y-35657D01*
X49753Y-35620D01*
X49712Y-35577D01*
X49677Y-35523D01*
X49656Y-35468D01*
X49644Y-35404D01*
X49645Y-35346D01*
X49658Y-35282D01*
X49681Y-35228D01*
X49718Y-35175D01*
X49760Y-35134D01*
X49814Y-35098D01*
X49868Y-35076D01*
X49933Y-35064D01*
X49991Y-35064D01*
X50055Y-35078D01*
X50108Y-35100D01*
X50163Y-35137D01*
X50204Y-35178D01*
X50240Y-35233D01*
X50262Y-35286D01*
X50275Y-35350D01*
X50275Y-35350D01*
G37*
G36*
X50933Y-30378D02*
X50066Y-30378D01*
X50066Y-30121D01*
X50933Y-30121D01*
X50933Y-30378D01*
X50933Y-30378D01*
G37*
G36*
X50933Y-30688D02*
X50066Y-30688D01*
X50066Y-30431D01*
X50933Y-30431D01*
X50933Y-30688D01*
X50933Y-30688D01*
G37*
G36*
X50933Y-31008D02*
X50066Y-31008D01*
X50066Y-30751D01*
X50933Y-30751D01*
X50933Y-31008D01*
X50933Y-31008D01*
G37*
G36*
X50933Y-31318D02*
X50066Y-31318D01*
X50066Y-31061D01*
X50933Y-31061D01*
X50933Y-31318D01*
X50933Y-31318D01*
G37*
G36*
X50933Y-31638D02*
X50066Y-31638D01*
X50066Y-31381D01*
X50933Y-31381D01*
X50933Y-31638D01*
X50933Y-31638D01*
G37*
G36*
X50933Y-31948D02*
X50066Y-31948D01*
X50066Y-31691D01*
X50933Y-31691D01*
X50933Y-31948D01*
X50933Y-31948D01*
G37*
G36*
X50933Y-32268D02*
X50066Y-32268D01*
X50066Y-32011D01*
X50933Y-32011D01*
X50933Y-32268D01*
X50933Y-32268D01*
G37*
G36*
X50933Y-32588D02*
X50066Y-32588D01*
X50066Y-32331D01*
X50933Y-32331D01*
X50933Y-32588D01*
X50933Y-32588D01*
G37*
G36*
X52548Y-32378D02*
X52548Y-32404D01*
X52542Y-32427D01*
X52533Y-32448D01*
X52520Y-32467D01*
X52503Y-32483D01*
X52483Y-32496D01*
X52462Y-32504D01*
X52439Y-32508D01*
X52415Y-32508D01*
X52393Y-32503D01*
X52371Y-32493D01*
X52352Y-32480D01*
X52336Y-32463D01*
X52324Y-32444D01*
X52315Y-32422D01*
X52311Y-32399D01*
X52311Y-32376D01*
X52316Y-32354D01*
X52325Y-32332D01*
X52338Y-32313D01*
X52355Y-32297D01*
X52374Y-32284D01*
X52396Y-32275D01*
X52419Y-32271D01*
X52442Y-32271D01*
X52465Y-32276D01*
X52486Y-32285D01*
X52505Y-32298D01*
X52522Y-32314D01*
X52535Y-32334D01*
X52543Y-32355D01*
X52548Y-32378D01*
X52548Y-32378D01*
G37*
G36*
X52548Y-32772D02*
X52548Y-32798D01*
X52542Y-32821D01*
X52533Y-32842D01*
X52520Y-32861D01*
X52503Y-32877D01*
X52483Y-32889D01*
X52462Y-32898D01*
X52439Y-32902D01*
X52415Y-32901D01*
X52393Y-32896D01*
X52371Y-32887D01*
X52352Y-32874D01*
X52336Y-32857D01*
X52324Y-32838D01*
X52315Y-32816D01*
X52311Y-32793D01*
X52311Y-32770D01*
X52316Y-32747D01*
X52325Y-32726D01*
X52338Y-32707D01*
X52355Y-32690D01*
X52374Y-32678D01*
X52396Y-32669D01*
X52419Y-32665D01*
X52442Y-32665D01*
X52465Y-32670D01*
X52486Y-32679D01*
X52505Y-32692D01*
X52522Y-32708D01*
X52535Y-32727D01*
X52543Y-32749D01*
X52548Y-32772D01*
X52548Y-32772D01*
G37*
G36*
X52548Y-31986D02*
X52548Y-32009D01*
X52542Y-32035D01*
X52534Y-32053D01*
X52519Y-32075D01*
X52504Y-32089D01*
X52482Y-32103D01*
X52463Y-32110D01*
X52437Y-32115D01*
X52417Y-32114D01*
X52391Y-32109D01*
X52373Y-32101D01*
X52351Y-32085D01*
X52337Y-32071D01*
X52323Y-32049D01*
X52315Y-32030D01*
X52311Y-32004D01*
X52311Y-31984D01*
X52316Y-31958D01*
X52324Y-31940D01*
X52339Y-31918D01*
X52353Y-31904D01*
X52376Y-31889D01*
X52394Y-31882D01*
X52421Y-31877D01*
X52440Y-31877D01*
X52467Y-31882D01*
X52485Y-31890D01*
X52507Y-31905D01*
X52521Y-31919D01*
X52536Y-31942D01*
X52543Y-31959D01*
X52548Y-31986D01*
X52548Y-31986D01*
G37*
G36*
X52588Y-43224D02*
X52588Y-43251D01*
X52582Y-43273D01*
X52573Y-43295D01*
X52560Y-43314D01*
X52543Y-43330D01*
X52523Y-43342D01*
X52502Y-43350D01*
X52479Y-43354D01*
X52455Y-43354D01*
X52433Y-43349D01*
X52411Y-43340D01*
X52392Y-43326D01*
X52376Y-43310D01*
X52364Y-43290D01*
X52355Y-43269D01*
X52351Y-43246D01*
X52351Y-43223D01*
X52356Y-43200D01*
X52365Y-43178D01*
X52378Y-43159D01*
X52395Y-43143D01*
X52414Y-43130D01*
X52436Y-43122D01*
X52459Y-43117D01*
X52482Y-43117D01*
X52505Y-43122D01*
X52526Y-43131D01*
X52545Y-43144D01*
X52562Y-43161D01*
X52575Y-43180D01*
X52583Y-43201D01*
X52588Y-43224D01*
X52588Y-43224D01*
G37*
G36*
X52588Y-43618D02*
X52588Y-43644D01*
X52582Y-43667D01*
X52573Y-43688D01*
X52560Y-43707D01*
X52543Y-43723D01*
X52523Y-43736D01*
X52502Y-43744D01*
X52479Y-43748D01*
X52455Y-43748D01*
X52433Y-43743D01*
X52411Y-43733D01*
X52392Y-43720D01*
X52376Y-43703D01*
X52364Y-43684D01*
X52355Y-43662D01*
X52351Y-43639D01*
X52351Y-43616D01*
X52356Y-43594D01*
X52365Y-43572D01*
X52378Y-43553D01*
X52395Y-43537D01*
X52414Y-43524D01*
X52436Y-43515D01*
X52459Y-43511D01*
X52482Y-43511D01*
X52505Y-43516D01*
X52526Y-43525D01*
X52545Y-43538D01*
X52562Y-43554D01*
X52575Y-43574D01*
X52583Y-43595D01*
X52588Y-43618D01*
X52588Y-43618D01*
G37*
G36*
X52588Y-44012D02*
X52588Y-44038D01*
X52582Y-44061D01*
X52573Y-44082D01*
X52560Y-44101D01*
X52543Y-44117D01*
X52523Y-44129D01*
X52502Y-44138D01*
X52479Y-44142D01*
X52455Y-44141D01*
X52433Y-44136D01*
X52411Y-44127D01*
X52392Y-44114D01*
X52376Y-44097D01*
X52364Y-44078D01*
X52355Y-44056D01*
X52351Y-44033D01*
X52351Y-44010D01*
X52356Y-43987D01*
X52365Y-43966D01*
X52378Y-43947D01*
X52395Y-43930D01*
X52414Y-43918D01*
X52436Y-43909D01*
X52459Y-43905D01*
X52482Y-43905D01*
X52505Y-43910D01*
X52526Y-43919D01*
X52545Y-43932D01*
X52562Y-43948D01*
X52575Y-43967D01*
X52583Y-43989D01*
X52588Y-44012D01*
X52588Y-44012D01*
G37*
G36*
X53148Y-43214D02*
X53148Y-43241D01*
X53142Y-43263D01*
X53133Y-43285D01*
X53120Y-43304D01*
X53103Y-43320D01*
X53083Y-43332D01*
X53062Y-43340D01*
X53039Y-43344D01*
X53015Y-43344D01*
X52993Y-43339D01*
X52971Y-43330D01*
X52952Y-43316D01*
X52936Y-43300D01*
X52924Y-43280D01*
X52915Y-43259D01*
X52911Y-43236D01*
X52911Y-43213D01*
X52916Y-43190D01*
X52925Y-43168D01*
X52938Y-43149D01*
X52955Y-43133D01*
X52974Y-43120D01*
X52996Y-43112D01*
X53019Y-43107D01*
X53042Y-43107D01*
X53065Y-43112D01*
X53086Y-43121D01*
X53105Y-43134D01*
X53122Y-43151D01*
X53135Y-43170D01*
X53143Y-43191D01*
X53148Y-43214D01*
X53148Y-43214D01*
G37*
G36*
X53148Y-43608D02*
X53148Y-43634D01*
X53142Y-43657D01*
X53133Y-43678D01*
X53120Y-43697D01*
X53103Y-43713D01*
X53083Y-43726D01*
X53062Y-43734D01*
X53039Y-43738D01*
X53015Y-43738D01*
X52993Y-43733D01*
X52971Y-43723D01*
X52952Y-43710D01*
X52936Y-43693D01*
X52924Y-43674D01*
X52915Y-43652D01*
X52911Y-43629D01*
X52911Y-43606D01*
X52916Y-43584D01*
X52925Y-43562D01*
X52938Y-43543D01*
X52955Y-43527D01*
X52974Y-43514D01*
X52996Y-43505D01*
X53019Y-43501D01*
X53042Y-43501D01*
X53065Y-43506D01*
X53086Y-43515D01*
X53105Y-43528D01*
X53122Y-43544D01*
X53135Y-43564D01*
X53143Y-43585D01*
X53148Y-43608D01*
X53148Y-43608D01*
G37*
G36*
X53148Y-44002D02*
X53148Y-44028D01*
X53142Y-44051D01*
X53133Y-44072D01*
X53120Y-44091D01*
X53103Y-44107D01*
X53083Y-44119D01*
X53062Y-44128D01*
X53039Y-44132D01*
X53015Y-44131D01*
X52993Y-44126D01*
X52971Y-44117D01*
X52952Y-44104D01*
X52936Y-44087D01*
X52924Y-44068D01*
X52915Y-44046D01*
X52911Y-44023D01*
X52911Y-44000D01*
X52916Y-43977D01*
X52925Y-43956D01*
X52938Y-43937D01*
X52955Y-43920D01*
X52974Y-43908D01*
X52996Y-43899D01*
X53019Y-43895D01*
X53042Y-43895D01*
X53065Y-43900D01*
X53086Y-43909D01*
X53105Y-43922D01*
X53122Y-43938D01*
X53135Y-43957D01*
X53143Y-43979D01*
X53148Y-44002D01*
X53148Y-44002D01*
G37*
G36*
X53178Y-32378D02*
X53178Y-32404D01*
X53172Y-32427D01*
X53163Y-32448D01*
X53150Y-32467D01*
X53133Y-32483D01*
X53113Y-32496D01*
X53092Y-32504D01*
X53069Y-32508D01*
X53045Y-32508D01*
X53023Y-32503D01*
X53001Y-32493D01*
X52982Y-32480D01*
X52966Y-32463D01*
X52954Y-32444D01*
X52945Y-32422D01*
X52941Y-32399D01*
X52941Y-32376D01*
X52946Y-32354D01*
X52955Y-32332D01*
X52968Y-32313D01*
X52985Y-32297D01*
X53004Y-32284D01*
X53026Y-32275D01*
X53049Y-32271D01*
X53072Y-32271D01*
X53095Y-32276D01*
X53116Y-32285D01*
X53135Y-32298D01*
X53152Y-32314D01*
X53165Y-32334D01*
X53173Y-32355D01*
X53178Y-32378D01*
X53178Y-32378D01*
G37*
G36*
X53178Y-32772D02*
X53178Y-32798D01*
X53172Y-32821D01*
X53163Y-32842D01*
X53150Y-32861D01*
X53133Y-32877D01*
X53113Y-32889D01*
X53092Y-32898D01*
X53069Y-32902D01*
X53045Y-32901D01*
X53023Y-32896D01*
X53001Y-32887D01*
X52982Y-32874D01*
X52966Y-32857D01*
X52954Y-32838D01*
X52945Y-32816D01*
X52941Y-32793D01*
X52941Y-32770D01*
X52946Y-32747D01*
X52955Y-32726D01*
X52968Y-32707D01*
X52985Y-32690D01*
X53004Y-32678D01*
X53026Y-32669D01*
X53049Y-32665D01*
X53072Y-32665D01*
X53095Y-32670D01*
X53116Y-32679D01*
X53135Y-32692D01*
X53152Y-32708D01*
X53165Y-32727D01*
X53173Y-32749D01*
X53178Y-32772D01*
X53178Y-32772D01*
G37*
G36*
X53178Y-31986D02*
X53178Y-32009D01*
X53172Y-32035D01*
X53164Y-32053D01*
X53149Y-32075D01*
X53134Y-32089D01*
X53112Y-32103D01*
X53093Y-32110D01*
X53067Y-32115D01*
X53047Y-32114D01*
X53021Y-32109D01*
X53003Y-32101D01*
X52981Y-32085D01*
X52967Y-32071D01*
X52953Y-32049D01*
X52945Y-32030D01*
X52941Y-32004D01*
X52941Y-31984D01*
X52946Y-31958D01*
X52954Y-31940D01*
X52969Y-31918D01*
X52983Y-31904D01*
X53006Y-31889D01*
X53024Y-31882D01*
X53051Y-31877D01*
X53070Y-31877D01*
X53097Y-31882D01*
X53115Y-31890D01*
X53137Y-31905D01*
X53151Y-31919D01*
X53166Y-31942D01*
X53173Y-31959D01*
X53178Y-31986D01*
X53178Y-31986D01*
G37*
G36*
X69278Y-34638D02*
X69278Y-34664D01*
X69272Y-34687D01*
X69263Y-34708D01*
X69250Y-34727D01*
X69233Y-34743D01*
X69213Y-34756D01*
X69192Y-34764D01*
X69169Y-34768D01*
X69145Y-34768D01*
X69123Y-34763D01*
X69101Y-34753D01*
X69082Y-34740D01*
X69066Y-34723D01*
X69054Y-34704D01*
X69045Y-34682D01*
X69041Y-34659D01*
X69041Y-34636D01*
X69046Y-34614D01*
X69055Y-34592D01*
X69068Y-34573D01*
X69085Y-34557D01*
X69104Y-34544D01*
X69126Y-34535D01*
X69149Y-34531D01*
X69172Y-34531D01*
X69195Y-34536D01*
X69216Y-34545D01*
X69235Y-34558D01*
X69252Y-34574D01*
X69265Y-34594D01*
X69273Y-34615D01*
X69278Y-34638D01*
X69278Y-34638D01*
G37*
G36*
X69278Y-35032D02*
X69278Y-35058D01*
X69272Y-35081D01*
X69263Y-35102D01*
X69250Y-35121D01*
X69233Y-35137D01*
X69213Y-35149D01*
X69192Y-35158D01*
X69169Y-35162D01*
X69145Y-35161D01*
X69123Y-35156D01*
X69101Y-35147D01*
X69082Y-35134D01*
X69066Y-35117D01*
X69054Y-35098D01*
X69045Y-35076D01*
X69041Y-35053D01*
X69041Y-35030D01*
X69046Y-35007D01*
X69055Y-34986D01*
X69068Y-34967D01*
X69085Y-34950D01*
X69104Y-34938D01*
X69126Y-34929D01*
X69149Y-34925D01*
X69172Y-34925D01*
X69195Y-34930D01*
X69216Y-34939D01*
X69235Y-34952D01*
X69252Y-34968D01*
X69265Y-34987D01*
X69273Y-35009D01*
X69278Y-35032D01*
X69278Y-35032D01*
G37*
G36*
X69278Y-34246D02*
X69278Y-34269D01*
X69272Y-34295D01*
X69264Y-34313D01*
X69249Y-34335D01*
X69234Y-34349D01*
X69212Y-34363D01*
X69193Y-34370D01*
X69167Y-34375D01*
X69147Y-34374D01*
X69121Y-34369D01*
X69103Y-34361D01*
X69081Y-34345D01*
X69067Y-34331D01*
X69053Y-34309D01*
X69045Y-34290D01*
X69041Y-34264D01*
X69041Y-34244D01*
X69046Y-34218D01*
X69054Y-34200D01*
X69069Y-34178D01*
X69083Y-34164D01*
X69106Y-34149D01*
X69124Y-34142D01*
X69151Y-34137D01*
X69170Y-34137D01*
X69197Y-34142D01*
X69215Y-34150D01*
X69237Y-34165D01*
X69251Y-34179D01*
X69266Y-34202D01*
X69273Y-34219D01*
X69278Y-34246D01*
X69278Y-34246D01*
G37*
G36*
X69318Y-43224D02*
X69318Y-43251D01*
X69312Y-43273D01*
X69303Y-43295D01*
X69290Y-43314D01*
X69273Y-43330D01*
X69253Y-43342D01*
X69232Y-43350D01*
X69209Y-43354D01*
X69185Y-43354D01*
X69163Y-43349D01*
X69141Y-43340D01*
X69122Y-43326D01*
X69106Y-43310D01*
X69094Y-43290D01*
X69085Y-43269D01*
X69081Y-43246D01*
X69081Y-43223D01*
X69086Y-43200D01*
X69095Y-43178D01*
X69108Y-43159D01*
X69125Y-43143D01*
X69144Y-43130D01*
X69166Y-43122D01*
X69189Y-43117D01*
X69212Y-43117D01*
X69235Y-43122D01*
X69256Y-43131D01*
X69275Y-43144D01*
X69292Y-43161D01*
X69305Y-43180D01*
X69313Y-43201D01*
X69318Y-43224D01*
X69318Y-43224D01*
G37*
G36*
X69318Y-43618D02*
X69318Y-43644D01*
X69312Y-43667D01*
X69303Y-43688D01*
X69290Y-43707D01*
X69273Y-43723D01*
X69253Y-43736D01*
X69232Y-43744D01*
X69209Y-43748D01*
X69185Y-43748D01*
X69163Y-43743D01*
X69141Y-43733D01*
X69122Y-43720D01*
X69106Y-43703D01*
X69094Y-43684D01*
X69085Y-43662D01*
X69081Y-43639D01*
X69081Y-43616D01*
X69086Y-43594D01*
X69095Y-43572D01*
X69108Y-43553D01*
X69125Y-43537D01*
X69144Y-43524D01*
X69166Y-43515D01*
X69189Y-43511D01*
X69212Y-43511D01*
X69235Y-43516D01*
X69256Y-43525D01*
X69275Y-43538D01*
X69292Y-43554D01*
X69305Y-43574D01*
X69313Y-43595D01*
X69318Y-43618D01*
X69318Y-43618D01*
G37*
G36*
X69318Y-44012D02*
X69318Y-44038D01*
X69312Y-44061D01*
X69303Y-44082D01*
X69290Y-44101D01*
X69273Y-44117D01*
X69253Y-44129D01*
X69232Y-44138D01*
X69209Y-44142D01*
X69185Y-44141D01*
X69163Y-44136D01*
X69141Y-44127D01*
X69122Y-44114D01*
X69106Y-44097D01*
X69094Y-44078D01*
X69085Y-44056D01*
X69081Y-44033D01*
X69081Y-44010D01*
X69086Y-43987D01*
X69095Y-43966D01*
X69108Y-43947D01*
X69125Y-43930D01*
X69144Y-43918D01*
X69166Y-43909D01*
X69189Y-43905D01*
X69212Y-43905D01*
X69235Y-43910D01*
X69256Y-43919D01*
X69275Y-43932D01*
X69292Y-43948D01*
X69305Y-43967D01*
X69313Y-43989D01*
X69318Y-44012D01*
X69318Y-44012D01*
G37*
G36*
X69318Y-28226D02*
X69318Y-28249D01*
X69312Y-28275D01*
X69304Y-28293D01*
X69289Y-28315D01*
X69274Y-28329D01*
X69252Y-28343D01*
X69233Y-28350D01*
X69207Y-28355D01*
X69187Y-28354D01*
X69161Y-28349D01*
X69143Y-28341D01*
X69121Y-28325D01*
X69107Y-28311D01*
X69093Y-28289D01*
X69085Y-28270D01*
X69081Y-28244D01*
X69081Y-28224D01*
X69086Y-28198D01*
X69094Y-28180D01*
X69109Y-28158D01*
X69123Y-28144D01*
X69146Y-28129D01*
X69164Y-28122D01*
X69191Y-28117D01*
X69210Y-28117D01*
X69237Y-28122D01*
X69255Y-28130D01*
X69277Y-28145D01*
X69291Y-28159D01*
X69306Y-28182D01*
X69313Y-28199D01*
X69318Y-28226D01*
X69318Y-28226D01*
G37*
G36*
X69318Y-28619D02*
X69318Y-28643D01*
X69312Y-28668D01*
X69304Y-28687D01*
X69289Y-28708D01*
X69274Y-28722D01*
X69252Y-28737D01*
X69233Y-28744D01*
X69207Y-28748D01*
X69187Y-28748D01*
X69161Y-28742D01*
X69143Y-28734D01*
X69121Y-28719D01*
X69107Y-28705D01*
X69093Y-28682D01*
X69085Y-28664D01*
X69081Y-28638D01*
X69081Y-28618D01*
X69086Y-28592D01*
X69094Y-28574D01*
X69109Y-28552D01*
X69123Y-28538D01*
X69146Y-28523D01*
X69164Y-28516D01*
X69191Y-28511D01*
X69210Y-28511D01*
X69237Y-28516D01*
X69255Y-28524D01*
X69277Y-28539D01*
X69291Y-28553D01*
X69306Y-28575D01*
X69313Y-28593D01*
X69318Y-28619D01*
X69318Y-28619D01*
G37*
G36*
X69318Y-29013D02*
X69318Y-29037D01*
X69312Y-29062D01*
X69304Y-29081D01*
X69289Y-29102D01*
X69274Y-29116D01*
X69252Y-29130D01*
X69233Y-29138D01*
X69207Y-29142D01*
X69187Y-29142D01*
X69161Y-29136D01*
X69143Y-29128D01*
X69121Y-29113D01*
X69107Y-29098D01*
X69093Y-29076D01*
X69085Y-29058D01*
X69081Y-29031D01*
X69081Y-29012D01*
X69086Y-28986D01*
X69094Y-28967D01*
X69109Y-28945D01*
X69123Y-28931D01*
X69146Y-28917D01*
X69164Y-28909D01*
X69191Y-28904D01*
X69210Y-28904D01*
X69237Y-28910D01*
X69255Y-28917D01*
X69277Y-28933D01*
X69291Y-28946D01*
X69306Y-28969D01*
X69313Y-28987D01*
X69318Y-29013D01*
X69318Y-29013D01*
G37*
G36*
X69658Y-28618D02*
X69658Y-28644D01*
X69652Y-28667D01*
X69643Y-28688D01*
X69630Y-28707D01*
X69613Y-28723D01*
X69593Y-28736D01*
X69572Y-28744D01*
X69549Y-28748D01*
X69525Y-28748D01*
X69503Y-28743D01*
X69481Y-28733D01*
X69462Y-28720D01*
X69446Y-28703D01*
X69434Y-28684D01*
X69425Y-28662D01*
X69421Y-28639D01*
X69421Y-28616D01*
X69426Y-28594D01*
X69435Y-28572D01*
X69448Y-28553D01*
X69465Y-28537D01*
X69484Y-28524D01*
X69506Y-28515D01*
X69529Y-28511D01*
X69552Y-28511D01*
X69575Y-28516D01*
X69596Y-28525D01*
X69615Y-28538D01*
X69632Y-28554D01*
X69645Y-28574D01*
X69653Y-28595D01*
X69658Y-28618D01*
X69658Y-28618D01*
G37*
G36*
X69658Y-29012D02*
X69658Y-29038D01*
X69652Y-29061D01*
X69643Y-29082D01*
X69630Y-29101D01*
X69613Y-29117D01*
X69593Y-29129D01*
X69572Y-29138D01*
X69549Y-29142D01*
X69525Y-29141D01*
X69503Y-29136D01*
X69481Y-29127D01*
X69462Y-29114D01*
X69446Y-29097D01*
X69434Y-29078D01*
X69425Y-29056D01*
X69421Y-29033D01*
X69421Y-29010D01*
X69426Y-28987D01*
X69435Y-28966D01*
X69448Y-28947D01*
X69465Y-28930D01*
X69484Y-28918D01*
X69506Y-28909D01*
X69529Y-28905D01*
X69552Y-28905D01*
X69575Y-28910D01*
X69596Y-28919D01*
X69615Y-28932D01*
X69632Y-28948D01*
X69645Y-28967D01*
X69653Y-28989D01*
X69658Y-29012D01*
X69658Y-29012D01*
G37*
G36*
X69658Y-28226D02*
X69658Y-28249D01*
X69652Y-28275D01*
X69644Y-28293D01*
X69629Y-28315D01*
X69614Y-28329D01*
X69592Y-28343D01*
X69573Y-28350D01*
X69547Y-28355D01*
X69527Y-28354D01*
X69501Y-28349D01*
X69483Y-28341D01*
X69461Y-28325D01*
X69447Y-28311D01*
X69433Y-28289D01*
X69425Y-28270D01*
X69421Y-28244D01*
X69421Y-28224D01*
X69426Y-28198D01*
X69434Y-28180D01*
X69449Y-28158D01*
X69463Y-28144D01*
X69486Y-28129D01*
X69504Y-28122D01*
X69531Y-28117D01*
X69550Y-28117D01*
X69577Y-28122D01*
X69595Y-28130D01*
X69617Y-28145D01*
X69631Y-28159D01*
X69646Y-28182D01*
X69653Y-28199D01*
X69658Y-28226D01*
X69658Y-28226D01*
G37*
G36*
X69678Y-34254D02*
X69678Y-34281D01*
X69672Y-34303D01*
X69663Y-34325D01*
X69650Y-34344D01*
X69633Y-34360D01*
X69613Y-34372D01*
X69592Y-34380D01*
X69569Y-34384D01*
X69545Y-34384D01*
X69523Y-34379D01*
X69501Y-34370D01*
X69482Y-34356D01*
X69466Y-34340D01*
X69454Y-34320D01*
X69445Y-34299D01*
X69441Y-34276D01*
X69441Y-34253D01*
X69446Y-34230D01*
X69455Y-34208D01*
X69468Y-34189D01*
X69485Y-34173D01*
X69504Y-34160D01*
X69526Y-34152D01*
X69549Y-34147D01*
X69572Y-34147D01*
X69595Y-34152D01*
X69616Y-34161D01*
X69635Y-34174D01*
X69652Y-34191D01*
X69665Y-34210D01*
X69673Y-34231D01*
X69678Y-34254D01*
X69678Y-34254D01*
G37*
G36*
X69678Y-34648D02*
X69678Y-34674D01*
X69672Y-34697D01*
X69663Y-34718D01*
X69650Y-34737D01*
X69633Y-34753D01*
X69613Y-34766D01*
X69592Y-34774D01*
X69569Y-34778D01*
X69545Y-34778D01*
X69523Y-34773D01*
X69501Y-34763D01*
X69482Y-34750D01*
X69466Y-34733D01*
X69454Y-34714D01*
X69445Y-34692D01*
X69441Y-34669D01*
X69441Y-34646D01*
X69446Y-34624D01*
X69455Y-34602D01*
X69468Y-34583D01*
X69485Y-34567D01*
X69504Y-34554D01*
X69526Y-34545D01*
X69549Y-34541D01*
X69572Y-34541D01*
X69595Y-34546D01*
X69616Y-34555D01*
X69635Y-34568D01*
X69652Y-34584D01*
X69665Y-34604D01*
X69673Y-34625D01*
X69678Y-34648D01*
X69678Y-34648D01*
G37*
G36*
X69678Y-35042D02*
X69678Y-35068D01*
X69672Y-35091D01*
X69663Y-35112D01*
X69650Y-35131D01*
X69633Y-35147D01*
X69613Y-35159D01*
X69592Y-35168D01*
X69569Y-35172D01*
X69545Y-35171D01*
X69523Y-35166D01*
X69501Y-35157D01*
X69482Y-35144D01*
X69466Y-35127D01*
X69454Y-35108D01*
X69445Y-35086D01*
X69441Y-35063D01*
X69441Y-35040D01*
X69446Y-35017D01*
X69455Y-34996D01*
X69468Y-34977D01*
X69485Y-34960D01*
X69504Y-34948D01*
X69526Y-34939D01*
X69549Y-34935D01*
X69572Y-34935D01*
X69595Y-34940D01*
X69616Y-34949D01*
X69635Y-34962D01*
X69652Y-34978D01*
X69665Y-34997D01*
X69673Y-35019D01*
X69678Y-35042D01*
X69678Y-35042D01*
G37*
G36*
X69678Y-43214D02*
X69678Y-43241D01*
X69672Y-43263D01*
X69663Y-43285D01*
X69650Y-43304D01*
X69633Y-43320D01*
X69613Y-43332D01*
X69592Y-43340D01*
X69569Y-43344D01*
X69545Y-43344D01*
X69523Y-43339D01*
X69501Y-43330D01*
X69482Y-43316D01*
X69466Y-43300D01*
X69454Y-43280D01*
X69445Y-43259D01*
X69441Y-43236D01*
X69441Y-43213D01*
X69446Y-43190D01*
X69455Y-43168D01*
X69468Y-43149D01*
X69485Y-43133D01*
X69504Y-43120D01*
X69526Y-43112D01*
X69549Y-43107D01*
X69572Y-43107D01*
X69595Y-43112D01*
X69616Y-43121D01*
X69635Y-43134D01*
X69652Y-43151D01*
X69665Y-43170D01*
X69673Y-43191D01*
X69678Y-43214D01*
X69678Y-43214D01*
G37*
G36*
X69678Y-43608D02*
X69678Y-43634D01*
X69672Y-43657D01*
X69663Y-43678D01*
X69650Y-43697D01*
X69633Y-43713D01*
X69613Y-43726D01*
X69592Y-43734D01*
X69569Y-43738D01*
X69545Y-43738D01*
X69523Y-43733D01*
X69501Y-43723D01*
X69482Y-43710D01*
X69466Y-43693D01*
X69454Y-43674D01*
X69445Y-43652D01*
X69441Y-43629D01*
X69441Y-43606D01*
X69446Y-43584D01*
X69455Y-43562D01*
X69468Y-43543D01*
X69485Y-43527D01*
X69504Y-43514D01*
X69526Y-43505D01*
X69549Y-43501D01*
X69572Y-43501D01*
X69595Y-43506D01*
X69616Y-43515D01*
X69635Y-43528D01*
X69652Y-43544D01*
X69665Y-43564D01*
X69673Y-43585D01*
X69678Y-43608D01*
X69678Y-43608D01*
G37*
G36*
X69678Y-44002D02*
X69678Y-44028D01*
X69672Y-44051D01*
X69663Y-44072D01*
X69650Y-44091D01*
X69633Y-44107D01*
X69613Y-44119D01*
X69592Y-44128D01*
X69569Y-44132D01*
X69545Y-44131D01*
X69523Y-44126D01*
X69501Y-44117D01*
X69482Y-44104D01*
X69466Y-44087D01*
X69454Y-44068D01*
X69445Y-44046D01*
X69441Y-44023D01*
X69441Y-44000D01*
X69446Y-43977D01*
X69455Y-43956D01*
X69468Y-43937D01*
X69485Y-43920D01*
X69504Y-43908D01*
X69526Y-43899D01*
X69549Y-43895D01*
X69572Y-43895D01*
X69595Y-43900D01*
X69616Y-43909D01*
X69635Y-43922D01*
X69652Y-43938D01*
X69665Y-43957D01*
X69673Y-43979D01*
X69678Y-44002D01*
X69678Y-44002D01*
G37*
G36*
X71070Y-34609D02*
X71069Y-34679D01*
X71055Y-34739D01*
X71030Y-34796D01*
X70994Y-34846D01*
X70949Y-34889D01*
X70897Y-34922D01*
X70840Y-34944D01*
X70779Y-34955D01*
X70717Y-34954D01*
X70657Y-34941D01*
X70600Y-34916D01*
X70549Y-34881D01*
X70506Y-34836D01*
X70473Y-34784D01*
X70450Y-34727D01*
X70439Y-34666D01*
X70440Y-34604D01*
X70453Y-34544D01*
X70477Y-34487D01*
X70512Y-34436D01*
X70556Y-34393D01*
X70608Y-34359D01*
X70665Y-34336D01*
X70726Y-34324D01*
X70788Y-34325D01*
X70848Y-34337D01*
X70905Y-34361D01*
X70956Y-34396D01*
X71000Y-34439D01*
X71034Y-34491D01*
X71058Y-34548D01*
X71070Y-34609D01*
X71070Y-34609D01*
G37*
G36*
X71070Y-35609D02*
X71069Y-35679D01*
X71055Y-35739D01*
X71030Y-35796D01*
X70994Y-35846D01*
X70949Y-35889D01*
X70897Y-35922D01*
X70840Y-35944D01*
X70779Y-35955D01*
X70717Y-35954D01*
X70657Y-35941D01*
X70600Y-35916D01*
X70549Y-35881D01*
X70506Y-35836D01*
X70473Y-35784D01*
X70450Y-35727D01*
X70439Y-35666D01*
X70440Y-35604D01*
X70453Y-35544D01*
X70477Y-35487D01*
X70512Y-35436D01*
X70556Y-35393D01*
X70608Y-35359D01*
X70665Y-35336D01*
X70726Y-35324D01*
X70788Y-35325D01*
X70848Y-35337D01*
X70905Y-35361D01*
X70956Y-35396D01*
X71000Y-35439D01*
X71034Y-35491D01*
X71058Y-35548D01*
X71070Y-35609D01*
X71070Y-35609D01*
G37*
G36*
X71070Y-36609D02*
X71069Y-36679D01*
X71055Y-36739D01*
X71030Y-36796D01*
X70994Y-36846D01*
X70949Y-36889D01*
X70897Y-36922D01*
X70840Y-36944D01*
X70779Y-36955D01*
X70717Y-36954D01*
X70657Y-36941D01*
X70600Y-36916D01*
X70549Y-36881D01*
X70506Y-36836D01*
X70473Y-36784D01*
X70450Y-36727D01*
X70439Y-36666D01*
X70440Y-36604D01*
X70453Y-36544D01*
X70477Y-36487D01*
X70512Y-36436D01*
X70556Y-36393D01*
X70608Y-36359D01*
X70665Y-36336D01*
X70726Y-36324D01*
X70788Y-36325D01*
X70848Y-36337D01*
X70905Y-36361D01*
X70956Y-36396D01*
X71000Y-36439D01*
X71034Y-36491D01*
X71058Y-36548D01*
X71070Y-36609D01*
X71070Y-36609D01*
G37*
G36*
X71070Y-37609D02*
X71069Y-37679D01*
X71055Y-37739D01*
X71030Y-37796D01*
X70994Y-37846D01*
X70949Y-37889D01*
X70897Y-37922D01*
X70840Y-37944D01*
X70779Y-37955D01*
X70717Y-37954D01*
X70657Y-37941D01*
X70600Y-37916D01*
X70549Y-37881D01*
X70506Y-37836D01*
X70473Y-37784D01*
X70450Y-37727D01*
X70439Y-37666D01*
X70440Y-37604D01*
X70453Y-37544D01*
X70477Y-37487D01*
X70512Y-37436D01*
X70556Y-37393D01*
X70608Y-37359D01*
X70665Y-37336D01*
X70726Y-37324D01*
X70788Y-37325D01*
X70848Y-37337D01*
X70905Y-37361D01*
X70956Y-37396D01*
X71000Y-37439D01*
X71034Y-37491D01*
X71058Y-37548D01*
X71070Y-37609D01*
X71070Y-37609D01*
G37*
G36*
X71070Y-38609D02*
X71069Y-38679D01*
X71055Y-38739D01*
X71030Y-38796D01*
X70994Y-38846D01*
X70949Y-38889D01*
X70897Y-38922D01*
X70840Y-38944D01*
X70779Y-38955D01*
X70717Y-38954D01*
X70657Y-38941D01*
X70600Y-38916D01*
X70549Y-38881D01*
X70506Y-38836D01*
X70473Y-38784D01*
X70450Y-38727D01*
X70439Y-38666D01*
X70440Y-38604D01*
X70453Y-38544D01*
X70477Y-38487D01*
X70512Y-38436D01*
X70556Y-38393D01*
X70608Y-38359D01*
X70665Y-38336D01*
X70726Y-38324D01*
X70788Y-38325D01*
X70848Y-38337D01*
X70905Y-38361D01*
X70956Y-38396D01*
X71000Y-38439D01*
X71034Y-38491D01*
X71058Y-38548D01*
X71070Y-38609D01*
X71070Y-38609D01*
G37*
G36*
X71070Y-39609D02*
X71069Y-39679D01*
X71055Y-39739D01*
X71030Y-39796D01*
X70994Y-39846D01*
X70949Y-39889D01*
X70897Y-39922D01*
X70840Y-39944D01*
X70779Y-39955D01*
X70717Y-39954D01*
X70657Y-39941D01*
X70600Y-39916D01*
X70549Y-39881D01*
X70506Y-39836D01*
X70473Y-39784D01*
X70450Y-39727D01*
X70439Y-39666D01*
X70440Y-39604D01*
X70453Y-39544D01*
X70477Y-39487D01*
X70512Y-39436D01*
X70556Y-39393D01*
X70608Y-39359D01*
X70665Y-39336D01*
X70726Y-39324D01*
X70788Y-39325D01*
X70848Y-39337D01*
X70905Y-39361D01*
X70956Y-39396D01*
X71000Y-39439D01*
X71034Y-39491D01*
X71058Y-39548D01*
X71070Y-39609D01*
X71070Y-39609D01*
G37*
G36*
X71070Y-40609D02*
X71069Y-40679D01*
X71055Y-40739D01*
X71030Y-40796D01*
X70994Y-40846D01*
X70949Y-40889D01*
X70897Y-40922D01*
X70840Y-40944D01*
X70779Y-40955D01*
X70717Y-40954D01*
X70657Y-40941D01*
X70600Y-40916D01*
X70549Y-40881D01*
X70506Y-40836D01*
X70473Y-40784D01*
X70450Y-40727D01*
X70439Y-40666D01*
X70440Y-40604D01*
X70453Y-40544D01*
X70477Y-40487D01*
X70512Y-40436D01*
X70556Y-40393D01*
X70608Y-40359D01*
X70665Y-40336D01*
X70726Y-40324D01*
X70788Y-40325D01*
X70848Y-40337D01*
X70905Y-40361D01*
X70956Y-40396D01*
X71000Y-40439D01*
X71034Y-40491D01*
X71058Y-40548D01*
X71070Y-40609D01*
X71070Y-40609D01*
G37*
G36*
X71070Y-41609D02*
X71069Y-41679D01*
X71055Y-41739D01*
X71030Y-41796D01*
X70994Y-41846D01*
X70949Y-41889D01*
X70897Y-41922D01*
X70840Y-41944D01*
X70779Y-41955D01*
X70717Y-41954D01*
X70657Y-41941D01*
X70600Y-41916D01*
X70549Y-41881D01*
X70506Y-41836D01*
X70473Y-41784D01*
X70450Y-41727D01*
X70439Y-41666D01*
X70440Y-41604D01*
X70453Y-41544D01*
X70477Y-41487D01*
X70512Y-41436D01*
X70556Y-41393D01*
X70608Y-41359D01*
X70665Y-41336D01*
X70726Y-41324D01*
X70788Y-41325D01*
X70848Y-41337D01*
X70905Y-41361D01*
X70956Y-41396D01*
X71000Y-41439D01*
X71034Y-41491D01*
X71058Y-41548D01*
X71070Y-41609D01*
X71070Y-41609D01*
G37*
G36*
X71070Y-42609D02*
X71069Y-42679D01*
X71055Y-42739D01*
X71030Y-42796D01*
X70994Y-42846D01*
X70949Y-42889D01*
X70897Y-42922D01*
X70840Y-42944D01*
X70779Y-42955D01*
X70717Y-42954D01*
X70657Y-42941D01*
X70600Y-42916D01*
X70549Y-42881D01*
X70506Y-42836D01*
X70473Y-42784D01*
X70450Y-42727D01*
X70439Y-42666D01*
X70440Y-42604D01*
X70453Y-42544D01*
X70477Y-42487D01*
X70512Y-42436D01*
X70556Y-42393D01*
X70608Y-42359D01*
X70665Y-42336D01*
X70726Y-42324D01*
X70788Y-42325D01*
X70848Y-42337D01*
X70905Y-42361D01*
X70956Y-42396D01*
X71000Y-42439D01*
X71034Y-42491D01*
X71058Y-42548D01*
X71070Y-42609D01*
X71070Y-42609D01*
G37*
G36*
X71070Y-43609D02*
X71069Y-43679D01*
X71055Y-43739D01*
X71030Y-43796D01*
X70994Y-43846D01*
X70949Y-43889D01*
X70897Y-43922D01*
X70840Y-43944D01*
X70779Y-43955D01*
X70717Y-43954D01*
X70657Y-43941D01*
X70600Y-43916D01*
X70549Y-43881D01*
X70506Y-43836D01*
X70473Y-43784D01*
X70450Y-43727D01*
X70439Y-43666D01*
X70440Y-43604D01*
X70453Y-43544D01*
X70477Y-43487D01*
X70512Y-43436D01*
X70556Y-43393D01*
X70608Y-43359D01*
X70665Y-43336D01*
X70726Y-43324D01*
X70788Y-43325D01*
X70848Y-43337D01*
X70905Y-43361D01*
X70956Y-43396D01*
X71000Y-43439D01*
X71034Y-43491D01*
X71058Y-43548D01*
X71070Y-43609D01*
X71070Y-43609D01*
G37*
G36*
X71070Y-44609D02*
X71069Y-44679D01*
X71055Y-44739D01*
X71030Y-44796D01*
X70994Y-44846D01*
X70949Y-44889D01*
X70897Y-44922D01*
X70840Y-44944D01*
X70779Y-44955D01*
X70717Y-44954D01*
X70657Y-44941D01*
X70600Y-44916D01*
X70549Y-44881D01*
X70506Y-44836D01*
X70473Y-44784D01*
X70450Y-44727D01*
X70439Y-44666D01*
X70440Y-44604D01*
X70453Y-44544D01*
X70477Y-44487D01*
X70512Y-44436D01*
X70556Y-44393D01*
X70608Y-44359D01*
X70665Y-44336D01*
X70726Y-44324D01*
X70788Y-44325D01*
X70848Y-44337D01*
X70905Y-44361D01*
X70956Y-44396D01*
X71000Y-44439D01*
X71034Y-44491D01*
X71058Y-44548D01*
X71070Y-44609D01*
X71070Y-44609D01*
G37*
G36*
X71070Y-45609D02*
X71069Y-45679D01*
X71055Y-45739D01*
X71030Y-45796D01*
X70994Y-45846D01*
X70949Y-45889D01*
X70897Y-45922D01*
X70840Y-45944D01*
X70779Y-45955D01*
X70717Y-45954D01*
X70657Y-45941D01*
X70600Y-45916D01*
X70549Y-45881D01*
X70506Y-45836D01*
X70473Y-45784D01*
X70450Y-45727D01*
X70439Y-45666D01*
X70440Y-45604D01*
X70453Y-45544D01*
X70477Y-45487D01*
X70512Y-45436D01*
X70556Y-45393D01*
X70608Y-45359D01*
X70665Y-45336D01*
X70726Y-45324D01*
X70788Y-45325D01*
X70848Y-45337D01*
X70905Y-45361D01*
X70956Y-45396D01*
X71000Y-45439D01*
X71034Y-45491D01*
X71058Y-45548D01*
X71070Y-45609D01*
X71070Y-45609D01*
G37*
G36*
X71070Y-46609D02*
X71069Y-46679D01*
X71055Y-46739D01*
X71030Y-46796D01*
X70994Y-46846D01*
X70949Y-46889D01*
X70897Y-46922D01*
X70840Y-46944D01*
X70779Y-46955D01*
X70717Y-46954D01*
X70657Y-46941D01*
X70600Y-46916D01*
X70549Y-46881D01*
X70506Y-46836D01*
X70473Y-46784D01*
X70450Y-46727D01*
X70439Y-46666D01*
X70440Y-46604D01*
X70453Y-46544D01*
X70477Y-46487D01*
X70512Y-46436D01*
X70556Y-46393D01*
X70608Y-46359D01*
X70665Y-46336D01*
X70726Y-46324D01*
X70788Y-46325D01*
X70848Y-46337D01*
X70905Y-46361D01*
X70956Y-46396D01*
X71000Y-46439D01*
X71034Y-46491D01*
X71058Y-46548D01*
X71070Y-46609D01*
X71070Y-46609D01*
G37*
G36*
X71070Y-47609D02*
X71069Y-47679D01*
X71055Y-47739D01*
X71030Y-47796D01*
X70994Y-47846D01*
X70949Y-47889D01*
X70897Y-47922D01*
X70840Y-47944D01*
X70779Y-47955D01*
X70717Y-47954D01*
X70657Y-47941D01*
X70600Y-47916D01*
X70549Y-47881D01*
X70506Y-47836D01*
X70473Y-47784D01*
X70450Y-47727D01*
X70439Y-47666D01*
X70440Y-47604D01*
X70453Y-47544D01*
X70477Y-47487D01*
X70512Y-47436D01*
X70556Y-47393D01*
X70608Y-47359D01*
X70665Y-47336D01*
X70726Y-47324D01*
X70788Y-47325D01*
X70848Y-47337D01*
X70905Y-47361D01*
X70956Y-47396D01*
X71000Y-47439D01*
X71034Y-47491D01*
X71058Y-47548D01*
X71070Y-47609D01*
X71070Y-47609D01*
G37*
G36*
X71070Y-48609D02*
X71069Y-48679D01*
X71055Y-48739D01*
X71030Y-48796D01*
X70994Y-48846D01*
X70949Y-48889D01*
X70897Y-48922D01*
X70840Y-48944D01*
X70779Y-48955D01*
X70717Y-48954D01*
X70657Y-48941D01*
X70600Y-48916D01*
X70549Y-48881D01*
X70506Y-48836D01*
X70473Y-48784D01*
X70450Y-48727D01*
X70439Y-48666D01*
X70440Y-48604D01*
X70453Y-48544D01*
X70477Y-48487D01*
X70512Y-48436D01*
X70556Y-48393D01*
X70608Y-48359D01*
X70665Y-48336D01*
X70726Y-48324D01*
X70788Y-48325D01*
X70848Y-48337D01*
X70905Y-48361D01*
X70956Y-48396D01*
X71000Y-48439D01*
X71034Y-48491D01*
X71058Y-48548D01*
X71070Y-48609D01*
X71070Y-48609D01*
G37*
G36*
X71070Y-33610D02*
X71069Y-33678D01*
X71055Y-33741D01*
X71031Y-33795D01*
X70993Y-33848D01*
X70951Y-33888D01*
X70896Y-33923D01*
X70841Y-33944D01*
X70777Y-33955D01*
X70719Y-33954D01*
X70655Y-33940D01*
X70601Y-33917D01*
X70548Y-33880D01*
X70507Y-33837D01*
X70472Y-33783D01*
X70451Y-33728D01*
X70439Y-33664D01*
X70440Y-33606D01*
X70453Y-33542D01*
X70476Y-33488D01*
X70513Y-33435D01*
X70555Y-33394D01*
X70609Y-33358D01*
X70663Y-33336D01*
X70728Y-33324D01*
X70786Y-33324D01*
X70850Y-33338D01*
X70903Y-33360D01*
X70958Y-33397D01*
X70999Y-33438D01*
X71035Y-33493D01*
X71057Y-33546D01*
X71070Y-33610D01*
X71070Y-33610D01*
G37*
G36*
X71285Y-27330D02*
X71284Y-27398D01*
X71270Y-27461D01*
X71246Y-27515D01*
X71208Y-27568D01*
X71166Y-27608D01*
X71111Y-27643D01*
X71056Y-27664D01*
X70992Y-27675D01*
X70934Y-27674D01*
X70870Y-27660D01*
X70816Y-27637D01*
X70763Y-27600D01*
X70722Y-27557D01*
X70687Y-27503D01*
X70666Y-27448D01*
X70654Y-27384D01*
X70655Y-27326D01*
X70668Y-27262D01*
X70691Y-27208D01*
X70728Y-27155D01*
X70770Y-27114D01*
X70824Y-27078D01*
X70878Y-27056D01*
X70943Y-27044D01*
X71001Y-27044D01*
X71065Y-27058D01*
X71118Y-27080D01*
X71173Y-27117D01*
X71214Y-27158D01*
X71250Y-27213D01*
X71272Y-27266D01*
X71285Y-27330D01*
X71285Y-27330D01*
G37*
G36*
X71285Y-28330D02*
X71284Y-28398D01*
X71270Y-28461D01*
X71246Y-28515D01*
X71208Y-28568D01*
X71166Y-28608D01*
X71111Y-28643D01*
X71056Y-28664D01*
X70992Y-28675D01*
X70934Y-28674D01*
X70870Y-28660D01*
X70816Y-28637D01*
X70763Y-28600D01*
X70722Y-28557D01*
X70687Y-28503D01*
X70666Y-28448D01*
X70654Y-28384D01*
X70655Y-28326D01*
X70668Y-28262D01*
X70691Y-28208D01*
X70728Y-28155D01*
X70770Y-28114D01*
X70824Y-28078D01*
X70878Y-28056D01*
X70943Y-28044D01*
X71001Y-28044D01*
X71065Y-28058D01*
X71118Y-28080D01*
X71173Y-28117D01*
X71214Y-28158D01*
X71250Y-28213D01*
X71272Y-28266D01*
X71285Y-28330D01*
X71285Y-28330D01*
G37*
G36*
X71285Y-29330D02*
X71284Y-29398D01*
X71270Y-29461D01*
X71246Y-29515D01*
X71208Y-29568D01*
X71166Y-29608D01*
X71111Y-29643D01*
X71056Y-29664D01*
X70992Y-29675D01*
X70934Y-29674D01*
X70870Y-29660D01*
X70816Y-29637D01*
X70763Y-29600D01*
X70722Y-29557D01*
X70687Y-29503D01*
X70666Y-29448D01*
X70654Y-29384D01*
X70655Y-29326D01*
X70668Y-29262D01*
X70691Y-29208D01*
X70728Y-29155D01*
X70770Y-29114D01*
X70824Y-29078D01*
X70878Y-29056D01*
X70943Y-29044D01*
X71001Y-29044D01*
X71065Y-29058D01*
X71118Y-29080D01*
X71173Y-29117D01*
X71214Y-29158D01*
X71250Y-29213D01*
X71272Y-29266D01*
X71285Y-29330D01*
X71285Y-29330D01*
G37*
G36*
X71285Y-30330D02*
X71284Y-30398D01*
X71270Y-30461D01*
X71246Y-30515D01*
X71208Y-30568D01*
X71166Y-30608D01*
X71111Y-30643D01*
X71056Y-30664D01*
X70992Y-30675D01*
X70934Y-30674D01*
X70870Y-30660D01*
X70816Y-30637D01*
X70763Y-30600D01*
X70722Y-30557D01*
X70687Y-30503D01*
X70666Y-30448D01*
X70654Y-30384D01*
X70655Y-30326D01*
X70668Y-30262D01*
X70691Y-30208D01*
X70728Y-30155D01*
X70770Y-30114D01*
X70824Y-30078D01*
X70878Y-30056D01*
X70943Y-30044D01*
X71001Y-30044D01*
X71065Y-30058D01*
X71118Y-30080D01*
X71173Y-30117D01*
X71214Y-30158D01*
X71250Y-30213D01*
X71272Y-30266D01*
X71285Y-30330D01*
X71285Y-30330D01*
G37*
G36*
X72185Y-41377D02*
X71916Y-41646D01*
X71789Y-41519D01*
X72057Y-41250D01*
X72185Y-41377D01*
X72185Y-41377D01*
G37*
G36*
X72324Y-41517D02*
X72055Y-41785D01*
X71928Y-41658D01*
X72197Y-41389D01*
X72324Y-41517D01*
X72324Y-41517D01*
G37*
G36*
X72463Y-41656D02*
X72194Y-41925D01*
X72067Y-41797D01*
X72336Y-41529D01*
X72463Y-41656D01*
X72463Y-41656D01*
G37*
G36*
X72465Y-28190D02*
X71934Y-28190D01*
X71934Y-27909D01*
X72465Y-27909D01*
X72465Y-28190D01*
X72465Y-28190D01*
G37*
G36*
X72465Y-28690D02*
X71934Y-28690D01*
X71934Y-28409D01*
X72465Y-28409D01*
X72465Y-28690D01*
X72465Y-28690D01*
G37*
G36*
X72465Y-29190D02*
X71934Y-29190D01*
X71934Y-28909D01*
X72465Y-28909D01*
X72465Y-29190D01*
X72465Y-29190D01*
G37*
G36*
X72465Y-29690D02*
X71934Y-29690D01*
X71934Y-29409D01*
X72465Y-29409D01*
X72465Y-29690D01*
X72465Y-29690D01*
G37*
G36*
X72602Y-41795D02*
X72334Y-42064D01*
X72206Y-41937D01*
X72475Y-41668D01*
X72602Y-41795D01*
X72602Y-41795D01*
G37*
G36*
X72741Y-41934D02*
X72472Y-42203D01*
X72345Y-42075D01*
X72614Y-41807D01*
X72741Y-41934D01*
X72741Y-41934D01*
G37*
G36*
X72825Y-31789D02*
X72824Y-31813D01*
X72818Y-31838D01*
X72810Y-31857D01*
X72795Y-31878D01*
X72780Y-31892D01*
X72758Y-31907D01*
X72739Y-31914D01*
X72713Y-31918D01*
X72693Y-31918D01*
X72667Y-31912D01*
X72649Y-31904D01*
X72627Y-31889D01*
X72613Y-31875D01*
X72599Y-31852D01*
X72592Y-31834D01*
X72587Y-31808D01*
X72587Y-31788D01*
X72593Y-31762D01*
X72601Y-31744D01*
X72616Y-31722D01*
X72630Y-31708D01*
X72652Y-31693D01*
X72670Y-31686D01*
X72697Y-31681D01*
X72716Y-31681D01*
X72743Y-31686D01*
X72761Y-31694D01*
X72783Y-31709D01*
X72797Y-31723D01*
X72812Y-31745D01*
X72819Y-31763D01*
X72825Y-31789D01*
X72825Y-31789D01*
G37*
G36*
X72845Y-31189D02*
X72844Y-31213D01*
X72838Y-31238D01*
X72830Y-31257D01*
X72815Y-31278D01*
X72800Y-31292D01*
X72778Y-31307D01*
X72759Y-31314D01*
X72733Y-31318D01*
X72713Y-31318D01*
X72687Y-31312D01*
X72669Y-31304D01*
X72647Y-31289D01*
X72633Y-31275D01*
X72619Y-31252D01*
X72612Y-31234D01*
X72607Y-31208D01*
X72607Y-31188D01*
X72613Y-31162D01*
X72621Y-31144D01*
X72636Y-31122D01*
X72650Y-31108D01*
X72672Y-31093D01*
X72690Y-31086D01*
X72717Y-31081D01*
X72736Y-31081D01*
X72763Y-31086D01*
X72781Y-31094D01*
X72803Y-31109D01*
X72817Y-31123D01*
X72832Y-31145D01*
X72839Y-31163D01*
X72845Y-31189D01*
X72845Y-31189D01*
G37*
G36*
X72880Y-42073D02*
X72612Y-42342D01*
X72484Y-42215D01*
X72753Y-41946D01*
X72880Y-42073D01*
X72880Y-42073D01*
G37*
G36*
X73020Y-42212D02*
X72751Y-42481D01*
X72624Y-42354D01*
X72892Y-42085D01*
X73020Y-42212D01*
X73020Y-42212D01*
G37*
G36*
X73159Y-42352D02*
X72890Y-42620D01*
X72763Y-42493D01*
X73032Y-42225D01*
X73159Y-42352D01*
X73159Y-42352D01*
G37*
G36*
X73161Y-40127D02*
X73158Y-40128D01*
X73153Y-40134D01*
X73153Y-40134D01*
X73031Y-40255D01*
X73021Y-40266D01*
X72897Y-40389D01*
X72897Y-40389D01*
X72892Y-40395D01*
X72892Y-40395D01*
X72881Y-40405D01*
X72758Y-40528D01*
X72758Y-40528D01*
X72753Y-40534D01*
X72753Y-40534D01*
X72753Y-40534D01*
X72742Y-40545D01*
X72742Y-40545D01*
X72737Y-40550D01*
X72736Y-40550D01*
X72736Y-40550D01*
X72614Y-40673D01*
X72603Y-40684D01*
X72480Y-40806D01*
X72480Y-40806D01*
X72480Y-40807D01*
X72475Y-40812D01*
X72475Y-40812D01*
X72464Y-40823D01*
X72464Y-40823D01*
X72464Y-40823D01*
X72458Y-40828D01*
X72458Y-40828D01*
X72340Y-40946D01*
X72325Y-40962D01*
X72325Y-40962D01*
X72319Y-40967D01*
X72319Y-40967D01*
X72202Y-41085D01*
X72185Y-41101D01*
X72185Y-41101D01*
X72180Y-41107D01*
X72180Y-41107D01*
X72064Y-41223D01*
X72058Y-41228D01*
X72057Y-41231D01*
X72056Y-41228D01*
X72051Y-41223D01*
X71788Y-40960D01*
X71911Y-40838D01*
X71916Y-40832D01*
X71927Y-40821D01*
X71932Y-40816D01*
X72050Y-40698D01*
X72055Y-40693D01*
X72066Y-40682D01*
X72072Y-40676D01*
X72206Y-40543D01*
X72211Y-40537D01*
X72328Y-40420D01*
X72328Y-40420D01*
X72333Y-40415D01*
X72345Y-40403D01*
X72350Y-40398D01*
X72350Y-40398D01*
X72467Y-40281D01*
X72473Y-40276D01*
X72606Y-40142D01*
X72612Y-40136D01*
X72623Y-40125D01*
X72628Y-40120D01*
X72746Y-40002D01*
X72751Y-39997D01*
X72762Y-39986D01*
X72768Y-39981D01*
X72890Y-39858D01*
X73153Y-40121D01*
X73153Y-40121D01*
X73158Y-40126D01*
X73161Y-40127D01*
X73161Y-40127D01*
G37*
G36*
X73218Y-31789D02*
X73218Y-31813D01*
X73212Y-31838D01*
X73204Y-31857D01*
X73189Y-31878D01*
X73174Y-31892D01*
X73152Y-31907D01*
X73133Y-31914D01*
X73107Y-31918D01*
X73087Y-31918D01*
X73061Y-31912D01*
X73043Y-31904D01*
X73021Y-31889D01*
X73007Y-31875D01*
X72993Y-31852D01*
X72985Y-31834D01*
X72981Y-31808D01*
X72981Y-31788D01*
X72986Y-31762D01*
X72994Y-31744D01*
X73009Y-31722D01*
X73023Y-31708D01*
X73046Y-31693D01*
X73064Y-31686D01*
X73091Y-31681D01*
X73110Y-31681D01*
X73137Y-31686D01*
X73155Y-31694D01*
X73177Y-31709D01*
X73191Y-31723D01*
X73206Y-31745D01*
X73213Y-31763D01*
X73218Y-31789D01*
X73218Y-31789D01*
G37*
G36*
X73238Y-31189D02*
X73238Y-31213D01*
X73232Y-31238D01*
X73224Y-31257D01*
X73209Y-31278D01*
X73194Y-31292D01*
X73172Y-31307D01*
X73153Y-31314D01*
X73127Y-31318D01*
X73107Y-31318D01*
X73081Y-31312D01*
X73063Y-31304D01*
X73041Y-31289D01*
X73027Y-31275D01*
X73013Y-31252D01*
X73005Y-31234D01*
X73001Y-31208D01*
X73001Y-31188D01*
X73006Y-31162D01*
X73014Y-31144D01*
X73029Y-31122D01*
X73043Y-31108D01*
X73066Y-31093D01*
X73084Y-31086D01*
X73111Y-31081D01*
X73130Y-31081D01*
X73157Y-31086D01*
X73175Y-31094D01*
X73197Y-31109D01*
X73211Y-31123D01*
X73226Y-31145D01*
X73233Y-31163D01*
X73238Y-31189D01*
X73238Y-31189D01*
G37*
G36*
X73490Y-32610D02*
X73489Y-32678D01*
X73475Y-32741D01*
X73451Y-32795D01*
X73413Y-32848D01*
X73371Y-32888D01*
X73316Y-32923D01*
X73261Y-32944D01*
X73197Y-32955D01*
X73139Y-32954D01*
X73075Y-32940D01*
X73021Y-32917D01*
X72968Y-32880D01*
X72927Y-32837D01*
X72892Y-32783D01*
X72871Y-32728D01*
X72859Y-32664D01*
X72860Y-32606D01*
X72873Y-32542D01*
X72896Y-32488D01*
X72933Y-32435D01*
X72975Y-32394D01*
X73029Y-32358D01*
X73083Y-32336D01*
X73148Y-32324D01*
X73206Y-32324D01*
X73270Y-32338D01*
X73323Y-32360D01*
X73378Y-32397D01*
X73419Y-32438D01*
X73455Y-32493D01*
X73477Y-32546D01*
X73490Y-32610D01*
X73490Y-32610D01*
G37*
G36*
X73576Y-39986D02*
X73307Y-40255D01*
X73180Y-40127D01*
X73449Y-39859D01*
X73576Y-39986D01*
X73576Y-39986D01*
G37*
G36*
X73576Y-42493D02*
X73449Y-42620D01*
X73180Y-42352D01*
X73307Y-42225D01*
X73576Y-42493D01*
X73576Y-42493D01*
G37*
G36*
X73612Y-31789D02*
X73612Y-31813D01*
X73606Y-31838D01*
X73598Y-31857D01*
X73582Y-31878D01*
X73568Y-31892D01*
X73546Y-31907D01*
X73527Y-31914D01*
X73501Y-31918D01*
X73481Y-31918D01*
X73455Y-31912D01*
X73436Y-31904D01*
X73415Y-31889D01*
X73401Y-31875D01*
X73386Y-31852D01*
X73379Y-31834D01*
X73374Y-31808D01*
X73375Y-31788D01*
X73380Y-31762D01*
X73388Y-31744D01*
X73403Y-31722D01*
X73417Y-31708D01*
X73440Y-31693D01*
X73458Y-31686D01*
X73484Y-31681D01*
X73504Y-31681D01*
X73530Y-31686D01*
X73548Y-31694D01*
X73571Y-31709D01*
X73584Y-31723D01*
X73599Y-31745D01*
X73607Y-31763D01*
X73612Y-31789D01*
X73612Y-31789D01*
G37*
G36*
X73632Y-31189D02*
X73632Y-31213D01*
X73626Y-31238D01*
X73618Y-31257D01*
X73602Y-31278D01*
X73588Y-31292D01*
X73566Y-31307D01*
X73547Y-31314D01*
X73521Y-31318D01*
X73501Y-31318D01*
X73475Y-31312D01*
X73456Y-31304D01*
X73435Y-31289D01*
X73421Y-31275D01*
X73406Y-31252D01*
X73399Y-31234D01*
X73394Y-31208D01*
X73395Y-31188D01*
X73400Y-31162D01*
X73408Y-31144D01*
X73423Y-31122D01*
X73437Y-31108D01*
X73460Y-31093D01*
X73478Y-31086D01*
X73504Y-31081D01*
X73524Y-31081D01*
X73550Y-31086D01*
X73568Y-31094D01*
X73591Y-31109D01*
X73604Y-31123D01*
X73619Y-31145D01*
X73627Y-31163D01*
X73632Y-31189D01*
X73632Y-31189D01*
G37*
G36*
X73715Y-40125D02*
X73447Y-40394D01*
X73319Y-40267D01*
X73588Y-39998D01*
X73715Y-40125D01*
X73715Y-40125D01*
G37*
G36*
X73715Y-42354D02*
X73588Y-42481D01*
X73319Y-42212D01*
X73447Y-42085D01*
X73715Y-42354D01*
X73715Y-42354D01*
G37*
G36*
X73855Y-40264D02*
X73586Y-40533D01*
X73459Y-40406D01*
X73727Y-40137D01*
X73855Y-40264D01*
X73855Y-40264D01*
G37*
G36*
X73855Y-42215D02*
X73727Y-42342D01*
X73459Y-42073D01*
X73586Y-41946D01*
X73855Y-42215D01*
X73855Y-42215D01*
G37*
G36*
X73994Y-40404D02*
X73725Y-40672D01*
X73598Y-40545D01*
X73867Y-40276D01*
X73994Y-40404D01*
X73994Y-40404D01*
G37*
G36*
X73994Y-42075D02*
X73867Y-42203D01*
X73598Y-41934D01*
X73725Y-41807D01*
X73994Y-42075D01*
X73994Y-42075D01*
G37*
G36*
X74062Y-41239D02*
X73169Y-42132D01*
X72277Y-41239D01*
X73169Y-40347D01*
X74062Y-41239D01*
X74062Y-41239D01*
G37*
G36*
X74133Y-40542D02*
X73864Y-40811D01*
X73737Y-40684D01*
X74005Y-40415D01*
X74133Y-40542D01*
X74133Y-40542D01*
G37*
G36*
X74133Y-41937D02*
X74005Y-42064D01*
X73737Y-41795D01*
X73864Y-41668D01*
X74133Y-41937D01*
X74133Y-41937D01*
G37*
G36*
X74272Y-40682D02*
X74003Y-40950D01*
X73876Y-40823D01*
X74145Y-40554D01*
X74272Y-40682D01*
X74272Y-40682D01*
G37*
G36*
X74272Y-41797D02*
X74145Y-41925D01*
X73876Y-41656D01*
X74003Y-41529D01*
X74272Y-41797D01*
X74272Y-41797D01*
G37*
G36*
X74411Y-40821D02*
X74142Y-41090D01*
X74015Y-40962D01*
X74284Y-40694D01*
X74411Y-40821D01*
X74411Y-40821D01*
G37*
G36*
X74411Y-41658D02*
X74284Y-41785D01*
X74015Y-41517D01*
X74142Y-41389D01*
X74411Y-41658D01*
X74411Y-41658D01*
G37*
G36*
X74550Y-40960D02*
X74282Y-41229D01*
X74155Y-41102D01*
X74423Y-40833D01*
X74550Y-40960D01*
X74550Y-40960D01*
G37*
G36*
X74550Y-41519D02*
X74423Y-41646D01*
X74155Y-41377D01*
X74282Y-41250D01*
X74550Y-41519D01*
X74550Y-41519D01*
G37*
G36*
X74965Y-28190D02*
X74434Y-28190D01*
X74434Y-27909D01*
X74965Y-27909D01*
X74965Y-28190D01*
X74965Y-28190D01*
G37*
G36*
X74965Y-28690D02*
X74434Y-28690D01*
X74434Y-28409D01*
X74965Y-28409D01*
X74965Y-28690D01*
X74965Y-28690D01*
G37*
G36*
X74965Y-29190D02*
X74434Y-29190D01*
X74434Y-28909D01*
X74965Y-28909D01*
X74965Y-29190D01*
X74965Y-29190D01*
G37*
G36*
X74965Y-29690D02*
X74434Y-29690D01*
X74434Y-29409D01*
X74965Y-29409D01*
X74965Y-29690D01*
X74965Y-29690D01*
G37*
G36*
X76070Y-40609D02*
X76069Y-40679D01*
X76055Y-40739D01*
X76030Y-40796D01*
X75994Y-40846D01*
X75949Y-40889D01*
X75897Y-40922D01*
X75840Y-40944D01*
X75779Y-40955D01*
X75717Y-40954D01*
X75657Y-40941D01*
X75600Y-40916D01*
X75549Y-40881D01*
X75506Y-40836D01*
X75473Y-40784D01*
X75450Y-40727D01*
X75439Y-40666D01*
X75440Y-40604D01*
X75453Y-40544D01*
X75477Y-40487D01*
X75512Y-40436D01*
X75556Y-40393D01*
X75608Y-40359D01*
X75665Y-40336D01*
X75726Y-40324D01*
X75788Y-40325D01*
X75848Y-40337D01*
X75905Y-40361D01*
X75956Y-40396D01*
X76000Y-40439D01*
X76034Y-40491D01*
X76058Y-40548D01*
X76070Y-40609D01*
X76070Y-40609D01*
G37*
G36*
X76070Y-41609D02*
X76069Y-41679D01*
X76055Y-41739D01*
X76030Y-41796D01*
X75994Y-41846D01*
X75949Y-41889D01*
X75897Y-41922D01*
X75840Y-41944D01*
X75779Y-41955D01*
X75717Y-41954D01*
X75657Y-41941D01*
X75600Y-41916D01*
X75549Y-41881D01*
X75506Y-41836D01*
X75473Y-41784D01*
X75450Y-41727D01*
X75439Y-41666D01*
X75440Y-41604D01*
X75453Y-41544D01*
X75477Y-41487D01*
X75512Y-41436D01*
X75556Y-41393D01*
X75608Y-41359D01*
X75665Y-41336D01*
X75726Y-41324D01*
X75788Y-41325D01*
X75848Y-41337D01*
X75905Y-41361D01*
X75956Y-41396D01*
X76000Y-41439D01*
X76034Y-41491D01*
X76058Y-41548D01*
X76070Y-41609D01*
X76070Y-41609D01*
G37*
G36*
X76070Y-42609D02*
X76069Y-42679D01*
X76055Y-42739D01*
X76030Y-42796D01*
X75994Y-42846D01*
X75949Y-42889D01*
X75897Y-42922D01*
X75840Y-42944D01*
X75779Y-42955D01*
X75717Y-42954D01*
X75657Y-42941D01*
X75600Y-42916D01*
X75549Y-42881D01*
X75506Y-42836D01*
X75473Y-42784D01*
X75450Y-42727D01*
X75439Y-42666D01*
X75440Y-42604D01*
X75453Y-42544D01*
X75477Y-42487D01*
X75512Y-42436D01*
X75556Y-42393D01*
X75608Y-42359D01*
X75665Y-42336D01*
X75726Y-42324D01*
X75788Y-42325D01*
X75848Y-42337D01*
X75905Y-42361D01*
X75956Y-42396D01*
X76000Y-42439D01*
X76034Y-42491D01*
X76058Y-42548D01*
X76070Y-42609D01*
X76070Y-42609D01*
G37*
G36*
X76070Y-43609D02*
X76069Y-43679D01*
X76055Y-43739D01*
X76030Y-43796D01*
X75994Y-43846D01*
X75949Y-43889D01*
X75897Y-43922D01*
X75840Y-43944D01*
X75779Y-43955D01*
X75717Y-43954D01*
X75657Y-43941D01*
X75600Y-43916D01*
X75549Y-43881D01*
X75506Y-43836D01*
X75473Y-43784D01*
X75450Y-43727D01*
X75439Y-43666D01*
X75440Y-43604D01*
X75453Y-43544D01*
X75477Y-43487D01*
X75512Y-43436D01*
X75556Y-43393D01*
X75608Y-43359D01*
X75665Y-43336D01*
X75726Y-43324D01*
X75788Y-43325D01*
X75848Y-43337D01*
X75905Y-43361D01*
X75956Y-43396D01*
X76000Y-43439D01*
X76034Y-43491D01*
X76058Y-43548D01*
X76070Y-43609D01*
X76070Y-43609D01*
G37*
G36*
X76070Y-44609D02*
X76069Y-44679D01*
X76055Y-44739D01*
X76030Y-44796D01*
X75994Y-44846D01*
X75949Y-44889D01*
X75897Y-44922D01*
X75840Y-44944D01*
X75779Y-44955D01*
X75717Y-44954D01*
X75657Y-44941D01*
X75600Y-44916D01*
X75549Y-44881D01*
X75506Y-44836D01*
X75473Y-44784D01*
X75450Y-44727D01*
X75439Y-44666D01*
X75440Y-44604D01*
X75453Y-44544D01*
X75477Y-44487D01*
X75512Y-44436D01*
X75556Y-44393D01*
X75608Y-44359D01*
X75665Y-44336D01*
X75726Y-44324D01*
X75788Y-44325D01*
X75848Y-44337D01*
X75905Y-44361D01*
X75956Y-44396D01*
X76000Y-44439D01*
X76034Y-44491D01*
X76058Y-44548D01*
X76070Y-44609D01*
X76070Y-44609D01*
G37*
G36*
X76070Y-45609D02*
X76069Y-45679D01*
X76055Y-45739D01*
X76030Y-45796D01*
X75994Y-45846D01*
X75949Y-45889D01*
X75897Y-45922D01*
X75840Y-45944D01*
X75779Y-45955D01*
X75717Y-45954D01*
X75657Y-45941D01*
X75600Y-45916D01*
X75549Y-45881D01*
X75506Y-45836D01*
X75473Y-45784D01*
X75450Y-45727D01*
X75439Y-45666D01*
X75440Y-45604D01*
X75453Y-45544D01*
X75477Y-45487D01*
X75512Y-45436D01*
X75556Y-45393D01*
X75608Y-45359D01*
X75665Y-45336D01*
X75726Y-45324D01*
X75788Y-45325D01*
X75848Y-45337D01*
X75905Y-45361D01*
X75956Y-45396D01*
X76000Y-45439D01*
X76034Y-45491D01*
X76058Y-45548D01*
X76070Y-45609D01*
X76070Y-45609D01*
G37*
G36*
X76070Y-46609D02*
X76069Y-46679D01*
X76055Y-46739D01*
X76030Y-46796D01*
X75994Y-46846D01*
X75949Y-46889D01*
X75897Y-46922D01*
X75840Y-46944D01*
X75779Y-46955D01*
X75717Y-46954D01*
X75657Y-46941D01*
X75600Y-46916D01*
X75549Y-46881D01*
X75506Y-46836D01*
X75473Y-46784D01*
X75450Y-46727D01*
X75439Y-46666D01*
X75440Y-46604D01*
X75453Y-46544D01*
X75477Y-46487D01*
X75512Y-46436D01*
X75556Y-46393D01*
X75608Y-46359D01*
X75665Y-46336D01*
X75726Y-46324D01*
X75788Y-46325D01*
X75848Y-46337D01*
X75905Y-46361D01*
X75956Y-46396D01*
X76000Y-46439D01*
X76034Y-46491D01*
X76058Y-46548D01*
X76070Y-46609D01*
X76070Y-46609D01*
G37*
G36*
X76070Y-47609D02*
X76069Y-47679D01*
X76055Y-47739D01*
X76030Y-47796D01*
X75994Y-47846D01*
X75949Y-47889D01*
X75897Y-47922D01*
X75840Y-47944D01*
X75779Y-47955D01*
X75717Y-47954D01*
X75657Y-47941D01*
X75600Y-47916D01*
X75549Y-47881D01*
X75506Y-47836D01*
X75473Y-47784D01*
X75450Y-47727D01*
X75439Y-47666D01*
X75440Y-47604D01*
X75453Y-47544D01*
X75477Y-47487D01*
X75512Y-47436D01*
X75556Y-47393D01*
X75608Y-47359D01*
X75665Y-47336D01*
X75726Y-47324D01*
X75788Y-47325D01*
X75848Y-47337D01*
X75905Y-47361D01*
X75956Y-47396D01*
X76000Y-47439D01*
X76034Y-47491D01*
X76058Y-47548D01*
X76070Y-47609D01*
X76070Y-47609D01*
G37*
G36*
X76070Y-48609D02*
X76069Y-48679D01*
X76055Y-48739D01*
X76030Y-48796D01*
X75994Y-48846D01*
X75949Y-48889D01*
X75897Y-48922D01*
X75840Y-48944D01*
X75779Y-48955D01*
X75717Y-48954D01*
X75657Y-48941D01*
X75600Y-48916D01*
X75549Y-48881D01*
X75506Y-48836D01*
X75473Y-48784D01*
X75450Y-48727D01*
X75439Y-48666D01*
X75440Y-48604D01*
X75453Y-48544D01*
X75477Y-48487D01*
X75512Y-48436D01*
X75556Y-48393D01*
X75608Y-48359D01*
X75665Y-48336D01*
X75726Y-48324D01*
X75788Y-48325D01*
X75848Y-48337D01*
X75905Y-48361D01*
X75956Y-48396D01*
X76000Y-48439D01*
X76034Y-48491D01*
X76058Y-48548D01*
X76070Y-48609D01*
X76070Y-48609D01*
G37*
G36*
X76070Y-33610D02*
X76069Y-33678D01*
X76055Y-33741D01*
X76031Y-33795D01*
X75993Y-33848D01*
X75951Y-33888D01*
X75896Y-33923D01*
X75841Y-33944D01*
X75777Y-33955D01*
X75719Y-33954D01*
X75655Y-33940D01*
X75601Y-33917D01*
X75548Y-33880D01*
X75507Y-33837D01*
X75472Y-33783D01*
X75451Y-33728D01*
X75439Y-33664D01*
X75440Y-33606D01*
X75453Y-33542D01*
X75476Y-33488D01*
X75513Y-33435D01*
X75555Y-33394D01*
X75609Y-33358D01*
X75663Y-33336D01*
X75728Y-33324D01*
X75786Y-33324D01*
X75850Y-33338D01*
X75903Y-33360D01*
X75958Y-33397D01*
X75999Y-33438D01*
X76035Y-33493D01*
X76057Y-33546D01*
X76070Y-33610D01*
X76070Y-33610D01*
G37*
G36*
X76070Y-34610D02*
X76069Y-34678D01*
X76055Y-34741D01*
X76031Y-34795D01*
X75993Y-34848D01*
X75951Y-34888D01*
X75896Y-34923D01*
X75841Y-34944D01*
X75777Y-34955D01*
X75719Y-34954D01*
X75655Y-34940D01*
X75601Y-34917D01*
X75548Y-34880D01*
X75507Y-34837D01*
X75472Y-34783D01*
X75451Y-34728D01*
X75439Y-34664D01*
X75440Y-34606D01*
X75453Y-34542D01*
X75476Y-34488D01*
X75513Y-34435D01*
X75555Y-34394D01*
X75609Y-34358D01*
X75663Y-34336D01*
X75728Y-34324D01*
X75786Y-34324D01*
X75850Y-34338D01*
X75903Y-34360D01*
X75958Y-34397D01*
X75999Y-34438D01*
X76035Y-34493D01*
X76057Y-34546D01*
X76070Y-34610D01*
X76070Y-34610D01*
G37*
G36*
X76070Y-35610D02*
X76069Y-35678D01*
X76055Y-35741D01*
X76031Y-35795D01*
X75993Y-35848D01*
X75951Y-35888D01*
X75896Y-35923D01*
X75841Y-35944D01*
X75777Y-35955D01*
X75719Y-35954D01*
X75655Y-35940D01*
X75601Y-35917D01*
X75548Y-35880D01*
X75507Y-35837D01*
X75472Y-35783D01*
X75451Y-35728D01*
X75439Y-35664D01*
X75440Y-35606D01*
X75453Y-35542D01*
X75476Y-35488D01*
X75513Y-35435D01*
X75555Y-35394D01*
X75609Y-35358D01*
X75663Y-35336D01*
X75728Y-35324D01*
X75786Y-35324D01*
X75850Y-35338D01*
X75903Y-35360D01*
X75958Y-35397D01*
X75999Y-35438D01*
X76035Y-35493D01*
X76057Y-35546D01*
X76070Y-35610D01*
X76070Y-35610D01*
G37*
G36*
X76070Y-36610D02*
X76069Y-36678D01*
X76055Y-36741D01*
X76031Y-36795D01*
X75993Y-36848D01*
X75951Y-36888D01*
X75896Y-36923D01*
X75841Y-36944D01*
X75777Y-36955D01*
X75719Y-36954D01*
X75655Y-36940D01*
X75601Y-36917D01*
X75548Y-36880D01*
X75507Y-36837D01*
X75472Y-36783D01*
X75451Y-36728D01*
X75439Y-36664D01*
X75440Y-36606D01*
X75453Y-36542D01*
X75476Y-36488D01*
X75513Y-36435D01*
X75555Y-36394D01*
X75609Y-36358D01*
X75663Y-36336D01*
X75728Y-36324D01*
X75786Y-36324D01*
X75850Y-36338D01*
X75903Y-36360D01*
X75958Y-36397D01*
X75999Y-36438D01*
X76035Y-36493D01*
X76057Y-36546D01*
X76070Y-36610D01*
X76070Y-36610D01*
G37*
G36*
X76070Y-37610D02*
X76069Y-37678D01*
X76055Y-37741D01*
X76031Y-37795D01*
X75993Y-37848D01*
X75951Y-37888D01*
X75896Y-37923D01*
X75841Y-37944D01*
X75777Y-37955D01*
X75719Y-37954D01*
X75655Y-37940D01*
X75601Y-37917D01*
X75548Y-37880D01*
X75507Y-37837D01*
X75472Y-37783D01*
X75451Y-37728D01*
X75439Y-37664D01*
X75440Y-37606D01*
X75453Y-37542D01*
X75476Y-37488D01*
X75513Y-37435D01*
X75555Y-37394D01*
X75609Y-37358D01*
X75663Y-37336D01*
X75728Y-37324D01*
X75786Y-37324D01*
X75850Y-37338D01*
X75903Y-37360D01*
X75958Y-37397D01*
X75999Y-37438D01*
X76035Y-37493D01*
X76057Y-37546D01*
X76070Y-37610D01*
X76070Y-37610D01*
G37*
G36*
X76070Y-38610D02*
X76069Y-38678D01*
X76055Y-38741D01*
X76031Y-38795D01*
X75993Y-38848D01*
X75951Y-38888D01*
X75896Y-38923D01*
X75841Y-38944D01*
X75777Y-38955D01*
X75719Y-38954D01*
X75655Y-38940D01*
X75601Y-38917D01*
X75548Y-38880D01*
X75507Y-38837D01*
X75472Y-38783D01*
X75451Y-38728D01*
X75439Y-38664D01*
X75440Y-38606D01*
X75453Y-38542D01*
X75476Y-38488D01*
X75513Y-38435D01*
X75555Y-38394D01*
X75609Y-38358D01*
X75663Y-38336D01*
X75728Y-38324D01*
X75786Y-38324D01*
X75850Y-38338D01*
X75903Y-38360D01*
X75958Y-38397D01*
X75999Y-38438D01*
X76035Y-38493D01*
X76057Y-38546D01*
X76070Y-38610D01*
X76070Y-38610D01*
G37*
G36*
X76070Y-39610D02*
X76069Y-39678D01*
X76055Y-39741D01*
X76031Y-39795D01*
X75993Y-39848D01*
X75951Y-39888D01*
X75896Y-39923D01*
X75841Y-39944D01*
X75777Y-39955D01*
X75719Y-39954D01*
X75655Y-39940D01*
X75601Y-39917D01*
X75548Y-39880D01*
X75507Y-39837D01*
X75472Y-39783D01*
X75451Y-39728D01*
X75439Y-39664D01*
X75440Y-39606D01*
X75453Y-39542D01*
X75476Y-39488D01*
X75513Y-39435D01*
X75555Y-39394D01*
X75609Y-39358D01*
X75663Y-39336D01*
X75728Y-39324D01*
X75786Y-39324D01*
X75850Y-39338D01*
X75903Y-39360D01*
X75958Y-39397D01*
X75999Y-39438D01*
X76035Y-39493D01*
X76057Y-39546D01*
X76070Y-39610D01*
X76070Y-39610D01*
G37*
G36*
X76285Y-27330D02*
X76284Y-27398D01*
X76270Y-27461D01*
X76246Y-27515D01*
X76208Y-27568D01*
X76166Y-27608D01*
X76111Y-27643D01*
X76056Y-27664D01*
X75992Y-27675D01*
X75934Y-27674D01*
X75870Y-27660D01*
X75816Y-27637D01*
X75763Y-27600D01*
X75722Y-27557D01*
X75687Y-27503D01*
X75666Y-27448D01*
X75654Y-27384D01*
X75655Y-27326D01*
X75668Y-27262D01*
X75691Y-27208D01*
X75728Y-27155D01*
X75770Y-27114D01*
X75824Y-27078D01*
X75878Y-27056D01*
X75943Y-27044D01*
X76001Y-27044D01*
X76065Y-27058D01*
X76118Y-27080D01*
X76173Y-27117D01*
X76214Y-27158D01*
X76250Y-27213D01*
X76272Y-27266D01*
X76285Y-27330D01*
X76285Y-27330D01*
G37*
G36*
X76285Y-28330D02*
X76284Y-28398D01*
X76270Y-28461D01*
X76246Y-28515D01*
X76208Y-28568D01*
X76166Y-28608D01*
X76111Y-28643D01*
X76056Y-28664D01*
X75992Y-28675D01*
X75934Y-28674D01*
X75870Y-28660D01*
X75816Y-28637D01*
X75763Y-28600D01*
X75722Y-28557D01*
X75687Y-28503D01*
X75666Y-28448D01*
X75654Y-28384D01*
X75655Y-28326D01*
X75668Y-28262D01*
X75691Y-28208D01*
X75728Y-28155D01*
X75770Y-28114D01*
X75824Y-28078D01*
X75878Y-28056D01*
X75943Y-28044D01*
X76001Y-28044D01*
X76065Y-28058D01*
X76118Y-28080D01*
X76173Y-28117D01*
X76214Y-28158D01*
X76250Y-28213D01*
X76272Y-28266D01*
X76285Y-28330D01*
X76285Y-28330D01*
G37*
G36*
X76285Y-29330D02*
X76284Y-29398D01*
X76270Y-29461D01*
X76246Y-29515D01*
X76208Y-29568D01*
X76166Y-29608D01*
X76111Y-29643D01*
X76056Y-29664D01*
X75992Y-29675D01*
X75934Y-29674D01*
X75870Y-29660D01*
X75816Y-29637D01*
X75763Y-29600D01*
X75722Y-29557D01*
X75687Y-29503D01*
X75666Y-29448D01*
X75654Y-29384D01*
X75655Y-29326D01*
X75668Y-29262D01*
X75691Y-29208D01*
X75728Y-29155D01*
X75770Y-29114D01*
X75824Y-29078D01*
X75878Y-29056D01*
X75943Y-29044D01*
X76001Y-29044D01*
X76065Y-29058D01*
X76118Y-29080D01*
X76173Y-29117D01*
X76214Y-29158D01*
X76250Y-29213D01*
X76272Y-29266D01*
X76285Y-29330D01*
X76285Y-29330D01*
G37*
G36*
X76285Y-30330D02*
X76284Y-30398D01*
X76270Y-30461D01*
X76246Y-30515D01*
X76208Y-30568D01*
X76166Y-30608D01*
X76111Y-30643D01*
X76056Y-30664D01*
X75992Y-30675D01*
X75934Y-30674D01*
X75870Y-30660D01*
X75816Y-30637D01*
X75763Y-30600D01*
X75722Y-30557D01*
X75687Y-30503D01*
X75666Y-30448D01*
X75654Y-30384D01*
X75655Y-30326D01*
X75668Y-30262D01*
X75691Y-30208D01*
X75728Y-30155D01*
X75770Y-30114D01*
X75824Y-30078D01*
X75878Y-30056D01*
X75943Y-30044D01*
X76001Y-30044D01*
X76065Y-30058D01*
X76118Y-30080D01*
X76173Y-30117D01*
X76214Y-30158D01*
X76250Y-30213D01*
X76272Y-30266D01*
X76285Y-30330D01*
X76285Y-30330D01*
G37*
M02*
