G04 (created by PCBNEW (2013-07-07 BZR 4022)-stable) date 8/16/2013 4:39:23 PM*
%MOIN*%
G04 Gerber Fmt 3.4, Leading zero omitted, Abs format*
%FSLAX34Y34*%
G01*
G70*
G90*
G04 APERTURE LIST*
%ADD10C,0.00590551*%
%ADD11C,0.1*%
%ADD12C,0.001*%
G04 APERTURE END LIST*
G54D10*
G54D11*
X44750Y-26250D02*
X36750Y-26250D01*
X77500Y-26250D02*
X69000Y-26250D01*
X77500Y-29500D02*
X77500Y-26250D01*
X77500Y-49750D02*
X77000Y-49750D01*
X77500Y-48000D02*
X77500Y-49750D01*
X77500Y-31500D02*
X77500Y-48000D01*
X77500Y-31500D02*
X76750Y-31500D01*
X77500Y-29500D02*
X77500Y-31500D01*
X69250Y-26250D02*
X52750Y-26250D01*
X52500Y-49750D02*
X69500Y-49750D01*
X77250Y-31500D02*
X74250Y-31500D01*
X36500Y-26250D02*
X36500Y-35000D01*
X69250Y-35750D02*
X69250Y-42500D01*
X69250Y-31500D02*
X69250Y-33500D01*
X69250Y-31500D02*
X72000Y-31500D01*
X69250Y-29750D02*
X69250Y-31500D01*
X52750Y-33500D02*
X52750Y-42500D01*
X44750Y-35250D02*
X44750Y-40500D01*
X44750Y-35250D02*
X42000Y-35250D01*
X44750Y-35000D02*
X44750Y-35250D01*
X44750Y-33750D02*
X44750Y-35000D01*
X44750Y-31500D02*
X44750Y-33750D01*
X36500Y-49750D02*
X37000Y-49750D01*
X36500Y-35250D02*
X36500Y-49750D01*
X36500Y-35250D02*
X39750Y-35250D01*
X36500Y-35000D02*
X36500Y-35250D01*
X36750Y-26250D02*
X36500Y-26250D01*
X44750Y-26250D02*
X44750Y-29250D01*
X52750Y-26250D02*
X44750Y-26250D01*
X52750Y-26250D02*
X52750Y-31250D01*
X69250Y-26250D02*
X69250Y-27500D01*
X77000Y-49750D02*
X77250Y-49750D01*
X69250Y-49750D02*
X77000Y-49750D01*
X69250Y-49750D02*
X69250Y-44750D01*
X52750Y-49750D02*
X52750Y-44750D01*
X44750Y-49750D02*
X52750Y-49750D01*
X44750Y-49750D02*
X44750Y-42750D01*
X37000Y-49750D02*
X44750Y-49750D01*
G54D12*
X45170Y-26760D02*
X45175Y-26760D01*
X45170Y-49260D02*
X45180Y-49260D01*
X44170Y-49260D02*
X37170Y-49260D01*
X76670Y-49260D02*
X69670Y-49260D01*
X52170Y-49260D02*
X45170Y-49260D01*
X61615Y-50140D02*
X61615Y-50145D01*
M02*
