G04 (created by PCBNEW (2013-07-07 BZR 4022)-stable) date 8/16/2013 4:39:23 PM*
%MOIN*%
G04 Gerber Fmt 3.4, Leading zero omitted, Abs format*
%FSLAX34Y34*%
G01*
G70*
G90*
G04 APERTURE LIST*
%ADD10C,0.00590551*%
%ADD11C,0.0001*%
%ADD12R,0.045X0.02*%
%ADD13R,0.0787X0.0177*%
%ADD14R,0.0177X0.0787*%
%ADD15C,0.055*%
%ADD16R,0.055X0.055*%
%ADD17C,0.0098*%
%ADD18R,0.0512X0.0118*%
%ADD19C,0.035*%
%ADD20C,0.008*%
G04 APERTURE END LIST*
G54D10*
G54D11*
G36*
X62234Y-42284D02*
X62230Y-42331D01*
X62226Y-42337D01*
X62187Y-42348D01*
X62142Y-42299D01*
X62139Y-42295D01*
X62096Y-42219D01*
X62041Y-42113D01*
X62011Y-42051D01*
X61946Y-41930D01*
X61898Y-41873D01*
X61867Y-41879D01*
X61856Y-41948D01*
X61863Y-42062D01*
X61873Y-42178D01*
X61870Y-42245D01*
X61850Y-42278D01*
X61831Y-42288D01*
X61770Y-42284D01*
X61747Y-42263D01*
X61737Y-42212D01*
X61729Y-42109D01*
X61725Y-41969D01*
X61723Y-41804D01*
X61724Y-41631D01*
X61728Y-41462D01*
X61734Y-41313D01*
X61742Y-41198D01*
X61753Y-41131D01*
X61756Y-41125D01*
X61811Y-41081D01*
X61900Y-41065D01*
X61999Y-41076D01*
X62080Y-41114D01*
X62095Y-41128D01*
X62133Y-41198D01*
X62162Y-41302D01*
X62170Y-41353D01*
X62174Y-41475D01*
X62149Y-41581D01*
X62106Y-41676D01*
X62048Y-41789D01*
X62048Y-41465D01*
X62046Y-41361D01*
X62036Y-41274D01*
X62029Y-41252D01*
X61982Y-41212D01*
X61913Y-41200D01*
X61816Y-41200D01*
X61816Y-41430D01*
X61819Y-41555D01*
X61827Y-41657D01*
X61837Y-41715D01*
X61857Y-41749D01*
X61891Y-41739D01*
X61929Y-41709D01*
X61990Y-41653D01*
X62024Y-41616D01*
X62040Y-41560D01*
X62048Y-41465D01*
X62048Y-41789D01*
X62024Y-41836D01*
X62143Y-42068D01*
X62206Y-42200D01*
X62234Y-42284D01*
X62234Y-42284D01*
X62234Y-42284D01*
G37*
G36*
X61244Y-41213D02*
X61241Y-41335D01*
X61230Y-41483D01*
X61212Y-41644D01*
X61189Y-41804D01*
X61163Y-41952D01*
X61134Y-42073D01*
X61105Y-42154D01*
X61092Y-42175D01*
X61007Y-42224D01*
X60902Y-42226D01*
X60802Y-42182D01*
X60778Y-42162D01*
X60748Y-42127D01*
X60729Y-42088D01*
X60719Y-42030D01*
X60716Y-41940D01*
X60719Y-41805D01*
X60724Y-41683D01*
X60738Y-41476D01*
X60758Y-41314D01*
X60784Y-41202D01*
X60814Y-41146D01*
X60844Y-41150D01*
X60852Y-41189D01*
X60859Y-41283D01*
X60864Y-41418D01*
X60866Y-41580D01*
X60866Y-41627D01*
X60866Y-42083D01*
X60950Y-42083D01*
X60984Y-42081D01*
X61008Y-42068D01*
X61025Y-42033D01*
X61037Y-41965D01*
X61047Y-41853D01*
X61058Y-41687D01*
X61060Y-41666D01*
X61080Y-41438D01*
X61106Y-41272D01*
X61141Y-41164D01*
X61185Y-41109D01*
X61218Y-41100D01*
X61237Y-41130D01*
X61244Y-41213D01*
X61244Y-41213D01*
X61244Y-41213D01*
G37*
G36*
X60275Y-41292D02*
X60267Y-41330D01*
X60229Y-41391D01*
X60186Y-41395D01*
X60155Y-41346D01*
X60150Y-41300D01*
X60139Y-41226D01*
X60099Y-41200D01*
X60085Y-41200D01*
X60000Y-41228D01*
X59936Y-41298D01*
X59916Y-41367D01*
X59903Y-41428D01*
X59888Y-41447D01*
X59863Y-41489D01*
X59837Y-41576D01*
X59814Y-41683D01*
X59797Y-41788D01*
X59792Y-41868D01*
X59798Y-41896D01*
X59838Y-41931D01*
X59883Y-41904D01*
X59935Y-41815D01*
X59950Y-41783D01*
X59998Y-41693D01*
X60046Y-41640D01*
X60065Y-41633D01*
X60099Y-41637D01*
X60112Y-41660D01*
X60106Y-41713D01*
X60079Y-41812D01*
X60065Y-41860D01*
X60018Y-41981D01*
X59960Y-42054D01*
X59918Y-42082D01*
X59846Y-42112D01*
X59794Y-42104D01*
X59745Y-42069D01*
X59700Y-42023D01*
X59677Y-41963D01*
X59671Y-41868D01*
X59672Y-41811D01*
X59688Y-41671D01*
X59726Y-41509D01*
X59778Y-41345D01*
X59839Y-41202D01*
X59900Y-41100D01*
X59909Y-41089D01*
X59983Y-41026D01*
X60056Y-40980D01*
X60125Y-40951D01*
X60171Y-40962D01*
X60196Y-40984D01*
X60244Y-41066D01*
X60272Y-41180D01*
X60275Y-41292D01*
X60275Y-41292D01*
X60275Y-41292D01*
G37*
G36*
X63388Y-41920D02*
X63377Y-41952D01*
X63367Y-41963D01*
X63327Y-41991D01*
X63285Y-41978D01*
X63235Y-41935D01*
X63163Y-41858D01*
X63085Y-41758D01*
X63062Y-41727D01*
X62994Y-41645D01*
X62981Y-41638D01*
X62981Y-41149D01*
X62954Y-41051D01*
X62901Y-40976D01*
X62829Y-40937D01*
X62746Y-40949D01*
X62725Y-40960D01*
X62708Y-40990D01*
X62713Y-41054D01*
X62742Y-41162D01*
X62757Y-41209D01*
X62796Y-41319D01*
X62831Y-41399D01*
X62853Y-41433D01*
X62854Y-41433D01*
X62890Y-41408D01*
X62931Y-41359D01*
X62976Y-41256D01*
X62981Y-41149D01*
X62981Y-41638D01*
X62949Y-41624D01*
X62928Y-41663D01*
X62934Y-41759D01*
X62950Y-41838D01*
X62979Y-41941D01*
X63009Y-42015D01*
X63025Y-42037D01*
X63040Y-42077D01*
X63016Y-42119D01*
X62982Y-42133D01*
X62948Y-42106D01*
X62904Y-42040D01*
X62896Y-42027D01*
X62860Y-41940D01*
X62819Y-41815D01*
X62783Y-41685D01*
X62740Y-41531D01*
X62685Y-41353D01*
X62629Y-41192D01*
X62583Y-41066D01*
X62559Y-40986D01*
X62555Y-40940D01*
X62571Y-40910D01*
X62600Y-40886D01*
X62702Y-40836D01*
X62819Y-40813D01*
X62922Y-40821D01*
X62946Y-40831D01*
X63003Y-40891D01*
X63053Y-40996D01*
X63090Y-41124D01*
X63107Y-41252D01*
X63103Y-41332D01*
X63097Y-41400D01*
X63109Y-41462D01*
X63144Y-41534D01*
X63211Y-41633D01*
X63250Y-41686D01*
X63330Y-41799D01*
X63374Y-41873D01*
X63388Y-41920D01*
X63388Y-41920D01*
X63388Y-41920D01*
G37*
G36*
X58872Y-40906D02*
X58870Y-41040D01*
X58870Y-41041D01*
X58812Y-41180D01*
X58703Y-41285D01*
X58695Y-41288D01*
X58695Y-41017D01*
X58677Y-40916D01*
X58642Y-40855D01*
X58618Y-40833D01*
X58592Y-40859D01*
X58544Y-40929D01*
X58493Y-41014D01*
X58438Y-41115D01*
X58415Y-41172D01*
X58422Y-41200D01*
X58444Y-41210D01*
X58497Y-41225D01*
X58510Y-41229D01*
X58544Y-41218D01*
X58587Y-41197D01*
X58664Y-41122D01*
X58695Y-41017D01*
X58695Y-41288D01*
X58554Y-41347D01*
X58485Y-41358D01*
X58382Y-41373D01*
X58318Y-41403D01*
X58266Y-41465D01*
X58232Y-41520D01*
X58179Y-41610D01*
X58147Y-41653D01*
X58126Y-41661D01*
X58105Y-41644D01*
X58086Y-41595D01*
X58083Y-41556D01*
X58098Y-41501D01*
X58140Y-41403D01*
X58201Y-41276D01*
X58274Y-41135D01*
X58350Y-40994D01*
X58422Y-40867D01*
X58484Y-40769D01*
X58513Y-40729D01*
X58578Y-40650D01*
X58701Y-40715D01*
X58817Y-40801D01*
X58872Y-40906D01*
X58872Y-40906D01*
X58872Y-40906D01*
G37*
G36*
X64373Y-41185D02*
X64357Y-41228D01*
X64295Y-41276D01*
X64215Y-41320D01*
X64068Y-41381D01*
X63944Y-41398D01*
X63862Y-41374D01*
X63832Y-41334D01*
X63783Y-41247D01*
X63723Y-41128D01*
X63657Y-40992D01*
X63593Y-40853D01*
X63538Y-40727D01*
X63499Y-40628D01*
X63483Y-40570D01*
X63483Y-40568D01*
X63510Y-40515D01*
X63580Y-40447D01*
X63675Y-40376D01*
X63778Y-40314D01*
X63869Y-40274D01*
X63915Y-40266D01*
X63951Y-40284D01*
X63940Y-40331D01*
X63886Y-40397D01*
X63800Y-40470D01*
X63705Y-40544D01*
X63661Y-40605D01*
X63661Y-40672D01*
X63699Y-40768D01*
X63704Y-40778D01*
X63758Y-40892D01*
X63869Y-40826D01*
X63949Y-40789D01*
X64007Y-40779D01*
X64015Y-40782D01*
X64049Y-40831D01*
X64026Y-40890D01*
X63949Y-40948D01*
X63933Y-40956D01*
X63849Y-41001D01*
X63822Y-41040D01*
X63846Y-41093D01*
X63880Y-41137D01*
X63943Y-41215D01*
X64132Y-41151D01*
X64240Y-41117D01*
X64304Y-41107D01*
X64338Y-41119D01*
X64351Y-41135D01*
X64373Y-41185D01*
X64373Y-41185D01*
X64373Y-41185D01*
G37*
G36*
X58043Y-40421D02*
X58003Y-40449D01*
X57928Y-40447D01*
X57880Y-40432D01*
X57804Y-40406D01*
X57757Y-40416D01*
X57711Y-40464D01*
X57658Y-40552D01*
X57663Y-40612D01*
X57719Y-40643D01*
X57772Y-40680D01*
X57777Y-40736D01*
X57748Y-40808D01*
X57694Y-40819D01*
X57619Y-40769D01*
X57614Y-40764D01*
X57540Y-40690D01*
X57482Y-40768D01*
X57420Y-40856D01*
X57368Y-40939D01*
X57333Y-41005D01*
X57335Y-41036D01*
X57372Y-41055D01*
X57525Y-41113D01*
X57617Y-41160D01*
X57649Y-41195D01*
X57650Y-41198D01*
X57621Y-41225D01*
X57544Y-41226D01*
X57432Y-41201D01*
X57366Y-41179D01*
X57270Y-41137D01*
X57197Y-41093D01*
X57185Y-41083D01*
X57156Y-41039D01*
X57174Y-40995D01*
X57193Y-40973D01*
X57236Y-40916D01*
X57250Y-40885D01*
X57268Y-40841D01*
X57318Y-40760D01*
X57390Y-40655D01*
X57473Y-40540D01*
X57558Y-40426D01*
X57636Y-40329D01*
X57697Y-40260D01*
X57730Y-40233D01*
X57799Y-40247D01*
X57890Y-40282D01*
X57977Y-40325D01*
X58030Y-40363D01*
X58034Y-40369D01*
X58043Y-40421D01*
X58043Y-40421D01*
X58043Y-40421D01*
G37*
G36*
X65257Y-40393D02*
X65243Y-40432D01*
X65177Y-40431D01*
X65060Y-40391D01*
X64889Y-40313D01*
X64866Y-40302D01*
X64748Y-40244D01*
X64654Y-40202D01*
X64601Y-40180D01*
X64593Y-40179D01*
X64607Y-40208D01*
X64650Y-40279D01*
X64716Y-40379D01*
X64751Y-40431D01*
X64832Y-40557D01*
X64877Y-40641D01*
X64889Y-40694D01*
X64879Y-40721D01*
X64831Y-40760D01*
X64778Y-40752D01*
X64708Y-40692D01*
X64686Y-40669D01*
X64614Y-40584D01*
X64528Y-40469D01*
X64436Y-40337D01*
X64347Y-40202D01*
X64270Y-40076D01*
X64213Y-39974D01*
X64184Y-39908D01*
X64183Y-39898D01*
X64209Y-39848D01*
X64274Y-39832D01*
X64358Y-39854D01*
X64400Y-39877D01*
X64461Y-39914D01*
X64560Y-39972D01*
X64678Y-40038D01*
X64695Y-40047D01*
X64923Y-40173D01*
X64720Y-39915D01*
X64620Y-39786D01*
X64557Y-39699D01*
X64526Y-39644D01*
X64523Y-39610D01*
X64541Y-39588D01*
X64546Y-39585D01*
X64570Y-39581D01*
X64604Y-39599D01*
X64656Y-39643D01*
X64732Y-39721D01*
X64836Y-39838D01*
X64976Y-39999D01*
X64996Y-40023D01*
X65133Y-40190D01*
X65220Y-40313D01*
X65257Y-40393D01*
X65257Y-40393D01*
X65257Y-40393D01*
G37*
G36*
X57274Y-39870D02*
X57273Y-39878D01*
X57235Y-39926D01*
X57180Y-39916D01*
X57100Y-39847D01*
X57097Y-39844D01*
X57052Y-39797D01*
X57017Y-39780D01*
X56981Y-39799D01*
X56931Y-39859D01*
X56858Y-39962D01*
X56825Y-40019D01*
X56831Y-40058D01*
X56885Y-40107D01*
X56893Y-40114D01*
X56954Y-40180D01*
X56981Y-40244D01*
X56970Y-40289D01*
X56937Y-40300D01*
X56881Y-40280D01*
X56808Y-40233D01*
X56802Y-40229D01*
X56740Y-40185D01*
X56706Y-40170D01*
X56704Y-40171D01*
X56680Y-40202D01*
X56629Y-40265D01*
X56606Y-40294D01*
X56538Y-40391D01*
X56523Y-40457D01*
X56560Y-40503D01*
X56617Y-40528D01*
X56699Y-40574D01*
X56743Y-40633D01*
X56737Y-40689D01*
X56729Y-40698D01*
X56678Y-40709D01*
X56624Y-40697D01*
X56534Y-40649D01*
X56441Y-40581D01*
X56364Y-40508D01*
X56320Y-40446D01*
X56316Y-40429D01*
X56337Y-40382D01*
X56393Y-40298D01*
X56475Y-40188D01*
X56573Y-40062D01*
X56679Y-39932D01*
X56783Y-39811D01*
X56875Y-39708D01*
X56946Y-39636D01*
X56987Y-39607D01*
X57047Y-39621D01*
X57123Y-39672D01*
X57198Y-39741D01*
X57254Y-39813D01*
X57274Y-39870D01*
X57274Y-39870D01*
X57274Y-39870D01*
G37*
G36*
X56616Y-39217D02*
X56598Y-39255D01*
X56538Y-39297D01*
X56428Y-39348D01*
X56300Y-39398D01*
X56235Y-39435D01*
X56178Y-39500D01*
X56125Y-39604D01*
X56069Y-39755D01*
X56019Y-39921D01*
X55967Y-40071D01*
X55917Y-40158D01*
X55867Y-40183D01*
X55820Y-40157D01*
X55794Y-40118D01*
X55787Y-40064D01*
X55802Y-39983D01*
X55840Y-39859D01*
X55867Y-39783D01*
X55918Y-39629D01*
X55941Y-39536D01*
X55936Y-39502D01*
X55901Y-39528D01*
X55836Y-39612D01*
X55766Y-39715D01*
X55679Y-39835D01*
X55612Y-39900D01*
X55559Y-39912D01*
X55514Y-39880D01*
X55494Y-39841D01*
X55497Y-39791D01*
X55528Y-39721D01*
X55591Y-39622D01*
X55691Y-39487D01*
X55762Y-39395D01*
X55930Y-39183D01*
X56065Y-39025D01*
X56170Y-38917D01*
X56247Y-38858D01*
X56301Y-38844D01*
X56333Y-38873D01*
X56342Y-38905D01*
X56328Y-38955D01*
X56280Y-39037D01*
X56215Y-39127D01*
X56147Y-39214D01*
X56102Y-39276D01*
X56088Y-39299D01*
X56123Y-39289D01*
X56201Y-39261D01*
X56275Y-39233D01*
X56428Y-39184D01*
X56540Y-39168D01*
X56603Y-39185D01*
X56616Y-39217D01*
X56616Y-39217D01*
X56616Y-39217D01*
G37*
G36*
X66008Y-39997D02*
X65974Y-40048D01*
X65901Y-40047D01*
X65878Y-40039D01*
X65839Y-40005D01*
X65769Y-39928D01*
X65677Y-39818D01*
X65572Y-39685D01*
X65532Y-39633D01*
X65426Y-39494D01*
X65334Y-39374D01*
X65263Y-39282D01*
X65222Y-39230D01*
X65216Y-39222D01*
X65179Y-39225D01*
X65113Y-39266D01*
X65074Y-39297D01*
X65000Y-39357D01*
X64955Y-39375D01*
X64923Y-39357D01*
X64917Y-39351D01*
X64888Y-39297D01*
X64888Y-39274D01*
X64917Y-39241D01*
X64985Y-39176D01*
X65081Y-39089D01*
X65158Y-39021D01*
X65279Y-38919D01*
X65360Y-38858D01*
X65409Y-38835D01*
X65434Y-38842D01*
X65438Y-38850D01*
X65429Y-38914D01*
X65372Y-38994D01*
X65285Y-39084D01*
X65650Y-39517D01*
X65771Y-39662D01*
X65873Y-39793D01*
X65951Y-39898D01*
X65998Y-39970D01*
X66008Y-39997D01*
X66008Y-39997D01*
X66008Y-39997D01*
G37*
G36*
X57745Y-38105D02*
X57734Y-38129D01*
X57725Y-38132D01*
X57690Y-38111D01*
X57617Y-38056D01*
X57514Y-37975D01*
X57400Y-37881D01*
X57245Y-37753D01*
X57136Y-37665D01*
X57064Y-37613D01*
X57023Y-37594D01*
X57007Y-37605D01*
X57008Y-37642D01*
X57019Y-37692D01*
X57041Y-37797D01*
X57046Y-37861D01*
X57033Y-37906D01*
X57020Y-37928D01*
X56997Y-37934D01*
X56947Y-37914D01*
X56866Y-37864D01*
X56749Y-37780D01*
X56589Y-37659D01*
X56445Y-37548D01*
X56277Y-37417D01*
X56124Y-37296D01*
X55995Y-37195D01*
X55898Y-37118D01*
X55843Y-37074D01*
X55837Y-37069D01*
X55799Y-37040D01*
X55784Y-37051D01*
X55788Y-37111D01*
X55794Y-37154D01*
X55802Y-37244D01*
X55798Y-37302D01*
X55794Y-37310D01*
X55766Y-37293D01*
X55694Y-37237D01*
X55582Y-37146D01*
X55438Y-37025D01*
X55267Y-36878D01*
X55074Y-36712D01*
X54865Y-36529D01*
X54859Y-36524D01*
X54651Y-36341D01*
X54462Y-36171D01*
X54296Y-36021D01*
X54160Y-35895D01*
X54057Y-35797D01*
X53995Y-35733D01*
X53977Y-35707D01*
X54017Y-35723D01*
X54110Y-35779D01*
X54255Y-35874D01*
X54453Y-36010D01*
X54704Y-36186D01*
X55006Y-36401D01*
X55230Y-36562D01*
X55319Y-36625D01*
X55366Y-36652D01*
X55381Y-36645D01*
X55376Y-36607D01*
X55374Y-36598D01*
X55338Y-36426D01*
X55326Y-36314D01*
X55339Y-36257D01*
X55345Y-36253D01*
X55380Y-36265D01*
X55461Y-36313D01*
X55578Y-36390D01*
X55724Y-36491D01*
X55890Y-36611D01*
X55964Y-36665D01*
X56135Y-36792D01*
X56288Y-36904D01*
X56414Y-36996D01*
X56506Y-37062D01*
X56556Y-37096D01*
X56562Y-37100D01*
X56562Y-37071D01*
X56545Y-36998D01*
X56530Y-36944D01*
X56493Y-36802D01*
X56487Y-36714D01*
X56510Y-36672D01*
X56535Y-36666D01*
X56575Y-36686D01*
X56659Y-36743D01*
X56777Y-36829D01*
X56920Y-36939D01*
X57081Y-37067D01*
X57127Y-37103D01*
X57666Y-37541D01*
X57706Y-37778D01*
X57731Y-37939D01*
X57744Y-38045D01*
X57745Y-38105D01*
X57745Y-38105D01*
X57745Y-38105D01*
G37*
G36*
X67916Y-35568D02*
X67914Y-35606D01*
X67864Y-35685D01*
X67798Y-35764D01*
X67745Y-35818D01*
X67654Y-35907D01*
X67532Y-36024D01*
X67385Y-36164D01*
X67220Y-36319D01*
X67045Y-36483D01*
X66866Y-36650D01*
X66690Y-36813D01*
X66524Y-36967D01*
X66374Y-37103D01*
X66249Y-37217D01*
X66154Y-37302D01*
X66096Y-37351D01*
X66083Y-37360D01*
X66066Y-37336D01*
X66051Y-37261D01*
X66043Y-37168D01*
X66033Y-36965D01*
X65450Y-37419D01*
X64866Y-37874D01*
X64850Y-37706D01*
X64833Y-37538D01*
X64600Y-37738D01*
X64478Y-37842D01*
X64358Y-37942D01*
X64262Y-38022D01*
X64240Y-38039D01*
X64114Y-38141D01*
X64135Y-37912D01*
X64145Y-37806D01*
X64156Y-37717D01*
X64173Y-37639D01*
X64200Y-37566D01*
X64242Y-37494D01*
X64304Y-37417D01*
X64391Y-37329D01*
X64507Y-37226D01*
X64656Y-37102D01*
X64845Y-36952D01*
X65077Y-36770D01*
X65313Y-36586D01*
X65336Y-36576D01*
X65347Y-36601D01*
X65346Y-36669D01*
X65336Y-36793D01*
X65335Y-36800D01*
X65311Y-37050D01*
X65388Y-36980D01*
X65442Y-36936D01*
X65535Y-36865D01*
X65656Y-36775D01*
X65795Y-36671D01*
X65943Y-36563D01*
X66090Y-36457D01*
X66224Y-36360D01*
X66338Y-36280D01*
X66419Y-36224D01*
X66459Y-36200D01*
X66460Y-36200D01*
X66472Y-36230D01*
X66484Y-36308D01*
X66490Y-36386D01*
X66500Y-36572D01*
X67000Y-36216D01*
X67174Y-36091D01*
X67342Y-35967D01*
X67492Y-35855D01*
X67610Y-35763D01*
X67671Y-35713D01*
X67791Y-35620D01*
X67873Y-35572D01*
X67916Y-35568D01*
X67916Y-35568D01*
X67916Y-35568D01*
G37*
G54D12*
X72200Y-29550D03*
X72200Y-29050D03*
X72200Y-28550D03*
X72200Y-28050D03*
X74700Y-28050D03*
X74700Y-28550D03*
X74700Y-29050D03*
X74700Y-29550D03*
G54D13*
X46734Y-32453D03*
X46734Y-32138D03*
X46734Y-31823D03*
X46734Y-31508D03*
X46734Y-31193D03*
X46734Y-30878D03*
X46734Y-30563D03*
X46734Y-30248D03*
X50500Y-30250D03*
X50500Y-32460D03*
X50500Y-32140D03*
X50500Y-31820D03*
X50500Y-31510D03*
X50500Y-31190D03*
X50500Y-30880D03*
X50500Y-30560D03*
G54D14*
X47518Y-29460D03*
X47832Y-29460D03*
X48148Y-29460D03*
X48462Y-29460D03*
X48778Y-29460D03*
X49092Y-29460D03*
X49408Y-29460D03*
X49722Y-29460D03*
X47520Y-33240D03*
X47830Y-33240D03*
X48150Y-33240D03*
X48460Y-33240D03*
X48770Y-33240D03*
X49090Y-33240D03*
X49410Y-33240D03*
X49730Y-33240D03*
G54D15*
X46960Y-36380D03*
X46960Y-37380D03*
X46960Y-38380D03*
X46960Y-39380D03*
X46960Y-40380D03*
X46960Y-41380D03*
X46960Y-42380D03*
X46960Y-43380D03*
X46960Y-44380D03*
X46960Y-45380D03*
X46960Y-46380D03*
X46960Y-47380D03*
X46960Y-48380D03*
G54D16*
X46960Y-35380D03*
G54D15*
X49960Y-48380D03*
X49960Y-47380D03*
X49960Y-46380D03*
X49960Y-45380D03*
X49960Y-44380D03*
X49960Y-43380D03*
X49960Y-42380D03*
X49960Y-41380D03*
X49960Y-40380D03*
X49960Y-39380D03*
X49960Y-38380D03*
X49960Y-37380D03*
X49960Y-36380D03*
X49960Y-35380D03*
X38070Y-37300D03*
X38070Y-38300D03*
X38070Y-39300D03*
X38070Y-40300D03*
X38070Y-41300D03*
X38070Y-42300D03*
X38070Y-43300D03*
X38070Y-44300D03*
X38070Y-45300D03*
X38070Y-46300D03*
X38070Y-47300D03*
X38070Y-48300D03*
X43070Y-48300D03*
X43070Y-47300D03*
X43070Y-46300D03*
X43070Y-45300D03*
X43070Y-44300D03*
X43070Y-43300D03*
X43070Y-42300D03*
X43070Y-41300D03*
X43070Y-40300D03*
X43070Y-39300D03*
X43070Y-38300D03*
X43070Y-37300D03*
X70755Y-33640D03*
X70755Y-34640D03*
X70755Y-35640D03*
X70755Y-36640D03*
X70755Y-37640D03*
X70755Y-38640D03*
X70755Y-39640D03*
X70755Y-40640D03*
X70755Y-41640D03*
X70755Y-42640D03*
X70755Y-43640D03*
X70755Y-44640D03*
X70755Y-45640D03*
X70755Y-46640D03*
X70755Y-47640D03*
X70755Y-48640D03*
X75755Y-48640D03*
X75755Y-47640D03*
X75755Y-46640D03*
X75755Y-45640D03*
X75755Y-44640D03*
X75755Y-43640D03*
X75755Y-42640D03*
X75755Y-41640D03*
X75755Y-40640D03*
X75755Y-39640D03*
X75755Y-38640D03*
X75755Y-37640D03*
X75755Y-36640D03*
X75755Y-35640D03*
X75755Y-34640D03*
X75755Y-33640D03*
X73175Y-32640D03*
G54D10*
G36*
X40560Y-42389D02*
X41255Y-43085D01*
X40560Y-43780D01*
X39864Y-43085D01*
X40560Y-42389D01*
X40560Y-42389D01*
G37*
G54D17*
X40274Y-42103D02*
X40428Y-42257D01*
X40135Y-42243D02*
X40288Y-42396D01*
X39996Y-42382D02*
X40149Y-42535D01*
X39857Y-42521D02*
X40010Y-42674D01*
X39718Y-42660D02*
X39871Y-42813D01*
X39578Y-42799D02*
X39732Y-42953D01*
X39578Y-43370D02*
X39732Y-43216D01*
X39718Y-43509D02*
X39871Y-43356D01*
X39857Y-43648D02*
X40010Y-43495D01*
X39996Y-43787D02*
X40149Y-43634D01*
X40135Y-43926D02*
X40288Y-43773D01*
X40274Y-44066D02*
X40428Y-43912D01*
X40845Y-44066D02*
X40691Y-43912D01*
X40984Y-43926D02*
X40831Y-43773D01*
X41123Y-43787D02*
X40970Y-43634D01*
X41262Y-43648D02*
X41109Y-43495D01*
X41401Y-43509D02*
X41248Y-43356D01*
X41541Y-43370D02*
X41387Y-43216D01*
X41541Y-42799D02*
X41387Y-42953D01*
X41401Y-42660D02*
X41248Y-42813D01*
X41262Y-42521D02*
X41109Y-42674D01*
X41123Y-42382D02*
X40970Y-42535D01*
X40984Y-42243D02*
X40831Y-42396D01*
X40845Y-42103D02*
X40691Y-42257D01*
G54D15*
X40570Y-36300D03*
G54D10*
G36*
X73376Y-40267D02*
X73588Y-40054D01*
X73659Y-40125D01*
X73447Y-40337D01*
X73376Y-40267D01*
X73376Y-40267D01*
G37*
G36*
X73515Y-40406D02*
X73727Y-40194D01*
X73798Y-40264D01*
X73586Y-40477D01*
X73515Y-40406D01*
X73515Y-40406D01*
G37*
G36*
X73655Y-40545D02*
X73867Y-40333D01*
X73937Y-40404D01*
X73725Y-40616D01*
X73655Y-40545D01*
X73655Y-40545D01*
G37*
G36*
X73237Y-40127D02*
X73449Y-39915D01*
X73520Y-39986D01*
X73307Y-40198D01*
X73237Y-40127D01*
X73237Y-40127D01*
G37*
G36*
X73032Y-40198D02*
X72819Y-39986D01*
X72890Y-39915D01*
X73102Y-40127D01*
X73032Y-40198D01*
X73032Y-40198D01*
G37*
G36*
X72892Y-40337D02*
X72680Y-40125D01*
X72751Y-40054D01*
X72963Y-40267D01*
X72892Y-40337D01*
X72892Y-40337D01*
G37*
G36*
X72753Y-40477D02*
X72541Y-40264D01*
X72612Y-40194D01*
X72824Y-40406D01*
X72753Y-40477D01*
X72753Y-40477D01*
G37*
G36*
X72614Y-40616D02*
X72402Y-40404D01*
X72472Y-40333D01*
X72684Y-40545D01*
X72614Y-40616D01*
X72614Y-40616D01*
G37*
G36*
X72475Y-40754D02*
X72263Y-40542D01*
X72334Y-40472D01*
X72546Y-40684D01*
X72475Y-40754D01*
X72475Y-40754D01*
G37*
G36*
X72336Y-40894D02*
X72124Y-40682D01*
X72194Y-40611D01*
X72407Y-40823D01*
X72336Y-40894D01*
X72336Y-40894D01*
G37*
G36*
X72197Y-41033D02*
X71984Y-40821D01*
X72055Y-40750D01*
X72267Y-40962D01*
X72197Y-41033D01*
X72197Y-41033D01*
G37*
G36*
X72057Y-41172D02*
X71845Y-40960D01*
X71916Y-40889D01*
X72128Y-41102D01*
X72057Y-41172D01*
X72057Y-41172D01*
G37*
G36*
X72819Y-42493D02*
X73032Y-42281D01*
X73102Y-42352D01*
X72890Y-42564D01*
X72819Y-42493D01*
X72819Y-42493D01*
G37*
G36*
X71845Y-41519D02*
X72057Y-41307D01*
X72128Y-41377D01*
X71916Y-41590D01*
X71845Y-41519D01*
X71845Y-41519D01*
G37*
G36*
X71984Y-41658D02*
X72197Y-41446D01*
X72267Y-41517D01*
X72055Y-41729D01*
X71984Y-41658D01*
X71984Y-41658D01*
G37*
G36*
X72124Y-41797D02*
X72336Y-41585D01*
X72407Y-41656D01*
X72194Y-41868D01*
X72124Y-41797D01*
X72124Y-41797D01*
G37*
G36*
X72263Y-41937D02*
X72475Y-41725D01*
X72546Y-41795D01*
X72334Y-42007D01*
X72263Y-41937D01*
X72263Y-41937D01*
G37*
G36*
X72402Y-42075D02*
X72614Y-41863D01*
X72684Y-41934D01*
X72472Y-42146D01*
X72402Y-42075D01*
X72402Y-42075D01*
G37*
G36*
X72541Y-42215D02*
X72753Y-42002D01*
X72824Y-42073D01*
X72612Y-42285D01*
X72541Y-42215D01*
X72541Y-42215D01*
G37*
G36*
X72680Y-42354D02*
X72892Y-42142D01*
X72963Y-42212D01*
X72751Y-42425D01*
X72680Y-42354D01*
X72680Y-42354D01*
G37*
G36*
X73449Y-42564D02*
X73237Y-42352D01*
X73307Y-42281D01*
X73520Y-42493D01*
X73449Y-42564D01*
X73449Y-42564D01*
G37*
G36*
X73588Y-42425D02*
X73376Y-42212D01*
X73447Y-42142D01*
X73659Y-42354D01*
X73588Y-42425D01*
X73588Y-42425D01*
G37*
G36*
X73727Y-42285D02*
X73515Y-42073D01*
X73586Y-42002D01*
X73798Y-42215D01*
X73727Y-42285D01*
X73727Y-42285D01*
G37*
G36*
X73867Y-42146D02*
X73655Y-41934D01*
X73725Y-41863D01*
X73937Y-42075D01*
X73867Y-42146D01*
X73867Y-42146D01*
G37*
G36*
X74005Y-42007D02*
X73793Y-41795D01*
X73864Y-41725D01*
X74076Y-41937D01*
X74005Y-42007D01*
X74005Y-42007D01*
G37*
G36*
X74145Y-41868D02*
X73932Y-41656D01*
X74003Y-41585D01*
X74215Y-41797D01*
X74145Y-41868D01*
X74145Y-41868D01*
G37*
G36*
X74284Y-41729D02*
X74072Y-41517D01*
X74142Y-41446D01*
X74355Y-41658D01*
X74284Y-41729D01*
X74284Y-41729D01*
G37*
G36*
X74423Y-41590D02*
X74211Y-41377D01*
X74282Y-41307D01*
X74494Y-41519D01*
X74423Y-41590D01*
X74423Y-41590D01*
G37*
G36*
X74211Y-41102D02*
X74423Y-40889D01*
X74494Y-40960D01*
X74282Y-41172D01*
X74211Y-41102D01*
X74211Y-41102D01*
G37*
G36*
X74072Y-40962D02*
X74284Y-40750D01*
X74355Y-40821D01*
X74142Y-41033D01*
X74072Y-40962D01*
X74072Y-40962D01*
G37*
G36*
X73932Y-40823D02*
X74145Y-40611D01*
X74215Y-40682D01*
X74003Y-40894D01*
X73932Y-40823D01*
X73932Y-40823D01*
G37*
G36*
X73793Y-40684D02*
X74005Y-40472D01*
X74076Y-40542D01*
X73864Y-40754D01*
X73793Y-40684D01*
X73793Y-40684D01*
G37*
G36*
X72334Y-41240D02*
X73170Y-40404D01*
X74005Y-41240D01*
X73170Y-42075D01*
X72334Y-41240D01*
X72334Y-41240D01*
G37*
G54D15*
X75970Y-30360D03*
X75970Y-29360D03*
X75970Y-28360D03*
X75970Y-27360D03*
X70970Y-27360D03*
X70970Y-28360D03*
X70970Y-29360D03*
X70970Y-30360D03*
G54D18*
X39230Y-29690D03*
X39230Y-29940D03*
X39230Y-30200D03*
X39230Y-30450D03*
X39230Y-30710D03*
X39230Y-30965D03*
X39230Y-31220D03*
X41430Y-31220D03*
X41430Y-30965D03*
X41430Y-30710D03*
X41430Y-30450D03*
X41430Y-30195D03*
X41430Y-29940D03*
X41430Y-29685D03*
G54D15*
X37840Y-28550D03*
X37840Y-29550D03*
X37840Y-30550D03*
X37840Y-31550D03*
X37840Y-32550D03*
X37840Y-33550D03*
X42840Y-33550D03*
X42840Y-32550D03*
X42840Y-31550D03*
X42840Y-30550D03*
X42840Y-29550D03*
X42840Y-28550D03*
X42840Y-27550D03*
X37840Y-27550D03*
G54D19*
X49410Y-31730D03*
X50940Y-41320D03*
X47450Y-27860D03*
X45770Y-40890D03*
X48870Y-31760D03*
X48780Y-27330D03*
X46300Y-42400D03*
X47210Y-28290D03*
X47940Y-27660D03*
X49670Y-27850D03*
X50985Y-28825D03*
X48460Y-31500D03*
X48100Y-31790D03*
X51745Y-31200D03*
X49830Y-28430D03*
X49320Y-27460D03*
X48440Y-27640D03*
G54D20*
X50500Y-31510D02*
X51219Y-31510D01*
X50585Y-41755D02*
X49960Y-42380D01*
X50585Y-40210D02*
X50585Y-41755D01*
X51465Y-39330D02*
X50585Y-40210D01*
X51465Y-31755D02*
X51465Y-39330D01*
X51219Y-31510D02*
X51465Y-31755D01*
X49820Y-32140D02*
X50500Y-32140D01*
X49410Y-31730D02*
X49820Y-32140D01*
X46734Y-30878D02*
X46122Y-30878D01*
X45905Y-31625D02*
X45965Y-31685D01*
X45905Y-31095D02*
X45905Y-31625D01*
X46122Y-30878D02*
X45905Y-31095D01*
X46960Y-42380D02*
X46960Y-42240D01*
X46960Y-42240D02*
X46370Y-41790D01*
X46370Y-41790D02*
X46370Y-33410D01*
X46370Y-33410D02*
X45920Y-32820D01*
X45920Y-32820D02*
X45920Y-31730D01*
X45920Y-31730D02*
X45965Y-31685D01*
X45965Y-31685D02*
X46142Y-31508D01*
X51210Y-31190D02*
X50500Y-31190D01*
X51660Y-31640D02*
X51210Y-31190D01*
X51660Y-39600D02*
X51660Y-31640D01*
X51080Y-40180D02*
X51660Y-39600D01*
X51080Y-41180D02*
X51080Y-40180D01*
X50940Y-41320D02*
X51080Y-41180D01*
X46734Y-31508D02*
X46142Y-31508D01*
X46425Y-32865D02*
X46435Y-32865D01*
X47710Y-40630D02*
X46960Y-41380D01*
X47710Y-34350D02*
X47710Y-40630D01*
X47240Y-33880D02*
X47710Y-34350D01*
X47240Y-33670D02*
X47240Y-33880D01*
X46435Y-32865D02*
X47240Y-33670D01*
X46734Y-31193D02*
X47243Y-31193D01*
X47187Y-31823D02*
X46734Y-31823D01*
X47320Y-31690D02*
X47187Y-31823D01*
X47320Y-31270D02*
X47320Y-31690D01*
X47243Y-31193D02*
X47320Y-31270D01*
X46237Y-31823D02*
X46734Y-31823D01*
X46140Y-31920D02*
X46237Y-31823D01*
X46140Y-32580D02*
X46140Y-31920D01*
X46430Y-32870D02*
X46425Y-32865D01*
X46425Y-32865D02*
X46140Y-32580D01*
X40351Y-42185D02*
X40150Y-41984D01*
X40150Y-41984D02*
X40150Y-39380D01*
X40150Y-39380D02*
X38070Y-37300D01*
X40072Y-43715D02*
X39370Y-44418D01*
X38550Y-46300D02*
X38070Y-46300D01*
X39370Y-45480D02*
X38550Y-46300D01*
X39370Y-44418D02*
X39370Y-45480D01*
X40212Y-43855D02*
X39590Y-44477D01*
X38690Y-47300D02*
X38070Y-47300D01*
X39590Y-46400D02*
X38690Y-47300D01*
X39590Y-44477D02*
X39590Y-46400D01*
X40351Y-43994D02*
X39820Y-44525D01*
X38710Y-48300D02*
X38070Y-48300D01*
X39820Y-47190D02*
X38710Y-48300D01*
X39820Y-44525D02*
X39820Y-47190D01*
X40768Y-43994D02*
X41420Y-44645D01*
X42425Y-48300D02*
X43070Y-48300D01*
X41420Y-47295D02*
X42425Y-48300D01*
X41420Y-44645D02*
X41420Y-47295D01*
X40907Y-43855D02*
X41640Y-44587D01*
X42290Y-47300D02*
X43070Y-47300D01*
X41640Y-46650D02*
X42290Y-47300D01*
X41640Y-44587D02*
X41640Y-46650D01*
X41047Y-43715D02*
X41880Y-44548D01*
X42400Y-46300D02*
X43070Y-46300D01*
X41880Y-45780D02*
X42400Y-46300D01*
X41880Y-44548D02*
X41880Y-45780D01*
X41185Y-43577D02*
X42110Y-44501D01*
X42440Y-45300D02*
X43070Y-45300D01*
X42110Y-44970D02*
X42440Y-45300D01*
X42110Y-44501D02*
X42110Y-44970D01*
X41325Y-43437D02*
X42187Y-44300D01*
X42187Y-44300D02*
X43070Y-44300D01*
X41464Y-43298D02*
X41775Y-43610D01*
X42760Y-43610D02*
X43070Y-43300D01*
X41775Y-43610D02*
X42760Y-43610D01*
X41464Y-42881D02*
X42045Y-42300D01*
X42045Y-42300D02*
X43070Y-42300D01*
X38070Y-38300D02*
X39480Y-39710D01*
X39480Y-39710D02*
X39910Y-40140D01*
X39910Y-42022D02*
X40212Y-42324D01*
X39910Y-40140D02*
X39910Y-42022D01*
X41325Y-42742D02*
X42050Y-42017D01*
X42400Y-41300D02*
X43070Y-41300D01*
X42050Y-41650D02*
X42400Y-41300D01*
X42050Y-42017D02*
X42050Y-41650D01*
X41185Y-42602D02*
X41800Y-41988D01*
X42420Y-40300D02*
X43070Y-40300D01*
X41800Y-40920D02*
X42420Y-40300D01*
X41800Y-41988D02*
X41800Y-40920D01*
X41047Y-42464D02*
X41520Y-41991D01*
X43060Y-39310D02*
X43070Y-39300D01*
X42440Y-39310D02*
X43060Y-39310D01*
X41520Y-40230D02*
X42440Y-39310D01*
X41520Y-41991D02*
X41520Y-40230D01*
X43070Y-38300D02*
X41320Y-40050D01*
X41320Y-41912D02*
X40907Y-42324D01*
X41320Y-40050D02*
X41320Y-41912D01*
X40768Y-42185D02*
X41080Y-41874D01*
X41080Y-41874D02*
X41080Y-39350D01*
X41080Y-39290D02*
X43070Y-37300D01*
X41080Y-39350D02*
X41080Y-39290D01*
X39700Y-42091D02*
X39700Y-40930D01*
X40072Y-42464D02*
X39700Y-42091D01*
X39700Y-40930D02*
X38070Y-39300D01*
X38100Y-39270D02*
X38070Y-39300D01*
X39934Y-42602D02*
X39310Y-41978D01*
X38780Y-40300D02*
X38070Y-40300D01*
X39310Y-40830D02*
X38780Y-40300D01*
X39310Y-41978D02*
X39310Y-40830D01*
X39794Y-42742D02*
X38980Y-41927D01*
X38090Y-41280D02*
X38070Y-41300D01*
X38580Y-41280D02*
X38090Y-41280D01*
X38980Y-41680D02*
X38580Y-41280D01*
X38980Y-41927D02*
X38980Y-41680D01*
X39655Y-42881D02*
X39074Y-42300D01*
X39074Y-42300D02*
X38070Y-42300D01*
X39655Y-43298D02*
X39444Y-43510D01*
X38280Y-43510D02*
X38070Y-43300D01*
X39444Y-43510D02*
X38280Y-43510D01*
X39794Y-43437D02*
X38932Y-44300D01*
X38932Y-44300D02*
X38070Y-44300D01*
X39934Y-43577D02*
X39170Y-44341D01*
X38610Y-45300D02*
X38070Y-45300D01*
X39170Y-44740D02*
X38610Y-45300D01*
X39170Y-44341D02*
X39170Y-44740D01*
X72956Y-40057D02*
X72585Y-39685D01*
X72585Y-35470D02*
X70755Y-33640D01*
X72585Y-39685D02*
X72585Y-35470D01*
X72121Y-41587D02*
X71069Y-42640D01*
X71069Y-42640D02*
X70755Y-42640D01*
X72260Y-41727D02*
X71505Y-42482D01*
X71505Y-42890D02*
X70755Y-43640D01*
X71505Y-42482D02*
X71505Y-42890D01*
X72399Y-41866D02*
X71715Y-42551D01*
X71715Y-43680D02*
X70755Y-44640D01*
X71715Y-42551D02*
X71715Y-43680D01*
X72538Y-42005D02*
X71905Y-42638D01*
X71905Y-44490D02*
X70755Y-45640D01*
X71905Y-42638D02*
X71905Y-44490D01*
X72677Y-42144D02*
X72085Y-42737D01*
X72085Y-45309D02*
X70755Y-46640D01*
X72085Y-42737D02*
X72085Y-45309D01*
X72817Y-42283D02*
X72265Y-42835D01*
X72265Y-46129D02*
X70755Y-47640D01*
X72265Y-42835D02*
X72265Y-46129D01*
X72956Y-42422D02*
X72455Y-42924D01*
X72455Y-46940D02*
X70755Y-48640D01*
X72455Y-42924D02*
X72455Y-46940D01*
X73373Y-42422D02*
X73825Y-42874D01*
X73825Y-42874D02*
X73825Y-46710D01*
X73825Y-46710D02*
X75755Y-48640D01*
X73512Y-42283D02*
X74025Y-42795D01*
X74025Y-45910D02*
X75755Y-47640D01*
X74025Y-42795D02*
X74025Y-45910D01*
X73652Y-42144D02*
X74225Y-42717D01*
X74225Y-45110D02*
X75755Y-46640D01*
X74225Y-42717D02*
X74225Y-45110D01*
X72817Y-40196D02*
X72405Y-39784D01*
X72405Y-36290D02*
X70755Y-34640D01*
X72405Y-39784D02*
X72405Y-36290D01*
X73791Y-42005D02*
X74425Y-42638D01*
X74425Y-44310D02*
X75755Y-45640D01*
X74425Y-42638D02*
X74425Y-44310D01*
X73930Y-41866D02*
X74635Y-42571D01*
X74635Y-43520D02*
X75755Y-44640D01*
X74635Y-42571D02*
X74635Y-43520D01*
X74069Y-41727D02*
X74855Y-42512D01*
X74855Y-42740D02*
X75755Y-43640D01*
X74855Y-42512D02*
X74855Y-42740D01*
X74208Y-41587D02*
X75260Y-42640D01*
X75260Y-42640D02*
X75755Y-42640D01*
X74347Y-41448D02*
X74347Y-41437D01*
X75475Y-41640D02*
X75755Y-41640D01*
X75195Y-41360D02*
X75475Y-41640D01*
X74425Y-41360D02*
X75195Y-41360D01*
X74347Y-41437D02*
X74425Y-41360D01*
X74347Y-41031D02*
X74347Y-41027D01*
X75235Y-41160D02*
X75755Y-40640D01*
X74480Y-41160D02*
X75235Y-41160D01*
X74347Y-41027D02*
X74480Y-41160D01*
X74208Y-40892D02*
X74208Y-40886D01*
X75325Y-40070D02*
X75755Y-39640D01*
X75025Y-40070D02*
X75325Y-40070D01*
X74208Y-40886D02*
X75025Y-40070D01*
X74069Y-40752D02*
X74072Y-40752D01*
X75185Y-39210D02*
X75755Y-38640D01*
X75185Y-39640D02*
X75185Y-39210D01*
X74072Y-40752D02*
X75185Y-39640D01*
X73930Y-40613D02*
X73931Y-40613D01*
X74955Y-38440D02*
X75755Y-37640D01*
X74955Y-39590D02*
X74955Y-38440D01*
X73931Y-40613D02*
X74955Y-39590D01*
X73791Y-40474D02*
X74745Y-39521D01*
X74745Y-37650D02*
X75755Y-36640D01*
X74745Y-39521D02*
X74745Y-37650D01*
X72677Y-40335D02*
X72205Y-39862D01*
X72205Y-37090D02*
X70755Y-35640D01*
X72205Y-39862D02*
X72205Y-37090D01*
X73652Y-40335D02*
X74535Y-39452D01*
X74535Y-36860D02*
X75755Y-35640D01*
X74535Y-39452D02*
X74535Y-36860D01*
X73512Y-40196D02*
X74325Y-39384D01*
X74325Y-36070D02*
X75755Y-34640D01*
X74325Y-39384D02*
X74325Y-36070D01*
X73373Y-40057D02*
X74115Y-39315D01*
X74115Y-35280D02*
X75755Y-33640D01*
X74115Y-39315D02*
X74115Y-35280D01*
X72538Y-40474D02*
X71985Y-39921D01*
X71985Y-37870D02*
X70755Y-36640D01*
X71985Y-39921D02*
X71985Y-37870D01*
X72399Y-40613D02*
X71785Y-39998D01*
X71785Y-38670D02*
X70755Y-37640D01*
X71785Y-39998D02*
X71785Y-38670D01*
X72260Y-40752D02*
X71445Y-39937D01*
X71445Y-39330D02*
X70755Y-38640D01*
X71445Y-39937D02*
X71445Y-39330D01*
X72121Y-40892D02*
X72121Y-40886D01*
X71265Y-40150D02*
X70755Y-39640D01*
X71385Y-40150D02*
X71265Y-40150D01*
X72121Y-40886D02*
X71385Y-40150D01*
X71982Y-41031D02*
X71973Y-41031D01*
X71235Y-41120D02*
X70755Y-40640D01*
X71885Y-41120D02*
X71235Y-41120D01*
X71973Y-41031D02*
X71885Y-41120D01*
X71982Y-41448D02*
X71973Y-41448D01*
X70875Y-41640D02*
X70755Y-41640D01*
X71214Y-41300D02*
X70875Y-41640D01*
X71825Y-41300D02*
X71214Y-41300D01*
X71973Y-41448D02*
X71825Y-41300D01*
X39230Y-29690D02*
X39230Y-28450D01*
X38330Y-27550D02*
X37840Y-27550D01*
X39230Y-28450D02*
X38330Y-27550D01*
X42840Y-31550D02*
X42945Y-31545D01*
X42105Y-30705D02*
X41430Y-30710D01*
X42945Y-31545D02*
X42105Y-30705D01*
X41430Y-30450D02*
X42740Y-30450D01*
X42740Y-30450D02*
X42840Y-30550D01*
X41430Y-30195D02*
X42195Y-30195D01*
X42195Y-30195D02*
X42840Y-29550D01*
X41430Y-29940D02*
X41920Y-29940D01*
X42090Y-29300D02*
X42840Y-28550D01*
X42090Y-29770D02*
X42090Y-29300D01*
X41920Y-29940D02*
X42090Y-29770D01*
X41430Y-29685D02*
X41430Y-28350D01*
X42230Y-27550D02*
X42840Y-27550D01*
X41430Y-28350D02*
X42230Y-27550D01*
X39230Y-29940D02*
X38630Y-29940D01*
X38410Y-29120D02*
X37840Y-28550D01*
X38410Y-29720D02*
X38410Y-29120D01*
X38630Y-29940D02*
X38410Y-29720D01*
X39230Y-30200D02*
X38260Y-30200D01*
X37840Y-29780D02*
X37840Y-29550D01*
X38260Y-30200D02*
X37840Y-29780D01*
X39230Y-30450D02*
X37940Y-30450D01*
X37940Y-30450D02*
X37840Y-30550D01*
X39230Y-30710D02*
X38700Y-30710D01*
X37860Y-31550D02*
X37840Y-31550D01*
X38700Y-30710D02*
X37860Y-31550D01*
X39230Y-30965D02*
X38795Y-30965D01*
X38610Y-31780D02*
X37840Y-32550D01*
X38610Y-31150D02*
X38610Y-31780D01*
X38795Y-30965D02*
X38610Y-31150D01*
X39230Y-31220D02*
X39230Y-32760D01*
X38440Y-33550D02*
X37840Y-33550D01*
X39230Y-32760D02*
X38440Y-33550D01*
X41430Y-31220D02*
X41430Y-32640D01*
X42340Y-33550D02*
X42840Y-33550D01*
X41430Y-32640D02*
X42340Y-33550D01*
X41430Y-30965D02*
X41945Y-30965D01*
X42180Y-31890D02*
X42840Y-32550D01*
X42180Y-31200D02*
X42180Y-31890D01*
X41945Y-30965D02*
X42180Y-31200D01*
X48770Y-33240D02*
X48770Y-33830D01*
X49190Y-48380D02*
X49960Y-48380D01*
X48660Y-47850D02*
X49190Y-48380D01*
X48660Y-33940D02*
X48660Y-47850D01*
X48770Y-33830D02*
X48660Y-33940D01*
X47832Y-29460D02*
X47832Y-28242D01*
X47832Y-28242D02*
X47450Y-27860D01*
X45770Y-40830D02*
X45770Y-40890D01*
X45959Y-40640D02*
X45770Y-40830D01*
X45959Y-39580D02*
X45959Y-40640D01*
X45959Y-39580D02*
X45959Y-39590D01*
X45959Y-33529D02*
X45959Y-39580D01*
X45520Y-33090D02*
X45959Y-33529D01*
X45520Y-33030D02*
X45520Y-33090D01*
X45520Y-33030D02*
X45520Y-33030D01*
X46734Y-30248D02*
X46217Y-30248D01*
X45520Y-30945D02*
X45520Y-33030D01*
X46217Y-30248D02*
X45520Y-30945D01*
X47520Y-33840D02*
X47520Y-33240D01*
X47900Y-34220D02*
X47520Y-33840D01*
X47900Y-44849D02*
X47900Y-34220D01*
X47369Y-45380D02*
X47900Y-44849D01*
X46960Y-45380D02*
X47369Y-45380D01*
X46960Y-47380D02*
X47710Y-47380D01*
X48160Y-33250D02*
X48150Y-33240D01*
X48160Y-33910D02*
X48160Y-33250D01*
X48279Y-34029D02*
X48160Y-33910D01*
X48279Y-46810D02*
X48279Y-34029D01*
X47710Y-47380D02*
X48279Y-46810D01*
X49960Y-46380D02*
X49190Y-46380D01*
X49410Y-33820D02*
X49410Y-33240D01*
X49030Y-34200D02*
X49410Y-33820D01*
X49030Y-46219D02*
X49030Y-34200D01*
X49190Y-46380D02*
X49030Y-46219D01*
X49570Y-32460D02*
X50500Y-32460D01*
X48870Y-31760D02*
X49570Y-32460D01*
X48778Y-29460D02*
X48778Y-27332D01*
X48778Y-27332D02*
X48780Y-27330D01*
X48460Y-33240D02*
X48460Y-47790D01*
X47870Y-48380D02*
X46960Y-48380D01*
X48460Y-47790D02*
X47870Y-48380D01*
X47830Y-33240D02*
X47830Y-33860D01*
X47640Y-46380D02*
X46960Y-46380D01*
X48099Y-45920D02*
X47640Y-46380D01*
X48099Y-34129D02*
X48099Y-45920D01*
X47830Y-33860D02*
X48099Y-34129D01*
X46140Y-42240D02*
X46300Y-42400D01*
X46140Y-39850D02*
X46140Y-42240D01*
X46140Y-39850D02*
X46140Y-39880D01*
X46140Y-33425D02*
X46140Y-39850D01*
X46734Y-30563D02*
X46172Y-30563D01*
X45715Y-32925D02*
X46140Y-33425D01*
X45715Y-31020D02*
X45715Y-32925D01*
X46172Y-30563D02*
X45715Y-31020D01*
X47518Y-29460D02*
X47518Y-28598D01*
X47518Y-28598D02*
X47210Y-28290D01*
X48148Y-27848D02*
X47960Y-27660D01*
X47960Y-27660D02*
X47940Y-27660D01*
X48148Y-29460D02*
X48148Y-27848D01*
X49408Y-29460D02*
X49408Y-28112D01*
X49408Y-28112D02*
X49670Y-27850D01*
X50500Y-30250D02*
X50500Y-29310D01*
X50500Y-29310D02*
X50985Y-28825D01*
X48450Y-32030D02*
X48027Y-32453D01*
X48450Y-31510D02*
X48450Y-32030D01*
X48460Y-31500D02*
X48450Y-31510D01*
X48027Y-32453D02*
X46734Y-32453D01*
X49090Y-33240D02*
X49090Y-33810D01*
X49270Y-47380D02*
X49960Y-47380D01*
X48840Y-46950D02*
X49270Y-47380D01*
X48840Y-34059D02*
X48840Y-46950D01*
X49090Y-33810D02*
X48840Y-34059D01*
X49440Y-45380D02*
X49960Y-45380D01*
X49220Y-45160D02*
X49440Y-45380D01*
X49220Y-34310D02*
X49220Y-45160D01*
X49730Y-33800D02*
X49220Y-34310D01*
X49730Y-33240D02*
X49730Y-33800D01*
X47752Y-32138D02*
X46734Y-32138D01*
X48100Y-31790D02*
X47752Y-32138D01*
X50500Y-30560D02*
X51105Y-30560D01*
X51105Y-30560D02*
X51745Y-31200D01*
X49722Y-29460D02*
X49722Y-28538D01*
X49722Y-28538D02*
X49830Y-28430D01*
X49092Y-29460D02*
X49092Y-27648D01*
X49280Y-27460D02*
X49320Y-27460D01*
X49092Y-27648D02*
X49280Y-27460D01*
X72200Y-29550D02*
X71780Y-29550D01*
X71780Y-29550D02*
X70970Y-30360D01*
X72200Y-28550D02*
X71160Y-28550D01*
X71160Y-28550D02*
X70970Y-28360D01*
X48462Y-29460D02*
X48462Y-27662D01*
X48462Y-27662D02*
X48440Y-27640D01*
X74700Y-29550D02*
X75160Y-29550D01*
X75160Y-29550D02*
X75970Y-30360D01*
X74700Y-28050D02*
X75280Y-28050D01*
X75280Y-28050D02*
X75970Y-27360D01*
X74700Y-29050D02*
X75660Y-29050D01*
X75660Y-29050D02*
X75970Y-29360D01*
X74700Y-28550D02*
X75780Y-28550D01*
X75780Y-28550D02*
X75970Y-28360D01*
X72200Y-28050D02*
X71660Y-28050D01*
X71660Y-28050D02*
X70970Y-27360D01*
X72200Y-29050D02*
X71280Y-29050D01*
X71280Y-29050D02*
X70970Y-29360D01*
M02*
