M48
;DRILL file {Pcbnew (2013-03-19 BZR 4004)-stable} date 9/9/2013 12:01:39 AM
;FORMAT={-:-/ absolute / inch / decimal}
FMAT,2
INCH,TZ
T1C0.020
%
G90
G05
M72
T1
X4.0466Y-3.559
X4.0476Y-3.491
X4.086Y-3.559
X4.087Y-3.491
X4.1254Y-3.559
X4.1264Y-3.491
X4.445Y-4.1246
X4.445Y-4.164
X4.445Y-4.2034
X4.446Y-2.9966
X4.446Y-3.036
X4.446Y-3.0754
X4.503Y-2.9966
X4.503Y-3.036
X4.503Y-3.0754
X4.506Y-4.1246
X4.506Y-4.164
X4.506Y-4.2034
X5.243Y-3.1996
X5.243Y-3.239
X5.243Y-3.2784
X5.247Y-4.3236
X5.247Y-4.363
X5.247Y-4.4024
X5.303Y-4.3226
X5.303Y-4.362
X5.303Y-4.4014
X5.306Y-3.1996
X5.306Y-3.239
X5.306Y-3.2784
X6.916Y-3.4256
X6.916Y-3.465
X6.916Y-3.5044
X6.92Y-2.8236
X6.92Y-2.863
X6.92Y-2.9024
X6.92Y-4.3236
X6.92Y-4.363
X6.92Y-4.4024
X6.954Y-2.8236
X6.954Y-2.863
X6.954Y-2.9024
X6.956Y-3.4266
X6.956Y-3.466
X6.956Y-3.5054
X6.956Y-4.3226
X6.956Y-4.362
X6.956Y-4.4014
X7.2706Y-3.18
X7.2726Y-3.12
X7.31Y-3.18
X7.312Y-3.12
X7.3494Y-3.18
X7.3514Y-3.12
T0
M30
