G04 (created by PCBNEW (2013-03-19 BZR 4004)-stable) date 9/9/2013 12:01:13 AM*
%MOIN*%
G04 Gerber Fmt 3.4, Leading zero omitted, Abs format*
%FSLAX34Y34*%
G01*
G70*
G90*
G04 APERTURE LIST*
%ADD10C,0*%
%ADD11C,0.02*%
%ADD12C,0.055*%
%ADD13R,0.055X0.055*%
%ADD14R,0.045X0.02*%
%ADD15R,0.05X0.015*%
%ADD16C,0.035*%
%ADD17C,0.008*%
%ADD18C,0.024*%
G04 APERTURE END LIST*
G54D10*
G54D11*
X64100Y-47026D02*
X63909Y-47026D01*
X63814Y-47088D01*
X63719Y-47211D01*
X63671Y-47459D01*
X63671Y-47892D01*
X63719Y-48140D01*
X63814Y-48264D01*
X63909Y-48326D01*
X64100Y-48326D01*
X64195Y-48264D01*
X64290Y-48140D01*
X64338Y-47892D01*
X64338Y-47459D01*
X64290Y-47211D01*
X64195Y-47088D01*
X64100Y-47026D01*
X63290Y-48264D02*
X63147Y-48326D01*
X62909Y-48326D01*
X62814Y-48264D01*
X62766Y-48202D01*
X62719Y-48078D01*
X62719Y-47954D01*
X62766Y-47830D01*
X62814Y-47769D01*
X62909Y-47707D01*
X63100Y-47645D01*
X63195Y-47583D01*
X63242Y-47521D01*
X63290Y-47397D01*
X63290Y-47273D01*
X63242Y-47150D01*
X63195Y-47088D01*
X63100Y-47026D01*
X62861Y-47026D01*
X62719Y-47088D01*
X62290Y-48326D02*
X62290Y-47026D01*
X62290Y-47645D02*
X61719Y-47645D01*
X61719Y-48326D02*
X61719Y-47026D01*
X61242Y-47459D02*
X61242Y-48759D01*
X61242Y-47521D02*
X61147Y-47459D01*
X60957Y-47459D01*
X60861Y-47521D01*
X60814Y-47583D01*
X60766Y-47707D01*
X60766Y-48078D01*
X60814Y-48202D01*
X60861Y-48264D01*
X60957Y-48326D01*
X61147Y-48326D01*
X61242Y-48264D01*
X59909Y-48326D02*
X59909Y-47645D01*
X59957Y-47521D01*
X60052Y-47459D01*
X60242Y-47459D01*
X60338Y-47521D01*
X59909Y-48264D02*
X60004Y-48326D01*
X60242Y-48326D01*
X60338Y-48264D01*
X60385Y-48140D01*
X60385Y-48016D01*
X60338Y-47892D01*
X60242Y-47830D01*
X60004Y-47830D01*
X59909Y-47769D01*
X59433Y-48326D02*
X59433Y-47459D01*
X59433Y-47707D02*
X59385Y-47583D01*
X59338Y-47521D01*
X59242Y-47459D01*
X59147Y-47459D01*
X58814Y-48326D02*
X58814Y-47026D01*
X58719Y-47830D02*
X58433Y-48326D01*
X58433Y-47459D02*
X58814Y-47954D01*
X58004Y-48202D02*
X57957Y-48264D01*
X58004Y-48326D01*
X58052Y-48264D01*
X58004Y-48202D01*
X58004Y-48326D01*
X57100Y-48264D02*
X57195Y-48326D01*
X57385Y-48326D01*
X57480Y-48264D01*
X57528Y-48202D01*
X57576Y-48078D01*
X57576Y-47707D01*
X57528Y-47583D01*
X57480Y-47521D01*
X57385Y-47459D01*
X57195Y-47459D01*
X57100Y-47521D01*
X56528Y-48326D02*
X56623Y-48264D01*
X56671Y-48202D01*
X56719Y-48078D01*
X56719Y-47707D01*
X56671Y-47583D01*
X56623Y-47521D01*
X56528Y-47459D01*
X56385Y-47459D01*
X56290Y-47521D01*
X56242Y-47583D01*
X56195Y-47707D01*
X56195Y-48078D01*
X56242Y-48202D01*
X56290Y-48264D01*
X56385Y-48326D01*
X56528Y-48326D01*
X55766Y-48326D02*
X55766Y-47459D01*
X55766Y-47583D02*
X55719Y-47521D01*
X55623Y-47459D01*
X55480Y-47459D01*
X55385Y-47521D01*
X55338Y-47645D01*
X55338Y-48326D01*
X55338Y-47645D02*
X55290Y-47521D01*
X55195Y-47459D01*
X55052Y-47459D01*
X54957Y-47521D01*
X54909Y-47645D01*
X54909Y-48326D01*
X67238Y-39976D02*
X66666Y-39976D01*
X66952Y-41276D02*
X66952Y-39976D01*
X66333Y-41276D02*
X66333Y-39976D01*
X65904Y-41276D02*
X65904Y-40595D01*
X65952Y-40471D01*
X66047Y-40409D01*
X66190Y-40409D01*
X66285Y-40471D01*
X66333Y-40533D01*
X65047Y-41214D02*
X65142Y-41276D01*
X65333Y-41276D01*
X65428Y-41214D01*
X65476Y-41090D01*
X65476Y-40595D01*
X65428Y-40471D01*
X65333Y-40409D01*
X65142Y-40409D01*
X65047Y-40471D01*
X65000Y-40595D01*
X65000Y-40719D01*
X65476Y-40842D01*
X64619Y-40904D02*
X64142Y-40904D01*
X64714Y-41276D02*
X64380Y-39976D01*
X64047Y-41276D01*
X63714Y-41276D02*
X63714Y-40409D01*
X63714Y-40533D02*
X63666Y-40471D01*
X63571Y-40409D01*
X63428Y-40409D01*
X63333Y-40471D01*
X63285Y-40595D01*
X63285Y-41276D01*
X63285Y-40595D02*
X63238Y-40471D01*
X63142Y-40409D01*
X62999Y-40409D01*
X62904Y-40471D01*
X62857Y-40595D01*
X62857Y-41276D01*
X62380Y-40409D02*
X62380Y-41709D01*
X62380Y-40471D02*
X62285Y-40409D01*
X62095Y-40409D01*
X61999Y-40471D01*
X61952Y-40533D01*
X61904Y-40657D01*
X61904Y-41028D01*
X61952Y-41152D01*
X61999Y-41214D01*
X62095Y-41276D01*
X62285Y-41276D01*
X62380Y-41214D01*
X61476Y-41276D02*
X61476Y-39976D01*
X61476Y-40595D02*
X60904Y-40595D01*
X60904Y-41276D02*
X60904Y-39976D01*
X60285Y-41276D02*
X60380Y-41214D01*
X60428Y-41152D01*
X60476Y-41028D01*
X60476Y-40657D01*
X60428Y-40533D01*
X60380Y-40471D01*
X60285Y-40409D01*
X60142Y-40409D01*
X60047Y-40471D01*
X60000Y-40533D01*
X59952Y-40657D01*
X59952Y-41028D01*
X60000Y-41152D01*
X60047Y-41214D01*
X60142Y-41276D01*
X60285Y-41276D01*
X59095Y-40409D02*
X59095Y-41276D01*
X59523Y-40409D02*
X59523Y-41090D01*
X59476Y-41214D01*
X59380Y-41276D01*
X59238Y-41276D01*
X59142Y-41214D01*
X59095Y-41152D01*
X58619Y-41276D02*
X58619Y-40409D01*
X58619Y-40657D02*
X58571Y-40533D01*
X58523Y-40471D01*
X58428Y-40409D01*
X58333Y-40409D01*
X58000Y-41152D02*
X57952Y-41214D01*
X58000Y-41276D01*
X58047Y-41214D01*
X58000Y-41152D01*
X58000Y-41276D01*
X57095Y-41214D02*
X57190Y-41276D01*
X57380Y-41276D01*
X57476Y-41214D01*
X57523Y-41152D01*
X57571Y-41028D01*
X57571Y-40657D01*
X57523Y-40533D01*
X57476Y-40471D01*
X57380Y-40409D01*
X57190Y-40409D01*
X57095Y-40471D01*
X56523Y-41276D02*
X56619Y-41214D01*
X56666Y-41152D01*
X56714Y-41028D01*
X56714Y-40657D01*
X56666Y-40533D01*
X56619Y-40471D01*
X56523Y-40409D01*
X56380Y-40409D01*
X56285Y-40471D01*
X56238Y-40533D01*
X56190Y-40657D01*
X56190Y-41028D01*
X56238Y-41152D01*
X56285Y-41214D01*
X56380Y-41276D01*
X56523Y-41276D01*
X55761Y-41276D02*
X55761Y-40409D01*
X55761Y-40533D02*
X55714Y-40471D01*
X55619Y-40409D01*
X55476Y-40409D01*
X55380Y-40471D01*
X55333Y-40595D01*
X55333Y-41276D01*
X55333Y-40595D02*
X55285Y-40471D01*
X55190Y-40409D01*
X55047Y-40409D01*
X54952Y-40471D01*
X54904Y-40595D01*
X54904Y-41276D01*
G54D12*
X46960Y-36380D03*
X46960Y-37380D03*
X46960Y-38380D03*
X46960Y-39380D03*
X46960Y-40380D03*
X46960Y-41380D03*
X46960Y-42380D03*
X46960Y-43380D03*
X46960Y-44380D03*
X46960Y-45380D03*
X46960Y-46380D03*
X46960Y-47380D03*
X46960Y-48380D03*
G54D13*
X46960Y-35380D03*
G54D12*
X49960Y-48380D03*
X49960Y-47380D03*
X49960Y-46380D03*
X49960Y-45380D03*
X49960Y-44380D03*
X49960Y-43380D03*
X49960Y-42380D03*
X49960Y-41380D03*
X49960Y-40380D03*
X49960Y-39380D03*
X49960Y-38380D03*
X49960Y-37380D03*
X49960Y-36380D03*
X49960Y-35380D03*
X38070Y-37300D03*
X38070Y-38300D03*
X38070Y-39300D03*
X38070Y-40300D03*
X38070Y-41300D03*
X38070Y-42300D03*
X38070Y-43300D03*
X38070Y-44300D03*
X38070Y-45300D03*
X38070Y-46300D03*
X38070Y-47300D03*
X38070Y-48300D03*
X43070Y-48300D03*
X43070Y-47300D03*
X43070Y-46300D03*
X43070Y-45300D03*
X43070Y-44300D03*
X43070Y-43300D03*
X43070Y-42300D03*
X43070Y-41300D03*
X43070Y-40300D03*
X43070Y-39300D03*
X43070Y-38300D03*
X43070Y-37300D03*
X70755Y-33640D03*
X70755Y-34640D03*
X70755Y-35640D03*
X70755Y-36640D03*
X70755Y-37640D03*
X70755Y-38640D03*
X70755Y-39640D03*
X70755Y-40640D03*
X70755Y-41640D03*
X70755Y-42640D03*
X70755Y-43640D03*
X70755Y-44640D03*
X70755Y-45640D03*
X70755Y-46640D03*
X70755Y-47640D03*
X70755Y-48640D03*
X75755Y-48640D03*
X75755Y-47640D03*
X75755Y-46640D03*
X75755Y-45640D03*
X75755Y-44640D03*
X75755Y-43640D03*
X75755Y-42640D03*
X75755Y-41640D03*
X75755Y-40640D03*
X75755Y-39640D03*
X75755Y-38640D03*
X75755Y-37640D03*
X75755Y-36640D03*
X75755Y-35640D03*
X75755Y-34640D03*
X75755Y-33640D03*
X73175Y-32640D03*
G54D10*
G36*
X40560Y-42389D02*
X41255Y-43085D01*
X40560Y-43780D01*
X39864Y-43085D01*
X40560Y-42389D01*
X40560Y-42389D01*
G37*
G54D12*
X40570Y-36300D03*
G54D10*
G36*
X72334Y-41240D02*
X73170Y-40404D01*
X74005Y-41240D01*
X73170Y-42075D01*
X72334Y-41240D01*
X72334Y-41240D01*
G37*
G54D14*
X74490Y-38740D03*
X74490Y-37740D03*
X74490Y-37240D03*
X74490Y-36740D03*
X74490Y-36240D03*
X74490Y-35740D03*
X74490Y-35240D03*
X71990Y-35240D03*
X71990Y-35740D03*
X71990Y-36240D03*
X71990Y-36740D03*
X71990Y-37240D03*
X71990Y-37740D03*
X71990Y-38240D03*
X71990Y-38740D03*
X74490Y-38240D03*
X72050Y-47150D03*
X72050Y-46650D03*
X72050Y-46150D03*
X72050Y-45650D03*
X72050Y-45150D03*
X72050Y-44650D03*
X72050Y-44150D03*
X74550Y-44150D03*
X74550Y-44650D03*
X74550Y-45650D03*
X74550Y-46150D03*
X74550Y-46650D03*
X74550Y-47150D03*
X74550Y-45150D03*
G54D15*
X72690Y-29154D03*
X72690Y-28898D03*
X72690Y-28642D03*
X72690Y-28386D03*
X74390Y-28386D03*
X74390Y-28642D03*
X74390Y-28898D03*
X74390Y-29154D03*
G54D12*
X75970Y-30360D03*
X75970Y-29360D03*
X75970Y-28360D03*
X75970Y-27360D03*
X70970Y-27360D03*
X70970Y-28360D03*
X70970Y-29360D03*
X70970Y-30360D03*
X37840Y-28550D03*
X37840Y-29550D03*
X37840Y-30550D03*
X37840Y-31550D03*
X37840Y-32550D03*
X37840Y-33550D03*
X42840Y-33550D03*
X42840Y-32550D03*
X42840Y-31550D03*
X42840Y-30550D03*
X42840Y-29550D03*
X42840Y-28550D03*
X42840Y-27550D03*
X37840Y-27550D03*
G54D16*
X49410Y-31730D03*
X50940Y-41320D03*
X47450Y-27860D03*
X45770Y-40890D03*
X48870Y-31760D03*
X48780Y-27330D03*
X46300Y-42400D03*
X47210Y-28290D03*
X47940Y-27660D03*
X49670Y-27850D03*
X50985Y-28825D03*
X48460Y-31500D03*
X48100Y-31790D03*
X51745Y-31200D03*
X49830Y-28430D03*
X49320Y-27460D03*
X48440Y-27640D03*
G54D17*
X49960Y-43380D02*
X49640Y-43380D01*
X49640Y-43380D02*
X48840Y-42579D01*
X48840Y-32300D02*
X49410Y-31730D01*
X48840Y-42579D02*
X48840Y-32300D01*
X49960Y-41380D02*
X50440Y-41380D01*
X46310Y-43030D02*
X46960Y-42380D01*
X46310Y-44535D02*
X46310Y-43030D01*
X46665Y-44890D02*
X46310Y-44535D01*
X50245Y-44890D02*
X46665Y-44890D01*
X50595Y-44540D02*
X50245Y-44890D01*
X50595Y-41535D02*
X50595Y-44540D01*
X50440Y-41380D02*
X50595Y-41535D01*
X49960Y-41380D02*
X50880Y-41380D01*
X50880Y-41380D02*
X50940Y-41320D01*
X71990Y-35240D02*
X71990Y-34300D01*
X71330Y-33640D02*
X70755Y-33640D01*
X71990Y-34300D02*
X71330Y-33640D01*
X72050Y-44150D02*
X72050Y-43935D01*
X72050Y-43935D02*
X70755Y-42640D01*
X72050Y-44650D02*
X71765Y-44650D01*
X71765Y-44650D02*
X70755Y-43640D01*
X72050Y-45150D02*
X71265Y-45150D01*
X71265Y-45150D02*
X70755Y-44640D01*
X72050Y-45650D02*
X70765Y-45650D01*
X70765Y-45650D02*
X70755Y-45640D01*
X72050Y-46150D02*
X71245Y-46150D01*
X71245Y-46150D02*
X70755Y-46640D01*
X72050Y-46650D02*
X71745Y-46650D01*
X71745Y-46650D02*
X70755Y-47640D01*
X72050Y-47150D02*
X72050Y-47345D01*
X72050Y-47345D02*
X70755Y-48640D01*
X74550Y-47150D02*
X74550Y-47435D01*
X74550Y-47435D02*
X75755Y-48640D01*
X74550Y-46650D02*
X74765Y-46650D01*
X74765Y-46650D02*
X75755Y-47640D01*
X74550Y-46150D02*
X75265Y-46150D01*
X75265Y-46150D02*
X75755Y-46640D01*
X71990Y-35740D02*
X71810Y-35740D01*
X70755Y-34685D02*
X70755Y-34640D01*
X71810Y-35740D02*
X70755Y-34685D01*
X74550Y-45650D02*
X75745Y-45650D01*
X75745Y-45650D02*
X75755Y-45640D01*
X74550Y-45150D02*
X75245Y-45150D01*
X75245Y-45150D02*
X75755Y-44640D01*
X74550Y-44650D02*
X74745Y-44650D01*
X74745Y-44650D02*
X75755Y-43640D01*
X74550Y-44150D02*
X74550Y-43845D01*
X74550Y-43845D02*
X75755Y-42640D01*
X74490Y-38740D02*
X74490Y-39720D01*
X75410Y-40640D02*
X75755Y-40640D01*
X74490Y-39720D02*
X75410Y-40640D01*
X74490Y-38240D02*
X74780Y-38240D01*
X75230Y-39115D02*
X75755Y-39640D01*
X75230Y-38690D02*
X75230Y-39115D01*
X74780Y-38240D02*
X75230Y-38690D01*
X74490Y-37740D02*
X74855Y-37740D01*
X74855Y-37740D02*
X75755Y-38640D01*
X74490Y-37240D02*
X75355Y-37240D01*
X75355Y-37240D02*
X75755Y-37640D01*
X74490Y-36740D02*
X75655Y-36740D01*
X75655Y-36740D02*
X75755Y-36640D01*
X71990Y-36240D02*
X71550Y-36240D01*
X71160Y-35640D02*
X70755Y-35640D01*
X71330Y-35810D02*
X71160Y-35640D01*
X71330Y-36020D02*
X71330Y-35810D01*
X71550Y-36240D02*
X71330Y-36020D01*
X74490Y-36240D02*
X75155Y-36240D01*
X75155Y-36240D02*
X75755Y-35640D01*
X74490Y-35740D02*
X74655Y-35740D01*
X74655Y-35740D02*
X75755Y-34640D01*
X74490Y-35240D02*
X74490Y-34905D01*
X74490Y-34905D02*
X75755Y-33640D01*
X71990Y-36740D02*
X70855Y-36740D01*
X70855Y-36740D02*
X70755Y-36640D01*
X71990Y-37240D02*
X71155Y-37240D01*
X71155Y-37240D02*
X70755Y-37640D01*
X71990Y-37740D02*
X71655Y-37740D01*
X71655Y-37740D02*
X70755Y-38640D01*
X71990Y-38240D02*
X71850Y-38240D01*
X71340Y-39055D02*
X70755Y-39640D01*
X71340Y-38750D02*
X71340Y-39055D01*
X71850Y-38240D02*
X71340Y-38750D01*
X71990Y-38740D02*
X71990Y-39405D01*
X71990Y-39405D02*
X70755Y-40640D01*
X47670Y-36570D02*
X46960Y-37380D01*
X47670Y-34880D02*
X47670Y-36570D01*
X46620Y-33750D02*
X47670Y-34880D01*
X46620Y-28170D02*
X46620Y-33750D01*
X47000Y-27790D02*
X46620Y-28170D01*
X47380Y-27790D02*
X47000Y-27790D01*
X47450Y-27860D02*
X47380Y-27790D01*
X45950Y-40390D02*
X46960Y-39380D01*
X45950Y-40710D02*
X45950Y-40390D01*
X45770Y-40890D02*
X45950Y-40710D01*
X49960Y-44380D02*
X49740Y-44380D01*
X48650Y-31980D02*
X48870Y-31760D01*
X48650Y-43290D02*
X48650Y-31980D01*
X49740Y-44380D02*
X48650Y-43290D01*
X50580Y-34760D02*
X49960Y-35380D01*
X50580Y-27740D02*
X50580Y-34760D01*
X49910Y-27070D02*
X50580Y-27740D01*
X49040Y-27070D02*
X49910Y-27070D01*
X48780Y-27330D02*
X49040Y-27070D01*
X46130Y-41210D02*
X46960Y-40380D01*
X46130Y-42230D02*
X46130Y-41210D01*
X46300Y-42400D02*
X46130Y-42230D01*
X47900Y-34800D02*
X47900Y-37350D01*
X46930Y-33740D02*
X47900Y-34800D01*
X46930Y-28570D02*
X46930Y-33740D01*
X47210Y-28290D02*
X46930Y-28570D01*
X47900Y-37350D02*
X46960Y-38380D01*
X46980Y-34840D02*
X47260Y-34840D01*
X47940Y-27660D02*
X47680Y-27400D01*
X47680Y-27400D02*
X46970Y-27400D01*
X46970Y-27400D02*
X46380Y-27990D01*
X46380Y-27990D02*
X46380Y-34240D01*
X46380Y-34240D02*
X46980Y-34840D01*
X47420Y-35000D02*
X47420Y-35920D01*
X47260Y-34840D02*
X47420Y-35000D01*
X47420Y-35920D02*
X46960Y-36380D01*
X49240Y-36660D02*
X49960Y-37380D01*
X49240Y-34980D02*
X49240Y-36660D01*
X50219Y-34000D02*
X49240Y-34980D01*
X50219Y-28059D02*
X50219Y-34000D01*
X49970Y-27810D02*
X50219Y-28059D01*
X49710Y-27810D02*
X49970Y-27810D01*
X49670Y-27850D02*
X49710Y-27810D01*
X50830Y-39380D02*
X49960Y-39380D01*
X51390Y-38820D02*
X50830Y-39380D01*
X51390Y-29230D02*
X51390Y-38820D01*
X50985Y-28825D02*
X51390Y-29230D01*
X48460Y-43390D02*
X48460Y-31500D01*
X46960Y-44380D02*
X47470Y-44380D01*
X47470Y-44380D02*
X48460Y-43390D01*
G54D18*
X40560Y-43085D02*
X40560Y-36310D01*
X40560Y-36310D02*
X40570Y-36300D01*
G54D17*
X46960Y-43380D02*
X47739Y-43380D01*
X48260Y-31950D02*
X48100Y-31790D01*
X48260Y-42859D02*
X48260Y-31950D01*
X47739Y-43380D02*
X48260Y-42859D01*
G54D18*
X73175Y-39565D02*
X73175Y-41235D01*
X73175Y-41235D02*
X73170Y-41240D01*
X73175Y-32640D02*
X73175Y-39565D01*
X73175Y-39565D02*
X73175Y-39550D01*
G54D17*
X50685Y-40380D02*
X49960Y-40380D01*
X51640Y-39425D02*
X50685Y-40380D01*
X51640Y-31305D02*
X51640Y-39425D01*
X51745Y-31200D02*
X51640Y-31305D01*
X49050Y-37250D02*
X49960Y-38160D01*
X49050Y-34900D02*
X49050Y-37250D01*
X50039Y-33910D02*
X49050Y-34900D01*
X50039Y-28639D02*
X50039Y-33910D01*
X49830Y-28430D02*
X50039Y-28639D01*
X49960Y-38160D02*
X49960Y-38380D01*
X49430Y-35850D02*
X49960Y-36380D01*
X49430Y-35150D02*
X49430Y-35850D01*
X50399Y-34180D02*
X49430Y-35150D01*
X50399Y-27879D02*
X50399Y-34180D01*
X49900Y-27380D02*
X50399Y-27879D01*
X49400Y-27380D02*
X49900Y-27380D01*
X49320Y-27460D02*
X49400Y-27380D01*
X72690Y-29154D02*
X72176Y-29154D01*
X72176Y-29154D02*
X70970Y-30360D01*
X72690Y-28642D02*
X71252Y-28642D01*
X71252Y-28642D02*
X70970Y-28360D01*
X46150Y-34570D02*
X46960Y-35380D01*
X46150Y-27880D02*
X46150Y-34570D01*
X46880Y-27150D02*
X46150Y-27880D01*
X47950Y-27150D02*
X46880Y-27150D01*
X48440Y-27640D02*
X47950Y-27150D01*
X74390Y-29154D02*
X74764Y-29154D01*
X74764Y-29154D02*
X75970Y-30360D01*
X74390Y-28386D02*
X74944Y-28386D01*
X74944Y-28386D02*
X75970Y-27360D01*
X74390Y-28898D02*
X75508Y-28898D01*
X75508Y-28898D02*
X75970Y-29360D01*
X74390Y-28642D02*
X75688Y-28642D01*
X75688Y-28642D02*
X75970Y-28360D01*
X72690Y-28386D02*
X71996Y-28386D01*
X71996Y-28386D02*
X70970Y-27360D01*
X72690Y-28898D02*
X71432Y-28898D01*
X71432Y-28898D02*
X70970Y-29360D01*
M02*
