M48
;DRILL file {Pcbnew (2013-07-07 BZR 4022)-stable} date 8/16/2013 4:39:29 PM
;FORMAT={2:4/ absolute / inch / keep zeros}
FMAT,2
INCH,TZ
T1C0.020
%
G90
G05
M72
T1
X040466Y-035590
X040476Y-034910
X040860Y-035590
X040870Y-034910
X041254Y-035590
X041264Y-034910
X044450Y-041246
X044450Y-041640
X044450Y-042034
X044460Y-029966
X044460Y-030360
X044460Y-030754
X045030Y-029966
X045030Y-030360
X045030Y-030754
X045060Y-041246
X045060Y-041640
X045060Y-042034
X052430Y-031996
X052430Y-032390
X052430Y-032784
X052470Y-043236
X052470Y-043630
X052470Y-044024
X053030Y-043226
X053030Y-043620
X053030Y-044014
X053060Y-031996
X053060Y-032390
X053060Y-032784
X069160Y-034256
X069160Y-034650
X069160Y-035044
X069200Y-028236
X069200Y-028630
X069200Y-029024
X069200Y-043236
X069200Y-043630
X069200Y-044024
X069540Y-028236
X069540Y-028630
X069540Y-029024
X069560Y-034266
X069560Y-034660
X069560Y-035054
X069560Y-043226
X069560Y-043620
X069560Y-044014
X072706Y-031800
X072726Y-031200
X073100Y-031800
X073120Y-031200
X073494Y-031800
X073514Y-031200
T0
M30
