G04 (created by PCBNEW (2013-03-19 BZR 4004)-stable) date 9/9/2013 12:01:13 AM*
%MOIN*%
G04 Gerber Fmt 3.4, Leading zero omitted, Abs format*
%FSLAX34Y34*%
G01*
G70*
G90*
G04 APERTURE LIST*
%ADD10C,0*%
%ADD11C,0.02*%
G04 APERTURE END LIST*
G54D10*
G54D11*
X64100Y-47026D02*
X63909Y-47026D01*
X63814Y-47088D01*
X63719Y-47211D01*
X63671Y-47459D01*
X63671Y-47892D01*
X63719Y-48140D01*
X63814Y-48264D01*
X63909Y-48326D01*
X64100Y-48326D01*
X64195Y-48264D01*
X64290Y-48140D01*
X64338Y-47892D01*
X64338Y-47459D01*
X64290Y-47211D01*
X64195Y-47088D01*
X64100Y-47026D01*
X63290Y-48264D02*
X63147Y-48326D01*
X62909Y-48326D01*
X62814Y-48264D01*
X62766Y-48202D01*
X62719Y-48078D01*
X62719Y-47954D01*
X62766Y-47830D01*
X62814Y-47769D01*
X62909Y-47707D01*
X63100Y-47645D01*
X63195Y-47583D01*
X63242Y-47521D01*
X63290Y-47397D01*
X63290Y-47273D01*
X63242Y-47150D01*
X63195Y-47088D01*
X63100Y-47026D01*
X62861Y-47026D01*
X62719Y-47088D01*
X62290Y-48326D02*
X62290Y-47026D01*
X62290Y-47645D02*
X61719Y-47645D01*
X61719Y-48326D02*
X61719Y-47026D01*
X61242Y-47459D02*
X61242Y-48759D01*
X61242Y-47521D02*
X61147Y-47459D01*
X60957Y-47459D01*
X60861Y-47521D01*
X60814Y-47583D01*
X60766Y-47707D01*
X60766Y-48078D01*
X60814Y-48202D01*
X60861Y-48264D01*
X60957Y-48326D01*
X61147Y-48326D01*
X61242Y-48264D01*
X59909Y-48326D02*
X59909Y-47645D01*
X59957Y-47521D01*
X60052Y-47459D01*
X60242Y-47459D01*
X60338Y-47521D01*
X59909Y-48264D02*
X60004Y-48326D01*
X60242Y-48326D01*
X60338Y-48264D01*
X60385Y-48140D01*
X60385Y-48016D01*
X60338Y-47892D01*
X60242Y-47830D01*
X60004Y-47830D01*
X59909Y-47769D01*
X59433Y-48326D02*
X59433Y-47459D01*
X59433Y-47707D02*
X59385Y-47583D01*
X59338Y-47521D01*
X59242Y-47459D01*
X59147Y-47459D01*
X58814Y-48326D02*
X58814Y-47026D01*
X58719Y-47830D02*
X58433Y-48326D01*
X58433Y-47459D02*
X58814Y-47954D01*
X58004Y-48202D02*
X57957Y-48264D01*
X58004Y-48326D01*
X58052Y-48264D01*
X58004Y-48202D01*
X58004Y-48326D01*
X57100Y-48264D02*
X57195Y-48326D01*
X57385Y-48326D01*
X57480Y-48264D01*
X57528Y-48202D01*
X57576Y-48078D01*
X57576Y-47707D01*
X57528Y-47583D01*
X57480Y-47521D01*
X57385Y-47459D01*
X57195Y-47459D01*
X57100Y-47521D01*
X56528Y-48326D02*
X56623Y-48264D01*
X56671Y-48202D01*
X56719Y-48078D01*
X56719Y-47707D01*
X56671Y-47583D01*
X56623Y-47521D01*
X56528Y-47459D01*
X56385Y-47459D01*
X56290Y-47521D01*
X56242Y-47583D01*
X56195Y-47707D01*
X56195Y-48078D01*
X56242Y-48202D01*
X56290Y-48264D01*
X56385Y-48326D01*
X56528Y-48326D01*
X55766Y-48326D02*
X55766Y-47459D01*
X55766Y-47583D02*
X55719Y-47521D01*
X55623Y-47459D01*
X55480Y-47459D01*
X55385Y-47521D01*
X55338Y-47645D01*
X55338Y-48326D01*
X55338Y-47645D02*
X55290Y-47521D01*
X55195Y-47459D01*
X55052Y-47459D01*
X54957Y-47521D01*
X54909Y-47645D01*
X54909Y-48326D01*
X67238Y-39986D02*
X66666Y-39986D01*
X66952Y-41286D02*
X66952Y-39986D01*
X66333Y-41286D02*
X66333Y-39986D01*
X65904Y-41286D02*
X65904Y-40605D01*
X65952Y-40481D01*
X66047Y-40419D01*
X66190Y-40419D01*
X66285Y-40481D01*
X66333Y-40543D01*
X65047Y-41224D02*
X65142Y-41286D01*
X65333Y-41286D01*
X65428Y-41224D01*
X65476Y-41100D01*
X65476Y-40605D01*
X65428Y-40481D01*
X65333Y-40419D01*
X65142Y-40419D01*
X65047Y-40481D01*
X65000Y-40605D01*
X65000Y-40729D01*
X65476Y-40852D01*
X64619Y-40914D02*
X64142Y-40914D01*
X64714Y-41286D02*
X64380Y-39986D01*
X64047Y-41286D01*
X63714Y-41286D02*
X63714Y-40419D01*
X63714Y-40543D02*
X63666Y-40481D01*
X63571Y-40419D01*
X63428Y-40419D01*
X63333Y-40481D01*
X63285Y-40605D01*
X63285Y-41286D01*
X63285Y-40605D02*
X63238Y-40481D01*
X63142Y-40419D01*
X62999Y-40419D01*
X62904Y-40481D01*
X62857Y-40605D01*
X62857Y-41286D01*
X62380Y-40419D02*
X62380Y-41719D01*
X62380Y-40481D02*
X62285Y-40419D01*
X62095Y-40419D01*
X61999Y-40481D01*
X61952Y-40543D01*
X61904Y-40667D01*
X61904Y-41038D01*
X61952Y-41162D01*
X61999Y-41224D01*
X62095Y-41286D01*
X62285Y-41286D01*
X62380Y-41224D01*
X61476Y-41286D02*
X61476Y-39986D01*
X61476Y-40605D02*
X60904Y-40605D01*
X60904Y-41286D02*
X60904Y-39986D01*
X60285Y-41286D02*
X60380Y-41224D01*
X60428Y-41162D01*
X60476Y-41038D01*
X60476Y-40667D01*
X60428Y-40543D01*
X60380Y-40481D01*
X60285Y-40419D01*
X60142Y-40419D01*
X60047Y-40481D01*
X60000Y-40543D01*
X59952Y-40667D01*
X59952Y-41038D01*
X60000Y-41162D01*
X60047Y-41224D01*
X60142Y-41286D01*
X60285Y-41286D01*
X59095Y-40419D02*
X59095Y-41286D01*
X59523Y-40419D02*
X59523Y-41100D01*
X59476Y-41224D01*
X59380Y-41286D01*
X59238Y-41286D01*
X59142Y-41224D01*
X59095Y-41162D01*
X58619Y-41286D02*
X58619Y-40419D01*
X58619Y-40667D02*
X58571Y-40543D01*
X58523Y-40481D01*
X58428Y-40419D01*
X58333Y-40419D01*
X58000Y-41162D02*
X57952Y-41224D01*
X58000Y-41286D01*
X58047Y-41224D01*
X58000Y-41162D01*
X58000Y-41286D01*
X57095Y-41224D02*
X57190Y-41286D01*
X57380Y-41286D01*
X57476Y-41224D01*
X57523Y-41162D01*
X57571Y-41038D01*
X57571Y-40667D01*
X57523Y-40543D01*
X57476Y-40481D01*
X57380Y-40419D01*
X57190Y-40419D01*
X57095Y-40481D01*
X56523Y-41286D02*
X56619Y-41224D01*
X56666Y-41162D01*
X56714Y-41038D01*
X56714Y-40667D01*
X56666Y-40543D01*
X56619Y-40481D01*
X56523Y-40419D01*
X56380Y-40419D01*
X56285Y-40481D01*
X56238Y-40543D01*
X56190Y-40667D01*
X56190Y-41038D01*
X56238Y-41162D01*
X56285Y-41224D01*
X56380Y-41286D01*
X56523Y-41286D01*
X55761Y-41286D02*
X55761Y-40419D01*
X55761Y-40543D02*
X55714Y-40481D01*
X55619Y-40419D01*
X55476Y-40419D01*
X55380Y-40481D01*
X55333Y-40605D01*
X55333Y-41286D01*
X55333Y-40605D02*
X55285Y-40481D01*
X55190Y-40419D01*
X55047Y-40419D01*
X54952Y-40481D01*
X54904Y-40605D01*
X54904Y-41286D01*
G54D10*
G36*
X38155Y-27520D02*
X38154Y-27588D01*
X38140Y-27651D01*
X38116Y-27705D01*
X38078Y-27758D01*
X38036Y-27798D01*
X37981Y-27833D01*
X37926Y-27854D01*
X37862Y-27865D01*
X37804Y-27864D01*
X37740Y-27850D01*
X37686Y-27827D01*
X37633Y-27790D01*
X37592Y-27747D01*
X37557Y-27693D01*
X37536Y-27638D01*
X37524Y-27574D01*
X37525Y-27516D01*
X37538Y-27452D01*
X37561Y-27398D01*
X37598Y-27345D01*
X37640Y-27304D01*
X37694Y-27268D01*
X37748Y-27246D01*
X37813Y-27234D01*
X37871Y-27234D01*
X37935Y-27248D01*
X37988Y-27270D01*
X38043Y-27307D01*
X38084Y-27348D01*
X38120Y-27403D01*
X38142Y-27456D01*
X38155Y-27520D01*
X38155Y-27520D01*
G37*
G36*
X38155Y-28520D02*
X38154Y-28588D01*
X38140Y-28651D01*
X38116Y-28705D01*
X38078Y-28758D01*
X38036Y-28798D01*
X37981Y-28833D01*
X37926Y-28854D01*
X37862Y-28865D01*
X37804Y-28864D01*
X37740Y-28850D01*
X37686Y-28827D01*
X37633Y-28790D01*
X37592Y-28747D01*
X37557Y-28693D01*
X37536Y-28638D01*
X37524Y-28574D01*
X37525Y-28516D01*
X37538Y-28452D01*
X37561Y-28398D01*
X37598Y-28345D01*
X37640Y-28304D01*
X37694Y-28268D01*
X37748Y-28246D01*
X37813Y-28234D01*
X37871Y-28234D01*
X37935Y-28248D01*
X37988Y-28270D01*
X38043Y-28307D01*
X38084Y-28348D01*
X38120Y-28403D01*
X38142Y-28456D01*
X38155Y-28520D01*
X38155Y-28520D01*
G37*
G36*
X38155Y-29520D02*
X38154Y-29588D01*
X38140Y-29651D01*
X38116Y-29705D01*
X38078Y-29758D01*
X38036Y-29798D01*
X37981Y-29833D01*
X37926Y-29854D01*
X37862Y-29865D01*
X37804Y-29864D01*
X37740Y-29850D01*
X37686Y-29827D01*
X37633Y-29790D01*
X37592Y-29747D01*
X37557Y-29693D01*
X37536Y-29638D01*
X37524Y-29574D01*
X37525Y-29516D01*
X37538Y-29452D01*
X37561Y-29398D01*
X37598Y-29345D01*
X37640Y-29304D01*
X37694Y-29268D01*
X37748Y-29246D01*
X37813Y-29234D01*
X37871Y-29234D01*
X37935Y-29248D01*
X37988Y-29270D01*
X38043Y-29307D01*
X38084Y-29348D01*
X38120Y-29403D01*
X38142Y-29456D01*
X38155Y-29520D01*
X38155Y-29520D01*
G37*
G36*
X38155Y-30520D02*
X38154Y-30588D01*
X38140Y-30651D01*
X38116Y-30705D01*
X38078Y-30758D01*
X38036Y-30798D01*
X37981Y-30833D01*
X37926Y-30854D01*
X37862Y-30865D01*
X37804Y-30864D01*
X37740Y-30850D01*
X37686Y-30827D01*
X37633Y-30790D01*
X37592Y-30747D01*
X37557Y-30693D01*
X37536Y-30638D01*
X37524Y-30574D01*
X37525Y-30516D01*
X37538Y-30452D01*
X37561Y-30398D01*
X37598Y-30345D01*
X37640Y-30304D01*
X37694Y-30268D01*
X37748Y-30246D01*
X37813Y-30234D01*
X37871Y-30234D01*
X37935Y-30248D01*
X37988Y-30270D01*
X38043Y-30307D01*
X38084Y-30348D01*
X38120Y-30403D01*
X38142Y-30456D01*
X38155Y-30520D01*
X38155Y-30520D01*
G37*
G36*
X38155Y-31520D02*
X38154Y-31588D01*
X38140Y-31651D01*
X38116Y-31705D01*
X38078Y-31758D01*
X38036Y-31798D01*
X37981Y-31833D01*
X37926Y-31854D01*
X37862Y-31865D01*
X37804Y-31864D01*
X37740Y-31850D01*
X37686Y-31827D01*
X37633Y-31790D01*
X37592Y-31747D01*
X37557Y-31693D01*
X37536Y-31638D01*
X37524Y-31574D01*
X37525Y-31516D01*
X37538Y-31452D01*
X37561Y-31398D01*
X37598Y-31345D01*
X37640Y-31304D01*
X37694Y-31268D01*
X37748Y-31246D01*
X37813Y-31234D01*
X37871Y-31234D01*
X37935Y-31248D01*
X37988Y-31270D01*
X38043Y-31307D01*
X38084Y-31348D01*
X38120Y-31403D01*
X38142Y-31456D01*
X38155Y-31520D01*
X38155Y-31520D01*
G37*
G36*
X38155Y-32520D02*
X38154Y-32588D01*
X38140Y-32651D01*
X38116Y-32705D01*
X38078Y-32758D01*
X38036Y-32798D01*
X37981Y-32833D01*
X37926Y-32854D01*
X37862Y-32865D01*
X37804Y-32864D01*
X37740Y-32850D01*
X37686Y-32827D01*
X37633Y-32790D01*
X37592Y-32747D01*
X37557Y-32693D01*
X37536Y-32638D01*
X37524Y-32574D01*
X37525Y-32516D01*
X37538Y-32452D01*
X37561Y-32398D01*
X37598Y-32345D01*
X37640Y-32304D01*
X37694Y-32268D01*
X37748Y-32246D01*
X37813Y-32234D01*
X37871Y-32234D01*
X37935Y-32248D01*
X37988Y-32270D01*
X38043Y-32307D01*
X38084Y-32348D01*
X38120Y-32403D01*
X38142Y-32456D01*
X38155Y-32520D01*
X38155Y-32520D01*
G37*
G36*
X38155Y-33520D02*
X38154Y-33588D01*
X38140Y-33651D01*
X38116Y-33705D01*
X38078Y-33758D01*
X38036Y-33798D01*
X37981Y-33833D01*
X37926Y-33854D01*
X37862Y-33865D01*
X37804Y-33864D01*
X37740Y-33850D01*
X37686Y-33827D01*
X37633Y-33790D01*
X37592Y-33747D01*
X37557Y-33693D01*
X37536Y-33638D01*
X37524Y-33574D01*
X37525Y-33516D01*
X37538Y-33452D01*
X37561Y-33398D01*
X37598Y-33345D01*
X37640Y-33304D01*
X37694Y-33268D01*
X37748Y-33246D01*
X37813Y-33234D01*
X37871Y-33234D01*
X37935Y-33248D01*
X37988Y-33270D01*
X38043Y-33307D01*
X38084Y-33348D01*
X38120Y-33403D01*
X38142Y-33456D01*
X38155Y-33520D01*
X38155Y-33520D01*
G37*
G36*
X38425Y-37266D02*
X38424Y-37343D01*
X38408Y-37414D01*
X38381Y-37475D01*
X38339Y-37534D01*
X38290Y-37580D01*
X38229Y-37619D01*
X38167Y-37643D01*
X38095Y-37655D01*
X38029Y-37654D01*
X37958Y-37638D01*
X37897Y-37612D01*
X37837Y-37570D01*
X37791Y-37522D01*
X37751Y-37461D01*
X37727Y-37399D01*
X37714Y-37328D01*
X37715Y-37261D01*
X37730Y-37190D01*
X37756Y-37129D01*
X37797Y-37069D01*
X37844Y-37022D01*
X37906Y-36982D01*
X37967Y-36958D01*
X38039Y-36944D01*
X38105Y-36944D01*
X38177Y-36959D01*
X38238Y-36985D01*
X38298Y-37026D01*
X38345Y-37072D01*
X38386Y-37134D01*
X38411Y-37194D01*
X38425Y-37266D01*
X38425Y-37266D01*
G37*
G36*
X38425Y-38266D02*
X38424Y-38343D01*
X38408Y-38414D01*
X38381Y-38475D01*
X38339Y-38534D01*
X38290Y-38580D01*
X38229Y-38619D01*
X38167Y-38643D01*
X38095Y-38655D01*
X38029Y-38654D01*
X37958Y-38638D01*
X37897Y-38612D01*
X37837Y-38570D01*
X37791Y-38522D01*
X37751Y-38461D01*
X37727Y-38399D01*
X37714Y-38328D01*
X37715Y-38261D01*
X37730Y-38190D01*
X37756Y-38129D01*
X37797Y-38069D01*
X37844Y-38022D01*
X37906Y-37982D01*
X37967Y-37958D01*
X38039Y-37944D01*
X38105Y-37944D01*
X38177Y-37959D01*
X38238Y-37985D01*
X38298Y-38026D01*
X38345Y-38072D01*
X38386Y-38134D01*
X38411Y-38194D01*
X38425Y-38266D01*
X38425Y-38266D01*
G37*
G36*
X38425Y-39266D02*
X38424Y-39343D01*
X38408Y-39414D01*
X38381Y-39475D01*
X38339Y-39534D01*
X38290Y-39580D01*
X38229Y-39619D01*
X38167Y-39643D01*
X38095Y-39655D01*
X38029Y-39654D01*
X37958Y-39638D01*
X37897Y-39612D01*
X37837Y-39570D01*
X37791Y-39522D01*
X37751Y-39461D01*
X37727Y-39399D01*
X37714Y-39328D01*
X37715Y-39261D01*
X37730Y-39190D01*
X37756Y-39129D01*
X37797Y-39069D01*
X37844Y-39022D01*
X37906Y-38982D01*
X37967Y-38958D01*
X38039Y-38944D01*
X38105Y-38944D01*
X38177Y-38959D01*
X38238Y-38985D01*
X38298Y-39026D01*
X38345Y-39072D01*
X38386Y-39134D01*
X38411Y-39194D01*
X38425Y-39266D01*
X38425Y-39266D01*
G37*
G36*
X38425Y-40266D02*
X38424Y-40343D01*
X38408Y-40414D01*
X38381Y-40475D01*
X38339Y-40534D01*
X38290Y-40580D01*
X38229Y-40619D01*
X38167Y-40643D01*
X38095Y-40655D01*
X38029Y-40654D01*
X37958Y-40638D01*
X37897Y-40612D01*
X37837Y-40570D01*
X37791Y-40522D01*
X37751Y-40461D01*
X37727Y-40399D01*
X37714Y-40328D01*
X37715Y-40261D01*
X37730Y-40190D01*
X37756Y-40129D01*
X37797Y-40069D01*
X37844Y-40022D01*
X37906Y-39982D01*
X37967Y-39958D01*
X38039Y-39944D01*
X38105Y-39944D01*
X38177Y-39959D01*
X38238Y-39985D01*
X38298Y-40026D01*
X38345Y-40072D01*
X38386Y-40134D01*
X38411Y-40194D01*
X38425Y-40266D01*
X38425Y-40266D01*
G37*
G36*
X38425Y-41266D02*
X38424Y-41343D01*
X38408Y-41414D01*
X38381Y-41475D01*
X38339Y-41534D01*
X38290Y-41580D01*
X38229Y-41619D01*
X38167Y-41643D01*
X38095Y-41655D01*
X38029Y-41654D01*
X37958Y-41638D01*
X37897Y-41612D01*
X37837Y-41570D01*
X37791Y-41522D01*
X37751Y-41461D01*
X37727Y-41399D01*
X37714Y-41328D01*
X37715Y-41261D01*
X37730Y-41190D01*
X37756Y-41129D01*
X37797Y-41069D01*
X37844Y-41022D01*
X37906Y-40982D01*
X37967Y-40958D01*
X38039Y-40944D01*
X38105Y-40944D01*
X38177Y-40959D01*
X38238Y-40985D01*
X38298Y-41026D01*
X38345Y-41072D01*
X38386Y-41134D01*
X38411Y-41194D01*
X38425Y-41266D01*
X38425Y-41266D01*
G37*
G36*
X38425Y-42266D02*
X38424Y-42343D01*
X38408Y-42414D01*
X38381Y-42475D01*
X38339Y-42534D01*
X38290Y-42580D01*
X38229Y-42619D01*
X38167Y-42643D01*
X38095Y-42655D01*
X38029Y-42654D01*
X37958Y-42638D01*
X37897Y-42612D01*
X37837Y-42570D01*
X37791Y-42522D01*
X37751Y-42461D01*
X37727Y-42399D01*
X37714Y-42328D01*
X37715Y-42261D01*
X37730Y-42190D01*
X37756Y-42129D01*
X37797Y-42069D01*
X37844Y-42022D01*
X37906Y-41982D01*
X37967Y-41958D01*
X38039Y-41944D01*
X38105Y-41944D01*
X38177Y-41959D01*
X38238Y-41985D01*
X38298Y-42026D01*
X38345Y-42072D01*
X38386Y-42134D01*
X38411Y-42194D01*
X38425Y-42266D01*
X38425Y-42266D01*
G37*
G36*
X38425Y-43266D02*
X38424Y-43343D01*
X38408Y-43414D01*
X38381Y-43475D01*
X38339Y-43534D01*
X38290Y-43580D01*
X38229Y-43619D01*
X38167Y-43643D01*
X38095Y-43655D01*
X38029Y-43654D01*
X37958Y-43638D01*
X37897Y-43612D01*
X37837Y-43570D01*
X37791Y-43522D01*
X37751Y-43461D01*
X37727Y-43399D01*
X37714Y-43328D01*
X37715Y-43261D01*
X37730Y-43190D01*
X37756Y-43129D01*
X37797Y-43069D01*
X37844Y-43022D01*
X37906Y-42982D01*
X37967Y-42958D01*
X38039Y-42944D01*
X38105Y-42944D01*
X38177Y-42959D01*
X38238Y-42985D01*
X38298Y-43026D01*
X38345Y-43072D01*
X38386Y-43134D01*
X38411Y-43194D01*
X38425Y-43266D01*
X38425Y-43266D01*
G37*
G36*
X38425Y-44266D02*
X38424Y-44343D01*
X38408Y-44414D01*
X38381Y-44475D01*
X38339Y-44534D01*
X38290Y-44580D01*
X38229Y-44619D01*
X38167Y-44643D01*
X38095Y-44655D01*
X38029Y-44654D01*
X37958Y-44638D01*
X37897Y-44612D01*
X37837Y-44570D01*
X37791Y-44522D01*
X37751Y-44461D01*
X37727Y-44399D01*
X37714Y-44328D01*
X37715Y-44261D01*
X37730Y-44190D01*
X37756Y-44129D01*
X37797Y-44069D01*
X37844Y-44022D01*
X37906Y-43982D01*
X37967Y-43958D01*
X38039Y-43944D01*
X38105Y-43944D01*
X38177Y-43959D01*
X38238Y-43985D01*
X38298Y-44026D01*
X38345Y-44072D01*
X38386Y-44134D01*
X38411Y-44194D01*
X38425Y-44266D01*
X38425Y-44266D01*
G37*
G36*
X38425Y-45266D02*
X38424Y-45343D01*
X38408Y-45414D01*
X38381Y-45475D01*
X38339Y-45534D01*
X38290Y-45580D01*
X38229Y-45619D01*
X38167Y-45643D01*
X38095Y-45655D01*
X38029Y-45654D01*
X37958Y-45638D01*
X37897Y-45612D01*
X37837Y-45570D01*
X37791Y-45522D01*
X37751Y-45461D01*
X37727Y-45399D01*
X37714Y-45328D01*
X37715Y-45261D01*
X37730Y-45190D01*
X37756Y-45129D01*
X37797Y-45069D01*
X37844Y-45022D01*
X37906Y-44982D01*
X37967Y-44958D01*
X38039Y-44944D01*
X38105Y-44944D01*
X38177Y-44959D01*
X38238Y-44985D01*
X38298Y-45026D01*
X38345Y-45072D01*
X38386Y-45134D01*
X38411Y-45194D01*
X38425Y-45266D01*
X38425Y-45266D01*
G37*
G36*
X38425Y-46266D02*
X38424Y-46343D01*
X38408Y-46414D01*
X38381Y-46475D01*
X38339Y-46534D01*
X38290Y-46580D01*
X38229Y-46619D01*
X38167Y-46643D01*
X38095Y-46655D01*
X38029Y-46654D01*
X37958Y-46638D01*
X37897Y-46612D01*
X37837Y-46570D01*
X37791Y-46522D01*
X37751Y-46461D01*
X37727Y-46399D01*
X37714Y-46328D01*
X37715Y-46261D01*
X37730Y-46190D01*
X37756Y-46129D01*
X37797Y-46069D01*
X37844Y-46022D01*
X37906Y-45982D01*
X37967Y-45958D01*
X38039Y-45944D01*
X38105Y-45944D01*
X38177Y-45959D01*
X38238Y-45985D01*
X38298Y-46026D01*
X38345Y-46072D01*
X38386Y-46134D01*
X38411Y-46194D01*
X38425Y-46266D01*
X38425Y-46266D01*
G37*
G36*
X38425Y-47266D02*
X38424Y-47343D01*
X38408Y-47414D01*
X38381Y-47475D01*
X38339Y-47534D01*
X38290Y-47580D01*
X38229Y-47619D01*
X38167Y-47643D01*
X38095Y-47655D01*
X38029Y-47654D01*
X37958Y-47638D01*
X37897Y-47612D01*
X37837Y-47570D01*
X37791Y-47522D01*
X37751Y-47461D01*
X37727Y-47399D01*
X37714Y-47328D01*
X37715Y-47261D01*
X37730Y-47190D01*
X37756Y-47129D01*
X37797Y-47069D01*
X37844Y-47022D01*
X37906Y-46982D01*
X37967Y-46958D01*
X38039Y-46944D01*
X38105Y-46944D01*
X38177Y-46959D01*
X38238Y-46985D01*
X38298Y-47026D01*
X38345Y-47072D01*
X38386Y-47134D01*
X38411Y-47194D01*
X38425Y-47266D01*
X38425Y-47266D01*
G37*
G36*
X38425Y-48266D02*
X38424Y-48343D01*
X38408Y-48414D01*
X38381Y-48475D01*
X38339Y-48534D01*
X38290Y-48580D01*
X38229Y-48619D01*
X38167Y-48643D01*
X38095Y-48655D01*
X38029Y-48654D01*
X37958Y-48638D01*
X37897Y-48612D01*
X37837Y-48570D01*
X37791Y-48522D01*
X37751Y-48461D01*
X37727Y-48399D01*
X37714Y-48328D01*
X37715Y-48261D01*
X37730Y-48190D01*
X37756Y-48129D01*
X37797Y-48069D01*
X37844Y-48022D01*
X37906Y-47982D01*
X37967Y-47958D01*
X38039Y-47944D01*
X38105Y-47944D01*
X38177Y-47959D01*
X38238Y-47985D01*
X38298Y-48026D01*
X38345Y-48072D01*
X38386Y-48134D01*
X38411Y-48194D01*
X38425Y-48266D01*
X38425Y-48266D01*
G37*
G36*
X40585Y-35579D02*
X40584Y-35603D01*
X40578Y-35628D01*
X40570Y-35647D01*
X40555Y-35668D01*
X40540Y-35682D01*
X40518Y-35697D01*
X40499Y-35704D01*
X40473Y-35708D01*
X40453Y-35708D01*
X40427Y-35702D01*
X40409Y-35694D01*
X40387Y-35679D01*
X40373Y-35665D01*
X40359Y-35642D01*
X40352Y-35624D01*
X40347Y-35598D01*
X40347Y-35578D01*
X40353Y-35552D01*
X40361Y-35534D01*
X40376Y-35512D01*
X40390Y-35498D01*
X40412Y-35483D01*
X40430Y-35476D01*
X40457Y-35471D01*
X40476Y-35471D01*
X40503Y-35476D01*
X40521Y-35484D01*
X40543Y-35499D01*
X40557Y-35513D01*
X40572Y-35535D01*
X40579Y-35553D01*
X40585Y-35579D01*
X40585Y-35579D01*
G37*
G36*
X40595Y-34899D02*
X40594Y-34923D01*
X40588Y-34948D01*
X40580Y-34967D01*
X40565Y-34988D01*
X40550Y-35002D01*
X40528Y-35017D01*
X40509Y-35024D01*
X40483Y-35028D01*
X40463Y-35028D01*
X40437Y-35022D01*
X40419Y-35014D01*
X40397Y-34999D01*
X40383Y-34985D01*
X40369Y-34962D01*
X40362Y-34944D01*
X40357Y-34918D01*
X40357Y-34898D01*
X40363Y-34872D01*
X40371Y-34854D01*
X40386Y-34832D01*
X40400Y-34818D01*
X40422Y-34803D01*
X40440Y-34796D01*
X40467Y-34791D01*
X40486Y-34791D01*
X40513Y-34796D01*
X40531Y-34804D01*
X40553Y-34819D01*
X40567Y-34833D01*
X40582Y-34855D01*
X40589Y-34873D01*
X40595Y-34899D01*
X40595Y-34899D01*
G37*
G36*
X40885Y-36270D02*
X40884Y-36338D01*
X40870Y-36401D01*
X40846Y-36455D01*
X40808Y-36508D01*
X40766Y-36548D01*
X40711Y-36583D01*
X40656Y-36604D01*
X40592Y-36615D01*
X40534Y-36614D01*
X40470Y-36600D01*
X40416Y-36577D01*
X40363Y-36540D01*
X40322Y-36497D01*
X40287Y-36443D01*
X40266Y-36388D01*
X40254Y-36324D01*
X40255Y-36266D01*
X40268Y-36202D01*
X40291Y-36148D01*
X40328Y-36095D01*
X40370Y-36054D01*
X40424Y-36018D01*
X40478Y-35996D01*
X40543Y-35984D01*
X40601Y-35984D01*
X40665Y-35998D01*
X40718Y-36020D01*
X40773Y-36057D01*
X40814Y-36098D01*
X40850Y-36153D01*
X40872Y-36206D01*
X40885Y-36270D01*
X40885Y-36270D01*
G37*
G36*
X40978Y-35579D02*
X40978Y-35603D01*
X40972Y-35628D01*
X40964Y-35647D01*
X40949Y-35668D01*
X40934Y-35682D01*
X40912Y-35697D01*
X40893Y-35704D01*
X40867Y-35708D01*
X40847Y-35708D01*
X40821Y-35702D01*
X40803Y-35694D01*
X40781Y-35679D01*
X40767Y-35665D01*
X40753Y-35642D01*
X40745Y-35624D01*
X40741Y-35598D01*
X40741Y-35578D01*
X40746Y-35552D01*
X40754Y-35534D01*
X40769Y-35512D01*
X40783Y-35498D01*
X40806Y-35483D01*
X40824Y-35476D01*
X40851Y-35471D01*
X40870Y-35471D01*
X40897Y-35476D01*
X40915Y-35484D01*
X40937Y-35499D01*
X40951Y-35513D01*
X40966Y-35535D01*
X40973Y-35553D01*
X40978Y-35579D01*
X40978Y-35579D01*
G37*
G36*
X40988Y-34899D02*
X40988Y-34923D01*
X40982Y-34948D01*
X40974Y-34967D01*
X40959Y-34988D01*
X40944Y-35002D01*
X40922Y-35017D01*
X40903Y-35024D01*
X40877Y-35028D01*
X40857Y-35028D01*
X40831Y-35022D01*
X40813Y-35014D01*
X40791Y-34999D01*
X40777Y-34985D01*
X40763Y-34962D01*
X40755Y-34944D01*
X40751Y-34918D01*
X40751Y-34898D01*
X40756Y-34872D01*
X40764Y-34854D01*
X40779Y-34832D01*
X40793Y-34818D01*
X40816Y-34803D01*
X40834Y-34796D01*
X40861Y-34791D01*
X40880Y-34791D01*
X40907Y-34796D01*
X40925Y-34804D01*
X40947Y-34819D01*
X40961Y-34833D01*
X40976Y-34855D01*
X40983Y-34873D01*
X40988Y-34899D01*
X40988Y-34899D01*
G37*
G36*
X41312Y-43084D02*
X40559Y-43837D01*
X39807Y-43084D01*
X40559Y-42332D01*
X41312Y-43084D01*
X41312Y-43084D01*
G37*
G36*
X41372Y-35579D02*
X41372Y-35603D01*
X41366Y-35628D01*
X41358Y-35647D01*
X41342Y-35668D01*
X41328Y-35682D01*
X41306Y-35697D01*
X41287Y-35704D01*
X41261Y-35708D01*
X41241Y-35708D01*
X41215Y-35702D01*
X41196Y-35694D01*
X41175Y-35679D01*
X41161Y-35665D01*
X41146Y-35642D01*
X41139Y-35624D01*
X41134Y-35598D01*
X41135Y-35578D01*
X41140Y-35552D01*
X41148Y-35534D01*
X41163Y-35512D01*
X41177Y-35498D01*
X41200Y-35483D01*
X41218Y-35476D01*
X41244Y-35471D01*
X41264Y-35471D01*
X41290Y-35476D01*
X41308Y-35484D01*
X41331Y-35499D01*
X41344Y-35513D01*
X41359Y-35535D01*
X41367Y-35553D01*
X41372Y-35579D01*
X41372Y-35579D01*
G37*
G36*
X41382Y-34899D02*
X41382Y-34923D01*
X41376Y-34948D01*
X41368Y-34967D01*
X41352Y-34988D01*
X41338Y-35002D01*
X41316Y-35017D01*
X41297Y-35024D01*
X41271Y-35028D01*
X41251Y-35028D01*
X41225Y-35022D01*
X41206Y-35014D01*
X41185Y-34999D01*
X41171Y-34985D01*
X41156Y-34962D01*
X41149Y-34944D01*
X41144Y-34918D01*
X41145Y-34898D01*
X41150Y-34872D01*
X41158Y-34854D01*
X41173Y-34832D01*
X41187Y-34818D01*
X41210Y-34803D01*
X41228Y-34796D01*
X41254Y-34791D01*
X41274Y-34791D01*
X41300Y-34796D01*
X41318Y-34804D01*
X41341Y-34819D01*
X41354Y-34833D01*
X41369Y-34855D01*
X41377Y-34873D01*
X41382Y-34899D01*
X41382Y-34899D01*
G37*
G36*
X43155Y-27520D02*
X43154Y-27588D01*
X43140Y-27651D01*
X43116Y-27705D01*
X43078Y-27758D01*
X43036Y-27798D01*
X42981Y-27833D01*
X42926Y-27854D01*
X42862Y-27865D01*
X42804Y-27864D01*
X42740Y-27850D01*
X42686Y-27827D01*
X42633Y-27790D01*
X42592Y-27747D01*
X42557Y-27693D01*
X42536Y-27638D01*
X42524Y-27574D01*
X42525Y-27516D01*
X42538Y-27452D01*
X42561Y-27398D01*
X42598Y-27345D01*
X42640Y-27304D01*
X42694Y-27268D01*
X42748Y-27246D01*
X42813Y-27234D01*
X42871Y-27234D01*
X42935Y-27248D01*
X42988Y-27270D01*
X43043Y-27307D01*
X43084Y-27348D01*
X43120Y-27403D01*
X43142Y-27456D01*
X43155Y-27520D01*
X43155Y-27520D01*
G37*
G36*
X43155Y-28520D02*
X43154Y-28588D01*
X43140Y-28651D01*
X43116Y-28705D01*
X43078Y-28758D01*
X43036Y-28798D01*
X42981Y-28833D01*
X42926Y-28854D01*
X42862Y-28865D01*
X42804Y-28864D01*
X42740Y-28850D01*
X42686Y-28827D01*
X42633Y-28790D01*
X42592Y-28747D01*
X42557Y-28693D01*
X42536Y-28638D01*
X42524Y-28574D01*
X42525Y-28516D01*
X42538Y-28452D01*
X42561Y-28398D01*
X42598Y-28345D01*
X42640Y-28304D01*
X42694Y-28268D01*
X42748Y-28246D01*
X42813Y-28234D01*
X42871Y-28234D01*
X42935Y-28248D01*
X42988Y-28270D01*
X43043Y-28307D01*
X43084Y-28348D01*
X43120Y-28403D01*
X43142Y-28456D01*
X43155Y-28520D01*
X43155Y-28520D01*
G37*
G36*
X43155Y-29520D02*
X43154Y-29588D01*
X43140Y-29651D01*
X43116Y-29705D01*
X43078Y-29758D01*
X43036Y-29798D01*
X42981Y-29833D01*
X42926Y-29854D01*
X42862Y-29865D01*
X42804Y-29864D01*
X42740Y-29850D01*
X42686Y-29827D01*
X42633Y-29790D01*
X42592Y-29747D01*
X42557Y-29693D01*
X42536Y-29638D01*
X42524Y-29574D01*
X42525Y-29516D01*
X42538Y-29452D01*
X42561Y-29398D01*
X42598Y-29345D01*
X42640Y-29304D01*
X42694Y-29268D01*
X42748Y-29246D01*
X42813Y-29234D01*
X42871Y-29234D01*
X42935Y-29248D01*
X42988Y-29270D01*
X43043Y-29307D01*
X43084Y-29348D01*
X43120Y-29403D01*
X43142Y-29456D01*
X43155Y-29520D01*
X43155Y-29520D01*
G37*
G36*
X43155Y-30520D02*
X43154Y-30588D01*
X43140Y-30651D01*
X43116Y-30705D01*
X43078Y-30758D01*
X43036Y-30798D01*
X42981Y-30833D01*
X42926Y-30854D01*
X42862Y-30865D01*
X42804Y-30864D01*
X42740Y-30850D01*
X42686Y-30827D01*
X42633Y-30790D01*
X42592Y-30747D01*
X42557Y-30693D01*
X42536Y-30638D01*
X42524Y-30574D01*
X42525Y-30516D01*
X42538Y-30452D01*
X42561Y-30398D01*
X42598Y-30345D01*
X42640Y-30304D01*
X42694Y-30268D01*
X42748Y-30246D01*
X42813Y-30234D01*
X42871Y-30234D01*
X42935Y-30248D01*
X42988Y-30270D01*
X43043Y-30307D01*
X43084Y-30348D01*
X43120Y-30403D01*
X43142Y-30456D01*
X43155Y-30520D01*
X43155Y-30520D01*
G37*
G36*
X43155Y-31520D02*
X43154Y-31588D01*
X43140Y-31651D01*
X43116Y-31705D01*
X43078Y-31758D01*
X43036Y-31798D01*
X42981Y-31833D01*
X42926Y-31854D01*
X42862Y-31865D01*
X42804Y-31864D01*
X42740Y-31850D01*
X42686Y-31827D01*
X42633Y-31790D01*
X42592Y-31747D01*
X42557Y-31693D01*
X42536Y-31638D01*
X42524Y-31574D01*
X42525Y-31516D01*
X42538Y-31452D01*
X42561Y-31398D01*
X42598Y-31345D01*
X42640Y-31304D01*
X42694Y-31268D01*
X42748Y-31246D01*
X42813Y-31234D01*
X42871Y-31234D01*
X42935Y-31248D01*
X42988Y-31270D01*
X43043Y-31307D01*
X43084Y-31348D01*
X43120Y-31403D01*
X43142Y-31456D01*
X43155Y-31520D01*
X43155Y-31520D01*
G37*
G36*
X43155Y-32520D02*
X43154Y-32588D01*
X43140Y-32651D01*
X43116Y-32705D01*
X43078Y-32758D01*
X43036Y-32798D01*
X42981Y-32833D01*
X42926Y-32854D01*
X42862Y-32865D01*
X42804Y-32864D01*
X42740Y-32850D01*
X42686Y-32827D01*
X42633Y-32790D01*
X42592Y-32747D01*
X42557Y-32693D01*
X42536Y-32638D01*
X42524Y-32574D01*
X42525Y-32516D01*
X42538Y-32452D01*
X42561Y-32398D01*
X42598Y-32345D01*
X42640Y-32304D01*
X42694Y-32268D01*
X42748Y-32246D01*
X42813Y-32234D01*
X42871Y-32234D01*
X42935Y-32248D01*
X42988Y-32270D01*
X43043Y-32307D01*
X43084Y-32348D01*
X43120Y-32403D01*
X43142Y-32456D01*
X43155Y-32520D01*
X43155Y-32520D01*
G37*
G36*
X43155Y-33520D02*
X43154Y-33588D01*
X43140Y-33651D01*
X43116Y-33705D01*
X43078Y-33758D01*
X43036Y-33798D01*
X42981Y-33833D01*
X42926Y-33854D01*
X42862Y-33865D01*
X42804Y-33864D01*
X42740Y-33850D01*
X42686Y-33827D01*
X42633Y-33790D01*
X42592Y-33747D01*
X42557Y-33693D01*
X42536Y-33638D01*
X42524Y-33574D01*
X42525Y-33516D01*
X42538Y-33452D01*
X42561Y-33398D01*
X42598Y-33345D01*
X42640Y-33304D01*
X42694Y-33268D01*
X42748Y-33246D01*
X42813Y-33234D01*
X42871Y-33234D01*
X42935Y-33248D01*
X42988Y-33270D01*
X43043Y-33307D01*
X43084Y-33348D01*
X43120Y-33403D01*
X43142Y-33456D01*
X43155Y-33520D01*
X43155Y-33520D01*
G37*
G36*
X43425Y-43265D02*
X43423Y-43344D01*
X43408Y-43412D01*
X43380Y-43476D01*
X43340Y-43533D01*
X43289Y-43581D01*
X43230Y-43618D01*
X43165Y-43643D01*
X43097Y-43655D01*
X43027Y-43654D01*
X42959Y-43639D01*
X42895Y-43611D01*
X42838Y-43571D01*
X42790Y-43521D01*
X42752Y-43463D01*
X42727Y-43398D01*
X42714Y-43329D01*
X42715Y-43260D01*
X42729Y-43192D01*
X42757Y-43128D01*
X42796Y-43070D01*
X42846Y-43021D01*
X42904Y-42983D01*
X42969Y-42957D01*
X43037Y-42944D01*
X43107Y-42945D01*
X43175Y-42959D01*
X43239Y-42986D01*
X43297Y-43025D01*
X43346Y-43074D01*
X43384Y-43132D01*
X43411Y-43196D01*
X43425Y-43265D01*
X43425Y-43265D01*
G37*
G36*
X43425Y-44265D02*
X43423Y-44344D01*
X43408Y-44412D01*
X43380Y-44476D01*
X43340Y-44533D01*
X43289Y-44581D01*
X43230Y-44618D01*
X43165Y-44643D01*
X43097Y-44655D01*
X43027Y-44654D01*
X42959Y-44639D01*
X42895Y-44611D01*
X42838Y-44571D01*
X42790Y-44521D01*
X42752Y-44463D01*
X42727Y-44398D01*
X42714Y-44329D01*
X42715Y-44260D01*
X42729Y-44192D01*
X42757Y-44128D01*
X42796Y-44070D01*
X42846Y-44021D01*
X42904Y-43983D01*
X42969Y-43957D01*
X43037Y-43944D01*
X43107Y-43945D01*
X43175Y-43959D01*
X43239Y-43986D01*
X43297Y-44025D01*
X43346Y-44074D01*
X43384Y-44132D01*
X43411Y-44196D01*
X43425Y-44265D01*
X43425Y-44265D01*
G37*
G36*
X43425Y-45265D02*
X43423Y-45344D01*
X43408Y-45412D01*
X43380Y-45476D01*
X43340Y-45533D01*
X43289Y-45581D01*
X43230Y-45618D01*
X43165Y-45643D01*
X43097Y-45655D01*
X43027Y-45654D01*
X42959Y-45639D01*
X42895Y-45611D01*
X42838Y-45571D01*
X42790Y-45521D01*
X42752Y-45463D01*
X42727Y-45398D01*
X42714Y-45329D01*
X42715Y-45260D01*
X42729Y-45192D01*
X42757Y-45128D01*
X42796Y-45070D01*
X42846Y-45021D01*
X42904Y-44983D01*
X42969Y-44957D01*
X43037Y-44944D01*
X43107Y-44945D01*
X43175Y-44959D01*
X43239Y-44986D01*
X43297Y-45025D01*
X43346Y-45074D01*
X43384Y-45132D01*
X43411Y-45196D01*
X43425Y-45265D01*
X43425Y-45265D01*
G37*
G36*
X43425Y-46265D02*
X43423Y-46344D01*
X43408Y-46412D01*
X43380Y-46476D01*
X43340Y-46533D01*
X43289Y-46581D01*
X43230Y-46618D01*
X43165Y-46643D01*
X43097Y-46655D01*
X43027Y-46654D01*
X42959Y-46639D01*
X42895Y-46611D01*
X42838Y-46571D01*
X42790Y-46521D01*
X42752Y-46463D01*
X42727Y-46398D01*
X42714Y-46329D01*
X42715Y-46260D01*
X42729Y-46192D01*
X42757Y-46128D01*
X42796Y-46070D01*
X42846Y-46021D01*
X42904Y-45983D01*
X42969Y-45957D01*
X43037Y-45944D01*
X43107Y-45945D01*
X43175Y-45959D01*
X43239Y-45986D01*
X43297Y-46025D01*
X43346Y-46074D01*
X43384Y-46132D01*
X43411Y-46196D01*
X43425Y-46265D01*
X43425Y-46265D01*
G37*
G36*
X43425Y-47265D02*
X43423Y-47344D01*
X43408Y-47412D01*
X43380Y-47476D01*
X43340Y-47533D01*
X43289Y-47581D01*
X43230Y-47618D01*
X43165Y-47643D01*
X43097Y-47655D01*
X43027Y-47654D01*
X42959Y-47639D01*
X42895Y-47611D01*
X42838Y-47571D01*
X42790Y-47521D01*
X42752Y-47463D01*
X42727Y-47398D01*
X42714Y-47329D01*
X42715Y-47260D01*
X42729Y-47192D01*
X42757Y-47128D01*
X42796Y-47070D01*
X42846Y-47021D01*
X42904Y-46983D01*
X42969Y-46957D01*
X43037Y-46944D01*
X43107Y-46945D01*
X43175Y-46959D01*
X43239Y-46986D01*
X43297Y-47025D01*
X43346Y-47074D01*
X43384Y-47132D01*
X43411Y-47196D01*
X43425Y-47265D01*
X43425Y-47265D01*
G37*
G36*
X43425Y-48265D02*
X43423Y-48344D01*
X43408Y-48412D01*
X43380Y-48476D01*
X43340Y-48533D01*
X43289Y-48581D01*
X43230Y-48618D01*
X43165Y-48643D01*
X43097Y-48655D01*
X43027Y-48654D01*
X42959Y-48639D01*
X42895Y-48611D01*
X42838Y-48571D01*
X42790Y-48521D01*
X42752Y-48463D01*
X42727Y-48398D01*
X42714Y-48329D01*
X42715Y-48260D01*
X42729Y-48192D01*
X42757Y-48128D01*
X42796Y-48070D01*
X42846Y-48021D01*
X42904Y-47983D01*
X42969Y-47957D01*
X43037Y-47944D01*
X43107Y-47945D01*
X43175Y-47959D01*
X43239Y-47986D01*
X43297Y-48025D01*
X43346Y-48074D01*
X43384Y-48132D01*
X43411Y-48196D01*
X43425Y-48265D01*
X43425Y-48265D01*
G37*
G36*
X43425Y-37266D02*
X43424Y-37343D01*
X43408Y-37414D01*
X43381Y-37475D01*
X43339Y-37534D01*
X43290Y-37580D01*
X43229Y-37619D01*
X43167Y-37643D01*
X43095Y-37655D01*
X43029Y-37654D01*
X42958Y-37638D01*
X42897Y-37612D01*
X42837Y-37570D01*
X42791Y-37522D01*
X42751Y-37461D01*
X42727Y-37399D01*
X42714Y-37328D01*
X42715Y-37261D01*
X42730Y-37190D01*
X42756Y-37129D01*
X42797Y-37069D01*
X42844Y-37022D01*
X42906Y-36982D01*
X42967Y-36958D01*
X43039Y-36944D01*
X43105Y-36944D01*
X43177Y-36959D01*
X43238Y-36985D01*
X43298Y-37026D01*
X43345Y-37072D01*
X43386Y-37134D01*
X43411Y-37194D01*
X43425Y-37266D01*
X43425Y-37266D01*
G37*
G36*
X43425Y-38266D02*
X43424Y-38343D01*
X43408Y-38414D01*
X43381Y-38475D01*
X43339Y-38534D01*
X43290Y-38580D01*
X43229Y-38619D01*
X43167Y-38643D01*
X43095Y-38655D01*
X43029Y-38654D01*
X42958Y-38638D01*
X42897Y-38612D01*
X42837Y-38570D01*
X42791Y-38522D01*
X42751Y-38461D01*
X42727Y-38399D01*
X42714Y-38328D01*
X42715Y-38261D01*
X42730Y-38190D01*
X42756Y-38129D01*
X42797Y-38069D01*
X42844Y-38022D01*
X42906Y-37982D01*
X42967Y-37958D01*
X43039Y-37944D01*
X43105Y-37944D01*
X43177Y-37959D01*
X43238Y-37985D01*
X43298Y-38026D01*
X43345Y-38072D01*
X43386Y-38134D01*
X43411Y-38194D01*
X43425Y-38266D01*
X43425Y-38266D01*
G37*
G36*
X43425Y-39266D02*
X43424Y-39343D01*
X43408Y-39414D01*
X43381Y-39475D01*
X43339Y-39534D01*
X43290Y-39580D01*
X43229Y-39619D01*
X43167Y-39643D01*
X43095Y-39655D01*
X43029Y-39654D01*
X42958Y-39638D01*
X42897Y-39612D01*
X42837Y-39570D01*
X42791Y-39522D01*
X42751Y-39461D01*
X42727Y-39399D01*
X42714Y-39328D01*
X42715Y-39261D01*
X42730Y-39190D01*
X42756Y-39129D01*
X42797Y-39069D01*
X42844Y-39022D01*
X42906Y-38982D01*
X42967Y-38958D01*
X43039Y-38944D01*
X43105Y-38944D01*
X43177Y-38959D01*
X43238Y-38985D01*
X43298Y-39026D01*
X43345Y-39072D01*
X43386Y-39134D01*
X43411Y-39194D01*
X43425Y-39266D01*
X43425Y-39266D01*
G37*
G36*
X43425Y-40266D02*
X43424Y-40343D01*
X43408Y-40414D01*
X43381Y-40475D01*
X43339Y-40534D01*
X43290Y-40580D01*
X43229Y-40619D01*
X43167Y-40643D01*
X43095Y-40655D01*
X43029Y-40654D01*
X42958Y-40638D01*
X42897Y-40612D01*
X42837Y-40570D01*
X42791Y-40522D01*
X42751Y-40461D01*
X42727Y-40399D01*
X42714Y-40328D01*
X42715Y-40261D01*
X42730Y-40190D01*
X42756Y-40129D01*
X42797Y-40069D01*
X42844Y-40022D01*
X42906Y-39982D01*
X42967Y-39958D01*
X43039Y-39944D01*
X43105Y-39944D01*
X43177Y-39959D01*
X43238Y-39985D01*
X43298Y-40026D01*
X43345Y-40072D01*
X43386Y-40134D01*
X43411Y-40194D01*
X43425Y-40266D01*
X43425Y-40266D01*
G37*
G36*
X43425Y-41266D02*
X43424Y-41343D01*
X43408Y-41414D01*
X43381Y-41475D01*
X43339Y-41534D01*
X43290Y-41580D01*
X43229Y-41619D01*
X43167Y-41643D01*
X43095Y-41655D01*
X43029Y-41654D01*
X42958Y-41638D01*
X42897Y-41612D01*
X42837Y-41570D01*
X42791Y-41522D01*
X42751Y-41461D01*
X42727Y-41399D01*
X42714Y-41328D01*
X42715Y-41261D01*
X42730Y-41190D01*
X42756Y-41129D01*
X42797Y-41069D01*
X42844Y-41022D01*
X42906Y-40982D01*
X42967Y-40958D01*
X43039Y-40944D01*
X43105Y-40944D01*
X43177Y-40959D01*
X43238Y-40985D01*
X43298Y-41026D01*
X43345Y-41072D01*
X43386Y-41134D01*
X43411Y-41194D01*
X43425Y-41266D01*
X43425Y-41266D01*
G37*
G36*
X43425Y-42266D02*
X43424Y-42343D01*
X43408Y-42414D01*
X43381Y-42475D01*
X43339Y-42534D01*
X43290Y-42580D01*
X43229Y-42619D01*
X43167Y-42643D01*
X43095Y-42655D01*
X43029Y-42654D01*
X42958Y-42638D01*
X42897Y-42612D01*
X42837Y-42570D01*
X42791Y-42522D01*
X42751Y-42461D01*
X42727Y-42399D01*
X42714Y-42328D01*
X42715Y-42261D01*
X42730Y-42190D01*
X42756Y-42129D01*
X42797Y-42069D01*
X42844Y-42022D01*
X42906Y-41982D01*
X42967Y-41958D01*
X43039Y-41944D01*
X43105Y-41944D01*
X43177Y-41959D01*
X43238Y-41985D01*
X43298Y-42026D01*
X43345Y-42072D01*
X43386Y-42134D01*
X43411Y-42194D01*
X43425Y-42266D01*
X43425Y-42266D01*
G37*
G36*
X44568Y-41236D02*
X44568Y-41259D01*
X44562Y-41285D01*
X44554Y-41303D01*
X44539Y-41325D01*
X44524Y-41339D01*
X44502Y-41353D01*
X44483Y-41360D01*
X44457Y-41365D01*
X44437Y-41364D01*
X44411Y-41359D01*
X44393Y-41351D01*
X44371Y-41335D01*
X44357Y-41321D01*
X44343Y-41299D01*
X44335Y-41280D01*
X44331Y-41254D01*
X44331Y-41234D01*
X44336Y-41208D01*
X44344Y-41190D01*
X44359Y-41168D01*
X44373Y-41154D01*
X44396Y-41139D01*
X44414Y-41132D01*
X44441Y-41127D01*
X44460Y-41127D01*
X44487Y-41132D01*
X44505Y-41140D01*
X44527Y-41155D01*
X44541Y-41169D01*
X44556Y-41192D01*
X44563Y-41209D01*
X44568Y-41236D01*
X44568Y-41236D01*
G37*
G36*
X44568Y-41629D02*
X44568Y-41653D01*
X44562Y-41678D01*
X44554Y-41697D01*
X44539Y-41718D01*
X44524Y-41732D01*
X44502Y-41747D01*
X44483Y-41754D01*
X44457Y-41758D01*
X44437Y-41758D01*
X44411Y-41752D01*
X44393Y-41744D01*
X44371Y-41729D01*
X44357Y-41715D01*
X44343Y-41692D01*
X44335Y-41674D01*
X44331Y-41648D01*
X44331Y-41628D01*
X44336Y-41602D01*
X44344Y-41584D01*
X44359Y-41562D01*
X44373Y-41548D01*
X44396Y-41533D01*
X44414Y-41526D01*
X44441Y-41521D01*
X44460Y-41521D01*
X44487Y-41526D01*
X44505Y-41534D01*
X44527Y-41549D01*
X44541Y-41563D01*
X44556Y-41585D01*
X44563Y-41603D01*
X44568Y-41629D01*
X44568Y-41629D01*
G37*
G36*
X44568Y-42023D02*
X44568Y-42047D01*
X44562Y-42072D01*
X44554Y-42091D01*
X44539Y-42112D01*
X44524Y-42126D01*
X44502Y-42140D01*
X44483Y-42148D01*
X44457Y-42152D01*
X44437Y-42152D01*
X44411Y-42146D01*
X44393Y-42138D01*
X44371Y-42123D01*
X44357Y-42108D01*
X44343Y-42086D01*
X44335Y-42068D01*
X44331Y-42041D01*
X44331Y-42022D01*
X44336Y-41996D01*
X44344Y-41977D01*
X44359Y-41955D01*
X44373Y-41941D01*
X44396Y-41927D01*
X44414Y-41919D01*
X44441Y-41914D01*
X44460Y-41914D01*
X44487Y-41920D01*
X44505Y-41927D01*
X44527Y-41943D01*
X44541Y-41956D01*
X44556Y-41979D01*
X44563Y-41997D01*
X44568Y-42023D01*
X44568Y-42023D01*
G37*
G36*
X44578Y-29956D02*
X44578Y-29979D01*
X44572Y-30005D01*
X44564Y-30023D01*
X44549Y-30045D01*
X44534Y-30059D01*
X44512Y-30073D01*
X44493Y-30080D01*
X44467Y-30085D01*
X44447Y-30084D01*
X44421Y-30079D01*
X44403Y-30071D01*
X44381Y-30055D01*
X44367Y-30041D01*
X44353Y-30019D01*
X44345Y-30000D01*
X44341Y-29974D01*
X44341Y-29954D01*
X44346Y-29928D01*
X44354Y-29910D01*
X44369Y-29888D01*
X44383Y-29874D01*
X44406Y-29859D01*
X44424Y-29852D01*
X44451Y-29847D01*
X44470Y-29847D01*
X44497Y-29852D01*
X44515Y-29860D01*
X44537Y-29875D01*
X44551Y-29889D01*
X44566Y-29912D01*
X44573Y-29929D01*
X44578Y-29956D01*
X44578Y-29956D01*
G37*
G36*
X44578Y-30349D02*
X44578Y-30373D01*
X44572Y-30398D01*
X44564Y-30417D01*
X44549Y-30438D01*
X44534Y-30452D01*
X44512Y-30467D01*
X44493Y-30474D01*
X44467Y-30478D01*
X44447Y-30478D01*
X44421Y-30472D01*
X44403Y-30464D01*
X44381Y-30449D01*
X44367Y-30435D01*
X44353Y-30412D01*
X44345Y-30394D01*
X44341Y-30368D01*
X44341Y-30348D01*
X44346Y-30322D01*
X44354Y-30304D01*
X44369Y-30282D01*
X44383Y-30268D01*
X44406Y-30253D01*
X44424Y-30246D01*
X44451Y-30241D01*
X44470Y-30241D01*
X44497Y-30246D01*
X44515Y-30254D01*
X44537Y-30269D01*
X44551Y-30283D01*
X44566Y-30305D01*
X44573Y-30323D01*
X44578Y-30349D01*
X44578Y-30349D01*
G37*
G36*
X44578Y-30743D02*
X44578Y-30767D01*
X44572Y-30792D01*
X44564Y-30811D01*
X44549Y-30832D01*
X44534Y-30846D01*
X44512Y-30860D01*
X44493Y-30868D01*
X44467Y-30872D01*
X44447Y-30872D01*
X44421Y-30866D01*
X44403Y-30858D01*
X44381Y-30843D01*
X44367Y-30828D01*
X44353Y-30806D01*
X44345Y-30788D01*
X44341Y-30761D01*
X44341Y-30742D01*
X44346Y-30716D01*
X44354Y-30697D01*
X44369Y-30675D01*
X44383Y-30661D01*
X44406Y-30647D01*
X44424Y-30639D01*
X44451Y-30634D01*
X44470Y-30634D01*
X44497Y-30640D01*
X44515Y-30647D01*
X44537Y-30663D01*
X44551Y-30676D01*
X44566Y-30699D01*
X44573Y-30717D01*
X44578Y-30743D01*
X44578Y-30743D01*
G37*
G36*
X45148Y-29956D02*
X45148Y-29979D01*
X45142Y-30005D01*
X45134Y-30023D01*
X45119Y-30045D01*
X45104Y-30059D01*
X45082Y-30073D01*
X45063Y-30080D01*
X45037Y-30085D01*
X45017Y-30084D01*
X44991Y-30079D01*
X44973Y-30071D01*
X44951Y-30055D01*
X44937Y-30041D01*
X44923Y-30019D01*
X44915Y-30000D01*
X44911Y-29974D01*
X44911Y-29954D01*
X44916Y-29928D01*
X44924Y-29910D01*
X44939Y-29888D01*
X44953Y-29874D01*
X44976Y-29859D01*
X44994Y-29852D01*
X45021Y-29847D01*
X45040Y-29847D01*
X45067Y-29852D01*
X45085Y-29860D01*
X45107Y-29875D01*
X45121Y-29889D01*
X45136Y-29912D01*
X45143Y-29929D01*
X45148Y-29956D01*
X45148Y-29956D01*
G37*
G36*
X45148Y-30349D02*
X45148Y-30373D01*
X45142Y-30398D01*
X45134Y-30417D01*
X45119Y-30438D01*
X45104Y-30452D01*
X45082Y-30467D01*
X45063Y-30474D01*
X45037Y-30478D01*
X45017Y-30478D01*
X44991Y-30472D01*
X44973Y-30464D01*
X44951Y-30449D01*
X44937Y-30435D01*
X44923Y-30412D01*
X44915Y-30394D01*
X44911Y-30368D01*
X44911Y-30348D01*
X44916Y-30322D01*
X44924Y-30304D01*
X44939Y-30282D01*
X44953Y-30268D01*
X44976Y-30253D01*
X44994Y-30246D01*
X45021Y-30241D01*
X45040Y-30241D01*
X45067Y-30246D01*
X45085Y-30254D01*
X45107Y-30269D01*
X45121Y-30283D01*
X45136Y-30305D01*
X45143Y-30323D01*
X45148Y-30349D01*
X45148Y-30349D01*
G37*
G36*
X45148Y-30743D02*
X45148Y-30767D01*
X45142Y-30792D01*
X45134Y-30811D01*
X45119Y-30832D01*
X45104Y-30846D01*
X45082Y-30860D01*
X45063Y-30868D01*
X45037Y-30872D01*
X45017Y-30872D01*
X44991Y-30866D01*
X44973Y-30858D01*
X44951Y-30843D01*
X44937Y-30828D01*
X44923Y-30806D01*
X44915Y-30788D01*
X44911Y-30761D01*
X44911Y-30742D01*
X44916Y-30716D01*
X44924Y-30697D01*
X44939Y-30675D01*
X44953Y-30661D01*
X44976Y-30647D01*
X44994Y-30639D01*
X45021Y-30634D01*
X45040Y-30634D01*
X45067Y-30640D01*
X45085Y-30647D01*
X45107Y-30663D01*
X45121Y-30676D01*
X45136Y-30699D01*
X45143Y-30717D01*
X45148Y-30743D01*
X45148Y-30743D01*
G37*
G36*
X45178Y-41236D02*
X45178Y-41259D01*
X45172Y-41285D01*
X45164Y-41303D01*
X45149Y-41325D01*
X45134Y-41339D01*
X45112Y-41353D01*
X45093Y-41360D01*
X45067Y-41365D01*
X45047Y-41364D01*
X45021Y-41359D01*
X45003Y-41351D01*
X44981Y-41335D01*
X44967Y-41321D01*
X44953Y-41299D01*
X44945Y-41280D01*
X44941Y-41254D01*
X44941Y-41234D01*
X44946Y-41208D01*
X44954Y-41190D01*
X44969Y-41168D01*
X44983Y-41154D01*
X45006Y-41139D01*
X45024Y-41132D01*
X45051Y-41127D01*
X45070Y-41127D01*
X45097Y-41132D01*
X45115Y-41140D01*
X45137Y-41155D01*
X45151Y-41169D01*
X45166Y-41192D01*
X45173Y-41209D01*
X45178Y-41236D01*
X45178Y-41236D01*
G37*
G36*
X45178Y-41629D02*
X45178Y-41653D01*
X45172Y-41678D01*
X45164Y-41697D01*
X45149Y-41718D01*
X45134Y-41732D01*
X45112Y-41747D01*
X45093Y-41754D01*
X45067Y-41758D01*
X45047Y-41758D01*
X45021Y-41752D01*
X45003Y-41744D01*
X44981Y-41729D01*
X44967Y-41715D01*
X44953Y-41692D01*
X44945Y-41674D01*
X44941Y-41648D01*
X44941Y-41628D01*
X44946Y-41602D01*
X44954Y-41584D01*
X44969Y-41562D01*
X44983Y-41548D01*
X45006Y-41533D01*
X45024Y-41526D01*
X45051Y-41521D01*
X45070Y-41521D01*
X45097Y-41526D01*
X45115Y-41534D01*
X45137Y-41549D01*
X45151Y-41563D01*
X45166Y-41585D01*
X45173Y-41603D01*
X45178Y-41629D01*
X45178Y-41629D01*
G37*
G36*
X45178Y-42023D02*
X45178Y-42047D01*
X45172Y-42072D01*
X45164Y-42091D01*
X45149Y-42112D01*
X45134Y-42126D01*
X45112Y-42140D01*
X45093Y-42148D01*
X45067Y-42152D01*
X45047Y-42152D01*
X45021Y-42146D01*
X45003Y-42138D01*
X44981Y-42123D01*
X44967Y-42108D01*
X44953Y-42086D01*
X44945Y-42068D01*
X44941Y-42041D01*
X44941Y-42022D01*
X44946Y-41996D01*
X44954Y-41977D01*
X44969Y-41955D01*
X44983Y-41941D01*
X45006Y-41927D01*
X45024Y-41919D01*
X45051Y-41914D01*
X45070Y-41914D01*
X45097Y-41920D01*
X45115Y-41927D01*
X45137Y-41943D01*
X45151Y-41956D01*
X45166Y-41979D01*
X45173Y-41997D01*
X45178Y-42023D01*
X45178Y-42023D01*
G37*
G36*
X47275Y-43349D02*
X47274Y-43419D01*
X47260Y-43479D01*
X47235Y-43536D01*
X47199Y-43586D01*
X47154Y-43629D01*
X47102Y-43662D01*
X47045Y-43684D01*
X46984Y-43695D01*
X46922Y-43694D01*
X46862Y-43681D01*
X46805Y-43656D01*
X46754Y-43621D01*
X46711Y-43576D01*
X46678Y-43524D01*
X46655Y-43467D01*
X46644Y-43406D01*
X46645Y-43344D01*
X46658Y-43284D01*
X46682Y-43227D01*
X46717Y-43176D01*
X46761Y-43133D01*
X46813Y-43099D01*
X46870Y-43076D01*
X46931Y-43064D01*
X46993Y-43065D01*
X47053Y-43077D01*
X47110Y-43101D01*
X47161Y-43136D01*
X47205Y-43179D01*
X47239Y-43231D01*
X47263Y-43288D01*
X47275Y-43349D01*
X47275Y-43349D01*
G37*
G36*
X47275Y-44349D02*
X47274Y-44419D01*
X47260Y-44479D01*
X47235Y-44536D01*
X47199Y-44586D01*
X47154Y-44629D01*
X47102Y-44662D01*
X47045Y-44684D01*
X46984Y-44695D01*
X46922Y-44694D01*
X46862Y-44681D01*
X46805Y-44656D01*
X46754Y-44621D01*
X46711Y-44576D01*
X46678Y-44524D01*
X46655Y-44467D01*
X46644Y-44406D01*
X46645Y-44344D01*
X46658Y-44284D01*
X46682Y-44227D01*
X46717Y-44176D01*
X46761Y-44133D01*
X46813Y-44099D01*
X46870Y-44076D01*
X46931Y-44064D01*
X46993Y-44065D01*
X47053Y-44077D01*
X47110Y-44101D01*
X47161Y-44136D01*
X47205Y-44179D01*
X47239Y-44231D01*
X47263Y-44288D01*
X47275Y-44349D01*
X47275Y-44349D01*
G37*
G36*
X47275Y-45349D02*
X47274Y-45419D01*
X47260Y-45479D01*
X47235Y-45536D01*
X47199Y-45586D01*
X47154Y-45629D01*
X47102Y-45662D01*
X47045Y-45684D01*
X46984Y-45695D01*
X46922Y-45694D01*
X46862Y-45681D01*
X46805Y-45656D01*
X46754Y-45621D01*
X46711Y-45576D01*
X46678Y-45524D01*
X46655Y-45467D01*
X46644Y-45406D01*
X46645Y-45344D01*
X46658Y-45284D01*
X46682Y-45227D01*
X46717Y-45176D01*
X46761Y-45133D01*
X46813Y-45099D01*
X46870Y-45076D01*
X46931Y-45064D01*
X46993Y-45065D01*
X47053Y-45077D01*
X47110Y-45101D01*
X47161Y-45136D01*
X47205Y-45179D01*
X47239Y-45231D01*
X47263Y-45288D01*
X47275Y-45349D01*
X47275Y-45349D01*
G37*
G36*
X47275Y-46349D02*
X47274Y-46419D01*
X47260Y-46479D01*
X47235Y-46536D01*
X47199Y-46586D01*
X47154Y-46629D01*
X47102Y-46662D01*
X47045Y-46684D01*
X46984Y-46695D01*
X46922Y-46694D01*
X46862Y-46681D01*
X46805Y-46656D01*
X46754Y-46621D01*
X46711Y-46576D01*
X46678Y-46524D01*
X46655Y-46467D01*
X46644Y-46406D01*
X46645Y-46344D01*
X46658Y-46284D01*
X46682Y-46227D01*
X46717Y-46176D01*
X46761Y-46133D01*
X46813Y-46099D01*
X46870Y-46076D01*
X46931Y-46064D01*
X46993Y-46065D01*
X47053Y-46077D01*
X47110Y-46101D01*
X47161Y-46136D01*
X47205Y-46179D01*
X47239Y-46231D01*
X47263Y-46288D01*
X47275Y-46349D01*
X47275Y-46349D01*
G37*
G36*
X47275Y-47349D02*
X47274Y-47419D01*
X47260Y-47479D01*
X47235Y-47536D01*
X47199Y-47586D01*
X47154Y-47629D01*
X47102Y-47662D01*
X47045Y-47684D01*
X46984Y-47695D01*
X46922Y-47694D01*
X46862Y-47681D01*
X46805Y-47656D01*
X46754Y-47621D01*
X46711Y-47576D01*
X46678Y-47524D01*
X46655Y-47467D01*
X46644Y-47406D01*
X46645Y-47344D01*
X46658Y-47284D01*
X46682Y-47227D01*
X46717Y-47176D01*
X46761Y-47133D01*
X46813Y-47099D01*
X46870Y-47076D01*
X46931Y-47064D01*
X46993Y-47065D01*
X47053Y-47077D01*
X47110Y-47101D01*
X47161Y-47136D01*
X47205Y-47179D01*
X47239Y-47231D01*
X47263Y-47288D01*
X47275Y-47349D01*
X47275Y-47349D01*
G37*
G36*
X47275Y-48349D02*
X47274Y-48419D01*
X47260Y-48479D01*
X47235Y-48536D01*
X47199Y-48586D01*
X47154Y-48629D01*
X47102Y-48662D01*
X47045Y-48684D01*
X46984Y-48695D01*
X46922Y-48694D01*
X46862Y-48681D01*
X46805Y-48656D01*
X46754Y-48621D01*
X46711Y-48576D01*
X46678Y-48524D01*
X46655Y-48467D01*
X46644Y-48406D01*
X46645Y-48344D01*
X46658Y-48284D01*
X46682Y-48227D01*
X46717Y-48176D01*
X46761Y-48133D01*
X46813Y-48099D01*
X46870Y-48076D01*
X46931Y-48064D01*
X46993Y-48065D01*
X47053Y-48077D01*
X47110Y-48101D01*
X47161Y-48136D01*
X47205Y-48179D01*
X47239Y-48231D01*
X47263Y-48288D01*
X47275Y-48349D01*
X47275Y-48349D01*
G37*
G36*
X47275Y-36350D02*
X47274Y-36418D01*
X47260Y-36481D01*
X47236Y-36535D01*
X47198Y-36588D01*
X47156Y-36628D01*
X47101Y-36663D01*
X47046Y-36684D01*
X46982Y-36695D01*
X46924Y-36694D01*
X46860Y-36680D01*
X46806Y-36657D01*
X46753Y-36620D01*
X46712Y-36577D01*
X46677Y-36523D01*
X46656Y-36468D01*
X46644Y-36404D01*
X46645Y-36346D01*
X46658Y-36282D01*
X46681Y-36228D01*
X46718Y-36175D01*
X46760Y-36134D01*
X46814Y-36098D01*
X46868Y-36076D01*
X46933Y-36064D01*
X46991Y-36064D01*
X47055Y-36078D01*
X47108Y-36100D01*
X47163Y-36137D01*
X47204Y-36178D01*
X47240Y-36233D01*
X47262Y-36286D01*
X47275Y-36350D01*
X47275Y-36350D01*
G37*
G36*
X47275Y-37350D02*
X47274Y-37418D01*
X47260Y-37481D01*
X47236Y-37535D01*
X47198Y-37588D01*
X47156Y-37628D01*
X47101Y-37663D01*
X47046Y-37684D01*
X46982Y-37695D01*
X46924Y-37694D01*
X46860Y-37680D01*
X46806Y-37657D01*
X46753Y-37620D01*
X46712Y-37577D01*
X46677Y-37523D01*
X46656Y-37468D01*
X46644Y-37404D01*
X46645Y-37346D01*
X46658Y-37282D01*
X46681Y-37228D01*
X46718Y-37175D01*
X46760Y-37134D01*
X46814Y-37098D01*
X46868Y-37076D01*
X46933Y-37064D01*
X46991Y-37064D01*
X47055Y-37078D01*
X47108Y-37100D01*
X47163Y-37137D01*
X47204Y-37178D01*
X47240Y-37233D01*
X47262Y-37286D01*
X47275Y-37350D01*
X47275Y-37350D01*
G37*
G36*
X47275Y-38350D02*
X47274Y-38418D01*
X47260Y-38481D01*
X47236Y-38535D01*
X47198Y-38588D01*
X47156Y-38628D01*
X47101Y-38663D01*
X47046Y-38684D01*
X46982Y-38695D01*
X46924Y-38694D01*
X46860Y-38680D01*
X46806Y-38657D01*
X46753Y-38620D01*
X46712Y-38577D01*
X46677Y-38523D01*
X46656Y-38468D01*
X46644Y-38404D01*
X46645Y-38346D01*
X46658Y-38282D01*
X46681Y-38228D01*
X46718Y-38175D01*
X46760Y-38134D01*
X46814Y-38098D01*
X46868Y-38076D01*
X46933Y-38064D01*
X46991Y-38064D01*
X47055Y-38078D01*
X47108Y-38100D01*
X47163Y-38137D01*
X47204Y-38178D01*
X47240Y-38233D01*
X47262Y-38286D01*
X47275Y-38350D01*
X47275Y-38350D01*
G37*
G36*
X47275Y-39350D02*
X47274Y-39418D01*
X47260Y-39481D01*
X47236Y-39535D01*
X47198Y-39588D01*
X47156Y-39628D01*
X47101Y-39663D01*
X47046Y-39684D01*
X46982Y-39695D01*
X46924Y-39694D01*
X46860Y-39680D01*
X46806Y-39657D01*
X46753Y-39620D01*
X46712Y-39577D01*
X46677Y-39523D01*
X46656Y-39468D01*
X46644Y-39404D01*
X46645Y-39346D01*
X46658Y-39282D01*
X46681Y-39228D01*
X46718Y-39175D01*
X46760Y-39134D01*
X46814Y-39098D01*
X46868Y-39076D01*
X46933Y-39064D01*
X46991Y-39064D01*
X47055Y-39078D01*
X47108Y-39100D01*
X47163Y-39137D01*
X47204Y-39178D01*
X47240Y-39233D01*
X47262Y-39286D01*
X47275Y-39350D01*
X47275Y-39350D01*
G37*
G36*
X47275Y-40350D02*
X47274Y-40418D01*
X47260Y-40481D01*
X47236Y-40535D01*
X47198Y-40588D01*
X47156Y-40628D01*
X47101Y-40663D01*
X47046Y-40684D01*
X46982Y-40695D01*
X46924Y-40694D01*
X46860Y-40680D01*
X46806Y-40657D01*
X46753Y-40620D01*
X46712Y-40577D01*
X46677Y-40523D01*
X46656Y-40468D01*
X46644Y-40404D01*
X46645Y-40346D01*
X46658Y-40282D01*
X46681Y-40228D01*
X46718Y-40175D01*
X46760Y-40134D01*
X46814Y-40098D01*
X46868Y-40076D01*
X46933Y-40064D01*
X46991Y-40064D01*
X47055Y-40078D01*
X47108Y-40100D01*
X47163Y-40137D01*
X47204Y-40178D01*
X47240Y-40233D01*
X47262Y-40286D01*
X47275Y-40350D01*
X47275Y-40350D01*
G37*
G36*
X47275Y-41350D02*
X47274Y-41418D01*
X47260Y-41481D01*
X47236Y-41535D01*
X47198Y-41588D01*
X47156Y-41628D01*
X47101Y-41663D01*
X47046Y-41684D01*
X46982Y-41695D01*
X46924Y-41694D01*
X46860Y-41680D01*
X46806Y-41657D01*
X46753Y-41620D01*
X46712Y-41577D01*
X46677Y-41523D01*
X46656Y-41468D01*
X46644Y-41404D01*
X46645Y-41346D01*
X46658Y-41282D01*
X46681Y-41228D01*
X46718Y-41175D01*
X46760Y-41134D01*
X46814Y-41098D01*
X46868Y-41076D01*
X46933Y-41064D01*
X46991Y-41064D01*
X47055Y-41078D01*
X47108Y-41100D01*
X47163Y-41137D01*
X47204Y-41178D01*
X47240Y-41233D01*
X47262Y-41286D01*
X47275Y-41350D01*
X47275Y-41350D01*
G37*
G36*
X47275Y-42350D02*
X47274Y-42418D01*
X47260Y-42481D01*
X47236Y-42535D01*
X47198Y-42588D01*
X47156Y-42628D01*
X47101Y-42663D01*
X47046Y-42684D01*
X46982Y-42695D01*
X46924Y-42694D01*
X46860Y-42680D01*
X46806Y-42657D01*
X46753Y-42620D01*
X46712Y-42577D01*
X46677Y-42523D01*
X46656Y-42468D01*
X46644Y-42404D01*
X46645Y-42346D01*
X46658Y-42282D01*
X46681Y-42228D01*
X46718Y-42175D01*
X46760Y-42134D01*
X46814Y-42098D01*
X46868Y-42076D01*
X46933Y-42064D01*
X46991Y-42064D01*
X47055Y-42078D01*
X47108Y-42100D01*
X47163Y-42137D01*
X47204Y-42178D01*
X47240Y-42233D01*
X47262Y-42286D01*
X47275Y-42350D01*
X47275Y-42350D01*
G37*
G36*
X47275Y-35695D02*
X46644Y-35695D01*
X46644Y-35064D01*
X47275Y-35064D01*
X47275Y-35695D01*
X47275Y-35695D01*
G37*
G36*
X50275Y-43349D02*
X50274Y-43419D01*
X50260Y-43479D01*
X50235Y-43536D01*
X50199Y-43586D01*
X50154Y-43629D01*
X50102Y-43662D01*
X50045Y-43684D01*
X49984Y-43695D01*
X49922Y-43694D01*
X49862Y-43681D01*
X49805Y-43656D01*
X49754Y-43621D01*
X49711Y-43576D01*
X49678Y-43524D01*
X49655Y-43467D01*
X49644Y-43406D01*
X49645Y-43344D01*
X49658Y-43284D01*
X49682Y-43227D01*
X49717Y-43176D01*
X49761Y-43133D01*
X49813Y-43099D01*
X49870Y-43076D01*
X49931Y-43064D01*
X49993Y-43065D01*
X50053Y-43077D01*
X50110Y-43101D01*
X50161Y-43136D01*
X50205Y-43179D01*
X50239Y-43231D01*
X50263Y-43288D01*
X50275Y-43349D01*
X50275Y-43349D01*
G37*
G36*
X50275Y-44349D02*
X50274Y-44419D01*
X50260Y-44479D01*
X50235Y-44536D01*
X50199Y-44586D01*
X50154Y-44629D01*
X50102Y-44662D01*
X50045Y-44684D01*
X49984Y-44695D01*
X49922Y-44694D01*
X49862Y-44681D01*
X49805Y-44656D01*
X49754Y-44621D01*
X49711Y-44576D01*
X49678Y-44524D01*
X49655Y-44467D01*
X49644Y-44406D01*
X49645Y-44344D01*
X49658Y-44284D01*
X49682Y-44227D01*
X49717Y-44176D01*
X49761Y-44133D01*
X49813Y-44099D01*
X49870Y-44076D01*
X49931Y-44064D01*
X49993Y-44065D01*
X50053Y-44077D01*
X50110Y-44101D01*
X50161Y-44136D01*
X50205Y-44179D01*
X50239Y-44231D01*
X50263Y-44288D01*
X50275Y-44349D01*
X50275Y-44349D01*
G37*
G36*
X50275Y-45349D02*
X50274Y-45419D01*
X50260Y-45479D01*
X50235Y-45536D01*
X50199Y-45586D01*
X50154Y-45629D01*
X50102Y-45662D01*
X50045Y-45684D01*
X49984Y-45695D01*
X49922Y-45694D01*
X49862Y-45681D01*
X49805Y-45656D01*
X49754Y-45621D01*
X49711Y-45576D01*
X49678Y-45524D01*
X49655Y-45467D01*
X49644Y-45406D01*
X49645Y-45344D01*
X49658Y-45284D01*
X49682Y-45227D01*
X49717Y-45176D01*
X49761Y-45133D01*
X49813Y-45099D01*
X49870Y-45076D01*
X49931Y-45064D01*
X49993Y-45065D01*
X50053Y-45077D01*
X50110Y-45101D01*
X50161Y-45136D01*
X50205Y-45179D01*
X50239Y-45231D01*
X50263Y-45288D01*
X50275Y-45349D01*
X50275Y-45349D01*
G37*
G36*
X50275Y-46349D02*
X50274Y-46419D01*
X50260Y-46479D01*
X50235Y-46536D01*
X50199Y-46586D01*
X50154Y-46629D01*
X50102Y-46662D01*
X50045Y-46684D01*
X49984Y-46695D01*
X49922Y-46694D01*
X49862Y-46681D01*
X49805Y-46656D01*
X49754Y-46621D01*
X49711Y-46576D01*
X49678Y-46524D01*
X49655Y-46467D01*
X49644Y-46406D01*
X49645Y-46344D01*
X49658Y-46284D01*
X49682Y-46227D01*
X49717Y-46176D01*
X49761Y-46133D01*
X49813Y-46099D01*
X49870Y-46076D01*
X49931Y-46064D01*
X49993Y-46065D01*
X50053Y-46077D01*
X50110Y-46101D01*
X50161Y-46136D01*
X50205Y-46179D01*
X50239Y-46231D01*
X50263Y-46288D01*
X50275Y-46349D01*
X50275Y-46349D01*
G37*
G36*
X50275Y-47349D02*
X50274Y-47419D01*
X50260Y-47479D01*
X50235Y-47536D01*
X50199Y-47586D01*
X50154Y-47629D01*
X50102Y-47662D01*
X50045Y-47684D01*
X49984Y-47695D01*
X49922Y-47694D01*
X49862Y-47681D01*
X49805Y-47656D01*
X49754Y-47621D01*
X49711Y-47576D01*
X49678Y-47524D01*
X49655Y-47467D01*
X49644Y-47406D01*
X49645Y-47344D01*
X49658Y-47284D01*
X49682Y-47227D01*
X49717Y-47176D01*
X49761Y-47133D01*
X49813Y-47099D01*
X49870Y-47076D01*
X49931Y-47064D01*
X49993Y-47065D01*
X50053Y-47077D01*
X50110Y-47101D01*
X50161Y-47136D01*
X50205Y-47179D01*
X50239Y-47231D01*
X50263Y-47288D01*
X50275Y-47349D01*
X50275Y-47349D01*
G37*
G36*
X50275Y-48349D02*
X50274Y-48419D01*
X50260Y-48479D01*
X50235Y-48536D01*
X50199Y-48586D01*
X50154Y-48629D01*
X50102Y-48662D01*
X50045Y-48684D01*
X49984Y-48695D01*
X49922Y-48694D01*
X49862Y-48681D01*
X49805Y-48656D01*
X49754Y-48621D01*
X49711Y-48576D01*
X49678Y-48524D01*
X49655Y-48467D01*
X49644Y-48406D01*
X49645Y-48344D01*
X49658Y-48284D01*
X49682Y-48227D01*
X49717Y-48176D01*
X49761Y-48133D01*
X49813Y-48099D01*
X49870Y-48076D01*
X49931Y-48064D01*
X49993Y-48065D01*
X50053Y-48077D01*
X50110Y-48101D01*
X50161Y-48136D01*
X50205Y-48179D01*
X50239Y-48231D01*
X50263Y-48288D01*
X50275Y-48349D01*
X50275Y-48349D01*
G37*
G36*
X50275Y-35350D02*
X50274Y-35418D01*
X50260Y-35481D01*
X50236Y-35535D01*
X50198Y-35588D01*
X50156Y-35628D01*
X50101Y-35663D01*
X50046Y-35684D01*
X49982Y-35695D01*
X49924Y-35694D01*
X49860Y-35680D01*
X49806Y-35657D01*
X49753Y-35620D01*
X49712Y-35577D01*
X49677Y-35523D01*
X49656Y-35468D01*
X49644Y-35404D01*
X49645Y-35346D01*
X49658Y-35282D01*
X49681Y-35228D01*
X49718Y-35175D01*
X49760Y-35134D01*
X49814Y-35098D01*
X49868Y-35076D01*
X49933Y-35064D01*
X49991Y-35064D01*
X50055Y-35078D01*
X50108Y-35100D01*
X50163Y-35137D01*
X50204Y-35178D01*
X50240Y-35233D01*
X50262Y-35286D01*
X50275Y-35350D01*
X50275Y-35350D01*
G37*
G36*
X50275Y-36350D02*
X50274Y-36418D01*
X50260Y-36481D01*
X50236Y-36535D01*
X50198Y-36588D01*
X50156Y-36628D01*
X50101Y-36663D01*
X50046Y-36684D01*
X49982Y-36695D01*
X49924Y-36694D01*
X49860Y-36680D01*
X49806Y-36657D01*
X49753Y-36620D01*
X49712Y-36577D01*
X49677Y-36523D01*
X49656Y-36468D01*
X49644Y-36404D01*
X49645Y-36346D01*
X49658Y-36282D01*
X49681Y-36228D01*
X49718Y-36175D01*
X49760Y-36134D01*
X49814Y-36098D01*
X49868Y-36076D01*
X49933Y-36064D01*
X49991Y-36064D01*
X50055Y-36078D01*
X50108Y-36100D01*
X50163Y-36137D01*
X50204Y-36178D01*
X50240Y-36233D01*
X50262Y-36286D01*
X50275Y-36350D01*
X50275Y-36350D01*
G37*
G36*
X50275Y-37350D02*
X50274Y-37418D01*
X50260Y-37481D01*
X50236Y-37535D01*
X50198Y-37588D01*
X50156Y-37628D01*
X50101Y-37663D01*
X50046Y-37684D01*
X49982Y-37695D01*
X49924Y-37694D01*
X49860Y-37680D01*
X49806Y-37657D01*
X49753Y-37620D01*
X49712Y-37577D01*
X49677Y-37523D01*
X49656Y-37468D01*
X49644Y-37404D01*
X49645Y-37346D01*
X49658Y-37282D01*
X49681Y-37228D01*
X49718Y-37175D01*
X49760Y-37134D01*
X49814Y-37098D01*
X49868Y-37076D01*
X49933Y-37064D01*
X49991Y-37064D01*
X50055Y-37078D01*
X50108Y-37100D01*
X50163Y-37137D01*
X50204Y-37178D01*
X50240Y-37233D01*
X50262Y-37286D01*
X50275Y-37350D01*
X50275Y-37350D01*
G37*
G36*
X50275Y-38350D02*
X50274Y-38418D01*
X50260Y-38481D01*
X50236Y-38535D01*
X50198Y-38588D01*
X50156Y-38628D01*
X50101Y-38663D01*
X50046Y-38684D01*
X49982Y-38695D01*
X49924Y-38694D01*
X49860Y-38680D01*
X49806Y-38657D01*
X49753Y-38620D01*
X49712Y-38577D01*
X49677Y-38523D01*
X49656Y-38468D01*
X49644Y-38404D01*
X49645Y-38346D01*
X49658Y-38282D01*
X49681Y-38228D01*
X49718Y-38175D01*
X49760Y-38134D01*
X49814Y-38098D01*
X49868Y-38076D01*
X49933Y-38064D01*
X49991Y-38064D01*
X50055Y-38078D01*
X50108Y-38100D01*
X50163Y-38137D01*
X50204Y-38178D01*
X50240Y-38233D01*
X50262Y-38286D01*
X50275Y-38350D01*
X50275Y-38350D01*
G37*
G36*
X50275Y-39350D02*
X50274Y-39418D01*
X50260Y-39481D01*
X50236Y-39535D01*
X50198Y-39588D01*
X50156Y-39628D01*
X50101Y-39663D01*
X50046Y-39684D01*
X49982Y-39695D01*
X49924Y-39694D01*
X49860Y-39680D01*
X49806Y-39657D01*
X49753Y-39620D01*
X49712Y-39577D01*
X49677Y-39523D01*
X49656Y-39468D01*
X49644Y-39404D01*
X49645Y-39346D01*
X49658Y-39282D01*
X49681Y-39228D01*
X49718Y-39175D01*
X49760Y-39134D01*
X49814Y-39098D01*
X49868Y-39076D01*
X49933Y-39064D01*
X49991Y-39064D01*
X50055Y-39078D01*
X50108Y-39100D01*
X50163Y-39137D01*
X50204Y-39178D01*
X50240Y-39233D01*
X50262Y-39286D01*
X50275Y-39350D01*
X50275Y-39350D01*
G37*
G36*
X50275Y-40350D02*
X50274Y-40418D01*
X50260Y-40481D01*
X50236Y-40535D01*
X50198Y-40588D01*
X50156Y-40628D01*
X50101Y-40663D01*
X50046Y-40684D01*
X49982Y-40695D01*
X49924Y-40694D01*
X49860Y-40680D01*
X49806Y-40657D01*
X49753Y-40620D01*
X49712Y-40577D01*
X49677Y-40523D01*
X49656Y-40468D01*
X49644Y-40404D01*
X49645Y-40346D01*
X49658Y-40282D01*
X49681Y-40228D01*
X49718Y-40175D01*
X49760Y-40134D01*
X49814Y-40098D01*
X49868Y-40076D01*
X49933Y-40064D01*
X49991Y-40064D01*
X50055Y-40078D01*
X50108Y-40100D01*
X50163Y-40137D01*
X50204Y-40178D01*
X50240Y-40233D01*
X50262Y-40286D01*
X50275Y-40350D01*
X50275Y-40350D01*
G37*
G36*
X50275Y-41350D02*
X50274Y-41418D01*
X50260Y-41481D01*
X50236Y-41535D01*
X50198Y-41588D01*
X50156Y-41628D01*
X50101Y-41663D01*
X50046Y-41684D01*
X49982Y-41695D01*
X49924Y-41694D01*
X49860Y-41680D01*
X49806Y-41657D01*
X49753Y-41620D01*
X49712Y-41577D01*
X49677Y-41523D01*
X49656Y-41468D01*
X49644Y-41404D01*
X49645Y-41346D01*
X49658Y-41282D01*
X49681Y-41228D01*
X49718Y-41175D01*
X49760Y-41134D01*
X49814Y-41098D01*
X49868Y-41076D01*
X49933Y-41064D01*
X49991Y-41064D01*
X50055Y-41078D01*
X50108Y-41100D01*
X50163Y-41137D01*
X50204Y-41178D01*
X50240Y-41233D01*
X50262Y-41286D01*
X50275Y-41350D01*
X50275Y-41350D01*
G37*
G36*
X50275Y-42350D02*
X50274Y-42418D01*
X50260Y-42481D01*
X50236Y-42535D01*
X50198Y-42588D01*
X50156Y-42628D01*
X50101Y-42663D01*
X50046Y-42684D01*
X49982Y-42695D01*
X49924Y-42694D01*
X49860Y-42680D01*
X49806Y-42657D01*
X49753Y-42620D01*
X49712Y-42577D01*
X49677Y-42523D01*
X49656Y-42468D01*
X49644Y-42404D01*
X49645Y-42346D01*
X49658Y-42282D01*
X49681Y-42228D01*
X49718Y-42175D01*
X49760Y-42134D01*
X49814Y-42098D01*
X49868Y-42076D01*
X49933Y-42064D01*
X49991Y-42064D01*
X50055Y-42078D01*
X50108Y-42100D01*
X50163Y-42137D01*
X50204Y-42178D01*
X50240Y-42233D01*
X50262Y-42286D01*
X50275Y-42350D01*
X50275Y-42350D01*
G37*
G36*
X52548Y-31986D02*
X52548Y-32009D01*
X52542Y-32035D01*
X52534Y-32053D01*
X52519Y-32075D01*
X52504Y-32089D01*
X52482Y-32103D01*
X52463Y-32110D01*
X52437Y-32115D01*
X52417Y-32114D01*
X52391Y-32109D01*
X52373Y-32101D01*
X52351Y-32085D01*
X52337Y-32071D01*
X52323Y-32049D01*
X52315Y-32030D01*
X52311Y-32004D01*
X52311Y-31984D01*
X52316Y-31958D01*
X52324Y-31940D01*
X52339Y-31918D01*
X52353Y-31904D01*
X52376Y-31889D01*
X52394Y-31882D01*
X52421Y-31877D01*
X52440Y-31877D01*
X52467Y-31882D01*
X52485Y-31890D01*
X52507Y-31905D01*
X52521Y-31919D01*
X52536Y-31942D01*
X52543Y-31959D01*
X52548Y-31986D01*
X52548Y-31986D01*
G37*
G36*
X52548Y-32379D02*
X52548Y-32403D01*
X52542Y-32428D01*
X52534Y-32447D01*
X52519Y-32468D01*
X52504Y-32482D01*
X52482Y-32497D01*
X52463Y-32504D01*
X52437Y-32508D01*
X52417Y-32508D01*
X52391Y-32502D01*
X52373Y-32494D01*
X52351Y-32479D01*
X52337Y-32465D01*
X52323Y-32442D01*
X52315Y-32424D01*
X52311Y-32398D01*
X52311Y-32378D01*
X52316Y-32352D01*
X52324Y-32334D01*
X52339Y-32312D01*
X52353Y-32298D01*
X52376Y-32283D01*
X52394Y-32276D01*
X52421Y-32271D01*
X52440Y-32271D01*
X52467Y-32276D01*
X52485Y-32284D01*
X52507Y-32299D01*
X52521Y-32313D01*
X52536Y-32335D01*
X52543Y-32353D01*
X52548Y-32379D01*
X52548Y-32379D01*
G37*
G36*
X52548Y-32773D02*
X52548Y-32797D01*
X52542Y-32822D01*
X52534Y-32841D01*
X52519Y-32862D01*
X52504Y-32876D01*
X52482Y-32890D01*
X52463Y-32898D01*
X52437Y-32902D01*
X52417Y-32902D01*
X52391Y-32896D01*
X52373Y-32888D01*
X52351Y-32873D01*
X52337Y-32858D01*
X52323Y-32836D01*
X52315Y-32818D01*
X52311Y-32791D01*
X52311Y-32772D01*
X52316Y-32746D01*
X52324Y-32727D01*
X52339Y-32705D01*
X52353Y-32691D01*
X52376Y-32677D01*
X52394Y-32669D01*
X52421Y-32664D01*
X52440Y-32664D01*
X52467Y-32670D01*
X52485Y-32677D01*
X52507Y-32693D01*
X52521Y-32706D01*
X52536Y-32729D01*
X52543Y-32747D01*
X52548Y-32773D01*
X52548Y-32773D01*
G37*
G36*
X52588Y-43224D02*
X52588Y-43251D01*
X52582Y-43273D01*
X52573Y-43295D01*
X52560Y-43314D01*
X52543Y-43330D01*
X52523Y-43342D01*
X52502Y-43350D01*
X52479Y-43354D01*
X52455Y-43354D01*
X52433Y-43349D01*
X52411Y-43340D01*
X52392Y-43326D01*
X52376Y-43310D01*
X52364Y-43290D01*
X52355Y-43269D01*
X52351Y-43246D01*
X52351Y-43223D01*
X52356Y-43200D01*
X52365Y-43178D01*
X52378Y-43159D01*
X52395Y-43143D01*
X52414Y-43130D01*
X52436Y-43122D01*
X52459Y-43117D01*
X52482Y-43117D01*
X52505Y-43122D01*
X52526Y-43131D01*
X52545Y-43144D01*
X52562Y-43161D01*
X52575Y-43180D01*
X52583Y-43201D01*
X52588Y-43224D01*
X52588Y-43224D01*
G37*
G36*
X52588Y-43618D02*
X52588Y-43644D01*
X52582Y-43667D01*
X52573Y-43688D01*
X52560Y-43707D01*
X52543Y-43723D01*
X52523Y-43736D01*
X52502Y-43744D01*
X52479Y-43748D01*
X52455Y-43748D01*
X52433Y-43743D01*
X52411Y-43733D01*
X52392Y-43720D01*
X52376Y-43703D01*
X52364Y-43684D01*
X52355Y-43662D01*
X52351Y-43639D01*
X52351Y-43616D01*
X52356Y-43594D01*
X52365Y-43572D01*
X52378Y-43553D01*
X52395Y-43537D01*
X52414Y-43524D01*
X52436Y-43515D01*
X52459Y-43511D01*
X52482Y-43511D01*
X52505Y-43516D01*
X52526Y-43525D01*
X52545Y-43538D01*
X52562Y-43554D01*
X52575Y-43574D01*
X52583Y-43595D01*
X52588Y-43618D01*
X52588Y-43618D01*
G37*
G36*
X52588Y-44012D02*
X52588Y-44038D01*
X52582Y-44061D01*
X52573Y-44082D01*
X52560Y-44101D01*
X52543Y-44117D01*
X52523Y-44129D01*
X52502Y-44138D01*
X52479Y-44142D01*
X52455Y-44141D01*
X52433Y-44136D01*
X52411Y-44127D01*
X52392Y-44114D01*
X52376Y-44097D01*
X52364Y-44078D01*
X52355Y-44056D01*
X52351Y-44033D01*
X52351Y-44010D01*
X52356Y-43987D01*
X52365Y-43966D01*
X52378Y-43947D01*
X52395Y-43930D01*
X52414Y-43918D01*
X52436Y-43909D01*
X52459Y-43905D01*
X52482Y-43905D01*
X52505Y-43910D01*
X52526Y-43919D01*
X52545Y-43932D01*
X52562Y-43948D01*
X52575Y-43967D01*
X52583Y-43989D01*
X52588Y-44012D01*
X52588Y-44012D01*
G37*
G36*
X53148Y-43214D02*
X53148Y-43241D01*
X53142Y-43263D01*
X53133Y-43285D01*
X53120Y-43304D01*
X53103Y-43320D01*
X53083Y-43332D01*
X53062Y-43340D01*
X53039Y-43344D01*
X53015Y-43344D01*
X52993Y-43339D01*
X52971Y-43330D01*
X52952Y-43316D01*
X52936Y-43300D01*
X52924Y-43280D01*
X52915Y-43259D01*
X52911Y-43236D01*
X52911Y-43213D01*
X52916Y-43190D01*
X52925Y-43168D01*
X52938Y-43149D01*
X52955Y-43133D01*
X52974Y-43120D01*
X52996Y-43112D01*
X53019Y-43107D01*
X53042Y-43107D01*
X53065Y-43112D01*
X53086Y-43121D01*
X53105Y-43134D01*
X53122Y-43151D01*
X53135Y-43170D01*
X53143Y-43191D01*
X53148Y-43214D01*
X53148Y-43214D01*
G37*
G36*
X53148Y-43608D02*
X53148Y-43634D01*
X53142Y-43657D01*
X53133Y-43678D01*
X53120Y-43697D01*
X53103Y-43713D01*
X53083Y-43726D01*
X53062Y-43734D01*
X53039Y-43738D01*
X53015Y-43738D01*
X52993Y-43733D01*
X52971Y-43723D01*
X52952Y-43710D01*
X52936Y-43693D01*
X52924Y-43674D01*
X52915Y-43652D01*
X52911Y-43629D01*
X52911Y-43606D01*
X52916Y-43584D01*
X52925Y-43562D01*
X52938Y-43543D01*
X52955Y-43527D01*
X52974Y-43514D01*
X52996Y-43505D01*
X53019Y-43501D01*
X53042Y-43501D01*
X53065Y-43506D01*
X53086Y-43515D01*
X53105Y-43528D01*
X53122Y-43544D01*
X53135Y-43564D01*
X53143Y-43585D01*
X53148Y-43608D01*
X53148Y-43608D01*
G37*
G36*
X53148Y-44002D02*
X53148Y-44028D01*
X53142Y-44051D01*
X53133Y-44072D01*
X53120Y-44091D01*
X53103Y-44107D01*
X53083Y-44119D01*
X53062Y-44128D01*
X53039Y-44132D01*
X53015Y-44131D01*
X52993Y-44126D01*
X52971Y-44117D01*
X52952Y-44104D01*
X52936Y-44087D01*
X52924Y-44068D01*
X52915Y-44046D01*
X52911Y-44023D01*
X52911Y-44000D01*
X52916Y-43977D01*
X52925Y-43956D01*
X52938Y-43937D01*
X52955Y-43920D01*
X52974Y-43908D01*
X52996Y-43899D01*
X53019Y-43895D01*
X53042Y-43895D01*
X53065Y-43900D01*
X53086Y-43909D01*
X53105Y-43922D01*
X53122Y-43938D01*
X53135Y-43957D01*
X53143Y-43979D01*
X53148Y-44002D01*
X53148Y-44002D01*
G37*
G36*
X53178Y-31986D02*
X53178Y-32009D01*
X53172Y-32035D01*
X53164Y-32053D01*
X53149Y-32075D01*
X53134Y-32089D01*
X53112Y-32103D01*
X53093Y-32110D01*
X53067Y-32115D01*
X53047Y-32114D01*
X53021Y-32109D01*
X53003Y-32101D01*
X52981Y-32085D01*
X52967Y-32071D01*
X52953Y-32049D01*
X52945Y-32030D01*
X52941Y-32004D01*
X52941Y-31984D01*
X52946Y-31958D01*
X52954Y-31940D01*
X52969Y-31918D01*
X52983Y-31904D01*
X53006Y-31889D01*
X53024Y-31882D01*
X53051Y-31877D01*
X53070Y-31877D01*
X53097Y-31882D01*
X53115Y-31890D01*
X53137Y-31905D01*
X53151Y-31919D01*
X53166Y-31942D01*
X53173Y-31959D01*
X53178Y-31986D01*
X53178Y-31986D01*
G37*
G36*
X53178Y-32379D02*
X53178Y-32403D01*
X53172Y-32428D01*
X53164Y-32447D01*
X53149Y-32468D01*
X53134Y-32482D01*
X53112Y-32497D01*
X53093Y-32504D01*
X53067Y-32508D01*
X53047Y-32508D01*
X53021Y-32502D01*
X53003Y-32494D01*
X52981Y-32479D01*
X52967Y-32465D01*
X52953Y-32442D01*
X52945Y-32424D01*
X52941Y-32398D01*
X52941Y-32378D01*
X52946Y-32352D01*
X52954Y-32334D01*
X52969Y-32312D01*
X52983Y-32298D01*
X53006Y-32283D01*
X53024Y-32276D01*
X53051Y-32271D01*
X53070Y-32271D01*
X53097Y-32276D01*
X53115Y-32284D01*
X53137Y-32299D01*
X53151Y-32313D01*
X53166Y-32335D01*
X53173Y-32353D01*
X53178Y-32379D01*
X53178Y-32379D01*
G37*
G36*
X53178Y-32773D02*
X53178Y-32797D01*
X53172Y-32822D01*
X53164Y-32841D01*
X53149Y-32862D01*
X53134Y-32876D01*
X53112Y-32890D01*
X53093Y-32898D01*
X53067Y-32902D01*
X53047Y-32902D01*
X53021Y-32896D01*
X53003Y-32888D01*
X52981Y-32873D01*
X52967Y-32858D01*
X52953Y-32836D01*
X52945Y-32818D01*
X52941Y-32791D01*
X52941Y-32772D01*
X52946Y-32746D01*
X52954Y-32727D01*
X52969Y-32705D01*
X52983Y-32691D01*
X53006Y-32677D01*
X53024Y-32669D01*
X53051Y-32664D01*
X53070Y-32664D01*
X53097Y-32670D01*
X53115Y-32677D01*
X53137Y-32693D01*
X53151Y-32706D01*
X53166Y-32729D01*
X53173Y-32747D01*
X53178Y-32773D01*
X53178Y-32773D01*
G37*
G36*
X69278Y-34246D02*
X69278Y-34269D01*
X69272Y-34295D01*
X69264Y-34313D01*
X69249Y-34335D01*
X69234Y-34349D01*
X69212Y-34363D01*
X69193Y-34370D01*
X69167Y-34375D01*
X69147Y-34374D01*
X69121Y-34369D01*
X69103Y-34361D01*
X69081Y-34345D01*
X69067Y-34331D01*
X69053Y-34309D01*
X69045Y-34290D01*
X69041Y-34264D01*
X69041Y-34244D01*
X69046Y-34218D01*
X69054Y-34200D01*
X69069Y-34178D01*
X69083Y-34164D01*
X69106Y-34149D01*
X69124Y-34142D01*
X69151Y-34137D01*
X69170Y-34137D01*
X69197Y-34142D01*
X69215Y-34150D01*
X69237Y-34165D01*
X69251Y-34179D01*
X69266Y-34202D01*
X69273Y-34219D01*
X69278Y-34246D01*
X69278Y-34246D01*
G37*
G36*
X69278Y-34639D02*
X69278Y-34663D01*
X69272Y-34688D01*
X69264Y-34707D01*
X69249Y-34728D01*
X69234Y-34742D01*
X69212Y-34757D01*
X69193Y-34764D01*
X69167Y-34768D01*
X69147Y-34768D01*
X69121Y-34762D01*
X69103Y-34754D01*
X69081Y-34739D01*
X69067Y-34725D01*
X69053Y-34702D01*
X69045Y-34684D01*
X69041Y-34658D01*
X69041Y-34638D01*
X69046Y-34612D01*
X69054Y-34594D01*
X69069Y-34572D01*
X69083Y-34558D01*
X69106Y-34543D01*
X69124Y-34536D01*
X69151Y-34531D01*
X69170Y-34531D01*
X69197Y-34536D01*
X69215Y-34544D01*
X69237Y-34559D01*
X69251Y-34573D01*
X69266Y-34595D01*
X69273Y-34613D01*
X69278Y-34639D01*
X69278Y-34639D01*
G37*
G36*
X69278Y-35033D02*
X69278Y-35057D01*
X69272Y-35082D01*
X69264Y-35101D01*
X69249Y-35122D01*
X69234Y-35136D01*
X69212Y-35150D01*
X69193Y-35158D01*
X69167Y-35162D01*
X69147Y-35162D01*
X69121Y-35156D01*
X69103Y-35148D01*
X69081Y-35133D01*
X69067Y-35118D01*
X69053Y-35096D01*
X69045Y-35078D01*
X69041Y-35051D01*
X69041Y-35032D01*
X69046Y-35006D01*
X69054Y-34987D01*
X69069Y-34965D01*
X69083Y-34951D01*
X69106Y-34937D01*
X69124Y-34929D01*
X69151Y-34924D01*
X69170Y-34924D01*
X69197Y-34930D01*
X69215Y-34937D01*
X69237Y-34953D01*
X69251Y-34966D01*
X69266Y-34989D01*
X69273Y-35007D01*
X69278Y-35033D01*
X69278Y-35033D01*
G37*
G36*
X69318Y-43224D02*
X69318Y-43251D01*
X69312Y-43273D01*
X69303Y-43295D01*
X69290Y-43314D01*
X69273Y-43330D01*
X69253Y-43342D01*
X69232Y-43350D01*
X69209Y-43354D01*
X69185Y-43354D01*
X69163Y-43349D01*
X69141Y-43340D01*
X69122Y-43326D01*
X69106Y-43310D01*
X69094Y-43290D01*
X69085Y-43269D01*
X69081Y-43246D01*
X69081Y-43223D01*
X69086Y-43200D01*
X69095Y-43178D01*
X69108Y-43159D01*
X69125Y-43143D01*
X69144Y-43130D01*
X69166Y-43122D01*
X69189Y-43117D01*
X69212Y-43117D01*
X69235Y-43122D01*
X69256Y-43131D01*
X69275Y-43144D01*
X69292Y-43161D01*
X69305Y-43180D01*
X69313Y-43201D01*
X69318Y-43224D01*
X69318Y-43224D01*
G37*
G36*
X69318Y-43618D02*
X69318Y-43644D01*
X69312Y-43667D01*
X69303Y-43688D01*
X69290Y-43707D01*
X69273Y-43723D01*
X69253Y-43736D01*
X69232Y-43744D01*
X69209Y-43748D01*
X69185Y-43748D01*
X69163Y-43743D01*
X69141Y-43733D01*
X69122Y-43720D01*
X69106Y-43703D01*
X69094Y-43684D01*
X69085Y-43662D01*
X69081Y-43639D01*
X69081Y-43616D01*
X69086Y-43594D01*
X69095Y-43572D01*
X69108Y-43553D01*
X69125Y-43537D01*
X69144Y-43524D01*
X69166Y-43515D01*
X69189Y-43511D01*
X69212Y-43511D01*
X69235Y-43516D01*
X69256Y-43525D01*
X69275Y-43538D01*
X69292Y-43554D01*
X69305Y-43574D01*
X69313Y-43595D01*
X69318Y-43618D01*
X69318Y-43618D01*
G37*
G36*
X69318Y-44012D02*
X69318Y-44038D01*
X69312Y-44061D01*
X69303Y-44082D01*
X69290Y-44101D01*
X69273Y-44117D01*
X69253Y-44129D01*
X69232Y-44138D01*
X69209Y-44142D01*
X69185Y-44141D01*
X69163Y-44136D01*
X69141Y-44127D01*
X69122Y-44114D01*
X69106Y-44097D01*
X69094Y-44078D01*
X69085Y-44056D01*
X69081Y-44033D01*
X69081Y-44010D01*
X69086Y-43987D01*
X69095Y-43966D01*
X69108Y-43947D01*
X69125Y-43930D01*
X69144Y-43918D01*
X69166Y-43909D01*
X69189Y-43905D01*
X69212Y-43905D01*
X69235Y-43910D01*
X69256Y-43919D01*
X69275Y-43932D01*
X69292Y-43948D01*
X69305Y-43967D01*
X69313Y-43989D01*
X69318Y-44012D01*
X69318Y-44012D01*
G37*
G36*
X69318Y-28226D02*
X69318Y-28249D01*
X69312Y-28275D01*
X69304Y-28293D01*
X69289Y-28315D01*
X69274Y-28329D01*
X69252Y-28343D01*
X69233Y-28350D01*
X69207Y-28355D01*
X69187Y-28354D01*
X69161Y-28349D01*
X69143Y-28341D01*
X69121Y-28325D01*
X69107Y-28311D01*
X69093Y-28289D01*
X69085Y-28270D01*
X69081Y-28244D01*
X69081Y-28224D01*
X69086Y-28198D01*
X69094Y-28180D01*
X69109Y-28158D01*
X69123Y-28144D01*
X69146Y-28129D01*
X69164Y-28122D01*
X69191Y-28117D01*
X69210Y-28117D01*
X69237Y-28122D01*
X69255Y-28130D01*
X69277Y-28145D01*
X69291Y-28159D01*
X69306Y-28182D01*
X69313Y-28199D01*
X69318Y-28226D01*
X69318Y-28226D01*
G37*
G36*
X69318Y-28619D02*
X69318Y-28643D01*
X69312Y-28668D01*
X69304Y-28687D01*
X69289Y-28708D01*
X69274Y-28722D01*
X69252Y-28737D01*
X69233Y-28744D01*
X69207Y-28748D01*
X69187Y-28748D01*
X69161Y-28742D01*
X69143Y-28734D01*
X69121Y-28719D01*
X69107Y-28705D01*
X69093Y-28682D01*
X69085Y-28664D01*
X69081Y-28638D01*
X69081Y-28618D01*
X69086Y-28592D01*
X69094Y-28574D01*
X69109Y-28552D01*
X69123Y-28538D01*
X69146Y-28523D01*
X69164Y-28516D01*
X69191Y-28511D01*
X69210Y-28511D01*
X69237Y-28516D01*
X69255Y-28524D01*
X69277Y-28539D01*
X69291Y-28553D01*
X69306Y-28575D01*
X69313Y-28593D01*
X69318Y-28619D01*
X69318Y-28619D01*
G37*
G36*
X69318Y-29013D02*
X69318Y-29037D01*
X69312Y-29062D01*
X69304Y-29081D01*
X69289Y-29102D01*
X69274Y-29116D01*
X69252Y-29130D01*
X69233Y-29138D01*
X69207Y-29142D01*
X69187Y-29142D01*
X69161Y-29136D01*
X69143Y-29128D01*
X69121Y-29113D01*
X69107Y-29098D01*
X69093Y-29076D01*
X69085Y-29058D01*
X69081Y-29031D01*
X69081Y-29012D01*
X69086Y-28986D01*
X69094Y-28967D01*
X69109Y-28945D01*
X69123Y-28931D01*
X69146Y-28917D01*
X69164Y-28909D01*
X69191Y-28904D01*
X69210Y-28904D01*
X69237Y-28910D01*
X69255Y-28917D01*
X69277Y-28933D01*
X69291Y-28946D01*
X69306Y-28969D01*
X69313Y-28987D01*
X69318Y-29013D01*
X69318Y-29013D01*
G37*
G36*
X69658Y-28226D02*
X69658Y-28249D01*
X69652Y-28275D01*
X69644Y-28293D01*
X69629Y-28315D01*
X69614Y-28329D01*
X69592Y-28343D01*
X69573Y-28350D01*
X69547Y-28355D01*
X69527Y-28354D01*
X69501Y-28349D01*
X69483Y-28341D01*
X69461Y-28325D01*
X69447Y-28311D01*
X69433Y-28289D01*
X69425Y-28270D01*
X69421Y-28244D01*
X69421Y-28224D01*
X69426Y-28198D01*
X69434Y-28180D01*
X69449Y-28158D01*
X69463Y-28144D01*
X69486Y-28129D01*
X69504Y-28122D01*
X69531Y-28117D01*
X69550Y-28117D01*
X69577Y-28122D01*
X69595Y-28130D01*
X69617Y-28145D01*
X69631Y-28159D01*
X69646Y-28182D01*
X69653Y-28199D01*
X69658Y-28226D01*
X69658Y-28226D01*
G37*
G36*
X69658Y-28619D02*
X69658Y-28643D01*
X69652Y-28668D01*
X69644Y-28687D01*
X69629Y-28708D01*
X69614Y-28722D01*
X69592Y-28737D01*
X69573Y-28744D01*
X69547Y-28748D01*
X69527Y-28748D01*
X69501Y-28742D01*
X69483Y-28734D01*
X69461Y-28719D01*
X69447Y-28705D01*
X69433Y-28682D01*
X69425Y-28664D01*
X69421Y-28638D01*
X69421Y-28618D01*
X69426Y-28592D01*
X69434Y-28574D01*
X69449Y-28552D01*
X69463Y-28538D01*
X69486Y-28523D01*
X69504Y-28516D01*
X69531Y-28511D01*
X69550Y-28511D01*
X69577Y-28516D01*
X69595Y-28524D01*
X69617Y-28539D01*
X69631Y-28553D01*
X69646Y-28575D01*
X69653Y-28593D01*
X69658Y-28619D01*
X69658Y-28619D01*
G37*
G36*
X69658Y-29013D02*
X69658Y-29037D01*
X69652Y-29062D01*
X69644Y-29081D01*
X69629Y-29102D01*
X69614Y-29116D01*
X69592Y-29130D01*
X69573Y-29138D01*
X69547Y-29142D01*
X69527Y-29142D01*
X69501Y-29136D01*
X69483Y-29128D01*
X69461Y-29113D01*
X69447Y-29098D01*
X69433Y-29076D01*
X69425Y-29058D01*
X69421Y-29031D01*
X69421Y-29012D01*
X69426Y-28986D01*
X69434Y-28967D01*
X69449Y-28945D01*
X69463Y-28931D01*
X69486Y-28917D01*
X69504Y-28909D01*
X69531Y-28904D01*
X69550Y-28904D01*
X69577Y-28910D01*
X69595Y-28917D01*
X69617Y-28933D01*
X69631Y-28946D01*
X69646Y-28969D01*
X69653Y-28987D01*
X69658Y-29013D01*
X69658Y-29013D01*
G37*
G36*
X69678Y-43214D02*
X69678Y-43241D01*
X69672Y-43263D01*
X69663Y-43285D01*
X69650Y-43304D01*
X69633Y-43320D01*
X69613Y-43332D01*
X69592Y-43340D01*
X69569Y-43344D01*
X69545Y-43344D01*
X69523Y-43339D01*
X69501Y-43330D01*
X69482Y-43316D01*
X69466Y-43300D01*
X69454Y-43280D01*
X69445Y-43259D01*
X69441Y-43236D01*
X69441Y-43213D01*
X69446Y-43190D01*
X69455Y-43168D01*
X69468Y-43149D01*
X69485Y-43133D01*
X69504Y-43120D01*
X69526Y-43112D01*
X69549Y-43107D01*
X69572Y-43107D01*
X69595Y-43112D01*
X69616Y-43121D01*
X69635Y-43134D01*
X69652Y-43151D01*
X69665Y-43170D01*
X69673Y-43191D01*
X69678Y-43214D01*
X69678Y-43214D01*
G37*
G36*
X69678Y-43608D02*
X69678Y-43634D01*
X69672Y-43657D01*
X69663Y-43678D01*
X69650Y-43697D01*
X69633Y-43713D01*
X69613Y-43726D01*
X69592Y-43734D01*
X69569Y-43738D01*
X69545Y-43738D01*
X69523Y-43733D01*
X69501Y-43723D01*
X69482Y-43710D01*
X69466Y-43693D01*
X69454Y-43674D01*
X69445Y-43652D01*
X69441Y-43629D01*
X69441Y-43606D01*
X69446Y-43584D01*
X69455Y-43562D01*
X69468Y-43543D01*
X69485Y-43527D01*
X69504Y-43514D01*
X69526Y-43505D01*
X69549Y-43501D01*
X69572Y-43501D01*
X69595Y-43506D01*
X69616Y-43515D01*
X69635Y-43528D01*
X69652Y-43544D01*
X69665Y-43564D01*
X69673Y-43585D01*
X69678Y-43608D01*
X69678Y-43608D01*
G37*
G36*
X69678Y-44002D02*
X69678Y-44028D01*
X69672Y-44051D01*
X69663Y-44072D01*
X69650Y-44091D01*
X69633Y-44107D01*
X69613Y-44119D01*
X69592Y-44128D01*
X69569Y-44132D01*
X69545Y-44131D01*
X69523Y-44126D01*
X69501Y-44117D01*
X69482Y-44104D01*
X69466Y-44087D01*
X69454Y-44068D01*
X69445Y-44046D01*
X69441Y-44023D01*
X69441Y-44000D01*
X69446Y-43977D01*
X69455Y-43956D01*
X69468Y-43937D01*
X69485Y-43920D01*
X69504Y-43908D01*
X69526Y-43899D01*
X69549Y-43895D01*
X69572Y-43895D01*
X69595Y-43900D01*
X69616Y-43909D01*
X69635Y-43922D01*
X69652Y-43938D01*
X69665Y-43957D01*
X69673Y-43979D01*
X69678Y-44002D01*
X69678Y-44002D01*
G37*
G36*
X69678Y-34256D02*
X69678Y-34279D01*
X69672Y-34305D01*
X69664Y-34323D01*
X69649Y-34345D01*
X69634Y-34359D01*
X69612Y-34373D01*
X69593Y-34380D01*
X69567Y-34385D01*
X69547Y-34384D01*
X69521Y-34379D01*
X69503Y-34371D01*
X69481Y-34355D01*
X69467Y-34341D01*
X69453Y-34319D01*
X69445Y-34300D01*
X69441Y-34274D01*
X69441Y-34254D01*
X69446Y-34228D01*
X69454Y-34210D01*
X69469Y-34188D01*
X69483Y-34174D01*
X69506Y-34159D01*
X69524Y-34152D01*
X69551Y-34147D01*
X69570Y-34147D01*
X69597Y-34152D01*
X69615Y-34160D01*
X69637Y-34175D01*
X69651Y-34189D01*
X69666Y-34212D01*
X69673Y-34229D01*
X69678Y-34256D01*
X69678Y-34256D01*
G37*
G36*
X69678Y-34649D02*
X69678Y-34673D01*
X69672Y-34698D01*
X69664Y-34717D01*
X69649Y-34738D01*
X69634Y-34752D01*
X69612Y-34767D01*
X69593Y-34774D01*
X69567Y-34778D01*
X69547Y-34778D01*
X69521Y-34772D01*
X69503Y-34764D01*
X69481Y-34749D01*
X69467Y-34735D01*
X69453Y-34712D01*
X69445Y-34694D01*
X69441Y-34668D01*
X69441Y-34648D01*
X69446Y-34622D01*
X69454Y-34604D01*
X69469Y-34582D01*
X69483Y-34568D01*
X69506Y-34553D01*
X69524Y-34546D01*
X69551Y-34541D01*
X69570Y-34541D01*
X69597Y-34546D01*
X69615Y-34554D01*
X69637Y-34569D01*
X69651Y-34583D01*
X69666Y-34605D01*
X69673Y-34623D01*
X69678Y-34649D01*
X69678Y-34649D01*
G37*
G36*
X69678Y-35043D02*
X69678Y-35067D01*
X69672Y-35092D01*
X69664Y-35111D01*
X69649Y-35132D01*
X69634Y-35146D01*
X69612Y-35160D01*
X69593Y-35168D01*
X69567Y-35172D01*
X69547Y-35172D01*
X69521Y-35166D01*
X69503Y-35158D01*
X69481Y-35143D01*
X69467Y-35128D01*
X69453Y-35106D01*
X69445Y-35088D01*
X69441Y-35061D01*
X69441Y-35042D01*
X69446Y-35016D01*
X69454Y-34997D01*
X69469Y-34975D01*
X69483Y-34961D01*
X69506Y-34947D01*
X69524Y-34939D01*
X69551Y-34934D01*
X69570Y-34934D01*
X69597Y-34940D01*
X69615Y-34947D01*
X69637Y-34963D01*
X69651Y-34976D01*
X69666Y-34999D01*
X69673Y-35017D01*
X69678Y-35043D01*
X69678Y-35043D01*
G37*
G36*
X71070Y-43609D02*
X71069Y-43679D01*
X71055Y-43739D01*
X71030Y-43796D01*
X70994Y-43846D01*
X70949Y-43889D01*
X70897Y-43922D01*
X70840Y-43944D01*
X70779Y-43955D01*
X70717Y-43954D01*
X70657Y-43941D01*
X70600Y-43916D01*
X70549Y-43881D01*
X70506Y-43836D01*
X70473Y-43784D01*
X70450Y-43727D01*
X70439Y-43666D01*
X70440Y-43604D01*
X70453Y-43544D01*
X70477Y-43487D01*
X70512Y-43436D01*
X70556Y-43393D01*
X70608Y-43359D01*
X70665Y-43336D01*
X70726Y-43324D01*
X70788Y-43325D01*
X70848Y-43337D01*
X70905Y-43361D01*
X70956Y-43396D01*
X71000Y-43439D01*
X71034Y-43491D01*
X71058Y-43548D01*
X71070Y-43609D01*
X71070Y-43609D01*
G37*
G36*
X71070Y-44609D02*
X71069Y-44679D01*
X71055Y-44739D01*
X71030Y-44796D01*
X70994Y-44846D01*
X70949Y-44889D01*
X70897Y-44922D01*
X70840Y-44944D01*
X70779Y-44955D01*
X70717Y-44954D01*
X70657Y-44941D01*
X70600Y-44916D01*
X70549Y-44881D01*
X70506Y-44836D01*
X70473Y-44784D01*
X70450Y-44727D01*
X70439Y-44666D01*
X70440Y-44604D01*
X70453Y-44544D01*
X70477Y-44487D01*
X70512Y-44436D01*
X70556Y-44393D01*
X70608Y-44359D01*
X70665Y-44336D01*
X70726Y-44324D01*
X70788Y-44325D01*
X70848Y-44337D01*
X70905Y-44361D01*
X70956Y-44396D01*
X71000Y-44439D01*
X71034Y-44491D01*
X71058Y-44548D01*
X71070Y-44609D01*
X71070Y-44609D01*
G37*
G36*
X71070Y-45609D02*
X71069Y-45679D01*
X71055Y-45739D01*
X71030Y-45796D01*
X70994Y-45846D01*
X70949Y-45889D01*
X70897Y-45922D01*
X70840Y-45944D01*
X70779Y-45955D01*
X70717Y-45954D01*
X70657Y-45941D01*
X70600Y-45916D01*
X70549Y-45881D01*
X70506Y-45836D01*
X70473Y-45784D01*
X70450Y-45727D01*
X70439Y-45666D01*
X70440Y-45604D01*
X70453Y-45544D01*
X70477Y-45487D01*
X70512Y-45436D01*
X70556Y-45393D01*
X70608Y-45359D01*
X70665Y-45336D01*
X70726Y-45324D01*
X70788Y-45325D01*
X70848Y-45337D01*
X70905Y-45361D01*
X70956Y-45396D01*
X71000Y-45439D01*
X71034Y-45491D01*
X71058Y-45548D01*
X71070Y-45609D01*
X71070Y-45609D01*
G37*
G36*
X71070Y-46609D02*
X71069Y-46679D01*
X71055Y-46739D01*
X71030Y-46796D01*
X70994Y-46846D01*
X70949Y-46889D01*
X70897Y-46922D01*
X70840Y-46944D01*
X70779Y-46955D01*
X70717Y-46954D01*
X70657Y-46941D01*
X70600Y-46916D01*
X70549Y-46881D01*
X70506Y-46836D01*
X70473Y-46784D01*
X70450Y-46727D01*
X70439Y-46666D01*
X70440Y-46604D01*
X70453Y-46544D01*
X70477Y-46487D01*
X70512Y-46436D01*
X70556Y-46393D01*
X70608Y-46359D01*
X70665Y-46336D01*
X70726Y-46324D01*
X70788Y-46325D01*
X70848Y-46337D01*
X70905Y-46361D01*
X70956Y-46396D01*
X71000Y-46439D01*
X71034Y-46491D01*
X71058Y-46548D01*
X71070Y-46609D01*
X71070Y-46609D01*
G37*
G36*
X71070Y-47609D02*
X71069Y-47679D01*
X71055Y-47739D01*
X71030Y-47796D01*
X70994Y-47846D01*
X70949Y-47889D01*
X70897Y-47922D01*
X70840Y-47944D01*
X70779Y-47955D01*
X70717Y-47954D01*
X70657Y-47941D01*
X70600Y-47916D01*
X70549Y-47881D01*
X70506Y-47836D01*
X70473Y-47784D01*
X70450Y-47727D01*
X70439Y-47666D01*
X70440Y-47604D01*
X70453Y-47544D01*
X70477Y-47487D01*
X70512Y-47436D01*
X70556Y-47393D01*
X70608Y-47359D01*
X70665Y-47336D01*
X70726Y-47324D01*
X70788Y-47325D01*
X70848Y-47337D01*
X70905Y-47361D01*
X70956Y-47396D01*
X71000Y-47439D01*
X71034Y-47491D01*
X71058Y-47548D01*
X71070Y-47609D01*
X71070Y-47609D01*
G37*
G36*
X71070Y-48609D02*
X71069Y-48679D01*
X71055Y-48739D01*
X71030Y-48796D01*
X70994Y-48846D01*
X70949Y-48889D01*
X70897Y-48922D01*
X70840Y-48944D01*
X70779Y-48955D01*
X70717Y-48954D01*
X70657Y-48941D01*
X70600Y-48916D01*
X70549Y-48881D01*
X70506Y-48836D01*
X70473Y-48784D01*
X70450Y-48727D01*
X70439Y-48666D01*
X70440Y-48604D01*
X70453Y-48544D01*
X70477Y-48487D01*
X70512Y-48436D01*
X70556Y-48393D01*
X70608Y-48359D01*
X70665Y-48336D01*
X70726Y-48324D01*
X70788Y-48325D01*
X70848Y-48337D01*
X70905Y-48361D01*
X70956Y-48396D01*
X71000Y-48439D01*
X71034Y-48491D01*
X71058Y-48548D01*
X71070Y-48609D01*
X71070Y-48609D01*
G37*
G36*
X71070Y-33610D02*
X71069Y-33678D01*
X71055Y-33741D01*
X71031Y-33795D01*
X70993Y-33848D01*
X70951Y-33888D01*
X70896Y-33923D01*
X70841Y-33944D01*
X70777Y-33955D01*
X70719Y-33954D01*
X70655Y-33940D01*
X70601Y-33917D01*
X70548Y-33880D01*
X70507Y-33837D01*
X70472Y-33783D01*
X70451Y-33728D01*
X70439Y-33664D01*
X70440Y-33606D01*
X70453Y-33542D01*
X70476Y-33488D01*
X70513Y-33435D01*
X70555Y-33394D01*
X70609Y-33358D01*
X70663Y-33336D01*
X70728Y-33324D01*
X70786Y-33324D01*
X70850Y-33338D01*
X70903Y-33360D01*
X70958Y-33397D01*
X70999Y-33438D01*
X71035Y-33493D01*
X71057Y-33546D01*
X71070Y-33610D01*
X71070Y-33610D01*
G37*
G36*
X71070Y-34610D02*
X71069Y-34678D01*
X71055Y-34741D01*
X71031Y-34795D01*
X70993Y-34848D01*
X70951Y-34888D01*
X70896Y-34923D01*
X70841Y-34944D01*
X70777Y-34955D01*
X70719Y-34954D01*
X70655Y-34940D01*
X70601Y-34917D01*
X70548Y-34880D01*
X70507Y-34837D01*
X70472Y-34783D01*
X70451Y-34728D01*
X70439Y-34664D01*
X70440Y-34606D01*
X70453Y-34542D01*
X70476Y-34488D01*
X70513Y-34435D01*
X70555Y-34394D01*
X70609Y-34358D01*
X70663Y-34336D01*
X70728Y-34324D01*
X70786Y-34324D01*
X70850Y-34338D01*
X70903Y-34360D01*
X70958Y-34397D01*
X70999Y-34438D01*
X71035Y-34493D01*
X71057Y-34546D01*
X71070Y-34610D01*
X71070Y-34610D01*
G37*
G36*
X71070Y-35610D02*
X71069Y-35678D01*
X71055Y-35741D01*
X71031Y-35795D01*
X70993Y-35848D01*
X70951Y-35888D01*
X70896Y-35923D01*
X70841Y-35944D01*
X70777Y-35955D01*
X70719Y-35954D01*
X70655Y-35940D01*
X70601Y-35917D01*
X70548Y-35880D01*
X70507Y-35837D01*
X70472Y-35783D01*
X70451Y-35728D01*
X70439Y-35664D01*
X70440Y-35606D01*
X70453Y-35542D01*
X70476Y-35488D01*
X70513Y-35435D01*
X70555Y-35394D01*
X70609Y-35358D01*
X70663Y-35336D01*
X70728Y-35324D01*
X70786Y-35324D01*
X70850Y-35338D01*
X70903Y-35360D01*
X70958Y-35397D01*
X70999Y-35438D01*
X71035Y-35493D01*
X71057Y-35546D01*
X71070Y-35610D01*
X71070Y-35610D01*
G37*
G36*
X71070Y-36610D02*
X71069Y-36678D01*
X71055Y-36741D01*
X71031Y-36795D01*
X70993Y-36848D01*
X70951Y-36888D01*
X70896Y-36923D01*
X70841Y-36944D01*
X70777Y-36955D01*
X70719Y-36954D01*
X70655Y-36940D01*
X70601Y-36917D01*
X70548Y-36880D01*
X70507Y-36837D01*
X70472Y-36783D01*
X70451Y-36728D01*
X70439Y-36664D01*
X70440Y-36606D01*
X70453Y-36542D01*
X70476Y-36488D01*
X70513Y-36435D01*
X70555Y-36394D01*
X70609Y-36358D01*
X70663Y-36336D01*
X70728Y-36324D01*
X70786Y-36324D01*
X70850Y-36338D01*
X70903Y-36360D01*
X70958Y-36397D01*
X70999Y-36438D01*
X71035Y-36493D01*
X71057Y-36546D01*
X71070Y-36610D01*
X71070Y-36610D01*
G37*
G36*
X71070Y-37610D02*
X71069Y-37678D01*
X71055Y-37741D01*
X71031Y-37795D01*
X70993Y-37848D01*
X70951Y-37888D01*
X70896Y-37923D01*
X70841Y-37944D01*
X70777Y-37955D01*
X70719Y-37954D01*
X70655Y-37940D01*
X70601Y-37917D01*
X70548Y-37880D01*
X70507Y-37837D01*
X70472Y-37783D01*
X70451Y-37728D01*
X70439Y-37664D01*
X70440Y-37606D01*
X70453Y-37542D01*
X70476Y-37488D01*
X70513Y-37435D01*
X70555Y-37394D01*
X70609Y-37358D01*
X70663Y-37336D01*
X70728Y-37324D01*
X70786Y-37324D01*
X70850Y-37338D01*
X70903Y-37360D01*
X70958Y-37397D01*
X70999Y-37438D01*
X71035Y-37493D01*
X71057Y-37546D01*
X71070Y-37610D01*
X71070Y-37610D01*
G37*
G36*
X71070Y-38610D02*
X71069Y-38678D01*
X71055Y-38741D01*
X71031Y-38795D01*
X70993Y-38848D01*
X70951Y-38888D01*
X70896Y-38923D01*
X70841Y-38944D01*
X70777Y-38955D01*
X70719Y-38954D01*
X70655Y-38940D01*
X70601Y-38917D01*
X70548Y-38880D01*
X70507Y-38837D01*
X70472Y-38783D01*
X70451Y-38728D01*
X70439Y-38664D01*
X70440Y-38606D01*
X70453Y-38542D01*
X70476Y-38488D01*
X70513Y-38435D01*
X70555Y-38394D01*
X70609Y-38358D01*
X70663Y-38336D01*
X70728Y-38324D01*
X70786Y-38324D01*
X70850Y-38338D01*
X70903Y-38360D01*
X70958Y-38397D01*
X70999Y-38438D01*
X71035Y-38493D01*
X71057Y-38546D01*
X71070Y-38610D01*
X71070Y-38610D01*
G37*
G36*
X71070Y-39610D02*
X71069Y-39678D01*
X71055Y-39741D01*
X71031Y-39795D01*
X70993Y-39848D01*
X70951Y-39888D01*
X70896Y-39923D01*
X70841Y-39944D01*
X70777Y-39955D01*
X70719Y-39954D01*
X70655Y-39940D01*
X70601Y-39917D01*
X70548Y-39880D01*
X70507Y-39837D01*
X70472Y-39783D01*
X70451Y-39728D01*
X70439Y-39664D01*
X70440Y-39606D01*
X70453Y-39542D01*
X70476Y-39488D01*
X70513Y-39435D01*
X70555Y-39394D01*
X70609Y-39358D01*
X70663Y-39336D01*
X70728Y-39324D01*
X70786Y-39324D01*
X70850Y-39338D01*
X70903Y-39360D01*
X70958Y-39397D01*
X70999Y-39438D01*
X71035Y-39493D01*
X71057Y-39546D01*
X71070Y-39610D01*
X71070Y-39610D01*
G37*
G36*
X71070Y-40610D02*
X71069Y-40678D01*
X71055Y-40741D01*
X71031Y-40795D01*
X70993Y-40848D01*
X70951Y-40888D01*
X70896Y-40923D01*
X70841Y-40944D01*
X70777Y-40955D01*
X70719Y-40954D01*
X70655Y-40940D01*
X70601Y-40917D01*
X70548Y-40880D01*
X70507Y-40837D01*
X70472Y-40783D01*
X70451Y-40728D01*
X70439Y-40664D01*
X70440Y-40606D01*
X70453Y-40542D01*
X70476Y-40488D01*
X70513Y-40435D01*
X70555Y-40394D01*
X70609Y-40358D01*
X70663Y-40336D01*
X70728Y-40324D01*
X70786Y-40324D01*
X70850Y-40338D01*
X70903Y-40360D01*
X70958Y-40397D01*
X70999Y-40438D01*
X71035Y-40493D01*
X71057Y-40546D01*
X71070Y-40610D01*
X71070Y-40610D01*
G37*
G36*
X71070Y-41610D02*
X71069Y-41678D01*
X71055Y-41741D01*
X71031Y-41795D01*
X70993Y-41848D01*
X70951Y-41888D01*
X70896Y-41923D01*
X70841Y-41944D01*
X70777Y-41955D01*
X70719Y-41954D01*
X70655Y-41940D01*
X70601Y-41917D01*
X70548Y-41880D01*
X70507Y-41837D01*
X70472Y-41783D01*
X70451Y-41728D01*
X70439Y-41664D01*
X70440Y-41606D01*
X70453Y-41542D01*
X70476Y-41488D01*
X70513Y-41435D01*
X70555Y-41394D01*
X70609Y-41358D01*
X70663Y-41336D01*
X70728Y-41324D01*
X70786Y-41324D01*
X70850Y-41338D01*
X70903Y-41360D01*
X70958Y-41397D01*
X70999Y-41438D01*
X71035Y-41493D01*
X71057Y-41546D01*
X71070Y-41610D01*
X71070Y-41610D01*
G37*
G36*
X71070Y-42610D02*
X71069Y-42678D01*
X71055Y-42741D01*
X71031Y-42795D01*
X70993Y-42848D01*
X70951Y-42888D01*
X70896Y-42923D01*
X70841Y-42944D01*
X70777Y-42955D01*
X70719Y-42954D01*
X70655Y-42940D01*
X70601Y-42917D01*
X70548Y-42880D01*
X70507Y-42837D01*
X70472Y-42783D01*
X70451Y-42728D01*
X70439Y-42664D01*
X70440Y-42606D01*
X70453Y-42542D01*
X70476Y-42488D01*
X70513Y-42435D01*
X70555Y-42394D01*
X70609Y-42358D01*
X70663Y-42336D01*
X70728Y-42324D01*
X70786Y-42324D01*
X70850Y-42338D01*
X70903Y-42360D01*
X70958Y-42397D01*
X70999Y-42438D01*
X71035Y-42493D01*
X71057Y-42546D01*
X71070Y-42610D01*
X71070Y-42610D01*
G37*
G36*
X71285Y-27330D02*
X71284Y-27398D01*
X71270Y-27461D01*
X71246Y-27515D01*
X71208Y-27568D01*
X71166Y-27608D01*
X71111Y-27643D01*
X71056Y-27664D01*
X70992Y-27675D01*
X70934Y-27674D01*
X70870Y-27660D01*
X70816Y-27637D01*
X70763Y-27600D01*
X70722Y-27557D01*
X70687Y-27503D01*
X70666Y-27448D01*
X70654Y-27384D01*
X70655Y-27326D01*
X70668Y-27262D01*
X70691Y-27208D01*
X70728Y-27155D01*
X70770Y-27114D01*
X70824Y-27078D01*
X70878Y-27056D01*
X70943Y-27044D01*
X71001Y-27044D01*
X71065Y-27058D01*
X71118Y-27080D01*
X71173Y-27117D01*
X71214Y-27158D01*
X71250Y-27213D01*
X71272Y-27266D01*
X71285Y-27330D01*
X71285Y-27330D01*
G37*
G36*
X71285Y-28330D02*
X71284Y-28398D01*
X71270Y-28461D01*
X71246Y-28515D01*
X71208Y-28568D01*
X71166Y-28608D01*
X71111Y-28643D01*
X71056Y-28664D01*
X70992Y-28675D01*
X70934Y-28674D01*
X70870Y-28660D01*
X70816Y-28637D01*
X70763Y-28600D01*
X70722Y-28557D01*
X70687Y-28503D01*
X70666Y-28448D01*
X70654Y-28384D01*
X70655Y-28326D01*
X70668Y-28262D01*
X70691Y-28208D01*
X70728Y-28155D01*
X70770Y-28114D01*
X70824Y-28078D01*
X70878Y-28056D01*
X70943Y-28044D01*
X71001Y-28044D01*
X71065Y-28058D01*
X71118Y-28080D01*
X71173Y-28117D01*
X71214Y-28158D01*
X71250Y-28213D01*
X71272Y-28266D01*
X71285Y-28330D01*
X71285Y-28330D01*
G37*
G36*
X71285Y-29330D02*
X71284Y-29398D01*
X71270Y-29461D01*
X71246Y-29515D01*
X71208Y-29568D01*
X71166Y-29608D01*
X71111Y-29643D01*
X71056Y-29664D01*
X70992Y-29675D01*
X70934Y-29674D01*
X70870Y-29660D01*
X70816Y-29637D01*
X70763Y-29600D01*
X70722Y-29557D01*
X70687Y-29503D01*
X70666Y-29448D01*
X70654Y-29384D01*
X70655Y-29326D01*
X70668Y-29262D01*
X70691Y-29208D01*
X70728Y-29155D01*
X70770Y-29114D01*
X70824Y-29078D01*
X70878Y-29056D01*
X70943Y-29044D01*
X71001Y-29044D01*
X71065Y-29058D01*
X71118Y-29080D01*
X71173Y-29117D01*
X71214Y-29158D01*
X71250Y-29213D01*
X71272Y-29266D01*
X71285Y-29330D01*
X71285Y-29330D01*
G37*
G36*
X71285Y-30330D02*
X71284Y-30398D01*
X71270Y-30461D01*
X71246Y-30515D01*
X71208Y-30568D01*
X71166Y-30608D01*
X71111Y-30643D01*
X71056Y-30664D01*
X70992Y-30675D01*
X70934Y-30674D01*
X70870Y-30660D01*
X70816Y-30637D01*
X70763Y-30600D01*
X70722Y-30557D01*
X70687Y-30503D01*
X70666Y-30448D01*
X70654Y-30384D01*
X70655Y-30326D01*
X70668Y-30262D01*
X70691Y-30208D01*
X70728Y-30155D01*
X70770Y-30114D01*
X70824Y-30078D01*
X70878Y-30056D01*
X70943Y-30044D01*
X71001Y-30044D01*
X71065Y-30058D01*
X71118Y-30080D01*
X71173Y-30117D01*
X71214Y-30158D01*
X71250Y-30213D01*
X71272Y-30266D01*
X71285Y-30330D01*
X71285Y-30330D01*
G37*
G36*
X72255Y-35380D02*
X71724Y-35380D01*
X71724Y-35099D01*
X72255Y-35099D01*
X72255Y-35380D01*
X72255Y-35380D01*
G37*
G36*
X72255Y-35880D02*
X71724Y-35880D01*
X71724Y-35599D01*
X72255Y-35599D01*
X72255Y-35880D01*
X72255Y-35880D01*
G37*
G36*
X72255Y-36380D02*
X71724Y-36380D01*
X71724Y-36099D01*
X72255Y-36099D01*
X72255Y-36380D01*
X72255Y-36380D01*
G37*
G36*
X72255Y-36880D02*
X71724Y-36880D01*
X71724Y-36599D01*
X72255Y-36599D01*
X72255Y-36880D01*
X72255Y-36880D01*
G37*
G36*
X72255Y-37380D02*
X71724Y-37380D01*
X71724Y-37099D01*
X72255Y-37099D01*
X72255Y-37380D01*
X72255Y-37380D01*
G37*
G36*
X72255Y-37880D02*
X71724Y-37880D01*
X71724Y-37599D01*
X72255Y-37599D01*
X72255Y-37880D01*
X72255Y-37880D01*
G37*
G36*
X72255Y-38380D02*
X71724Y-38380D01*
X71724Y-38099D01*
X72255Y-38099D01*
X72255Y-38380D01*
X72255Y-38380D01*
G37*
G36*
X72255Y-38880D02*
X71724Y-38880D01*
X71724Y-38599D01*
X72255Y-38599D01*
X72255Y-38880D01*
X72255Y-38880D01*
G37*
G36*
X72315Y-44290D02*
X71785Y-44290D01*
X71785Y-44010D01*
X72315Y-44010D01*
X72315Y-44290D01*
X72315Y-44290D01*
G37*
G36*
X72315Y-44790D02*
X71785Y-44790D01*
X71785Y-44510D01*
X72315Y-44510D01*
X72315Y-44790D01*
X72315Y-44790D01*
G37*
G36*
X72315Y-45290D02*
X71785Y-45290D01*
X71785Y-45010D01*
X72315Y-45010D01*
X72315Y-45290D01*
X72315Y-45290D01*
G37*
G36*
X72315Y-45790D02*
X71785Y-45790D01*
X71785Y-45510D01*
X72315Y-45510D01*
X72315Y-45790D01*
X72315Y-45790D01*
G37*
G36*
X72315Y-46290D02*
X71785Y-46290D01*
X71785Y-46010D01*
X72315Y-46010D01*
X72315Y-46290D01*
X72315Y-46290D01*
G37*
G36*
X72315Y-46790D02*
X71785Y-46790D01*
X71785Y-46510D01*
X72315Y-46510D01*
X72315Y-46790D01*
X72315Y-46790D01*
G37*
G36*
X72315Y-47290D02*
X71785Y-47290D01*
X71785Y-47010D01*
X72315Y-47010D01*
X72315Y-47290D01*
X72315Y-47290D01*
G37*
G36*
X72825Y-31789D02*
X72824Y-31813D01*
X72818Y-31838D01*
X72810Y-31857D01*
X72795Y-31878D01*
X72780Y-31892D01*
X72758Y-31907D01*
X72739Y-31914D01*
X72713Y-31918D01*
X72693Y-31918D01*
X72667Y-31912D01*
X72649Y-31904D01*
X72627Y-31889D01*
X72613Y-31875D01*
X72599Y-31852D01*
X72592Y-31834D01*
X72587Y-31808D01*
X72587Y-31788D01*
X72593Y-31762D01*
X72601Y-31744D01*
X72616Y-31722D01*
X72630Y-31708D01*
X72652Y-31693D01*
X72670Y-31686D01*
X72697Y-31681D01*
X72716Y-31681D01*
X72743Y-31686D01*
X72761Y-31694D01*
X72783Y-31709D01*
X72797Y-31723D01*
X72812Y-31745D01*
X72819Y-31763D01*
X72825Y-31789D01*
X72825Y-31789D01*
G37*
G36*
X72845Y-31189D02*
X72844Y-31213D01*
X72838Y-31238D01*
X72830Y-31257D01*
X72815Y-31278D01*
X72800Y-31292D01*
X72778Y-31307D01*
X72759Y-31314D01*
X72733Y-31318D01*
X72713Y-31318D01*
X72687Y-31312D01*
X72669Y-31304D01*
X72647Y-31289D01*
X72633Y-31275D01*
X72619Y-31252D01*
X72612Y-31234D01*
X72607Y-31208D01*
X72607Y-31188D01*
X72613Y-31162D01*
X72621Y-31144D01*
X72636Y-31122D01*
X72650Y-31108D01*
X72672Y-31093D01*
X72690Y-31086D01*
X72717Y-31081D01*
X72736Y-31081D01*
X72763Y-31086D01*
X72781Y-31094D01*
X72803Y-31109D01*
X72817Y-31123D01*
X72832Y-31145D01*
X72839Y-31163D01*
X72845Y-31189D01*
X72845Y-31189D01*
G37*
G36*
X72980Y-29269D02*
X72399Y-29269D01*
X72399Y-29036D01*
X72399Y-29029D01*
X72399Y-29022D01*
X72399Y-29015D01*
X72399Y-28780D01*
X72399Y-28773D01*
X72399Y-28766D01*
X72399Y-28759D01*
X72399Y-28524D01*
X72399Y-28517D01*
X72399Y-28510D01*
X72399Y-28503D01*
X72399Y-28270D01*
X72980Y-28270D01*
X72980Y-28503D01*
X72980Y-28510D01*
X72980Y-28517D01*
X72980Y-28524D01*
X72980Y-28759D01*
X72980Y-28766D01*
X72980Y-28773D01*
X72980Y-28780D01*
X72980Y-29015D01*
X72980Y-29022D01*
X72980Y-29029D01*
X72980Y-29036D01*
X72980Y-29269D01*
X72980Y-29269D01*
G37*
G36*
X73218Y-31789D02*
X73218Y-31813D01*
X73212Y-31838D01*
X73204Y-31857D01*
X73189Y-31878D01*
X73174Y-31892D01*
X73152Y-31907D01*
X73133Y-31914D01*
X73107Y-31918D01*
X73087Y-31918D01*
X73061Y-31912D01*
X73043Y-31904D01*
X73021Y-31889D01*
X73007Y-31875D01*
X72993Y-31852D01*
X72985Y-31834D01*
X72981Y-31808D01*
X72981Y-31788D01*
X72986Y-31762D01*
X72994Y-31744D01*
X73009Y-31722D01*
X73023Y-31708D01*
X73046Y-31693D01*
X73064Y-31686D01*
X73091Y-31681D01*
X73110Y-31681D01*
X73137Y-31686D01*
X73155Y-31694D01*
X73177Y-31709D01*
X73191Y-31723D01*
X73206Y-31745D01*
X73213Y-31763D01*
X73218Y-31789D01*
X73218Y-31789D01*
G37*
G36*
X73238Y-31189D02*
X73238Y-31213D01*
X73232Y-31238D01*
X73224Y-31257D01*
X73209Y-31278D01*
X73194Y-31292D01*
X73172Y-31307D01*
X73153Y-31314D01*
X73127Y-31318D01*
X73107Y-31318D01*
X73081Y-31312D01*
X73063Y-31304D01*
X73041Y-31289D01*
X73027Y-31275D01*
X73013Y-31252D01*
X73005Y-31234D01*
X73001Y-31208D01*
X73001Y-31188D01*
X73006Y-31162D01*
X73014Y-31144D01*
X73029Y-31122D01*
X73043Y-31108D01*
X73066Y-31093D01*
X73084Y-31086D01*
X73111Y-31081D01*
X73130Y-31081D01*
X73157Y-31086D01*
X73175Y-31094D01*
X73197Y-31109D01*
X73211Y-31123D01*
X73226Y-31145D01*
X73233Y-31163D01*
X73238Y-31189D01*
X73238Y-31189D01*
G37*
G36*
X73490Y-32610D02*
X73489Y-32678D01*
X73475Y-32741D01*
X73451Y-32795D01*
X73413Y-32848D01*
X73371Y-32888D01*
X73316Y-32923D01*
X73261Y-32944D01*
X73197Y-32955D01*
X73139Y-32954D01*
X73075Y-32940D01*
X73021Y-32917D01*
X72968Y-32880D01*
X72927Y-32837D01*
X72892Y-32783D01*
X72871Y-32728D01*
X72859Y-32664D01*
X72860Y-32606D01*
X72873Y-32542D01*
X72896Y-32488D01*
X72933Y-32435D01*
X72975Y-32394D01*
X73029Y-32358D01*
X73083Y-32336D01*
X73148Y-32324D01*
X73206Y-32324D01*
X73270Y-32338D01*
X73323Y-32360D01*
X73378Y-32397D01*
X73419Y-32438D01*
X73455Y-32493D01*
X73477Y-32546D01*
X73490Y-32610D01*
X73490Y-32610D01*
G37*
G36*
X73612Y-31789D02*
X73612Y-31813D01*
X73606Y-31838D01*
X73598Y-31857D01*
X73582Y-31878D01*
X73568Y-31892D01*
X73546Y-31907D01*
X73527Y-31914D01*
X73501Y-31918D01*
X73481Y-31918D01*
X73455Y-31912D01*
X73436Y-31904D01*
X73415Y-31889D01*
X73401Y-31875D01*
X73386Y-31852D01*
X73379Y-31834D01*
X73374Y-31808D01*
X73375Y-31788D01*
X73380Y-31762D01*
X73388Y-31744D01*
X73403Y-31722D01*
X73417Y-31708D01*
X73440Y-31693D01*
X73458Y-31686D01*
X73484Y-31681D01*
X73504Y-31681D01*
X73530Y-31686D01*
X73548Y-31694D01*
X73571Y-31709D01*
X73584Y-31723D01*
X73599Y-31745D01*
X73607Y-31763D01*
X73612Y-31789D01*
X73612Y-31789D01*
G37*
G36*
X73632Y-31189D02*
X73632Y-31213D01*
X73626Y-31238D01*
X73618Y-31257D01*
X73602Y-31278D01*
X73588Y-31292D01*
X73566Y-31307D01*
X73547Y-31314D01*
X73521Y-31318D01*
X73501Y-31318D01*
X73475Y-31312D01*
X73456Y-31304D01*
X73435Y-31289D01*
X73421Y-31275D01*
X73406Y-31252D01*
X73399Y-31234D01*
X73394Y-31208D01*
X73395Y-31188D01*
X73400Y-31162D01*
X73408Y-31144D01*
X73423Y-31122D01*
X73437Y-31108D01*
X73460Y-31093D01*
X73478Y-31086D01*
X73504Y-31081D01*
X73524Y-31081D01*
X73550Y-31086D01*
X73568Y-31094D01*
X73591Y-31109D01*
X73604Y-31123D01*
X73619Y-31145D01*
X73627Y-31163D01*
X73632Y-31189D01*
X73632Y-31189D01*
G37*
G36*
X74061Y-41240D02*
X73170Y-42131D01*
X72278Y-41240D01*
X73170Y-40348D01*
X74061Y-41240D01*
X74061Y-41240D01*
G37*
G36*
X74680Y-29269D02*
X74099Y-29269D01*
X74099Y-29036D01*
X74099Y-29029D01*
X74099Y-29022D01*
X74099Y-29015D01*
X74099Y-28780D01*
X74099Y-28773D01*
X74099Y-28766D01*
X74099Y-28759D01*
X74099Y-28524D01*
X74099Y-28517D01*
X74099Y-28510D01*
X74099Y-28503D01*
X74099Y-28270D01*
X74680Y-28270D01*
X74680Y-28503D01*
X74680Y-28510D01*
X74680Y-28517D01*
X74680Y-28524D01*
X74680Y-28759D01*
X74680Y-28766D01*
X74680Y-28773D01*
X74680Y-28780D01*
X74680Y-29015D01*
X74680Y-29022D01*
X74680Y-29029D01*
X74680Y-29036D01*
X74680Y-29269D01*
X74680Y-29269D01*
G37*
G36*
X74755Y-35380D02*
X74224Y-35380D01*
X74224Y-35099D01*
X74755Y-35099D01*
X74755Y-35380D01*
X74755Y-35380D01*
G37*
G36*
X74755Y-35880D02*
X74224Y-35880D01*
X74224Y-35599D01*
X74755Y-35599D01*
X74755Y-35880D01*
X74755Y-35880D01*
G37*
G36*
X74755Y-36380D02*
X74224Y-36380D01*
X74224Y-36099D01*
X74755Y-36099D01*
X74755Y-36380D01*
X74755Y-36380D01*
G37*
G36*
X74755Y-36880D02*
X74224Y-36880D01*
X74224Y-36599D01*
X74755Y-36599D01*
X74755Y-36880D01*
X74755Y-36880D01*
G37*
G36*
X74755Y-37380D02*
X74224Y-37380D01*
X74224Y-37099D01*
X74755Y-37099D01*
X74755Y-37380D01*
X74755Y-37380D01*
G37*
G36*
X74755Y-37880D02*
X74224Y-37880D01*
X74224Y-37599D01*
X74755Y-37599D01*
X74755Y-37880D01*
X74755Y-37880D01*
G37*
G36*
X74755Y-38380D02*
X74224Y-38380D01*
X74224Y-38099D01*
X74755Y-38099D01*
X74755Y-38380D01*
X74755Y-38380D01*
G37*
G36*
X74755Y-38880D02*
X74224Y-38880D01*
X74224Y-38599D01*
X74755Y-38599D01*
X74755Y-38880D01*
X74755Y-38880D01*
G37*
G36*
X74815Y-44290D02*
X74285Y-44290D01*
X74285Y-44010D01*
X74815Y-44010D01*
X74815Y-44290D01*
X74815Y-44290D01*
G37*
G36*
X74815Y-44790D02*
X74285Y-44790D01*
X74285Y-44510D01*
X74815Y-44510D01*
X74815Y-44790D01*
X74815Y-44790D01*
G37*
G36*
X74815Y-45290D02*
X74285Y-45290D01*
X74285Y-45010D01*
X74815Y-45010D01*
X74815Y-45290D01*
X74815Y-45290D01*
G37*
G36*
X74815Y-45790D02*
X74285Y-45790D01*
X74285Y-45510D01*
X74815Y-45510D01*
X74815Y-45790D01*
X74815Y-45790D01*
G37*
G36*
X74815Y-46290D02*
X74285Y-46290D01*
X74285Y-46010D01*
X74815Y-46010D01*
X74815Y-46290D01*
X74815Y-46290D01*
G37*
G36*
X74815Y-46790D02*
X74285Y-46790D01*
X74285Y-46510D01*
X74815Y-46510D01*
X74815Y-46790D01*
X74815Y-46790D01*
G37*
G36*
X74815Y-47290D02*
X74285Y-47290D01*
X74285Y-47010D01*
X74815Y-47010D01*
X74815Y-47290D01*
X74815Y-47290D01*
G37*
G36*
X76070Y-41609D02*
X76069Y-41679D01*
X76055Y-41739D01*
X76030Y-41796D01*
X75994Y-41846D01*
X75949Y-41889D01*
X75897Y-41922D01*
X75840Y-41944D01*
X75779Y-41955D01*
X75717Y-41954D01*
X75657Y-41941D01*
X75600Y-41916D01*
X75549Y-41881D01*
X75506Y-41836D01*
X75473Y-41784D01*
X75450Y-41727D01*
X75439Y-41666D01*
X75440Y-41604D01*
X75453Y-41544D01*
X75477Y-41487D01*
X75512Y-41436D01*
X75556Y-41393D01*
X75608Y-41359D01*
X75665Y-41336D01*
X75726Y-41324D01*
X75788Y-41325D01*
X75848Y-41337D01*
X75905Y-41361D01*
X75956Y-41396D01*
X76000Y-41439D01*
X76034Y-41491D01*
X76058Y-41548D01*
X76070Y-41609D01*
X76070Y-41609D01*
G37*
G36*
X76070Y-42609D02*
X76069Y-42679D01*
X76055Y-42739D01*
X76030Y-42796D01*
X75994Y-42846D01*
X75949Y-42889D01*
X75897Y-42922D01*
X75840Y-42944D01*
X75779Y-42955D01*
X75717Y-42954D01*
X75657Y-42941D01*
X75600Y-42916D01*
X75549Y-42881D01*
X75506Y-42836D01*
X75473Y-42784D01*
X75450Y-42727D01*
X75439Y-42666D01*
X75440Y-42604D01*
X75453Y-42544D01*
X75477Y-42487D01*
X75512Y-42436D01*
X75556Y-42393D01*
X75608Y-42359D01*
X75665Y-42336D01*
X75726Y-42324D01*
X75788Y-42325D01*
X75848Y-42337D01*
X75905Y-42361D01*
X75956Y-42396D01*
X76000Y-42439D01*
X76034Y-42491D01*
X76058Y-42548D01*
X76070Y-42609D01*
X76070Y-42609D01*
G37*
G36*
X76070Y-43609D02*
X76069Y-43679D01*
X76055Y-43739D01*
X76030Y-43796D01*
X75994Y-43846D01*
X75949Y-43889D01*
X75897Y-43922D01*
X75840Y-43944D01*
X75779Y-43955D01*
X75717Y-43954D01*
X75657Y-43941D01*
X75600Y-43916D01*
X75549Y-43881D01*
X75506Y-43836D01*
X75473Y-43784D01*
X75450Y-43727D01*
X75439Y-43666D01*
X75440Y-43604D01*
X75453Y-43544D01*
X75477Y-43487D01*
X75512Y-43436D01*
X75556Y-43393D01*
X75608Y-43359D01*
X75665Y-43336D01*
X75726Y-43324D01*
X75788Y-43325D01*
X75848Y-43337D01*
X75905Y-43361D01*
X75956Y-43396D01*
X76000Y-43439D01*
X76034Y-43491D01*
X76058Y-43548D01*
X76070Y-43609D01*
X76070Y-43609D01*
G37*
G36*
X76070Y-44609D02*
X76069Y-44679D01*
X76055Y-44739D01*
X76030Y-44796D01*
X75994Y-44846D01*
X75949Y-44889D01*
X75897Y-44922D01*
X75840Y-44944D01*
X75779Y-44955D01*
X75717Y-44954D01*
X75657Y-44941D01*
X75600Y-44916D01*
X75549Y-44881D01*
X75506Y-44836D01*
X75473Y-44784D01*
X75450Y-44727D01*
X75439Y-44666D01*
X75440Y-44604D01*
X75453Y-44544D01*
X75477Y-44487D01*
X75512Y-44436D01*
X75556Y-44393D01*
X75608Y-44359D01*
X75665Y-44336D01*
X75726Y-44324D01*
X75788Y-44325D01*
X75848Y-44337D01*
X75905Y-44361D01*
X75956Y-44396D01*
X76000Y-44439D01*
X76034Y-44491D01*
X76058Y-44548D01*
X76070Y-44609D01*
X76070Y-44609D01*
G37*
G36*
X76070Y-45609D02*
X76069Y-45679D01*
X76055Y-45739D01*
X76030Y-45796D01*
X75994Y-45846D01*
X75949Y-45889D01*
X75897Y-45922D01*
X75840Y-45944D01*
X75779Y-45955D01*
X75717Y-45954D01*
X75657Y-45941D01*
X75600Y-45916D01*
X75549Y-45881D01*
X75506Y-45836D01*
X75473Y-45784D01*
X75450Y-45727D01*
X75439Y-45666D01*
X75440Y-45604D01*
X75453Y-45544D01*
X75477Y-45487D01*
X75512Y-45436D01*
X75556Y-45393D01*
X75608Y-45359D01*
X75665Y-45336D01*
X75726Y-45324D01*
X75788Y-45325D01*
X75848Y-45337D01*
X75905Y-45361D01*
X75956Y-45396D01*
X76000Y-45439D01*
X76034Y-45491D01*
X76058Y-45548D01*
X76070Y-45609D01*
X76070Y-45609D01*
G37*
G36*
X76070Y-46609D02*
X76069Y-46679D01*
X76055Y-46739D01*
X76030Y-46796D01*
X75994Y-46846D01*
X75949Y-46889D01*
X75897Y-46922D01*
X75840Y-46944D01*
X75779Y-46955D01*
X75717Y-46954D01*
X75657Y-46941D01*
X75600Y-46916D01*
X75549Y-46881D01*
X75506Y-46836D01*
X75473Y-46784D01*
X75450Y-46727D01*
X75439Y-46666D01*
X75440Y-46604D01*
X75453Y-46544D01*
X75477Y-46487D01*
X75512Y-46436D01*
X75556Y-46393D01*
X75608Y-46359D01*
X75665Y-46336D01*
X75726Y-46324D01*
X75788Y-46325D01*
X75848Y-46337D01*
X75905Y-46361D01*
X75956Y-46396D01*
X76000Y-46439D01*
X76034Y-46491D01*
X76058Y-46548D01*
X76070Y-46609D01*
X76070Y-46609D01*
G37*
G36*
X76070Y-47609D02*
X76069Y-47679D01*
X76055Y-47739D01*
X76030Y-47796D01*
X75994Y-47846D01*
X75949Y-47889D01*
X75897Y-47922D01*
X75840Y-47944D01*
X75779Y-47955D01*
X75717Y-47954D01*
X75657Y-47941D01*
X75600Y-47916D01*
X75549Y-47881D01*
X75506Y-47836D01*
X75473Y-47784D01*
X75450Y-47727D01*
X75439Y-47666D01*
X75440Y-47604D01*
X75453Y-47544D01*
X75477Y-47487D01*
X75512Y-47436D01*
X75556Y-47393D01*
X75608Y-47359D01*
X75665Y-47336D01*
X75726Y-47324D01*
X75788Y-47325D01*
X75848Y-47337D01*
X75905Y-47361D01*
X75956Y-47396D01*
X76000Y-47439D01*
X76034Y-47491D01*
X76058Y-47548D01*
X76070Y-47609D01*
X76070Y-47609D01*
G37*
G36*
X76070Y-48609D02*
X76069Y-48679D01*
X76055Y-48739D01*
X76030Y-48796D01*
X75994Y-48846D01*
X75949Y-48889D01*
X75897Y-48922D01*
X75840Y-48944D01*
X75779Y-48955D01*
X75717Y-48954D01*
X75657Y-48941D01*
X75600Y-48916D01*
X75549Y-48881D01*
X75506Y-48836D01*
X75473Y-48784D01*
X75450Y-48727D01*
X75439Y-48666D01*
X75440Y-48604D01*
X75453Y-48544D01*
X75477Y-48487D01*
X75512Y-48436D01*
X75556Y-48393D01*
X75608Y-48359D01*
X75665Y-48336D01*
X75726Y-48324D01*
X75788Y-48325D01*
X75848Y-48337D01*
X75905Y-48361D01*
X75956Y-48396D01*
X76000Y-48439D01*
X76034Y-48491D01*
X76058Y-48548D01*
X76070Y-48609D01*
X76070Y-48609D01*
G37*
G36*
X76070Y-33610D02*
X76069Y-33678D01*
X76055Y-33741D01*
X76031Y-33795D01*
X75993Y-33848D01*
X75951Y-33888D01*
X75896Y-33923D01*
X75841Y-33944D01*
X75777Y-33955D01*
X75719Y-33954D01*
X75655Y-33940D01*
X75601Y-33917D01*
X75548Y-33880D01*
X75507Y-33837D01*
X75472Y-33783D01*
X75451Y-33728D01*
X75439Y-33664D01*
X75440Y-33606D01*
X75453Y-33542D01*
X75476Y-33488D01*
X75513Y-33435D01*
X75555Y-33394D01*
X75609Y-33358D01*
X75663Y-33336D01*
X75728Y-33324D01*
X75786Y-33324D01*
X75850Y-33338D01*
X75903Y-33360D01*
X75958Y-33397D01*
X75999Y-33438D01*
X76035Y-33493D01*
X76057Y-33546D01*
X76070Y-33610D01*
X76070Y-33610D01*
G37*
G36*
X76070Y-34610D02*
X76069Y-34678D01*
X76055Y-34741D01*
X76031Y-34795D01*
X75993Y-34848D01*
X75951Y-34888D01*
X75896Y-34923D01*
X75841Y-34944D01*
X75777Y-34955D01*
X75719Y-34954D01*
X75655Y-34940D01*
X75601Y-34917D01*
X75548Y-34880D01*
X75507Y-34837D01*
X75472Y-34783D01*
X75451Y-34728D01*
X75439Y-34664D01*
X75440Y-34606D01*
X75453Y-34542D01*
X75476Y-34488D01*
X75513Y-34435D01*
X75555Y-34394D01*
X75609Y-34358D01*
X75663Y-34336D01*
X75728Y-34324D01*
X75786Y-34324D01*
X75850Y-34338D01*
X75903Y-34360D01*
X75958Y-34397D01*
X75999Y-34438D01*
X76035Y-34493D01*
X76057Y-34546D01*
X76070Y-34610D01*
X76070Y-34610D01*
G37*
G36*
X76070Y-35610D02*
X76069Y-35678D01*
X76055Y-35741D01*
X76031Y-35795D01*
X75993Y-35848D01*
X75951Y-35888D01*
X75896Y-35923D01*
X75841Y-35944D01*
X75777Y-35955D01*
X75719Y-35954D01*
X75655Y-35940D01*
X75601Y-35917D01*
X75548Y-35880D01*
X75507Y-35837D01*
X75472Y-35783D01*
X75451Y-35728D01*
X75439Y-35664D01*
X75440Y-35606D01*
X75453Y-35542D01*
X75476Y-35488D01*
X75513Y-35435D01*
X75555Y-35394D01*
X75609Y-35358D01*
X75663Y-35336D01*
X75728Y-35324D01*
X75786Y-35324D01*
X75850Y-35338D01*
X75903Y-35360D01*
X75958Y-35397D01*
X75999Y-35438D01*
X76035Y-35493D01*
X76057Y-35546D01*
X76070Y-35610D01*
X76070Y-35610D01*
G37*
G36*
X76070Y-36610D02*
X76069Y-36678D01*
X76055Y-36741D01*
X76031Y-36795D01*
X75993Y-36848D01*
X75951Y-36888D01*
X75896Y-36923D01*
X75841Y-36944D01*
X75777Y-36955D01*
X75719Y-36954D01*
X75655Y-36940D01*
X75601Y-36917D01*
X75548Y-36880D01*
X75507Y-36837D01*
X75472Y-36783D01*
X75451Y-36728D01*
X75439Y-36664D01*
X75440Y-36606D01*
X75453Y-36542D01*
X75476Y-36488D01*
X75513Y-36435D01*
X75555Y-36394D01*
X75609Y-36358D01*
X75663Y-36336D01*
X75728Y-36324D01*
X75786Y-36324D01*
X75850Y-36338D01*
X75903Y-36360D01*
X75958Y-36397D01*
X75999Y-36438D01*
X76035Y-36493D01*
X76057Y-36546D01*
X76070Y-36610D01*
X76070Y-36610D01*
G37*
G36*
X76070Y-37610D02*
X76069Y-37678D01*
X76055Y-37741D01*
X76031Y-37795D01*
X75993Y-37848D01*
X75951Y-37888D01*
X75896Y-37923D01*
X75841Y-37944D01*
X75777Y-37955D01*
X75719Y-37954D01*
X75655Y-37940D01*
X75601Y-37917D01*
X75548Y-37880D01*
X75507Y-37837D01*
X75472Y-37783D01*
X75451Y-37728D01*
X75439Y-37664D01*
X75440Y-37606D01*
X75453Y-37542D01*
X75476Y-37488D01*
X75513Y-37435D01*
X75555Y-37394D01*
X75609Y-37358D01*
X75663Y-37336D01*
X75728Y-37324D01*
X75786Y-37324D01*
X75850Y-37338D01*
X75903Y-37360D01*
X75958Y-37397D01*
X75999Y-37438D01*
X76035Y-37493D01*
X76057Y-37546D01*
X76070Y-37610D01*
X76070Y-37610D01*
G37*
G36*
X76070Y-38610D02*
X76069Y-38678D01*
X76055Y-38741D01*
X76031Y-38795D01*
X75993Y-38848D01*
X75951Y-38888D01*
X75896Y-38923D01*
X75841Y-38944D01*
X75777Y-38955D01*
X75719Y-38954D01*
X75655Y-38940D01*
X75601Y-38917D01*
X75548Y-38880D01*
X75507Y-38837D01*
X75472Y-38783D01*
X75451Y-38728D01*
X75439Y-38664D01*
X75440Y-38606D01*
X75453Y-38542D01*
X75476Y-38488D01*
X75513Y-38435D01*
X75555Y-38394D01*
X75609Y-38358D01*
X75663Y-38336D01*
X75728Y-38324D01*
X75786Y-38324D01*
X75850Y-38338D01*
X75903Y-38360D01*
X75958Y-38397D01*
X75999Y-38438D01*
X76035Y-38493D01*
X76057Y-38546D01*
X76070Y-38610D01*
X76070Y-38610D01*
G37*
G36*
X76070Y-39610D02*
X76069Y-39678D01*
X76055Y-39741D01*
X76031Y-39795D01*
X75993Y-39848D01*
X75951Y-39888D01*
X75896Y-39923D01*
X75841Y-39944D01*
X75777Y-39955D01*
X75719Y-39954D01*
X75655Y-39940D01*
X75601Y-39917D01*
X75548Y-39880D01*
X75507Y-39837D01*
X75472Y-39783D01*
X75451Y-39728D01*
X75439Y-39664D01*
X75440Y-39606D01*
X75453Y-39542D01*
X75476Y-39488D01*
X75513Y-39435D01*
X75555Y-39394D01*
X75609Y-39358D01*
X75663Y-39336D01*
X75728Y-39324D01*
X75786Y-39324D01*
X75850Y-39338D01*
X75903Y-39360D01*
X75958Y-39397D01*
X75999Y-39438D01*
X76035Y-39493D01*
X76057Y-39546D01*
X76070Y-39610D01*
X76070Y-39610D01*
G37*
G36*
X76070Y-40610D02*
X76069Y-40678D01*
X76055Y-40741D01*
X76031Y-40795D01*
X75993Y-40848D01*
X75951Y-40888D01*
X75896Y-40923D01*
X75841Y-40944D01*
X75777Y-40955D01*
X75719Y-40954D01*
X75655Y-40940D01*
X75601Y-40917D01*
X75548Y-40880D01*
X75507Y-40837D01*
X75472Y-40783D01*
X75451Y-40728D01*
X75439Y-40664D01*
X75440Y-40606D01*
X75453Y-40542D01*
X75476Y-40488D01*
X75513Y-40435D01*
X75555Y-40394D01*
X75609Y-40358D01*
X75663Y-40336D01*
X75728Y-40324D01*
X75786Y-40324D01*
X75850Y-40338D01*
X75903Y-40360D01*
X75958Y-40397D01*
X75999Y-40438D01*
X76035Y-40493D01*
X76057Y-40546D01*
X76070Y-40610D01*
X76070Y-40610D01*
G37*
G36*
X76285Y-27330D02*
X76284Y-27398D01*
X76270Y-27461D01*
X76246Y-27515D01*
X76208Y-27568D01*
X76166Y-27608D01*
X76111Y-27643D01*
X76056Y-27664D01*
X75992Y-27675D01*
X75934Y-27674D01*
X75870Y-27660D01*
X75816Y-27637D01*
X75763Y-27600D01*
X75722Y-27557D01*
X75687Y-27503D01*
X75666Y-27448D01*
X75654Y-27384D01*
X75655Y-27326D01*
X75668Y-27262D01*
X75691Y-27208D01*
X75728Y-27155D01*
X75770Y-27114D01*
X75824Y-27078D01*
X75878Y-27056D01*
X75943Y-27044D01*
X76001Y-27044D01*
X76065Y-27058D01*
X76118Y-27080D01*
X76173Y-27117D01*
X76214Y-27158D01*
X76250Y-27213D01*
X76272Y-27266D01*
X76285Y-27330D01*
X76285Y-27330D01*
G37*
G36*
X76285Y-28330D02*
X76284Y-28398D01*
X76270Y-28461D01*
X76246Y-28515D01*
X76208Y-28568D01*
X76166Y-28608D01*
X76111Y-28643D01*
X76056Y-28664D01*
X75992Y-28675D01*
X75934Y-28674D01*
X75870Y-28660D01*
X75816Y-28637D01*
X75763Y-28600D01*
X75722Y-28557D01*
X75687Y-28503D01*
X75666Y-28448D01*
X75654Y-28384D01*
X75655Y-28326D01*
X75668Y-28262D01*
X75691Y-28208D01*
X75728Y-28155D01*
X75770Y-28114D01*
X75824Y-28078D01*
X75878Y-28056D01*
X75943Y-28044D01*
X76001Y-28044D01*
X76065Y-28058D01*
X76118Y-28080D01*
X76173Y-28117D01*
X76214Y-28158D01*
X76250Y-28213D01*
X76272Y-28266D01*
X76285Y-28330D01*
X76285Y-28330D01*
G37*
G36*
X76285Y-29330D02*
X76284Y-29398D01*
X76270Y-29461D01*
X76246Y-29515D01*
X76208Y-29568D01*
X76166Y-29608D01*
X76111Y-29643D01*
X76056Y-29664D01*
X75992Y-29675D01*
X75934Y-29674D01*
X75870Y-29660D01*
X75816Y-29637D01*
X75763Y-29600D01*
X75722Y-29557D01*
X75687Y-29503D01*
X75666Y-29448D01*
X75654Y-29384D01*
X75655Y-29326D01*
X75668Y-29262D01*
X75691Y-29208D01*
X75728Y-29155D01*
X75770Y-29114D01*
X75824Y-29078D01*
X75878Y-29056D01*
X75943Y-29044D01*
X76001Y-29044D01*
X76065Y-29058D01*
X76118Y-29080D01*
X76173Y-29117D01*
X76214Y-29158D01*
X76250Y-29213D01*
X76272Y-29266D01*
X76285Y-29330D01*
X76285Y-29330D01*
G37*
G36*
X76285Y-30330D02*
X76284Y-30398D01*
X76270Y-30461D01*
X76246Y-30515D01*
X76208Y-30568D01*
X76166Y-30608D01*
X76111Y-30643D01*
X76056Y-30664D01*
X75992Y-30675D01*
X75934Y-30674D01*
X75870Y-30660D01*
X75816Y-30637D01*
X75763Y-30600D01*
X75722Y-30557D01*
X75687Y-30503D01*
X75666Y-30448D01*
X75654Y-30384D01*
X75655Y-30326D01*
X75668Y-30262D01*
X75691Y-30208D01*
X75728Y-30155D01*
X75770Y-30114D01*
X75824Y-30078D01*
X75878Y-30056D01*
X75943Y-30044D01*
X76001Y-30044D01*
X76065Y-30058D01*
X76118Y-30080D01*
X76173Y-30117D01*
X76214Y-30158D01*
X76250Y-30213D01*
X76272Y-30266D01*
X76285Y-30330D01*
X76285Y-30330D01*
G37*
M02*
