G04 (created by PCBNEW (2013-07-07 BZR 4022)-stable) date 8/16/2013 4:39:23 PM*
%MOIN*%
G04 Gerber Fmt 3.4, Leading zero omitted, Abs format*
%FSLAX34Y34*%
G01*
G70*
G90*
G04 APERTURE LIST*
%ADD10C,0.00590551*%
%ADD11C,0.0001*%
%ADD12R,0.065X0.04*%
%ADD13R,0.0987X0.0377*%
%ADD14R,0.0377X0.0987*%
%ADD15C,0.075*%
%ADD16R,0.075X0.075*%
%ADD17C,0.0298*%
%ADD18C,0.039685*%
%ADD19R,0.0712X0.0318*%
G04 APERTURE END LIST*
G54D10*
G54D11*
G36*
X62234Y-42284D02*
X62230Y-42331D01*
X62226Y-42337D01*
X62187Y-42348D01*
X62142Y-42299D01*
X62139Y-42295D01*
X62096Y-42219D01*
X62041Y-42113D01*
X62011Y-42051D01*
X61946Y-41930D01*
X61898Y-41873D01*
X61867Y-41879D01*
X61856Y-41948D01*
X61863Y-42062D01*
X61873Y-42178D01*
X61870Y-42245D01*
X61850Y-42278D01*
X61831Y-42288D01*
X61770Y-42284D01*
X61747Y-42263D01*
X61737Y-42212D01*
X61729Y-42109D01*
X61725Y-41969D01*
X61723Y-41804D01*
X61724Y-41631D01*
X61728Y-41462D01*
X61734Y-41313D01*
X61742Y-41198D01*
X61753Y-41131D01*
X61756Y-41125D01*
X61811Y-41081D01*
X61900Y-41065D01*
X61999Y-41076D01*
X62080Y-41114D01*
X62095Y-41128D01*
X62133Y-41198D01*
X62162Y-41302D01*
X62170Y-41353D01*
X62174Y-41475D01*
X62149Y-41581D01*
X62106Y-41676D01*
X62048Y-41789D01*
X62048Y-41465D01*
X62046Y-41361D01*
X62036Y-41274D01*
X62029Y-41252D01*
X61982Y-41212D01*
X61913Y-41200D01*
X61816Y-41200D01*
X61816Y-41430D01*
X61819Y-41555D01*
X61827Y-41657D01*
X61837Y-41715D01*
X61857Y-41749D01*
X61891Y-41739D01*
X61929Y-41709D01*
X61990Y-41653D01*
X62024Y-41616D01*
X62040Y-41560D01*
X62048Y-41465D01*
X62048Y-41789D01*
X62024Y-41836D01*
X62143Y-42068D01*
X62206Y-42200D01*
X62234Y-42284D01*
X62234Y-42284D01*
X62234Y-42284D01*
G37*
G36*
X61244Y-41213D02*
X61241Y-41335D01*
X61230Y-41483D01*
X61212Y-41644D01*
X61189Y-41804D01*
X61163Y-41952D01*
X61134Y-42073D01*
X61105Y-42154D01*
X61092Y-42175D01*
X61007Y-42224D01*
X60902Y-42226D01*
X60802Y-42182D01*
X60778Y-42162D01*
X60748Y-42127D01*
X60729Y-42088D01*
X60719Y-42030D01*
X60716Y-41940D01*
X60719Y-41805D01*
X60724Y-41683D01*
X60738Y-41476D01*
X60758Y-41314D01*
X60784Y-41202D01*
X60814Y-41146D01*
X60844Y-41150D01*
X60852Y-41189D01*
X60859Y-41283D01*
X60864Y-41418D01*
X60866Y-41580D01*
X60866Y-41627D01*
X60866Y-42083D01*
X60950Y-42083D01*
X60984Y-42081D01*
X61008Y-42068D01*
X61025Y-42033D01*
X61037Y-41965D01*
X61047Y-41853D01*
X61058Y-41687D01*
X61060Y-41666D01*
X61080Y-41438D01*
X61106Y-41272D01*
X61141Y-41164D01*
X61185Y-41109D01*
X61218Y-41100D01*
X61237Y-41130D01*
X61244Y-41213D01*
X61244Y-41213D01*
X61244Y-41213D01*
G37*
G36*
X60275Y-41292D02*
X60267Y-41330D01*
X60229Y-41391D01*
X60186Y-41395D01*
X60155Y-41346D01*
X60150Y-41300D01*
X60139Y-41226D01*
X60099Y-41200D01*
X60085Y-41200D01*
X60000Y-41228D01*
X59936Y-41298D01*
X59916Y-41367D01*
X59903Y-41428D01*
X59888Y-41447D01*
X59863Y-41489D01*
X59837Y-41576D01*
X59814Y-41683D01*
X59797Y-41788D01*
X59792Y-41868D01*
X59798Y-41896D01*
X59838Y-41931D01*
X59883Y-41904D01*
X59935Y-41815D01*
X59950Y-41783D01*
X59998Y-41693D01*
X60046Y-41640D01*
X60065Y-41633D01*
X60099Y-41637D01*
X60112Y-41660D01*
X60106Y-41713D01*
X60079Y-41812D01*
X60065Y-41860D01*
X60018Y-41981D01*
X59960Y-42054D01*
X59918Y-42082D01*
X59846Y-42112D01*
X59794Y-42104D01*
X59745Y-42069D01*
X59700Y-42023D01*
X59677Y-41963D01*
X59671Y-41868D01*
X59672Y-41811D01*
X59688Y-41671D01*
X59726Y-41509D01*
X59778Y-41345D01*
X59839Y-41202D01*
X59900Y-41100D01*
X59909Y-41089D01*
X59983Y-41026D01*
X60056Y-40980D01*
X60125Y-40951D01*
X60171Y-40962D01*
X60196Y-40984D01*
X60244Y-41066D01*
X60272Y-41180D01*
X60275Y-41292D01*
X60275Y-41292D01*
X60275Y-41292D01*
G37*
G36*
X63388Y-41920D02*
X63377Y-41952D01*
X63367Y-41963D01*
X63327Y-41991D01*
X63285Y-41978D01*
X63235Y-41935D01*
X63163Y-41858D01*
X63085Y-41758D01*
X63062Y-41727D01*
X62994Y-41645D01*
X62981Y-41638D01*
X62981Y-41149D01*
X62954Y-41051D01*
X62901Y-40976D01*
X62829Y-40937D01*
X62746Y-40949D01*
X62725Y-40960D01*
X62708Y-40990D01*
X62713Y-41054D01*
X62742Y-41162D01*
X62757Y-41209D01*
X62796Y-41319D01*
X62831Y-41399D01*
X62853Y-41433D01*
X62854Y-41433D01*
X62890Y-41408D01*
X62931Y-41359D01*
X62976Y-41256D01*
X62981Y-41149D01*
X62981Y-41638D01*
X62949Y-41624D01*
X62928Y-41663D01*
X62934Y-41759D01*
X62950Y-41838D01*
X62979Y-41941D01*
X63009Y-42015D01*
X63025Y-42037D01*
X63040Y-42077D01*
X63016Y-42119D01*
X62982Y-42133D01*
X62948Y-42106D01*
X62904Y-42040D01*
X62896Y-42027D01*
X62860Y-41940D01*
X62819Y-41815D01*
X62783Y-41685D01*
X62740Y-41531D01*
X62685Y-41353D01*
X62629Y-41192D01*
X62583Y-41066D01*
X62559Y-40986D01*
X62555Y-40940D01*
X62571Y-40910D01*
X62600Y-40886D01*
X62702Y-40836D01*
X62819Y-40813D01*
X62922Y-40821D01*
X62946Y-40831D01*
X63003Y-40891D01*
X63053Y-40996D01*
X63090Y-41124D01*
X63107Y-41252D01*
X63103Y-41332D01*
X63097Y-41400D01*
X63109Y-41462D01*
X63144Y-41534D01*
X63211Y-41633D01*
X63250Y-41686D01*
X63330Y-41799D01*
X63374Y-41873D01*
X63388Y-41920D01*
X63388Y-41920D01*
X63388Y-41920D01*
G37*
G36*
X58872Y-40906D02*
X58870Y-41040D01*
X58870Y-41041D01*
X58812Y-41180D01*
X58703Y-41285D01*
X58695Y-41288D01*
X58695Y-41017D01*
X58677Y-40916D01*
X58642Y-40855D01*
X58618Y-40833D01*
X58592Y-40859D01*
X58544Y-40929D01*
X58493Y-41014D01*
X58438Y-41115D01*
X58415Y-41172D01*
X58422Y-41200D01*
X58444Y-41210D01*
X58497Y-41225D01*
X58510Y-41229D01*
X58544Y-41218D01*
X58587Y-41197D01*
X58664Y-41122D01*
X58695Y-41017D01*
X58695Y-41288D01*
X58554Y-41347D01*
X58485Y-41358D01*
X58382Y-41373D01*
X58318Y-41403D01*
X58266Y-41465D01*
X58232Y-41520D01*
X58179Y-41610D01*
X58147Y-41653D01*
X58126Y-41661D01*
X58105Y-41644D01*
X58086Y-41595D01*
X58083Y-41556D01*
X58098Y-41501D01*
X58140Y-41403D01*
X58201Y-41276D01*
X58274Y-41135D01*
X58350Y-40994D01*
X58422Y-40867D01*
X58484Y-40769D01*
X58513Y-40729D01*
X58578Y-40650D01*
X58701Y-40715D01*
X58817Y-40801D01*
X58872Y-40906D01*
X58872Y-40906D01*
X58872Y-40906D01*
G37*
G36*
X64373Y-41185D02*
X64357Y-41228D01*
X64295Y-41276D01*
X64215Y-41320D01*
X64068Y-41381D01*
X63944Y-41398D01*
X63862Y-41374D01*
X63832Y-41334D01*
X63783Y-41247D01*
X63723Y-41128D01*
X63657Y-40992D01*
X63593Y-40853D01*
X63538Y-40727D01*
X63499Y-40628D01*
X63483Y-40570D01*
X63483Y-40568D01*
X63510Y-40515D01*
X63580Y-40447D01*
X63675Y-40376D01*
X63778Y-40314D01*
X63869Y-40274D01*
X63915Y-40266D01*
X63951Y-40284D01*
X63940Y-40331D01*
X63886Y-40397D01*
X63800Y-40470D01*
X63705Y-40544D01*
X63661Y-40605D01*
X63661Y-40672D01*
X63699Y-40768D01*
X63704Y-40778D01*
X63758Y-40892D01*
X63869Y-40826D01*
X63949Y-40789D01*
X64007Y-40779D01*
X64015Y-40782D01*
X64049Y-40831D01*
X64026Y-40890D01*
X63949Y-40948D01*
X63933Y-40956D01*
X63849Y-41001D01*
X63822Y-41040D01*
X63846Y-41093D01*
X63880Y-41137D01*
X63943Y-41215D01*
X64132Y-41151D01*
X64240Y-41117D01*
X64304Y-41107D01*
X64338Y-41119D01*
X64351Y-41135D01*
X64373Y-41185D01*
X64373Y-41185D01*
X64373Y-41185D01*
G37*
G36*
X58043Y-40421D02*
X58003Y-40449D01*
X57928Y-40447D01*
X57880Y-40432D01*
X57804Y-40406D01*
X57757Y-40416D01*
X57711Y-40464D01*
X57658Y-40552D01*
X57663Y-40612D01*
X57719Y-40643D01*
X57772Y-40680D01*
X57777Y-40736D01*
X57748Y-40808D01*
X57694Y-40819D01*
X57619Y-40769D01*
X57614Y-40764D01*
X57540Y-40690D01*
X57482Y-40768D01*
X57420Y-40856D01*
X57368Y-40939D01*
X57333Y-41005D01*
X57335Y-41036D01*
X57372Y-41055D01*
X57525Y-41113D01*
X57617Y-41160D01*
X57649Y-41195D01*
X57650Y-41198D01*
X57621Y-41225D01*
X57544Y-41226D01*
X57432Y-41201D01*
X57366Y-41179D01*
X57270Y-41137D01*
X57197Y-41093D01*
X57185Y-41083D01*
X57156Y-41039D01*
X57174Y-40995D01*
X57193Y-40973D01*
X57236Y-40916D01*
X57250Y-40885D01*
X57268Y-40841D01*
X57318Y-40760D01*
X57390Y-40655D01*
X57473Y-40540D01*
X57558Y-40426D01*
X57636Y-40329D01*
X57697Y-40260D01*
X57730Y-40233D01*
X57799Y-40247D01*
X57890Y-40282D01*
X57977Y-40325D01*
X58030Y-40363D01*
X58034Y-40369D01*
X58043Y-40421D01*
X58043Y-40421D01*
X58043Y-40421D01*
G37*
G36*
X65257Y-40393D02*
X65243Y-40432D01*
X65177Y-40431D01*
X65060Y-40391D01*
X64889Y-40313D01*
X64866Y-40302D01*
X64748Y-40244D01*
X64654Y-40202D01*
X64601Y-40180D01*
X64593Y-40179D01*
X64607Y-40208D01*
X64650Y-40279D01*
X64716Y-40379D01*
X64751Y-40431D01*
X64832Y-40557D01*
X64877Y-40641D01*
X64889Y-40694D01*
X64879Y-40721D01*
X64831Y-40760D01*
X64778Y-40752D01*
X64708Y-40692D01*
X64686Y-40669D01*
X64614Y-40584D01*
X64528Y-40469D01*
X64436Y-40337D01*
X64347Y-40202D01*
X64270Y-40076D01*
X64213Y-39974D01*
X64184Y-39908D01*
X64183Y-39898D01*
X64209Y-39848D01*
X64274Y-39832D01*
X64358Y-39854D01*
X64400Y-39877D01*
X64461Y-39914D01*
X64560Y-39972D01*
X64678Y-40038D01*
X64695Y-40047D01*
X64923Y-40173D01*
X64720Y-39915D01*
X64620Y-39786D01*
X64557Y-39699D01*
X64526Y-39644D01*
X64523Y-39610D01*
X64541Y-39588D01*
X64546Y-39585D01*
X64570Y-39581D01*
X64604Y-39599D01*
X64656Y-39643D01*
X64732Y-39721D01*
X64836Y-39838D01*
X64976Y-39999D01*
X64996Y-40023D01*
X65133Y-40190D01*
X65220Y-40313D01*
X65257Y-40393D01*
X65257Y-40393D01*
X65257Y-40393D01*
G37*
G36*
X57274Y-39870D02*
X57273Y-39878D01*
X57235Y-39926D01*
X57180Y-39916D01*
X57100Y-39847D01*
X57097Y-39844D01*
X57052Y-39797D01*
X57017Y-39780D01*
X56981Y-39799D01*
X56931Y-39859D01*
X56858Y-39962D01*
X56825Y-40019D01*
X56831Y-40058D01*
X56885Y-40107D01*
X56893Y-40114D01*
X56954Y-40180D01*
X56981Y-40244D01*
X56970Y-40289D01*
X56937Y-40300D01*
X56881Y-40280D01*
X56808Y-40233D01*
X56802Y-40229D01*
X56740Y-40185D01*
X56706Y-40170D01*
X56704Y-40171D01*
X56680Y-40202D01*
X56629Y-40265D01*
X56606Y-40294D01*
X56538Y-40391D01*
X56523Y-40457D01*
X56560Y-40503D01*
X56617Y-40528D01*
X56699Y-40574D01*
X56743Y-40633D01*
X56737Y-40689D01*
X56729Y-40698D01*
X56678Y-40709D01*
X56624Y-40697D01*
X56534Y-40649D01*
X56441Y-40581D01*
X56364Y-40508D01*
X56320Y-40446D01*
X56316Y-40429D01*
X56337Y-40382D01*
X56393Y-40298D01*
X56475Y-40188D01*
X56573Y-40062D01*
X56679Y-39932D01*
X56783Y-39811D01*
X56875Y-39708D01*
X56946Y-39636D01*
X56987Y-39607D01*
X57047Y-39621D01*
X57123Y-39672D01*
X57198Y-39741D01*
X57254Y-39813D01*
X57274Y-39870D01*
X57274Y-39870D01*
X57274Y-39870D01*
G37*
G36*
X56616Y-39217D02*
X56598Y-39255D01*
X56538Y-39297D01*
X56428Y-39348D01*
X56300Y-39398D01*
X56235Y-39435D01*
X56178Y-39500D01*
X56125Y-39604D01*
X56069Y-39755D01*
X56019Y-39921D01*
X55967Y-40071D01*
X55917Y-40158D01*
X55867Y-40183D01*
X55820Y-40157D01*
X55794Y-40118D01*
X55787Y-40064D01*
X55802Y-39983D01*
X55840Y-39859D01*
X55867Y-39783D01*
X55918Y-39629D01*
X55941Y-39536D01*
X55936Y-39502D01*
X55901Y-39528D01*
X55836Y-39612D01*
X55766Y-39715D01*
X55679Y-39835D01*
X55612Y-39900D01*
X55559Y-39912D01*
X55514Y-39880D01*
X55494Y-39841D01*
X55497Y-39791D01*
X55528Y-39721D01*
X55591Y-39622D01*
X55691Y-39487D01*
X55762Y-39395D01*
X55930Y-39183D01*
X56065Y-39025D01*
X56170Y-38917D01*
X56247Y-38858D01*
X56301Y-38844D01*
X56333Y-38873D01*
X56342Y-38905D01*
X56328Y-38955D01*
X56280Y-39037D01*
X56215Y-39127D01*
X56147Y-39214D01*
X56102Y-39276D01*
X56088Y-39299D01*
X56123Y-39289D01*
X56201Y-39261D01*
X56275Y-39233D01*
X56428Y-39184D01*
X56540Y-39168D01*
X56603Y-39185D01*
X56616Y-39217D01*
X56616Y-39217D01*
X56616Y-39217D01*
G37*
G36*
X66008Y-39997D02*
X65974Y-40048D01*
X65901Y-40047D01*
X65878Y-40039D01*
X65839Y-40005D01*
X65769Y-39928D01*
X65677Y-39818D01*
X65572Y-39685D01*
X65532Y-39633D01*
X65426Y-39494D01*
X65334Y-39374D01*
X65263Y-39282D01*
X65222Y-39230D01*
X65216Y-39222D01*
X65179Y-39225D01*
X65113Y-39266D01*
X65074Y-39297D01*
X65000Y-39357D01*
X64955Y-39375D01*
X64923Y-39357D01*
X64917Y-39351D01*
X64888Y-39297D01*
X64888Y-39274D01*
X64917Y-39241D01*
X64985Y-39176D01*
X65081Y-39089D01*
X65158Y-39021D01*
X65279Y-38919D01*
X65360Y-38858D01*
X65409Y-38835D01*
X65434Y-38842D01*
X65438Y-38850D01*
X65429Y-38914D01*
X65372Y-38994D01*
X65285Y-39084D01*
X65650Y-39517D01*
X65771Y-39662D01*
X65873Y-39793D01*
X65951Y-39898D01*
X65998Y-39970D01*
X66008Y-39997D01*
X66008Y-39997D01*
X66008Y-39997D01*
G37*
G36*
X57745Y-38105D02*
X57734Y-38129D01*
X57725Y-38132D01*
X57690Y-38111D01*
X57617Y-38056D01*
X57514Y-37975D01*
X57400Y-37881D01*
X57245Y-37753D01*
X57136Y-37665D01*
X57064Y-37613D01*
X57023Y-37594D01*
X57007Y-37605D01*
X57008Y-37642D01*
X57019Y-37692D01*
X57041Y-37797D01*
X57046Y-37861D01*
X57033Y-37906D01*
X57020Y-37928D01*
X56997Y-37934D01*
X56947Y-37914D01*
X56866Y-37864D01*
X56749Y-37780D01*
X56589Y-37659D01*
X56445Y-37548D01*
X56277Y-37417D01*
X56124Y-37296D01*
X55995Y-37195D01*
X55898Y-37118D01*
X55843Y-37074D01*
X55837Y-37069D01*
X55799Y-37040D01*
X55784Y-37051D01*
X55788Y-37111D01*
X55794Y-37154D01*
X55802Y-37244D01*
X55798Y-37302D01*
X55794Y-37310D01*
X55766Y-37293D01*
X55694Y-37237D01*
X55582Y-37146D01*
X55438Y-37025D01*
X55267Y-36878D01*
X55074Y-36712D01*
X54865Y-36529D01*
X54859Y-36524D01*
X54651Y-36341D01*
X54462Y-36171D01*
X54296Y-36021D01*
X54160Y-35895D01*
X54057Y-35797D01*
X53995Y-35733D01*
X53977Y-35707D01*
X54017Y-35723D01*
X54110Y-35779D01*
X54255Y-35874D01*
X54453Y-36010D01*
X54704Y-36186D01*
X55006Y-36401D01*
X55230Y-36562D01*
X55319Y-36625D01*
X55366Y-36652D01*
X55381Y-36645D01*
X55376Y-36607D01*
X55374Y-36598D01*
X55338Y-36426D01*
X55326Y-36314D01*
X55339Y-36257D01*
X55345Y-36253D01*
X55380Y-36265D01*
X55461Y-36313D01*
X55578Y-36390D01*
X55724Y-36491D01*
X55890Y-36611D01*
X55964Y-36665D01*
X56135Y-36792D01*
X56288Y-36904D01*
X56414Y-36996D01*
X56506Y-37062D01*
X56556Y-37096D01*
X56562Y-37100D01*
X56562Y-37071D01*
X56545Y-36998D01*
X56530Y-36944D01*
X56493Y-36802D01*
X56487Y-36714D01*
X56510Y-36672D01*
X56535Y-36666D01*
X56575Y-36686D01*
X56659Y-36743D01*
X56777Y-36829D01*
X56920Y-36939D01*
X57081Y-37067D01*
X57127Y-37103D01*
X57666Y-37541D01*
X57706Y-37778D01*
X57731Y-37939D01*
X57744Y-38045D01*
X57745Y-38105D01*
X57745Y-38105D01*
X57745Y-38105D01*
G37*
G36*
X67916Y-35568D02*
X67914Y-35606D01*
X67864Y-35685D01*
X67798Y-35764D01*
X67745Y-35818D01*
X67654Y-35907D01*
X67532Y-36024D01*
X67385Y-36164D01*
X67220Y-36319D01*
X67045Y-36483D01*
X66866Y-36650D01*
X66690Y-36813D01*
X66524Y-36967D01*
X66374Y-37103D01*
X66249Y-37217D01*
X66154Y-37302D01*
X66096Y-37351D01*
X66083Y-37360D01*
X66066Y-37336D01*
X66051Y-37261D01*
X66043Y-37168D01*
X66033Y-36965D01*
X65450Y-37419D01*
X64866Y-37874D01*
X64850Y-37706D01*
X64833Y-37538D01*
X64600Y-37738D01*
X64478Y-37842D01*
X64358Y-37942D01*
X64262Y-38022D01*
X64240Y-38039D01*
X64114Y-38141D01*
X64135Y-37912D01*
X64145Y-37806D01*
X64156Y-37717D01*
X64173Y-37639D01*
X64200Y-37566D01*
X64242Y-37494D01*
X64304Y-37417D01*
X64391Y-37329D01*
X64507Y-37226D01*
X64656Y-37102D01*
X64845Y-36952D01*
X65077Y-36770D01*
X65313Y-36586D01*
X65336Y-36576D01*
X65347Y-36601D01*
X65346Y-36669D01*
X65336Y-36793D01*
X65335Y-36800D01*
X65311Y-37050D01*
X65388Y-36980D01*
X65442Y-36936D01*
X65535Y-36865D01*
X65656Y-36775D01*
X65795Y-36671D01*
X65943Y-36563D01*
X66090Y-36457D01*
X66224Y-36360D01*
X66338Y-36280D01*
X66419Y-36224D01*
X66459Y-36200D01*
X66460Y-36200D01*
X66472Y-36230D01*
X66484Y-36308D01*
X66490Y-36386D01*
X66500Y-36572D01*
X67000Y-36216D01*
X67174Y-36091D01*
X67342Y-35967D01*
X67492Y-35855D01*
X67610Y-35763D01*
X67671Y-35713D01*
X67791Y-35620D01*
X67873Y-35572D01*
X67916Y-35568D01*
X67916Y-35568D01*
X67916Y-35568D01*
G37*
G54D12*
X72200Y-29550D03*
X72200Y-29050D03*
X72200Y-28550D03*
X72200Y-28050D03*
X74700Y-28050D03*
X74700Y-28550D03*
X74700Y-29050D03*
X74700Y-29550D03*
G54D13*
X46734Y-32453D03*
X46734Y-32138D03*
X46734Y-31823D03*
X46734Y-31508D03*
X46734Y-31193D03*
X46734Y-30878D03*
X46734Y-30563D03*
X46734Y-30248D03*
X50500Y-30250D03*
X50500Y-32460D03*
X50500Y-32140D03*
X50500Y-31820D03*
X50500Y-31510D03*
X50500Y-31190D03*
X50500Y-30880D03*
X50500Y-30560D03*
G54D14*
X47518Y-29460D03*
X47832Y-29460D03*
X48148Y-29460D03*
X48462Y-29460D03*
X48778Y-29460D03*
X49092Y-29460D03*
X49408Y-29460D03*
X49722Y-29460D03*
X47520Y-33240D03*
X47830Y-33240D03*
X48150Y-33240D03*
X48460Y-33240D03*
X48770Y-33240D03*
X49090Y-33240D03*
X49410Y-33240D03*
X49730Y-33240D03*
G54D15*
X46960Y-36380D03*
X46960Y-37380D03*
X46960Y-38380D03*
X46960Y-39380D03*
X46960Y-40380D03*
X46960Y-41380D03*
X46960Y-42380D03*
X46960Y-43380D03*
X46960Y-44380D03*
X46960Y-45380D03*
X46960Y-46380D03*
X46960Y-47380D03*
X46960Y-48380D03*
G54D16*
X46960Y-35380D03*
G54D15*
X49960Y-48380D03*
X49960Y-47380D03*
X49960Y-46380D03*
X49960Y-45380D03*
X49960Y-44380D03*
X49960Y-43380D03*
X49960Y-42380D03*
X49960Y-41380D03*
X49960Y-40380D03*
X49960Y-39380D03*
X49960Y-38380D03*
X49960Y-37380D03*
X49960Y-36380D03*
X49960Y-35380D03*
X38070Y-37300D03*
X38070Y-38300D03*
X38070Y-39300D03*
X38070Y-40300D03*
X38070Y-41300D03*
X38070Y-42300D03*
X38070Y-43300D03*
X38070Y-44300D03*
X38070Y-45300D03*
X38070Y-46300D03*
X38070Y-47300D03*
X38070Y-48300D03*
X43070Y-48300D03*
X43070Y-47300D03*
X43070Y-46300D03*
X43070Y-45300D03*
X43070Y-44300D03*
X43070Y-43300D03*
X43070Y-42300D03*
X43070Y-41300D03*
X43070Y-40300D03*
X43070Y-39300D03*
X43070Y-38300D03*
X43070Y-37300D03*
X70755Y-33640D03*
X70755Y-34640D03*
X70755Y-35640D03*
X70755Y-36640D03*
X70755Y-37640D03*
X70755Y-38640D03*
X70755Y-39640D03*
X70755Y-40640D03*
X70755Y-41640D03*
X70755Y-42640D03*
X70755Y-43640D03*
X70755Y-44640D03*
X70755Y-45640D03*
X70755Y-46640D03*
X70755Y-47640D03*
X70755Y-48640D03*
X75755Y-48640D03*
X75755Y-47640D03*
X75755Y-46640D03*
X75755Y-45640D03*
X75755Y-44640D03*
X75755Y-43640D03*
X75755Y-42640D03*
X75755Y-41640D03*
X75755Y-40640D03*
X75755Y-39640D03*
X75755Y-38640D03*
X75755Y-37640D03*
X75755Y-36640D03*
X75755Y-35640D03*
X75755Y-34640D03*
X75755Y-33640D03*
X73175Y-32640D03*
G54D10*
G36*
X40560Y-42247D02*
X41397Y-43085D01*
X40560Y-43922D01*
X39722Y-43085D01*
X40560Y-42247D01*
X40560Y-42247D01*
G37*
G54D17*
X40274Y-42103D02*
X40428Y-42257D01*
X40135Y-42243D02*
X40288Y-42396D01*
X39996Y-42382D02*
X40149Y-42535D01*
X39857Y-42521D02*
X40010Y-42674D01*
X39718Y-42660D02*
X39871Y-42813D01*
X39578Y-42799D02*
X39732Y-42953D01*
X39578Y-43370D02*
X39732Y-43216D01*
X39718Y-43509D02*
X39871Y-43356D01*
X39857Y-43648D02*
X40010Y-43495D01*
X39996Y-43787D02*
X40149Y-43634D01*
X40135Y-43926D02*
X40288Y-43773D01*
X40274Y-44066D02*
X40428Y-43912D01*
X40845Y-44066D02*
X40691Y-43912D01*
X40984Y-43926D02*
X40831Y-43773D01*
X41123Y-43787D02*
X40970Y-43634D01*
X41262Y-43648D02*
X41109Y-43495D01*
X41401Y-43509D02*
X41248Y-43356D01*
X41541Y-43370D02*
X41387Y-43216D01*
X41541Y-42799D02*
X41387Y-42953D01*
X41401Y-42660D02*
X41248Y-42813D01*
X41262Y-42521D02*
X41109Y-42674D01*
X41123Y-42382D02*
X40970Y-42535D01*
X40984Y-42243D02*
X40831Y-42396D01*
X40845Y-42103D02*
X40691Y-42257D01*
G54D15*
X40570Y-36300D03*
G54D10*
G36*
X73235Y-40267D02*
X73588Y-39913D01*
X73800Y-40125D01*
X73447Y-40479D01*
X73235Y-40267D01*
X73235Y-40267D01*
G37*
G36*
X73374Y-40406D02*
X73727Y-40052D01*
X73940Y-40264D01*
X73586Y-40618D01*
X73374Y-40406D01*
X73374Y-40406D01*
G37*
G36*
X73513Y-40545D02*
X73867Y-40192D01*
X74079Y-40404D01*
X73725Y-40757D01*
X73513Y-40545D01*
X73513Y-40545D01*
G37*
G36*
X73095Y-40127D02*
X73449Y-39774D01*
X73661Y-39986D01*
X73307Y-40339D01*
X73095Y-40127D01*
X73095Y-40127D01*
G37*
G36*
X73032Y-40339D02*
X72678Y-39986D01*
X72890Y-39774D01*
X73244Y-40127D01*
X73032Y-40339D01*
X73032Y-40339D01*
G37*
G36*
X72892Y-40479D02*
X72539Y-40125D01*
X72751Y-39913D01*
X73104Y-40267D01*
X72892Y-40479D01*
X72892Y-40479D01*
G37*
G36*
X72753Y-40618D02*
X72399Y-40264D01*
X72612Y-40052D01*
X72965Y-40406D01*
X72753Y-40618D01*
X72753Y-40618D01*
G37*
G36*
X72614Y-40757D02*
X72260Y-40404D01*
X72472Y-40192D01*
X72826Y-40545D01*
X72614Y-40757D01*
X72614Y-40757D01*
G37*
G36*
X72475Y-40896D02*
X72122Y-40542D01*
X72334Y-40330D01*
X72687Y-40684D01*
X72475Y-40896D01*
X72475Y-40896D01*
G37*
G36*
X72336Y-41035D02*
X71982Y-40682D01*
X72194Y-40469D01*
X72548Y-40823D01*
X72336Y-41035D01*
X72336Y-41035D01*
G37*
G36*
X72197Y-41174D02*
X71843Y-40821D01*
X72055Y-40609D01*
X72409Y-40962D01*
X72197Y-41174D01*
X72197Y-41174D01*
G37*
G36*
X72057Y-41314D02*
X71704Y-40960D01*
X71916Y-40748D01*
X72269Y-41102D01*
X72057Y-41314D01*
X72057Y-41314D01*
G37*
G36*
X72678Y-42493D02*
X73032Y-42140D01*
X73244Y-42352D01*
X72890Y-42705D01*
X72678Y-42493D01*
X72678Y-42493D01*
G37*
G36*
X71704Y-41519D02*
X72057Y-41165D01*
X72269Y-41377D01*
X71916Y-41731D01*
X71704Y-41519D01*
X71704Y-41519D01*
G37*
G36*
X71843Y-41658D02*
X72197Y-41305D01*
X72409Y-41517D01*
X72055Y-41870D01*
X71843Y-41658D01*
X71843Y-41658D01*
G37*
G36*
X71982Y-41797D02*
X72336Y-41444D01*
X72548Y-41656D01*
X72194Y-42010D01*
X71982Y-41797D01*
X71982Y-41797D01*
G37*
G36*
X72122Y-41937D02*
X72475Y-41583D01*
X72687Y-41795D01*
X72334Y-42149D01*
X72122Y-41937D01*
X72122Y-41937D01*
G37*
G36*
X72260Y-42075D02*
X72614Y-41722D01*
X72826Y-41934D01*
X72472Y-42287D01*
X72260Y-42075D01*
X72260Y-42075D01*
G37*
G36*
X72399Y-42215D02*
X72753Y-41861D01*
X72965Y-42073D01*
X72612Y-42427D01*
X72399Y-42215D01*
X72399Y-42215D01*
G37*
G36*
X72539Y-42354D02*
X72892Y-42000D01*
X73104Y-42212D01*
X72751Y-42566D01*
X72539Y-42354D01*
X72539Y-42354D01*
G37*
G36*
X73449Y-42705D02*
X73095Y-42352D01*
X73307Y-42140D01*
X73661Y-42493D01*
X73449Y-42705D01*
X73449Y-42705D01*
G37*
G36*
X73588Y-42566D02*
X73235Y-42212D01*
X73447Y-42000D01*
X73800Y-42354D01*
X73588Y-42566D01*
X73588Y-42566D01*
G37*
G36*
X73727Y-42427D02*
X73374Y-42073D01*
X73586Y-41861D01*
X73940Y-42215D01*
X73727Y-42427D01*
X73727Y-42427D01*
G37*
G36*
X73867Y-42287D02*
X73513Y-41934D01*
X73725Y-41722D01*
X74079Y-42075D01*
X73867Y-42287D01*
X73867Y-42287D01*
G37*
G36*
X74005Y-42149D02*
X73652Y-41795D01*
X73864Y-41583D01*
X74217Y-41937D01*
X74005Y-42149D01*
X74005Y-42149D01*
G37*
G36*
X74145Y-42010D02*
X73791Y-41656D01*
X74003Y-41444D01*
X74357Y-41797D01*
X74145Y-42010D01*
X74145Y-42010D01*
G37*
G36*
X74284Y-41870D02*
X73930Y-41517D01*
X74142Y-41305D01*
X74496Y-41658D01*
X74284Y-41870D01*
X74284Y-41870D01*
G37*
G36*
X74423Y-41731D02*
X74070Y-41377D01*
X74282Y-41165D01*
X74635Y-41519D01*
X74423Y-41731D01*
X74423Y-41731D01*
G37*
G36*
X74070Y-41102D02*
X74423Y-40748D01*
X74635Y-40960D01*
X74282Y-41314D01*
X74070Y-41102D01*
X74070Y-41102D01*
G37*
G36*
X73930Y-40962D02*
X74284Y-40609D01*
X74496Y-40821D01*
X74142Y-41174D01*
X73930Y-40962D01*
X73930Y-40962D01*
G37*
G36*
X73791Y-40823D02*
X74145Y-40469D01*
X74357Y-40682D01*
X74003Y-41035D01*
X73791Y-40823D01*
X73791Y-40823D01*
G37*
G36*
X73652Y-40684D02*
X74005Y-40330D01*
X74217Y-40542D01*
X73864Y-40896D01*
X73652Y-40684D01*
X73652Y-40684D01*
G37*
G36*
X72193Y-41240D02*
X73170Y-40263D01*
X74146Y-41240D01*
X73170Y-42216D01*
X72193Y-41240D01*
X72193Y-41240D01*
G37*
G54D18*
X44460Y-30753D03*
X44460Y-30360D03*
X44460Y-29966D03*
X45030Y-30753D03*
X45030Y-30360D03*
X45030Y-29966D03*
X40466Y-35590D03*
X40860Y-35590D03*
X41253Y-35590D03*
X40476Y-34910D03*
X40870Y-34910D03*
X41263Y-34910D03*
X44450Y-42033D03*
X44450Y-41640D03*
X44450Y-41246D03*
X45060Y-42033D03*
X45060Y-41640D03*
X45060Y-41246D03*
X69200Y-29023D03*
X69200Y-28630D03*
X69200Y-28236D03*
X69540Y-29023D03*
X69540Y-28630D03*
X69540Y-28236D03*
X72726Y-31200D03*
X73120Y-31200D03*
X73513Y-31200D03*
X72706Y-31800D03*
X73100Y-31800D03*
X73493Y-31800D03*
X69160Y-35043D03*
X69160Y-34650D03*
X69160Y-34256D03*
X69560Y-35053D03*
X69560Y-34660D03*
X69560Y-34266D03*
X69200Y-44023D03*
X69200Y-43630D03*
X69200Y-43236D03*
X69560Y-44013D03*
X69560Y-43620D03*
X69560Y-43226D03*
X52430Y-32783D03*
X52430Y-32390D03*
X52430Y-31996D03*
X53060Y-32783D03*
X53060Y-32390D03*
X53060Y-31996D03*
X52470Y-44023D03*
X52470Y-43630D03*
X52470Y-43236D03*
X53030Y-44013D03*
X53030Y-43620D03*
X53030Y-43226D03*
G54D15*
X75970Y-30360D03*
X75970Y-29360D03*
X75970Y-28360D03*
X75970Y-27360D03*
X70970Y-27360D03*
X70970Y-28360D03*
X70970Y-29360D03*
X70970Y-30360D03*
G54D19*
X39230Y-29690D03*
X39230Y-29940D03*
X39230Y-30200D03*
X39230Y-30450D03*
X39230Y-30710D03*
X39230Y-30965D03*
X39230Y-31220D03*
X41430Y-31220D03*
X41430Y-30965D03*
X41430Y-30710D03*
X41430Y-30450D03*
X41430Y-30195D03*
X41430Y-29940D03*
X41430Y-29685D03*
G54D15*
X37840Y-28550D03*
X37840Y-29550D03*
X37840Y-30550D03*
X37840Y-31550D03*
X37840Y-32550D03*
X37840Y-33550D03*
X42840Y-33550D03*
X42840Y-32550D03*
X42840Y-31550D03*
X42840Y-30550D03*
X42840Y-29550D03*
X42840Y-28550D03*
X42840Y-27550D03*
X37840Y-27550D03*
M02*
