M48
;DRILL file {Pcbnew (2013-07-07 BZR 4022)-stable} date 8/16/2013 4:39:29 PM
;FORMAT={2:4/ absolute / inch / keep zeros}
FMAT,2
INCH,TZ
T1C0.025
T2C0.032
T3C0.050
%
G90
G05
M72
T1
X045770Y-040890
X046300Y-042400
X047210Y-028290
X047450Y-027860
X047940Y-027660
X048100Y-031790
X048440Y-027640
X048460Y-031500
X048780Y-027330
X048870Y-031760
X049320Y-027460
X049410Y-031730
X049670Y-027850
X049830Y-028430
X050940Y-041320
X050985Y-028825
X051745Y-031200
T2
X037840Y-027550
X037840Y-028550
X037840Y-029550
X037840Y-030550
X037840Y-031550
X037840Y-032550
X037840Y-033550
X038070Y-037300
X038070Y-038300
X038070Y-039300
X038070Y-040300
X038070Y-041300
X038070Y-042300
X038070Y-043300
X038070Y-044300
X038070Y-045300
X038070Y-046300
X038070Y-047300
X038070Y-048300
X040570Y-036300
X042840Y-027550
X042840Y-028550
X042840Y-029550
X042840Y-030550
X042840Y-031550
X042840Y-032550
X042840Y-033550
X043070Y-037300
X043070Y-038300
X043070Y-039300
X043070Y-040300
X043070Y-041300
X043070Y-042300
X043070Y-043300
X043070Y-044300
X043070Y-045300
X043070Y-046300
X043070Y-047300
X043070Y-048300
X046960Y-035380
X046960Y-036380
X046960Y-037380
X046960Y-038380
X046960Y-039380
X046960Y-040380
X046960Y-041380
X046960Y-042380
X046960Y-043380
X046960Y-044380
X046960Y-045380
X046960Y-046380
X046960Y-047380
X046960Y-048380
X049960Y-035380
X049960Y-036380
X049960Y-037380
X049960Y-038380
X049960Y-039380
X049960Y-040380
X049960Y-041380
X049960Y-042380
X049960Y-043380
X049960Y-044380
X049960Y-045380
X049960Y-046380
X049960Y-047380
X049960Y-048380
X070755Y-033640
X070755Y-034640
X070755Y-035640
X070755Y-036640
X070755Y-037640
X070755Y-038640
X070755Y-039640
X070755Y-040640
X070755Y-041640
X070755Y-042640
X070755Y-043640
X070755Y-044640
X070755Y-045640
X070755Y-046640
X070755Y-047640
X070755Y-048640
X070970Y-027360
X070970Y-028360
X070970Y-029360
X070970Y-030360
X073175Y-032640
X075755Y-033640
X075755Y-034640
X075755Y-035640
X075755Y-036640
X075755Y-037640
X075755Y-038640
X075755Y-039640
X075755Y-040640
X075755Y-041640
X075755Y-042640
X075755Y-043640
X075755Y-044640
X075755Y-045640
X075755Y-046640
X075755Y-047640
X075755Y-048640
X075970Y-027360
X075970Y-028360
X075970Y-029360
X075970Y-030360
T3
X040560Y-043085
X073170Y-041240
T0
M30
