G04 (created by PCBNEW (2013-03-19 BZR 4004)-stable) date 9/9/2013 12:01:13 AM*
%MOIN*%
G04 Gerber Fmt 3.4, Leading zero omitted, Abs format*
%FSLAX34Y34*%
G01*
G70*
G90*
G04 APERTURE LIST*
%ADD10C,0*%
%ADD11C,0.01*%
%ADD12C,0.012*%
%ADD13C,0.015*%
%ADD14C,0.008*%
%ADD15C,0.0001*%
G04 APERTURE END LIST*
G54D10*
G54D11*
X71152Y-41048D02*
X71152Y-41276D01*
X71652Y-41100D02*
X71152Y-41162D01*
X71652Y-41347D02*
X71152Y-41410D01*
X71652Y-41519D02*
X71390Y-41551D01*
X71342Y-41538D01*
X71319Y-41503D01*
X71319Y-41446D01*
X71342Y-41405D01*
X71366Y-41383D01*
X71628Y-41864D02*
X71652Y-41823D01*
X71652Y-41747D01*
X71628Y-41712D01*
X71580Y-41699D01*
X71390Y-41723D01*
X71342Y-41748D01*
X71319Y-41789D01*
X71319Y-41865D01*
X71342Y-41900D01*
X71390Y-41913D01*
X71438Y-41907D01*
X71485Y-41711D01*
X71509Y-42051D02*
X71509Y-42241D01*
X71652Y-41995D02*
X71152Y-42191D01*
X71652Y-42261D01*
X71652Y-42395D02*
X71319Y-42436D01*
X71366Y-42430D02*
X71342Y-42452D01*
X71319Y-42494D01*
X71319Y-42551D01*
X71342Y-42586D01*
X71390Y-42599D01*
X71652Y-42566D01*
X71390Y-42599D02*
X71342Y-42624D01*
X71319Y-42665D01*
X71319Y-42722D01*
X71342Y-42757D01*
X71390Y-42770D01*
X71652Y-42738D01*
X71319Y-42970D02*
X71819Y-42907D01*
X71342Y-42967D02*
X71319Y-43008D01*
X71319Y-43084D01*
X71342Y-43119D01*
X71366Y-43135D01*
X71414Y-43148D01*
X71557Y-43130D01*
X71604Y-43105D01*
X71628Y-43083D01*
X71652Y-43042D01*
X71652Y-42966D01*
X71628Y-42931D01*
X71652Y-43290D02*
X71152Y-43352D01*
X71390Y-43323D02*
X71390Y-43551D01*
X71652Y-43519D02*
X71152Y-43581D01*
X71652Y-43766D02*
X71628Y-43731D01*
X71604Y-43715D01*
X71557Y-43702D01*
X71414Y-43720D01*
X71366Y-43745D01*
X71342Y-43767D01*
X71319Y-43808D01*
X71319Y-43865D01*
X71342Y-43900D01*
X71366Y-43916D01*
X71414Y-43929D01*
X71557Y-43911D01*
X71604Y-43886D01*
X71628Y-43864D01*
X71652Y-43823D01*
X71652Y-43766D01*
X71319Y-44284D02*
X71652Y-44242D01*
X71319Y-44113D02*
X71580Y-44080D01*
X71628Y-44093D01*
X71652Y-44128D01*
X71652Y-44185D01*
X71628Y-44226D01*
X71604Y-44248D01*
X71652Y-44433D02*
X71319Y-44475D01*
X71414Y-44463D02*
X71366Y-44488D01*
X71342Y-44510D01*
X71319Y-44551D01*
X71319Y-44589D01*
X71604Y-44686D02*
X71628Y-44702D01*
X71652Y-44680D01*
X71628Y-44664D01*
X71604Y-44686D01*
X71652Y-44680D01*
X71628Y-45045D02*
X71652Y-45004D01*
X71652Y-44928D01*
X71628Y-44893D01*
X71604Y-44877D01*
X71557Y-44864D01*
X71414Y-44882D01*
X71366Y-44907D01*
X71342Y-44929D01*
X71319Y-44970D01*
X71319Y-45046D01*
X71342Y-45081D01*
X71652Y-45271D02*
X71628Y-45236D01*
X71604Y-45220D01*
X71557Y-45207D01*
X71414Y-45225D01*
X71366Y-45250D01*
X71342Y-45272D01*
X71319Y-45313D01*
X71319Y-45370D01*
X71342Y-45405D01*
X71366Y-45421D01*
X71414Y-45434D01*
X71557Y-45416D01*
X71604Y-45391D01*
X71628Y-45369D01*
X71652Y-45328D01*
X71652Y-45271D01*
X71652Y-45576D02*
X71319Y-45617D01*
X71366Y-45611D02*
X71342Y-45633D01*
X71319Y-45675D01*
X71319Y-45732D01*
X71342Y-45767D01*
X71390Y-45780D01*
X71652Y-45747D01*
X71390Y-45780D02*
X71342Y-45805D01*
X71319Y-45846D01*
X71319Y-45903D01*
X71342Y-45938D01*
X71390Y-45951D01*
X71652Y-45919D01*
X47702Y-34298D02*
X47702Y-34526D01*
X48202Y-34350D02*
X47702Y-34412D01*
X48202Y-34597D02*
X47702Y-34660D01*
X48202Y-34769D02*
X47940Y-34801D01*
X47892Y-34788D01*
X47869Y-34753D01*
X47869Y-34696D01*
X47892Y-34655D01*
X47916Y-34633D01*
X48178Y-35114D02*
X48202Y-35073D01*
X48202Y-34997D01*
X48178Y-34962D01*
X48130Y-34949D01*
X47940Y-34973D01*
X47892Y-34998D01*
X47869Y-35039D01*
X47869Y-35115D01*
X47892Y-35150D01*
X47940Y-35163D01*
X47988Y-35157D01*
X48035Y-34961D01*
X48059Y-35301D02*
X48059Y-35491D01*
X48202Y-35245D02*
X47702Y-35441D01*
X48202Y-35511D01*
X48202Y-35645D02*
X47869Y-35686D01*
X47916Y-35680D02*
X47892Y-35702D01*
X47869Y-35744D01*
X47869Y-35801D01*
X47892Y-35836D01*
X47940Y-35849D01*
X48202Y-35816D01*
X47940Y-35849D02*
X47892Y-35874D01*
X47869Y-35915D01*
X47869Y-35972D01*
X47892Y-36007D01*
X47940Y-36020D01*
X48202Y-35988D01*
X47869Y-36220D02*
X48369Y-36157D01*
X47892Y-36217D02*
X47869Y-36258D01*
X47869Y-36334D01*
X47892Y-36369D01*
X47916Y-36385D01*
X47964Y-36398D01*
X48107Y-36380D01*
X48154Y-36355D01*
X48178Y-36333D01*
X48202Y-36292D01*
X48202Y-36216D01*
X48178Y-36181D01*
X48202Y-36540D02*
X47702Y-36602D01*
X47940Y-36573D02*
X47940Y-36801D01*
X48202Y-36769D02*
X47702Y-36831D01*
X48202Y-37016D02*
X48178Y-36981D01*
X48154Y-36965D01*
X48107Y-36952D01*
X47964Y-36970D01*
X47916Y-36995D01*
X47892Y-37017D01*
X47869Y-37058D01*
X47869Y-37115D01*
X47892Y-37150D01*
X47916Y-37166D01*
X47964Y-37179D01*
X48107Y-37161D01*
X48154Y-37136D01*
X48178Y-37114D01*
X48202Y-37073D01*
X48202Y-37016D01*
X47869Y-37534D02*
X48202Y-37492D01*
X47869Y-37363D02*
X48130Y-37330D01*
X48178Y-37343D01*
X48202Y-37378D01*
X48202Y-37435D01*
X48178Y-37476D01*
X48154Y-37498D01*
X48202Y-37683D02*
X47869Y-37725D01*
X47964Y-37713D02*
X47916Y-37738D01*
X47892Y-37760D01*
X47869Y-37801D01*
X47869Y-37839D01*
X48154Y-37936D02*
X48178Y-37952D01*
X48202Y-37930D01*
X48178Y-37914D01*
X48154Y-37936D01*
X48202Y-37930D01*
X48178Y-38295D02*
X48202Y-38254D01*
X48202Y-38178D01*
X48178Y-38143D01*
X48154Y-38127D01*
X48107Y-38114D01*
X47964Y-38132D01*
X47916Y-38157D01*
X47892Y-38179D01*
X47869Y-38220D01*
X47869Y-38296D01*
X47892Y-38331D01*
X48202Y-38521D02*
X48178Y-38486D01*
X48154Y-38470D01*
X48107Y-38457D01*
X47964Y-38475D01*
X47916Y-38500D01*
X47892Y-38522D01*
X47869Y-38563D01*
X47869Y-38620D01*
X47892Y-38655D01*
X47916Y-38671D01*
X47964Y-38684D01*
X48107Y-38666D01*
X48154Y-38641D01*
X48178Y-38619D01*
X48202Y-38578D01*
X48202Y-38521D01*
X48202Y-38826D02*
X47869Y-38867D01*
X47916Y-38861D02*
X47892Y-38883D01*
X47869Y-38925D01*
X47869Y-38982D01*
X47892Y-39017D01*
X47940Y-39030D01*
X48202Y-38997D01*
X47940Y-39030D02*
X47892Y-39055D01*
X47869Y-39096D01*
X47869Y-39153D01*
X47892Y-39188D01*
X47940Y-39201D01*
X48202Y-39169D01*
X38702Y-27298D02*
X38702Y-27526D01*
X39202Y-27350D02*
X38702Y-27412D01*
X39202Y-27597D02*
X38702Y-27660D01*
X39202Y-27769D02*
X38940Y-27801D01*
X38892Y-27788D01*
X38869Y-27753D01*
X38869Y-27696D01*
X38892Y-27655D01*
X38916Y-27633D01*
X39178Y-28114D02*
X39202Y-28073D01*
X39202Y-27997D01*
X39178Y-27962D01*
X39130Y-27949D01*
X38940Y-27973D01*
X38892Y-27998D01*
X38869Y-28039D01*
X38869Y-28115D01*
X38892Y-28150D01*
X38940Y-28163D01*
X38988Y-28157D01*
X39035Y-27961D01*
X39059Y-28301D02*
X39059Y-28491D01*
X39202Y-28245D02*
X38702Y-28441D01*
X39202Y-28511D01*
X39202Y-28645D02*
X38869Y-28686D01*
X38916Y-28680D02*
X38892Y-28702D01*
X38869Y-28744D01*
X38869Y-28801D01*
X38892Y-28836D01*
X38940Y-28849D01*
X39202Y-28816D01*
X38940Y-28849D02*
X38892Y-28874D01*
X38869Y-28915D01*
X38869Y-28972D01*
X38892Y-29007D01*
X38940Y-29020D01*
X39202Y-28988D01*
X38869Y-29220D02*
X39369Y-29157D01*
X38892Y-29217D02*
X38869Y-29258D01*
X38869Y-29334D01*
X38892Y-29369D01*
X38916Y-29385D01*
X38964Y-29398D01*
X39107Y-29380D01*
X39154Y-29355D01*
X39178Y-29333D01*
X39202Y-29292D01*
X39202Y-29216D01*
X39178Y-29181D01*
X39202Y-29540D02*
X38702Y-29602D01*
X38940Y-29573D02*
X38940Y-29801D01*
X39202Y-29769D02*
X38702Y-29831D01*
X39202Y-30016D02*
X39178Y-29981D01*
X39154Y-29965D01*
X39107Y-29952D01*
X38964Y-29970D01*
X38916Y-29995D01*
X38892Y-30017D01*
X38869Y-30058D01*
X38869Y-30115D01*
X38892Y-30150D01*
X38916Y-30166D01*
X38964Y-30179D01*
X39107Y-30161D01*
X39154Y-30136D01*
X39178Y-30114D01*
X39202Y-30073D01*
X39202Y-30016D01*
X38869Y-30534D02*
X39202Y-30492D01*
X38869Y-30363D02*
X39130Y-30330D01*
X39178Y-30343D01*
X39202Y-30378D01*
X39202Y-30435D01*
X39178Y-30476D01*
X39154Y-30498D01*
X39202Y-30683D02*
X38869Y-30725D01*
X38964Y-30713D02*
X38916Y-30738D01*
X38892Y-30760D01*
X38869Y-30801D01*
X38869Y-30839D01*
X39154Y-30936D02*
X39178Y-30952D01*
X39202Y-30930D01*
X39178Y-30914D01*
X39154Y-30936D01*
X39202Y-30930D01*
X39178Y-31295D02*
X39202Y-31254D01*
X39202Y-31178D01*
X39178Y-31143D01*
X39154Y-31127D01*
X39107Y-31114D01*
X38964Y-31132D01*
X38916Y-31157D01*
X38892Y-31179D01*
X38869Y-31220D01*
X38869Y-31296D01*
X38892Y-31331D01*
X39202Y-31521D02*
X39178Y-31486D01*
X39154Y-31470D01*
X39107Y-31457D01*
X38964Y-31475D01*
X38916Y-31500D01*
X38892Y-31522D01*
X38869Y-31563D01*
X38869Y-31620D01*
X38892Y-31655D01*
X38916Y-31671D01*
X38964Y-31684D01*
X39107Y-31666D01*
X39154Y-31641D01*
X39178Y-31619D01*
X39202Y-31578D01*
X39202Y-31521D01*
X39202Y-31826D02*
X38869Y-31867D01*
X38916Y-31861D02*
X38892Y-31883D01*
X38869Y-31925D01*
X38869Y-31982D01*
X38892Y-32017D01*
X38940Y-32030D01*
X39202Y-31997D01*
X38940Y-32030D02*
X38892Y-32055D01*
X38869Y-32096D01*
X38869Y-32153D01*
X38892Y-32188D01*
X38940Y-32201D01*
X39202Y-32169D01*
X38702Y-37048D02*
X38702Y-37276D01*
X39202Y-37100D02*
X38702Y-37162D01*
X39202Y-37347D02*
X38702Y-37410D01*
X39202Y-37519D02*
X38940Y-37551D01*
X38892Y-37538D01*
X38869Y-37503D01*
X38869Y-37446D01*
X38892Y-37405D01*
X38916Y-37383D01*
X39178Y-37864D02*
X39202Y-37823D01*
X39202Y-37747D01*
X39178Y-37712D01*
X39130Y-37699D01*
X38940Y-37723D01*
X38892Y-37748D01*
X38869Y-37789D01*
X38869Y-37865D01*
X38892Y-37900D01*
X38940Y-37913D01*
X38988Y-37907D01*
X39035Y-37711D01*
X39059Y-38051D02*
X39059Y-38241D01*
X39202Y-37995D02*
X38702Y-38191D01*
X39202Y-38261D01*
X39202Y-38395D02*
X38869Y-38436D01*
X38916Y-38430D02*
X38892Y-38452D01*
X38869Y-38494D01*
X38869Y-38551D01*
X38892Y-38586D01*
X38940Y-38599D01*
X39202Y-38566D01*
X38940Y-38599D02*
X38892Y-38624D01*
X38869Y-38665D01*
X38869Y-38722D01*
X38892Y-38757D01*
X38940Y-38770D01*
X39202Y-38738D01*
X38869Y-38970D02*
X39369Y-38907D01*
X38892Y-38967D02*
X38869Y-39008D01*
X38869Y-39084D01*
X38892Y-39119D01*
X38916Y-39135D01*
X38964Y-39148D01*
X39107Y-39130D01*
X39154Y-39105D01*
X39178Y-39083D01*
X39202Y-39042D01*
X39202Y-38966D01*
X39178Y-38931D01*
X39202Y-39290D02*
X38702Y-39352D01*
X38940Y-39323D02*
X38940Y-39551D01*
X39202Y-39519D02*
X38702Y-39581D01*
X39202Y-39766D02*
X39178Y-39731D01*
X39154Y-39715D01*
X39107Y-39702D01*
X38964Y-39720D01*
X38916Y-39745D01*
X38892Y-39767D01*
X38869Y-39808D01*
X38869Y-39865D01*
X38892Y-39900D01*
X38916Y-39916D01*
X38964Y-39929D01*
X39107Y-39911D01*
X39154Y-39886D01*
X39178Y-39864D01*
X39202Y-39823D01*
X39202Y-39766D01*
X38869Y-40284D02*
X39202Y-40242D01*
X38869Y-40113D02*
X39130Y-40080D01*
X39178Y-40093D01*
X39202Y-40128D01*
X39202Y-40185D01*
X39178Y-40226D01*
X39154Y-40248D01*
X39202Y-40433D02*
X38869Y-40475D01*
X38964Y-40463D02*
X38916Y-40488D01*
X38892Y-40510D01*
X38869Y-40551D01*
X38869Y-40589D01*
X39154Y-40686D02*
X39178Y-40702D01*
X39202Y-40680D01*
X39178Y-40664D01*
X39154Y-40686D01*
X39202Y-40680D01*
X39178Y-41045D02*
X39202Y-41004D01*
X39202Y-40928D01*
X39178Y-40893D01*
X39154Y-40877D01*
X39107Y-40864D01*
X38964Y-40882D01*
X38916Y-40907D01*
X38892Y-40929D01*
X38869Y-40970D01*
X38869Y-41046D01*
X38892Y-41081D01*
X39202Y-41271D02*
X39178Y-41236D01*
X39154Y-41220D01*
X39107Y-41207D01*
X38964Y-41225D01*
X38916Y-41250D01*
X38892Y-41272D01*
X38869Y-41313D01*
X38869Y-41370D01*
X38892Y-41405D01*
X38916Y-41421D01*
X38964Y-41434D01*
X39107Y-41416D01*
X39154Y-41391D01*
X39178Y-41369D01*
X39202Y-41328D01*
X39202Y-41271D01*
X39202Y-41576D02*
X38869Y-41617D01*
X38916Y-41611D02*
X38892Y-41633D01*
X38869Y-41675D01*
X38869Y-41732D01*
X38892Y-41767D01*
X38940Y-41780D01*
X39202Y-41747D01*
X38940Y-41780D02*
X38892Y-41805D01*
X38869Y-41846D01*
X38869Y-41903D01*
X38892Y-41938D01*
X38940Y-41951D01*
X39202Y-41919D01*
X72328Y-29797D02*
X72328Y-30297D01*
X72461Y-29940D01*
X72595Y-30297D01*
X72595Y-29797D01*
X72766Y-29821D02*
X72823Y-29797D01*
X72919Y-29797D01*
X72957Y-29821D01*
X72976Y-29845D01*
X72995Y-29892D01*
X72995Y-29940D01*
X72976Y-29988D01*
X72957Y-30011D01*
X72919Y-30035D01*
X72842Y-30059D01*
X72804Y-30083D01*
X72785Y-30107D01*
X72766Y-30154D01*
X72766Y-30202D01*
X72785Y-30250D01*
X72804Y-30273D01*
X72842Y-30297D01*
X72938Y-30297D01*
X72995Y-30273D01*
X73242Y-30297D02*
X73319Y-30297D01*
X73357Y-30273D01*
X73395Y-30226D01*
X73414Y-30130D01*
X73414Y-29964D01*
X73395Y-29869D01*
X73357Y-29821D01*
X73319Y-29797D01*
X73242Y-29797D01*
X73204Y-29821D01*
X73166Y-29869D01*
X73147Y-29964D01*
X73147Y-30130D01*
X73166Y-30226D01*
X73204Y-30273D01*
X73242Y-30297D01*
X73585Y-29797D02*
X73585Y-30297D01*
X73738Y-30297D01*
X73776Y-30273D01*
X73795Y-30250D01*
X73814Y-30202D01*
X73814Y-30130D01*
X73795Y-30083D01*
X73776Y-30059D01*
X73738Y-30035D01*
X73585Y-30035D01*
X73985Y-29988D02*
X74290Y-29988D01*
X74538Y-30083D02*
X74500Y-30107D01*
X74480Y-30130D01*
X74461Y-30178D01*
X74461Y-30202D01*
X74480Y-30250D01*
X74500Y-30273D01*
X74538Y-30297D01*
X74614Y-30297D01*
X74652Y-30273D01*
X74671Y-30250D01*
X74690Y-30202D01*
X74690Y-30178D01*
X74671Y-30130D01*
X74652Y-30107D01*
X74614Y-30083D01*
X74538Y-30083D01*
X74500Y-30059D01*
X74480Y-30035D01*
X74461Y-29988D01*
X74461Y-29892D01*
X74480Y-29845D01*
X74500Y-29821D01*
X74538Y-29797D01*
X74614Y-29797D01*
X74652Y-29821D01*
X74671Y-29845D01*
X74690Y-29892D01*
X74690Y-29988D01*
X74671Y-30035D01*
X74652Y-30059D01*
X74614Y-30083D01*
X72250Y-39571D02*
X72307Y-39547D01*
X72402Y-39547D01*
X72440Y-39571D01*
X72459Y-39595D01*
X72478Y-39642D01*
X72478Y-39690D01*
X72459Y-39738D01*
X72440Y-39761D01*
X72402Y-39785D01*
X72326Y-39809D01*
X72288Y-39833D01*
X72269Y-39857D01*
X72250Y-39904D01*
X72250Y-39952D01*
X72269Y-40000D01*
X72288Y-40023D01*
X72326Y-40047D01*
X72421Y-40047D01*
X72478Y-40023D01*
X72726Y-40047D02*
X72802Y-40047D01*
X72840Y-40023D01*
X72878Y-39976D01*
X72897Y-39880D01*
X72897Y-39714D01*
X72878Y-39619D01*
X72840Y-39571D01*
X72802Y-39547D01*
X72726Y-39547D01*
X72688Y-39571D01*
X72650Y-39619D01*
X72630Y-39714D01*
X72630Y-39880D01*
X72650Y-39976D01*
X72688Y-40023D01*
X72726Y-40047D01*
X73069Y-39547D02*
X73069Y-40047D01*
X73488Y-39595D02*
X73469Y-39571D01*
X73411Y-39547D01*
X73373Y-39547D01*
X73316Y-39571D01*
X73278Y-39619D01*
X73259Y-39666D01*
X73240Y-39761D01*
X73240Y-39833D01*
X73259Y-39928D01*
X73278Y-39976D01*
X73316Y-40023D01*
X73373Y-40047D01*
X73411Y-40047D01*
X73469Y-40023D01*
X73488Y-40000D01*
X73869Y-39547D02*
X73640Y-39547D01*
X73754Y-39547D02*
X73754Y-40047D01*
X73716Y-39976D01*
X73678Y-39928D01*
X73640Y-39904D01*
X74211Y-40047D02*
X74135Y-40047D01*
X74097Y-40023D01*
X74078Y-40000D01*
X74040Y-39928D01*
X74021Y-39833D01*
X74021Y-39642D01*
X74040Y-39595D01*
X74059Y-39571D01*
X74097Y-39547D01*
X74173Y-39547D01*
X74211Y-39571D01*
X74230Y-39595D01*
X74250Y-39642D01*
X74250Y-39761D01*
X74230Y-39809D01*
X74211Y-39833D01*
X74173Y-39857D01*
X74097Y-39857D01*
X74059Y-39833D01*
X74040Y-39809D01*
X74021Y-39761D01*
X72250Y-47821D02*
X72307Y-47797D01*
X72402Y-47797D01*
X72440Y-47821D01*
X72459Y-47845D01*
X72478Y-47892D01*
X72478Y-47940D01*
X72459Y-47988D01*
X72440Y-48011D01*
X72402Y-48035D01*
X72326Y-48059D01*
X72288Y-48083D01*
X72269Y-48107D01*
X72250Y-48154D01*
X72250Y-48202D01*
X72269Y-48250D01*
X72288Y-48273D01*
X72326Y-48297D01*
X72421Y-48297D01*
X72478Y-48273D01*
X72726Y-48297D02*
X72802Y-48297D01*
X72840Y-48273D01*
X72878Y-48226D01*
X72897Y-48130D01*
X72897Y-47964D01*
X72878Y-47869D01*
X72840Y-47821D01*
X72802Y-47797D01*
X72726Y-47797D01*
X72688Y-47821D01*
X72650Y-47869D01*
X72630Y-47964D01*
X72630Y-48130D01*
X72650Y-48226D01*
X72688Y-48273D01*
X72726Y-48297D01*
X73069Y-47797D02*
X73069Y-48297D01*
X73488Y-47845D02*
X73469Y-47821D01*
X73411Y-47797D01*
X73373Y-47797D01*
X73316Y-47821D01*
X73278Y-47869D01*
X73259Y-47916D01*
X73240Y-48011D01*
X73240Y-48083D01*
X73259Y-48178D01*
X73278Y-48226D01*
X73316Y-48273D01*
X73373Y-48297D01*
X73411Y-48297D01*
X73469Y-48273D01*
X73488Y-48250D01*
X73869Y-47797D02*
X73640Y-47797D01*
X73754Y-47797D02*
X73754Y-48297D01*
X73716Y-48226D01*
X73678Y-48178D01*
X73640Y-48154D01*
X74211Y-48130D02*
X74211Y-47797D01*
X74116Y-48321D02*
X74021Y-47964D01*
X74269Y-47964D01*
G54D12*
X67371Y-42823D02*
X67371Y-42023D01*
X67142Y-42023D01*
X67085Y-42061D01*
X67057Y-42100D01*
X67028Y-42176D01*
X67028Y-42290D01*
X67057Y-42366D01*
X67085Y-42404D01*
X67142Y-42442D01*
X67371Y-42442D01*
X66428Y-42747D02*
X66457Y-42785D01*
X66542Y-42823D01*
X66600Y-42823D01*
X66685Y-42785D01*
X66742Y-42709D01*
X66771Y-42633D01*
X66800Y-42480D01*
X66800Y-42366D01*
X66771Y-42214D01*
X66742Y-42138D01*
X66685Y-42061D01*
X66600Y-42023D01*
X66542Y-42023D01*
X66457Y-42061D01*
X66428Y-42100D01*
X65971Y-42404D02*
X65885Y-42442D01*
X65857Y-42480D01*
X65828Y-42557D01*
X65828Y-42671D01*
X65857Y-42747D01*
X65885Y-42785D01*
X65942Y-42823D01*
X66171Y-42823D01*
X66171Y-42023D01*
X65971Y-42023D01*
X65914Y-42061D01*
X65885Y-42100D01*
X65857Y-42176D01*
X65857Y-42252D01*
X65885Y-42328D01*
X65914Y-42366D01*
X65971Y-42404D01*
X66171Y-42404D01*
X65114Y-42823D02*
X65114Y-42290D01*
X65114Y-42366D02*
X65085Y-42328D01*
X65028Y-42290D01*
X64942Y-42290D01*
X64885Y-42328D01*
X64857Y-42404D01*
X64857Y-42823D01*
X64857Y-42404D02*
X64828Y-42328D01*
X64771Y-42290D01*
X64685Y-42290D01*
X64628Y-42328D01*
X64600Y-42404D01*
X64600Y-42823D01*
X64057Y-42823D02*
X64057Y-42404D01*
X64085Y-42328D01*
X64142Y-42290D01*
X64257Y-42290D01*
X64314Y-42328D01*
X64057Y-42785D02*
X64114Y-42823D01*
X64257Y-42823D01*
X64314Y-42785D01*
X64342Y-42709D01*
X64342Y-42633D01*
X64314Y-42557D01*
X64257Y-42519D01*
X64114Y-42519D01*
X64057Y-42480D01*
X63771Y-42290D02*
X63771Y-42823D01*
X63771Y-42366D02*
X63742Y-42328D01*
X63685Y-42290D01*
X63600Y-42290D01*
X63542Y-42328D01*
X63514Y-42404D01*
X63514Y-42823D01*
X62971Y-42290D02*
X62971Y-42823D01*
X63228Y-42290D02*
X63228Y-42709D01*
X63200Y-42785D01*
X63142Y-42823D01*
X63057Y-42823D01*
X63000Y-42785D01*
X62971Y-42747D01*
X62771Y-42290D02*
X62542Y-42290D01*
X62685Y-42823D02*
X62685Y-42138D01*
X62657Y-42061D01*
X62600Y-42023D01*
X62542Y-42023D01*
X62085Y-42823D02*
X62085Y-42404D01*
X62114Y-42328D01*
X62171Y-42290D01*
X62285Y-42290D01*
X62342Y-42328D01*
X62085Y-42785D02*
X62142Y-42823D01*
X62285Y-42823D01*
X62342Y-42785D01*
X62371Y-42709D01*
X62371Y-42633D01*
X62342Y-42557D01*
X62285Y-42519D01*
X62142Y-42519D01*
X62085Y-42480D01*
X61542Y-42785D02*
X61600Y-42823D01*
X61714Y-42823D01*
X61771Y-42785D01*
X61800Y-42747D01*
X61828Y-42671D01*
X61828Y-42442D01*
X61800Y-42366D01*
X61771Y-42328D01*
X61714Y-42290D01*
X61600Y-42290D01*
X61542Y-42328D01*
X61371Y-42290D02*
X61142Y-42290D01*
X61285Y-42023D02*
X61285Y-42709D01*
X61257Y-42785D01*
X61200Y-42823D01*
X61142Y-42823D01*
X60685Y-42290D02*
X60685Y-42823D01*
X60942Y-42290D02*
X60942Y-42709D01*
X60914Y-42785D01*
X60857Y-42823D01*
X60771Y-42823D01*
X60714Y-42785D01*
X60685Y-42747D01*
X60400Y-42823D02*
X60400Y-42290D01*
X60400Y-42442D02*
X60371Y-42366D01*
X60342Y-42328D01*
X60285Y-42290D01*
X60228Y-42290D01*
X59800Y-42785D02*
X59857Y-42823D01*
X59971Y-42823D01*
X60028Y-42785D01*
X60057Y-42709D01*
X60057Y-42404D01*
X60028Y-42328D01*
X59971Y-42290D01*
X59857Y-42290D01*
X59800Y-42328D01*
X59771Y-42404D01*
X59771Y-42480D01*
X60057Y-42557D01*
X59257Y-42823D02*
X59257Y-42023D01*
X59257Y-42785D02*
X59314Y-42823D01*
X59428Y-42823D01*
X59485Y-42785D01*
X59514Y-42747D01*
X59542Y-42671D01*
X59542Y-42442D01*
X59514Y-42366D01*
X59485Y-42328D01*
X59428Y-42290D01*
X59314Y-42290D01*
X59257Y-42328D01*
X58514Y-42823D02*
X58514Y-42290D01*
X58514Y-42023D02*
X58542Y-42061D01*
X58514Y-42100D01*
X58485Y-42061D01*
X58514Y-42023D01*
X58514Y-42100D01*
X58228Y-42290D02*
X58228Y-42823D01*
X58228Y-42366D02*
X58200Y-42328D01*
X58142Y-42290D01*
X58057Y-42290D01*
X58000Y-42328D01*
X57971Y-42404D01*
X57971Y-42823D01*
X57314Y-42290D02*
X57085Y-42290D01*
X57228Y-42023D02*
X57228Y-42709D01*
X57200Y-42785D01*
X57142Y-42823D01*
X57085Y-42823D01*
X56885Y-42823D02*
X56885Y-42023D01*
X56628Y-42823D02*
X56628Y-42404D01*
X56657Y-42328D01*
X56714Y-42290D01*
X56800Y-42290D01*
X56857Y-42328D01*
X56885Y-42366D01*
X56114Y-42785D02*
X56171Y-42823D01*
X56285Y-42823D01*
X56342Y-42785D01*
X56371Y-42709D01*
X56371Y-42404D01*
X56342Y-42328D01*
X56285Y-42290D01*
X56171Y-42290D01*
X56114Y-42328D01*
X56085Y-42404D01*
X56085Y-42480D01*
X56371Y-42557D01*
X55371Y-42023D02*
X55371Y-42671D01*
X55342Y-42747D01*
X55314Y-42785D01*
X55257Y-42823D01*
X55142Y-42823D01*
X55085Y-42785D01*
X55057Y-42747D01*
X55028Y-42671D01*
X55028Y-42023D01*
X54771Y-42785D02*
X54685Y-42823D01*
X54542Y-42823D01*
X54485Y-42785D01*
X54457Y-42747D01*
X54428Y-42671D01*
X54428Y-42595D01*
X54457Y-42519D01*
X54485Y-42480D01*
X54542Y-42442D01*
X54657Y-42404D01*
X54714Y-42366D01*
X54742Y-42328D01*
X54771Y-42252D01*
X54771Y-42176D01*
X54742Y-42100D01*
X54714Y-42061D01*
X54657Y-42023D01*
X54514Y-42023D01*
X54428Y-42061D01*
X54200Y-42595D02*
X53914Y-42595D01*
X54257Y-42823D02*
X54057Y-42023D01*
X53857Y-42823D01*
X62514Y-44063D02*
X62514Y-43263D01*
X62514Y-43568D02*
X62457Y-43530D01*
X62342Y-43530D01*
X62285Y-43568D01*
X62257Y-43606D01*
X62228Y-43682D01*
X62228Y-43911D01*
X62257Y-43987D01*
X62285Y-44025D01*
X62342Y-44063D01*
X62457Y-44063D01*
X62514Y-44025D01*
X62028Y-43530D02*
X61885Y-44063D01*
X61742Y-43530D02*
X61885Y-44063D01*
X61942Y-44254D01*
X61971Y-44292D01*
X62028Y-44330D01*
X60942Y-43263D02*
X60828Y-43263D01*
X60771Y-43301D01*
X60714Y-43378D01*
X60685Y-43530D01*
X60685Y-43797D01*
X60714Y-43949D01*
X60771Y-44025D01*
X60828Y-44063D01*
X60942Y-44063D01*
X60999Y-44025D01*
X61057Y-43949D01*
X61085Y-43797D01*
X61085Y-43530D01*
X61057Y-43378D01*
X60999Y-43301D01*
X60942Y-43263D01*
X60457Y-44025D02*
X60371Y-44063D01*
X60228Y-44063D01*
X60171Y-44025D01*
X60142Y-43987D01*
X60114Y-43911D01*
X60114Y-43835D01*
X60142Y-43759D01*
X60171Y-43720D01*
X60228Y-43682D01*
X60342Y-43644D01*
X60399Y-43606D01*
X60428Y-43568D01*
X60457Y-43492D01*
X60457Y-43416D01*
X60428Y-43340D01*
X60399Y-43301D01*
X60342Y-43263D01*
X60199Y-43263D01*
X60114Y-43301D01*
X59857Y-44063D02*
X59857Y-43263D01*
X59857Y-43644D02*
X59514Y-43644D01*
X59514Y-44063D02*
X59514Y-43263D01*
X59228Y-43530D02*
X59228Y-44330D01*
X59228Y-43568D02*
X59171Y-43530D01*
X59057Y-43530D01*
X58999Y-43568D01*
X58971Y-43606D01*
X58942Y-43682D01*
X58942Y-43911D01*
X58971Y-43987D01*
X58999Y-44025D01*
X59057Y-44063D01*
X59171Y-44063D01*
X59228Y-44025D01*
X58428Y-44063D02*
X58428Y-43644D01*
X58457Y-43568D01*
X58514Y-43530D01*
X58628Y-43530D01*
X58685Y-43568D01*
X58428Y-44025D02*
X58485Y-44063D01*
X58628Y-44063D01*
X58685Y-44025D01*
X58714Y-43949D01*
X58714Y-43873D01*
X58685Y-43797D01*
X58628Y-43759D01*
X58485Y-43759D01*
X58428Y-43720D01*
X58142Y-44063D02*
X58142Y-43530D01*
X58142Y-43682D02*
X58114Y-43606D01*
X58085Y-43568D01*
X58028Y-43530D01*
X57971Y-43530D01*
X57771Y-44063D02*
X57771Y-43263D01*
X57714Y-43759D02*
X57542Y-44063D01*
X57542Y-43530D02*
X57771Y-43835D01*
X57285Y-43987D02*
X57257Y-44025D01*
X57285Y-44063D01*
X57314Y-44025D01*
X57285Y-43987D01*
X57285Y-44063D01*
X56999Y-43987D02*
X56971Y-44025D01*
X56999Y-44063D01*
X57028Y-44025D01*
X56999Y-43987D01*
X56999Y-44063D01*
X56714Y-43987D02*
X56685Y-44025D01*
X56714Y-44063D01*
X56742Y-44025D01*
X56714Y-43987D01*
X56714Y-44063D01*
X56428Y-43987D02*
X56399Y-44025D01*
X56428Y-44063D01*
X56457Y-44025D01*
X56428Y-43987D01*
X56428Y-44063D01*
X56142Y-43987D02*
X56114Y-44025D01*
X56142Y-44063D01*
X56171Y-44025D01*
X56142Y-43987D01*
X56142Y-44063D01*
X55857Y-43987D02*
X55828Y-44025D01*
X55857Y-44063D01*
X55885Y-44025D01*
X55857Y-43987D01*
X55857Y-44063D01*
X55571Y-43987D02*
X55542Y-44025D01*
X55571Y-44063D01*
X55599Y-44025D01*
X55571Y-43987D01*
X55571Y-44063D01*
X55028Y-44063D02*
X55028Y-43263D01*
X55028Y-44025D02*
X55085Y-44063D01*
X55200Y-44063D01*
X55257Y-44025D01*
X55285Y-43987D01*
X55314Y-43911D01*
X55314Y-43682D01*
X55285Y-43606D01*
X55257Y-43568D01*
X55200Y-43530D01*
X55085Y-43530D01*
X55028Y-43568D01*
X54485Y-43530D02*
X54485Y-44063D01*
X54742Y-43530D02*
X54742Y-43949D01*
X54714Y-44025D01*
X54657Y-44063D01*
X54571Y-44063D01*
X54514Y-44025D01*
X54485Y-43987D01*
X54200Y-44063D02*
X54200Y-43263D01*
X53942Y-44063D02*
X53942Y-43644D01*
X53971Y-43568D01*
X54028Y-43530D01*
X54114Y-43530D01*
X54171Y-43568D01*
X54200Y-43606D01*
X63999Y-45303D02*
X63999Y-44503D01*
X63999Y-44884D02*
X63657Y-44884D01*
X63657Y-45303D02*
X63657Y-44503D01*
X63285Y-45303D02*
X63342Y-45265D01*
X63371Y-45227D01*
X63399Y-45151D01*
X63399Y-44922D01*
X63371Y-44846D01*
X63342Y-44808D01*
X63285Y-44770D01*
X63199Y-44770D01*
X63142Y-44808D01*
X63114Y-44846D01*
X63085Y-44922D01*
X63085Y-45151D01*
X63114Y-45227D01*
X63142Y-45265D01*
X63199Y-45303D01*
X63285Y-45303D01*
X62885Y-44770D02*
X62771Y-45303D01*
X62657Y-44922D01*
X62542Y-45303D01*
X62428Y-44770D01*
X61485Y-45303D02*
X61485Y-44503D01*
X61485Y-45265D02*
X61542Y-45303D01*
X61657Y-45303D01*
X61714Y-45265D01*
X61742Y-45227D01*
X61771Y-45151D01*
X61771Y-44922D01*
X61742Y-44846D01*
X61714Y-44808D01*
X61657Y-44770D01*
X61542Y-44770D01*
X61485Y-44808D01*
X61114Y-45303D02*
X61171Y-45265D01*
X61199Y-45227D01*
X61228Y-45151D01*
X61228Y-44922D01*
X61199Y-44846D01*
X61171Y-44808D01*
X61114Y-44770D01*
X61028Y-44770D01*
X60971Y-44808D01*
X60942Y-44846D01*
X60914Y-44922D01*
X60914Y-45151D01*
X60942Y-45227D01*
X60971Y-45265D01*
X61028Y-45303D01*
X61114Y-45303D01*
X60257Y-44770D02*
X60114Y-45303D01*
X59971Y-44770D02*
X60114Y-45303D01*
X60171Y-45494D01*
X60199Y-45532D01*
X60257Y-45570D01*
X59657Y-45303D02*
X59714Y-45265D01*
X59742Y-45227D01*
X59771Y-45151D01*
X59771Y-44922D01*
X59742Y-44846D01*
X59714Y-44808D01*
X59657Y-44770D01*
X59571Y-44770D01*
X59514Y-44808D01*
X59485Y-44846D01*
X59457Y-44922D01*
X59457Y-45151D01*
X59485Y-45227D01*
X59514Y-45265D01*
X59571Y-45303D01*
X59657Y-45303D01*
X58942Y-44770D02*
X58942Y-45303D01*
X59199Y-44770D02*
X59199Y-45189D01*
X59171Y-45265D01*
X59114Y-45303D01*
X59028Y-45303D01*
X58971Y-45265D01*
X58942Y-45227D01*
X58199Y-44770D02*
X58199Y-45303D01*
X58199Y-44846D02*
X58171Y-44808D01*
X58114Y-44770D01*
X58028Y-44770D01*
X57971Y-44808D01*
X57942Y-44884D01*
X57942Y-45303D01*
X57571Y-45303D02*
X57628Y-45265D01*
X57657Y-45227D01*
X57685Y-45151D01*
X57685Y-44922D01*
X57657Y-44846D01*
X57628Y-44808D01*
X57571Y-44770D01*
X57485Y-44770D01*
X57428Y-44808D01*
X57399Y-44846D01*
X57371Y-44922D01*
X57371Y-45151D01*
X57399Y-45227D01*
X57428Y-45265D01*
X57485Y-45303D01*
X57571Y-45303D01*
X57199Y-44770D02*
X56971Y-44770D01*
X57114Y-44503D02*
X57114Y-45189D01*
X57085Y-45265D01*
X57028Y-45303D01*
X56971Y-45303D01*
X56314Y-45303D02*
X56314Y-44503D01*
X56257Y-44999D02*
X56085Y-45303D01*
X56085Y-44770D02*
X56314Y-45075D01*
X55828Y-44770D02*
X55828Y-45303D01*
X55828Y-44846D02*
X55799Y-44808D01*
X55742Y-44770D01*
X55657Y-44770D01*
X55599Y-44808D01*
X55571Y-44884D01*
X55571Y-45303D01*
X55200Y-45303D02*
X55257Y-45265D01*
X55285Y-45227D01*
X55314Y-45151D01*
X55314Y-44922D01*
X55285Y-44846D01*
X55257Y-44808D01*
X55200Y-44770D01*
X55114Y-44770D01*
X55057Y-44808D01*
X55028Y-44846D01*
X55000Y-44922D01*
X55000Y-45151D01*
X55028Y-45227D01*
X55057Y-45265D01*
X55114Y-45303D01*
X55200Y-45303D01*
X54800Y-44770D02*
X54685Y-45303D01*
X54571Y-44922D01*
X54457Y-45303D01*
X54342Y-44770D01*
X63857Y-46543D02*
X63857Y-46124D01*
X63885Y-46048D01*
X63942Y-46010D01*
X64057Y-46010D01*
X64114Y-46048D01*
X63857Y-46505D02*
X63914Y-46543D01*
X64057Y-46543D01*
X64114Y-46505D01*
X64142Y-46429D01*
X64142Y-46353D01*
X64114Y-46277D01*
X64057Y-46239D01*
X63914Y-46239D01*
X63857Y-46200D01*
X63571Y-46543D02*
X63571Y-45743D01*
X63571Y-46048D02*
X63514Y-46010D01*
X63400Y-46010D01*
X63342Y-46048D01*
X63314Y-46086D01*
X63285Y-46162D01*
X63285Y-46391D01*
X63314Y-46467D01*
X63342Y-46505D01*
X63400Y-46543D01*
X63514Y-46543D01*
X63571Y-46505D01*
X62942Y-46543D02*
X63000Y-46505D01*
X63028Y-46467D01*
X63057Y-46391D01*
X63057Y-46162D01*
X63028Y-46086D01*
X63000Y-46048D01*
X62942Y-46010D01*
X62857Y-46010D01*
X62800Y-46048D01*
X62771Y-46086D01*
X62742Y-46162D01*
X62742Y-46391D01*
X62771Y-46467D01*
X62800Y-46505D01*
X62857Y-46543D01*
X62942Y-46543D01*
X62228Y-46010D02*
X62228Y-46543D01*
X62485Y-46010D02*
X62485Y-46429D01*
X62457Y-46505D01*
X62400Y-46543D01*
X62314Y-46543D01*
X62257Y-46505D01*
X62228Y-46467D01*
X62028Y-46010D02*
X61800Y-46010D01*
X61942Y-45743D02*
X61942Y-46429D01*
X61914Y-46505D01*
X61857Y-46543D01*
X61800Y-46543D01*
X61228Y-46010D02*
X61000Y-46010D01*
X61142Y-45743D02*
X61142Y-46429D01*
X61114Y-46505D01*
X61057Y-46543D01*
X61000Y-46543D01*
X60800Y-46543D02*
X60800Y-45743D01*
X60542Y-46543D02*
X60542Y-46124D01*
X60571Y-46048D01*
X60628Y-46010D01*
X60714Y-46010D01*
X60771Y-46048D01*
X60800Y-46086D01*
X60028Y-46505D02*
X60085Y-46543D01*
X60200Y-46543D01*
X60257Y-46505D01*
X60285Y-46429D01*
X60285Y-46124D01*
X60257Y-46048D01*
X60200Y-46010D01*
X60085Y-46010D01*
X60028Y-46048D01*
X60000Y-46124D01*
X60000Y-46200D01*
X60285Y-46277D01*
X59285Y-46010D02*
X59285Y-46810D01*
X59285Y-46048D02*
X59228Y-46010D01*
X59114Y-46010D01*
X59057Y-46048D01*
X59028Y-46086D01*
X59000Y-46162D01*
X59000Y-46391D01*
X59028Y-46467D01*
X59057Y-46505D01*
X59114Y-46543D01*
X59228Y-46543D01*
X59285Y-46505D01*
X58485Y-46010D02*
X58485Y-46543D01*
X58742Y-46010D02*
X58742Y-46429D01*
X58714Y-46505D01*
X58657Y-46543D01*
X58571Y-46543D01*
X58514Y-46505D01*
X58485Y-46467D01*
X58200Y-46543D02*
X58200Y-46010D01*
X58200Y-46162D02*
X58171Y-46086D01*
X58142Y-46048D01*
X58085Y-46010D01*
X58028Y-46010D01*
X57828Y-46010D02*
X57828Y-46810D01*
X57828Y-46048D02*
X57771Y-46010D01*
X57657Y-46010D01*
X57600Y-46048D01*
X57571Y-46086D01*
X57542Y-46162D01*
X57542Y-46391D01*
X57571Y-46467D01*
X57600Y-46505D01*
X57657Y-46543D01*
X57771Y-46543D01*
X57828Y-46505D01*
X57200Y-46543D02*
X57257Y-46505D01*
X57285Y-46429D01*
X57285Y-45743D01*
X56742Y-46505D02*
X56800Y-46543D01*
X56914Y-46543D01*
X56971Y-46505D01*
X57000Y-46429D01*
X57000Y-46124D01*
X56971Y-46048D01*
X56914Y-46010D01*
X56800Y-46010D01*
X56742Y-46048D01*
X56714Y-46124D01*
X56714Y-46200D01*
X57000Y-46277D01*
X56057Y-46010D02*
X55914Y-46543D01*
X55771Y-46010D02*
X55914Y-46543D01*
X55971Y-46734D01*
X56000Y-46772D01*
X56057Y-46810D01*
X55314Y-46505D02*
X55371Y-46543D01*
X55485Y-46543D01*
X55542Y-46505D01*
X55571Y-46429D01*
X55571Y-46124D01*
X55542Y-46048D01*
X55485Y-46010D01*
X55371Y-46010D01*
X55314Y-46048D01*
X55285Y-46124D01*
X55285Y-46200D01*
X55571Y-46277D01*
X55114Y-46010D02*
X54885Y-46010D01*
X55028Y-45743D02*
X55028Y-46429D01*
X55000Y-46505D01*
X54942Y-46543D01*
X54885Y-46543D01*
X54600Y-46467D02*
X54571Y-46505D01*
X54600Y-46543D01*
X54628Y-46505D01*
X54600Y-46467D01*
X54600Y-46543D01*
X54714Y-45781D02*
X54657Y-45743D01*
X54514Y-45743D01*
X54457Y-45781D01*
X54428Y-45858D01*
X54428Y-45934D01*
X54457Y-46010D01*
X54485Y-46048D01*
X54542Y-46086D01*
X54571Y-46124D01*
X54600Y-46200D01*
X54600Y-46239D01*
X54085Y-46467D02*
X54057Y-46505D01*
X54085Y-46543D01*
X54114Y-46505D01*
X54085Y-46467D01*
X54085Y-46543D01*
X54200Y-45781D02*
X54142Y-45743D01*
X54000Y-45743D01*
X53942Y-45781D01*
X53914Y-45858D01*
X53914Y-45934D01*
X53942Y-46010D01*
X53971Y-46048D01*
X54028Y-46086D01*
X54057Y-46124D01*
X54085Y-46200D01*
X54085Y-46239D01*
G54D13*
X67085Y-27273D02*
X66742Y-27273D01*
X67013Y-28073D02*
X66913Y-27273D01*
X66642Y-28073D02*
X66542Y-27273D01*
X66385Y-28073D02*
X66332Y-27654D01*
X66351Y-27578D01*
X66404Y-27540D01*
X66489Y-27540D01*
X66551Y-27578D01*
X66585Y-27616D01*
X65866Y-28035D02*
X65927Y-28073D01*
X66042Y-28073D01*
X66094Y-28035D01*
X66113Y-27959D01*
X66075Y-27654D01*
X66037Y-27578D01*
X65975Y-27540D01*
X65861Y-27540D01*
X65808Y-27578D01*
X65789Y-27654D01*
X65799Y-27730D01*
X66094Y-27807D01*
X65127Y-27845D02*
X64842Y-27845D01*
X65213Y-28073D02*
X64913Y-27273D01*
X64813Y-28073D01*
X64613Y-28073D02*
X64547Y-27540D01*
X64556Y-27616D02*
X64523Y-27578D01*
X64461Y-27540D01*
X64375Y-27540D01*
X64323Y-27578D01*
X64304Y-27654D01*
X64356Y-28073D01*
X64304Y-27654D02*
X64266Y-27578D01*
X64204Y-27540D01*
X64118Y-27540D01*
X64066Y-27578D01*
X64047Y-27654D01*
X64099Y-28073D01*
X63747Y-27540D02*
X63847Y-28340D01*
X63751Y-27578D02*
X63689Y-27540D01*
X63575Y-27540D01*
X63523Y-27578D01*
X63499Y-27616D01*
X63480Y-27692D01*
X63508Y-27921D01*
X63547Y-27997D01*
X63580Y-28035D01*
X63642Y-28073D01*
X63756Y-28073D01*
X63808Y-28035D01*
X62813Y-28073D02*
X62713Y-27273D01*
X62761Y-27654D02*
X62418Y-27654D01*
X62470Y-28073D02*
X62370Y-27273D01*
X62099Y-28073D02*
X62151Y-28035D01*
X62175Y-27997D01*
X62194Y-27921D01*
X62166Y-27692D01*
X62127Y-27616D01*
X62094Y-27578D01*
X62032Y-27540D01*
X61947Y-27540D01*
X61894Y-27578D01*
X61870Y-27616D01*
X61851Y-27692D01*
X61880Y-27921D01*
X61918Y-27997D01*
X61951Y-28035D01*
X62013Y-28073D01*
X62099Y-28073D01*
X61318Y-27540D02*
X61385Y-28073D01*
X61575Y-27540D02*
X61627Y-27959D01*
X61608Y-28035D01*
X61556Y-28073D01*
X61470Y-28073D01*
X61408Y-28035D01*
X61375Y-27997D01*
X61099Y-28073D02*
X61032Y-27540D01*
X61051Y-27692D02*
X61013Y-27616D01*
X60980Y-27578D01*
X60918Y-27540D01*
X60861Y-27540D01*
X60270Y-28073D02*
X60204Y-27540D01*
X60170Y-27273D02*
X60204Y-27311D01*
X60180Y-27350D01*
X60147Y-27311D01*
X60170Y-27273D01*
X60180Y-27350D01*
X60008Y-28035D02*
X59956Y-28073D01*
X59842Y-28073D01*
X59780Y-28035D01*
X59742Y-27959D01*
X59737Y-27921D01*
X59756Y-27845D01*
X59808Y-27807D01*
X59894Y-27807D01*
X59947Y-27769D01*
X59966Y-27692D01*
X59961Y-27654D01*
X59923Y-27578D01*
X59861Y-27540D01*
X59775Y-27540D01*
X59723Y-27578D01*
X58785Y-28073D02*
X58732Y-27654D01*
X58751Y-27578D01*
X58804Y-27540D01*
X58918Y-27540D01*
X58980Y-27578D01*
X58780Y-28035D02*
X58842Y-28073D01*
X58985Y-28073D01*
X59037Y-28035D01*
X59056Y-27959D01*
X59047Y-27883D01*
X59008Y-27807D01*
X58947Y-27769D01*
X58804Y-27769D01*
X58742Y-27730D01*
X58032Y-27540D02*
X57985Y-28073D01*
X57823Y-27692D01*
X57756Y-28073D01*
X57575Y-27540D01*
X57180Y-28035D02*
X57242Y-28073D01*
X57356Y-28073D01*
X57408Y-28035D01*
X57427Y-27959D01*
X57389Y-27654D01*
X57351Y-27578D01*
X57289Y-27540D01*
X57175Y-27540D01*
X57123Y-27578D01*
X57104Y-27654D01*
X57113Y-27730D01*
X57408Y-27807D01*
X56666Y-28035D02*
X56727Y-28073D01*
X56842Y-28073D01*
X56894Y-28035D01*
X56913Y-27959D01*
X56875Y-27654D01*
X56837Y-27578D01*
X56775Y-27540D01*
X56661Y-27540D01*
X56608Y-27578D01*
X56589Y-27654D01*
X56599Y-27730D01*
X56894Y-27807D01*
X56385Y-28073D02*
X56285Y-27273D01*
X56289Y-27769D02*
X56156Y-28073D01*
X56089Y-27540D02*
X56356Y-27845D01*
X55813Y-28073D02*
X55866Y-28035D01*
X55885Y-27959D01*
X55799Y-27273D01*
X55575Y-27540D02*
X55499Y-28073D01*
X55289Y-27540D02*
X55499Y-28073D01*
X55580Y-28264D01*
X55613Y-28302D01*
X55675Y-28340D01*
X67137Y-29305D02*
X67199Y-29343D01*
X67313Y-29343D01*
X67366Y-29305D01*
X67385Y-29229D01*
X67347Y-28924D01*
X67308Y-28848D01*
X67247Y-28810D01*
X67132Y-28810D01*
X67080Y-28848D01*
X67061Y-28924D01*
X67070Y-29000D01*
X67366Y-29077D01*
X66770Y-29343D02*
X66823Y-29305D01*
X66842Y-29229D01*
X66756Y-28543D01*
X66308Y-29305D02*
X66370Y-29343D01*
X66485Y-29343D01*
X66537Y-29305D01*
X66556Y-29229D01*
X66518Y-28924D01*
X66480Y-28848D01*
X66418Y-28810D01*
X66304Y-28810D01*
X66251Y-28848D01*
X66232Y-28924D01*
X66242Y-29000D01*
X66537Y-29077D01*
X65766Y-29305D02*
X65827Y-29343D01*
X65942Y-29343D01*
X65994Y-29305D01*
X66018Y-29267D01*
X66037Y-29191D01*
X66008Y-28962D01*
X65970Y-28886D01*
X65937Y-28848D01*
X65875Y-28810D01*
X65761Y-28810D01*
X65708Y-28848D01*
X65532Y-28810D02*
X65304Y-28810D01*
X65413Y-28543D02*
X65499Y-29229D01*
X65480Y-29305D01*
X65427Y-29343D01*
X65370Y-29343D01*
X65170Y-29343D02*
X65104Y-28810D01*
X65123Y-28962D02*
X65085Y-28886D01*
X65051Y-28848D01*
X64989Y-28810D01*
X64932Y-28810D01*
X64713Y-29343D02*
X64766Y-29305D01*
X64789Y-29267D01*
X64808Y-29191D01*
X64780Y-28962D01*
X64742Y-28886D01*
X64708Y-28848D01*
X64647Y-28810D01*
X64561Y-28810D01*
X64508Y-28848D01*
X64485Y-28886D01*
X64466Y-28962D01*
X64494Y-29191D01*
X64532Y-29267D01*
X64566Y-29305D01*
X64627Y-29343D01*
X64713Y-29343D01*
X64189Y-28810D02*
X64256Y-29343D01*
X64199Y-28886D02*
X64166Y-28848D01*
X64104Y-28810D01*
X64018Y-28810D01*
X63966Y-28848D01*
X63947Y-28924D01*
X63999Y-29343D01*
X63713Y-29343D02*
X63647Y-28810D01*
X63613Y-28543D02*
X63647Y-28581D01*
X63623Y-28620D01*
X63589Y-28581D01*
X63613Y-28543D01*
X63623Y-28620D01*
X63166Y-29305D02*
X63227Y-29343D01*
X63342Y-29343D01*
X63394Y-29305D01*
X63418Y-29267D01*
X63437Y-29191D01*
X63408Y-28962D01*
X63370Y-28886D01*
X63337Y-28848D01*
X63275Y-28810D01*
X63161Y-28810D01*
X63108Y-28848D01*
X62937Y-29305D02*
X62885Y-29343D01*
X62770Y-29343D01*
X62708Y-29305D01*
X62670Y-29229D01*
X62666Y-29191D01*
X62685Y-29115D01*
X62737Y-29077D01*
X62823Y-29077D01*
X62875Y-29039D01*
X62894Y-28962D01*
X62889Y-28924D01*
X62851Y-28848D01*
X62789Y-28810D01*
X62704Y-28810D01*
X62651Y-28848D01*
X61904Y-28810D02*
X62004Y-29610D01*
X61908Y-28848D02*
X61847Y-28810D01*
X61732Y-28810D01*
X61680Y-28848D01*
X61656Y-28886D01*
X61637Y-28962D01*
X61666Y-29191D01*
X61704Y-29267D01*
X61737Y-29305D01*
X61799Y-29343D01*
X61913Y-29343D01*
X61966Y-29305D01*
X61342Y-29343D02*
X61394Y-29305D01*
X61418Y-29267D01*
X61437Y-29191D01*
X61408Y-28962D01*
X61370Y-28886D01*
X61337Y-28848D01*
X61275Y-28810D01*
X61189Y-28810D01*
X61137Y-28848D01*
X61113Y-28886D01*
X61094Y-28962D01*
X61123Y-29191D01*
X61161Y-29267D01*
X61194Y-29305D01*
X61256Y-29343D01*
X61342Y-29343D01*
X60627Y-29343D02*
X60527Y-28543D01*
X60623Y-29305D02*
X60685Y-29343D01*
X60799Y-29343D01*
X60851Y-29305D01*
X60875Y-29267D01*
X60894Y-29191D01*
X60866Y-28962D01*
X60827Y-28886D01*
X60794Y-28848D01*
X60732Y-28810D01*
X60618Y-28810D01*
X60566Y-28848D01*
X60080Y-29305D02*
X60142Y-29343D01*
X60256Y-29343D01*
X60308Y-29305D01*
X60332Y-29267D01*
X60351Y-29191D01*
X60323Y-28962D01*
X60285Y-28886D01*
X60251Y-28848D01*
X60189Y-28810D01*
X60075Y-28810D01*
X60023Y-28848D01*
X59570Y-29343D02*
X59518Y-28924D01*
X59537Y-28848D01*
X59589Y-28810D01*
X59704Y-28810D01*
X59766Y-28848D01*
X59566Y-29305D02*
X59627Y-29343D01*
X59770Y-29343D01*
X59823Y-29305D01*
X59842Y-29229D01*
X59832Y-29153D01*
X59794Y-29077D01*
X59732Y-29039D01*
X59589Y-29039D01*
X59527Y-29000D01*
X59308Y-29305D02*
X59256Y-29343D01*
X59142Y-29343D01*
X59080Y-29305D01*
X59042Y-29229D01*
X59037Y-29191D01*
X59056Y-29115D01*
X59108Y-29077D01*
X59194Y-29077D01*
X59247Y-29039D01*
X59266Y-28962D01*
X59261Y-28924D01*
X59223Y-28848D01*
X59161Y-28810D01*
X59075Y-28810D01*
X59023Y-28848D01*
X58818Y-28810D02*
X58589Y-28810D01*
X58699Y-28543D02*
X58785Y-29229D01*
X58766Y-29305D01*
X58713Y-29343D01*
X58656Y-29343D01*
X57999Y-29343D02*
X57899Y-28543D01*
X57937Y-28848D02*
X57875Y-28810D01*
X57761Y-28810D01*
X57708Y-28848D01*
X57685Y-28886D01*
X57666Y-28962D01*
X57694Y-29191D01*
X57732Y-29267D01*
X57766Y-29305D01*
X57827Y-29343D01*
X57942Y-29343D01*
X57994Y-29305D01*
X57223Y-29305D02*
X57285Y-29343D01*
X57399Y-29343D01*
X57451Y-29305D01*
X57470Y-29229D01*
X57432Y-28924D01*
X57394Y-28848D01*
X57332Y-28810D01*
X57218Y-28810D01*
X57166Y-28848D01*
X57147Y-28924D01*
X57156Y-29000D01*
X57451Y-29077D01*
X56961Y-28810D02*
X56732Y-28810D01*
X56842Y-28543D02*
X56927Y-29229D01*
X56908Y-29305D01*
X56856Y-29343D01*
X56799Y-29343D01*
X56589Y-28810D02*
X56542Y-29343D01*
X56380Y-28962D01*
X56313Y-29343D01*
X56132Y-28810D01*
X55737Y-29305D02*
X55799Y-29343D01*
X55913Y-29343D01*
X55966Y-29305D01*
X55985Y-29229D01*
X55947Y-28924D01*
X55908Y-28848D01*
X55847Y-28810D01*
X55732Y-28810D01*
X55680Y-28848D01*
X55661Y-28924D01*
X55670Y-29000D01*
X55966Y-29077D01*
X55223Y-29305D02*
X55285Y-29343D01*
X55399Y-29343D01*
X55451Y-29305D01*
X55470Y-29229D01*
X55432Y-28924D01*
X55394Y-28848D01*
X55332Y-28810D01*
X55218Y-28810D01*
X55166Y-28848D01*
X55147Y-28924D01*
X55156Y-29000D01*
X55451Y-29077D01*
X54875Y-28810D02*
X54942Y-29343D01*
X54885Y-28886D02*
X54851Y-28848D01*
X54789Y-28810D01*
X54704Y-28810D01*
X54651Y-28848D01*
X54632Y-28924D01*
X54685Y-29343D01*
X68399Y-30613D02*
X68299Y-29813D01*
X68156Y-29813D01*
X68075Y-29851D01*
X68027Y-29928D01*
X68008Y-30004D01*
X67999Y-30156D01*
X68013Y-30270D01*
X68061Y-30423D01*
X68099Y-30499D01*
X68166Y-30575D01*
X68256Y-30613D01*
X68399Y-30613D01*
X67542Y-30613D02*
X67489Y-30194D01*
X67508Y-30118D01*
X67561Y-30080D01*
X67675Y-30080D01*
X67737Y-30118D01*
X67537Y-30575D02*
X67599Y-30613D01*
X67742Y-30613D01*
X67794Y-30575D01*
X67813Y-30499D01*
X67804Y-30423D01*
X67766Y-30347D01*
X67704Y-30309D01*
X67561Y-30309D01*
X67499Y-30270D01*
X67247Y-30080D02*
X67170Y-30613D01*
X66961Y-30080D01*
X66566Y-30575D02*
X66627Y-30613D01*
X66742Y-30613D01*
X66794Y-30575D01*
X66813Y-30499D01*
X66775Y-30194D01*
X66737Y-30118D01*
X66675Y-30080D01*
X66561Y-30080D01*
X66508Y-30118D01*
X66489Y-30194D01*
X66499Y-30270D01*
X66794Y-30347D01*
X65556Y-29813D02*
X65627Y-30385D01*
X65670Y-30499D01*
X65737Y-30575D01*
X65827Y-30613D01*
X65885Y-30613D01*
X65285Y-30613D02*
X65337Y-30575D01*
X65361Y-30537D01*
X65380Y-30461D01*
X65351Y-30232D01*
X65313Y-30156D01*
X65280Y-30118D01*
X65218Y-30080D01*
X65132Y-30080D01*
X65080Y-30118D01*
X65056Y-30156D01*
X65037Y-30232D01*
X65066Y-30461D01*
X65104Y-30537D01*
X65137Y-30575D01*
X65199Y-30613D01*
X65285Y-30613D01*
X64761Y-30080D02*
X64827Y-30613D01*
X64770Y-30156D02*
X64737Y-30118D01*
X64675Y-30080D01*
X64589Y-30080D01*
X64537Y-30118D01*
X64518Y-30194D01*
X64570Y-30613D01*
X64051Y-30575D02*
X64113Y-30613D01*
X64227Y-30613D01*
X64280Y-30575D01*
X64299Y-30499D01*
X64261Y-30194D01*
X64223Y-30118D01*
X64161Y-30080D01*
X64047Y-30080D01*
X63994Y-30118D01*
X63975Y-30194D01*
X63985Y-30270D01*
X64280Y-30347D01*
X63794Y-30575D02*
X63742Y-30613D01*
X63627Y-30613D01*
X63566Y-30575D01*
X63527Y-30499D01*
X63523Y-30461D01*
X63542Y-30385D01*
X63594Y-30347D01*
X63680Y-30347D01*
X63732Y-30309D01*
X63751Y-30232D01*
X63747Y-30194D01*
X63708Y-30118D01*
X63647Y-30080D01*
X63561Y-30080D01*
X63508Y-30118D01*
X62570Y-30613D02*
X62518Y-30194D01*
X62537Y-30118D01*
X62589Y-30080D01*
X62704Y-30080D01*
X62766Y-30118D01*
X62566Y-30575D02*
X62627Y-30613D01*
X62770Y-30613D01*
X62823Y-30575D01*
X62842Y-30499D01*
X62832Y-30423D01*
X62794Y-30347D01*
X62732Y-30309D01*
X62589Y-30309D01*
X62527Y-30270D01*
X62218Y-30080D02*
X62285Y-30613D01*
X62227Y-30156D02*
X62194Y-30118D01*
X62132Y-30080D01*
X62047Y-30080D01*
X61994Y-30118D01*
X61975Y-30194D01*
X62027Y-30613D01*
X61485Y-30613D02*
X61385Y-29813D01*
X61480Y-30575D02*
X61542Y-30613D01*
X61656Y-30613D01*
X61708Y-30575D01*
X61732Y-30537D01*
X61751Y-30461D01*
X61723Y-30232D01*
X61685Y-30156D01*
X61651Y-30118D01*
X61589Y-30080D01*
X61475Y-30080D01*
X61423Y-30118D01*
X60389Y-30537D02*
X60423Y-30575D01*
X60513Y-30613D01*
X60570Y-30613D01*
X60651Y-30575D01*
X60699Y-30499D01*
X60718Y-30423D01*
X60727Y-30270D01*
X60713Y-30156D01*
X60666Y-30004D01*
X60627Y-29928D01*
X60561Y-29851D01*
X60470Y-29813D01*
X60413Y-29813D01*
X60332Y-29851D01*
X60308Y-29890D01*
X60142Y-30613D02*
X60042Y-29813D01*
X59885Y-30613D02*
X59832Y-30194D01*
X59851Y-30118D01*
X59904Y-30080D01*
X59989Y-30080D01*
X60051Y-30118D01*
X60085Y-30156D01*
X59599Y-30613D02*
X59532Y-30080D01*
X59551Y-30232D02*
X59513Y-30156D01*
X59480Y-30118D01*
X59418Y-30080D01*
X59361Y-30080D01*
X59227Y-30613D02*
X59161Y-30080D01*
X59127Y-29813D02*
X59161Y-29851D01*
X59137Y-29890D01*
X59104Y-29851D01*
X59127Y-29813D01*
X59137Y-29890D01*
X58966Y-30575D02*
X58913Y-30613D01*
X58799Y-30613D01*
X58737Y-30575D01*
X58699Y-30499D01*
X58694Y-30461D01*
X58713Y-30385D01*
X58766Y-30347D01*
X58851Y-30347D01*
X58904Y-30309D01*
X58923Y-30232D01*
X58918Y-30194D01*
X58880Y-30118D01*
X58818Y-30080D01*
X58732Y-30080D01*
X58680Y-30118D01*
X57589Y-29851D02*
X57642Y-29813D01*
X57727Y-29813D01*
X57818Y-29851D01*
X57885Y-29928D01*
X57923Y-30004D01*
X57970Y-30156D01*
X57985Y-30270D01*
X57975Y-30423D01*
X57956Y-30499D01*
X57908Y-30575D01*
X57827Y-30613D01*
X57770Y-30613D01*
X57680Y-30575D01*
X57647Y-30537D01*
X57613Y-30270D01*
X57727Y-30270D01*
X57142Y-30613D02*
X57089Y-30194D01*
X57108Y-30118D01*
X57161Y-30080D01*
X57275Y-30080D01*
X57337Y-30118D01*
X57137Y-30575D02*
X57199Y-30613D01*
X57342Y-30613D01*
X57394Y-30575D01*
X57413Y-30499D01*
X57404Y-30423D01*
X57366Y-30347D01*
X57304Y-30309D01*
X57161Y-30309D01*
X57099Y-30270D01*
X56856Y-30613D02*
X56789Y-30080D01*
X56799Y-30156D02*
X56766Y-30118D01*
X56704Y-30080D01*
X56618Y-30080D01*
X56566Y-30118D01*
X56547Y-30194D01*
X56599Y-30613D01*
X56547Y-30194D02*
X56508Y-30118D01*
X56447Y-30080D01*
X56361Y-30080D01*
X56308Y-30118D01*
X56289Y-30194D01*
X56342Y-30613D01*
X56056Y-30613D02*
X55989Y-30080D01*
X55999Y-30156D02*
X55966Y-30118D01*
X55904Y-30080D01*
X55818Y-30080D01*
X55766Y-30118D01*
X55747Y-30194D01*
X55799Y-30613D01*
X55747Y-30194D02*
X55708Y-30118D01*
X55647Y-30080D01*
X55561Y-30080D01*
X55508Y-30118D01*
X55489Y-30194D01*
X55542Y-30613D01*
X55023Y-30575D02*
X55085Y-30613D01*
X55199Y-30613D01*
X55251Y-30575D01*
X55270Y-30499D01*
X55232Y-30194D01*
X55194Y-30118D01*
X55132Y-30080D01*
X55018Y-30080D01*
X54966Y-30118D01*
X54947Y-30194D01*
X54956Y-30270D01*
X55251Y-30347D01*
X54656Y-30613D02*
X54708Y-30575D01*
X54727Y-30499D01*
X54642Y-29813D01*
X54342Y-30613D02*
X54394Y-30575D01*
X54413Y-30499D01*
X54327Y-29813D01*
X54104Y-30537D02*
X54080Y-30575D01*
X54113Y-30613D01*
X54137Y-30575D01*
X54104Y-30537D01*
X54113Y-30613D01*
X66732Y-31464D02*
X66532Y-31464D01*
X66499Y-31883D02*
X66785Y-31883D01*
X66685Y-31083D01*
X66399Y-31083D01*
X66232Y-31350D02*
X66156Y-31883D01*
X65947Y-31350D01*
X65551Y-31845D02*
X65613Y-31883D01*
X65727Y-31883D01*
X65780Y-31845D01*
X65799Y-31769D01*
X65761Y-31464D01*
X65723Y-31388D01*
X65661Y-31350D01*
X65547Y-31350D01*
X65494Y-31388D01*
X65475Y-31464D01*
X65485Y-31540D01*
X65780Y-31617D01*
X65270Y-31883D02*
X65204Y-31350D01*
X65223Y-31502D02*
X65185Y-31426D01*
X65151Y-31388D01*
X65089Y-31350D01*
X65032Y-31350D01*
X64889Y-31350D02*
X64813Y-31883D01*
X64604Y-31350D02*
X64813Y-31883D01*
X64894Y-32074D01*
X64927Y-32112D01*
X64989Y-32150D01*
X63975Y-31350D02*
X63927Y-31883D01*
X63766Y-31502D01*
X63699Y-31883D01*
X63518Y-31350D01*
X63123Y-31845D02*
X63185Y-31883D01*
X63299Y-31883D01*
X63351Y-31845D01*
X63370Y-31769D01*
X63332Y-31464D01*
X63294Y-31388D01*
X63232Y-31350D01*
X63118Y-31350D01*
X63066Y-31388D01*
X63047Y-31464D01*
X63056Y-31540D01*
X63351Y-31617D01*
X62608Y-31845D02*
X62670Y-31883D01*
X62785Y-31883D01*
X62837Y-31845D01*
X62856Y-31769D01*
X62818Y-31464D01*
X62780Y-31388D01*
X62718Y-31350D01*
X62604Y-31350D01*
X62551Y-31388D01*
X62532Y-31464D01*
X62542Y-31540D01*
X62837Y-31617D01*
X62327Y-31883D02*
X62227Y-31083D01*
X62232Y-31579D02*
X62099Y-31883D01*
X62032Y-31350D02*
X62299Y-31655D01*
X61808Y-31845D02*
X61813Y-31883D01*
X61851Y-31960D01*
X61885Y-31998D01*
X61118Y-31350D02*
X60889Y-31350D01*
X60999Y-31083D02*
X61085Y-31769D01*
X61066Y-31845D01*
X61013Y-31883D01*
X60956Y-31883D01*
X60756Y-31883D02*
X60656Y-31083D01*
X60499Y-31883D02*
X60447Y-31464D01*
X60466Y-31388D01*
X60518Y-31350D01*
X60604Y-31350D01*
X60666Y-31388D01*
X60699Y-31426D01*
X59980Y-31845D02*
X60042Y-31883D01*
X60156Y-31883D01*
X60208Y-31845D01*
X60227Y-31769D01*
X60189Y-31464D01*
X60151Y-31388D01*
X60089Y-31350D01*
X59975Y-31350D01*
X59923Y-31388D01*
X59904Y-31464D01*
X59913Y-31540D01*
X60208Y-31617D01*
X59689Y-31350D02*
X59613Y-31883D01*
X59404Y-31350D02*
X59613Y-31883D01*
X59694Y-32074D01*
X59727Y-32112D01*
X59789Y-32150D01*
X58527Y-31883D02*
X58427Y-31083D01*
X58523Y-31845D02*
X58585Y-31883D01*
X58699Y-31883D01*
X58751Y-31845D01*
X58775Y-31807D01*
X58794Y-31731D01*
X58766Y-31502D01*
X58727Y-31426D01*
X58694Y-31388D01*
X58632Y-31350D01*
X58518Y-31350D01*
X58466Y-31388D01*
X58242Y-31883D02*
X58175Y-31350D01*
X58142Y-31083D02*
X58175Y-31121D01*
X58151Y-31160D01*
X58118Y-31121D01*
X58142Y-31083D01*
X58151Y-31160D01*
X57980Y-31845D02*
X57927Y-31883D01*
X57813Y-31883D01*
X57751Y-31845D01*
X57713Y-31769D01*
X57708Y-31731D01*
X57727Y-31655D01*
X57780Y-31617D01*
X57866Y-31617D01*
X57918Y-31579D01*
X57937Y-31502D01*
X57932Y-31464D01*
X57894Y-31388D01*
X57832Y-31350D01*
X57747Y-31350D01*
X57694Y-31388D01*
X57208Y-31845D02*
X57270Y-31883D01*
X57385Y-31883D01*
X57437Y-31845D01*
X57461Y-31807D01*
X57480Y-31731D01*
X57451Y-31502D01*
X57413Y-31426D01*
X57380Y-31388D01*
X57318Y-31350D01*
X57204Y-31350D01*
X57151Y-31388D01*
X56632Y-31350D02*
X56699Y-31883D01*
X56889Y-31350D02*
X56942Y-31769D01*
X56923Y-31845D01*
X56870Y-31883D01*
X56785Y-31883D01*
X56723Y-31845D01*
X56689Y-31807D01*
X56437Y-31845D02*
X56385Y-31883D01*
X56270Y-31883D01*
X56208Y-31845D01*
X56170Y-31769D01*
X56166Y-31731D01*
X56185Y-31655D01*
X56237Y-31617D01*
X56323Y-31617D01*
X56375Y-31579D01*
X56394Y-31502D01*
X56389Y-31464D01*
X56351Y-31388D01*
X56289Y-31350D01*
X56204Y-31350D01*
X56151Y-31388D01*
X55951Y-31845D02*
X55899Y-31883D01*
X55785Y-31883D01*
X55723Y-31845D01*
X55685Y-31769D01*
X55680Y-31731D01*
X55699Y-31655D01*
X55751Y-31617D01*
X55837Y-31617D01*
X55889Y-31579D01*
X55908Y-31502D01*
X55904Y-31464D01*
X55866Y-31388D01*
X55804Y-31350D01*
X55718Y-31350D01*
X55666Y-31388D01*
X67927Y-33153D02*
X67861Y-32620D01*
X67880Y-32772D02*
X67842Y-32696D01*
X67808Y-32658D01*
X67747Y-32620D01*
X67689Y-32620D01*
X67323Y-33115D02*
X67385Y-33153D01*
X67499Y-33153D01*
X67551Y-33115D01*
X67570Y-33039D01*
X67532Y-32734D01*
X67494Y-32658D01*
X67432Y-32620D01*
X67318Y-32620D01*
X67266Y-32658D01*
X67247Y-32734D01*
X67256Y-32810D01*
X67551Y-32887D01*
X66780Y-33115D02*
X66842Y-33153D01*
X66956Y-33153D01*
X67008Y-33115D01*
X67032Y-33077D01*
X67051Y-33001D01*
X67023Y-32772D01*
X66985Y-32696D01*
X66951Y-32658D01*
X66889Y-32620D01*
X66775Y-32620D01*
X66723Y-32658D01*
X66294Y-33115D02*
X66356Y-33153D01*
X66470Y-33153D01*
X66523Y-33115D01*
X66542Y-33039D01*
X66504Y-32734D01*
X66466Y-32658D01*
X66404Y-32620D01*
X66289Y-32620D01*
X66237Y-32658D01*
X66218Y-32734D01*
X66227Y-32810D01*
X66523Y-32887D01*
X65947Y-32620D02*
X66013Y-33153D01*
X65956Y-32696D02*
X65923Y-32658D01*
X65861Y-32620D01*
X65775Y-32620D01*
X65723Y-32658D01*
X65704Y-32734D01*
X65756Y-33153D01*
X65489Y-32620D02*
X65261Y-32620D01*
X65370Y-32353D02*
X65456Y-33039D01*
X65437Y-33115D01*
X65385Y-33153D01*
X65327Y-33153D01*
X64585Y-33153D02*
X64637Y-33115D01*
X64661Y-33077D01*
X64680Y-33001D01*
X64651Y-32772D01*
X64613Y-32696D01*
X64580Y-32658D01*
X64518Y-32620D01*
X64432Y-32620D01*
X64380Y-32658D01*
X64356Y-32696D01*
X64337Y-32772D01*
X64366Y-33001D01*
X64404Y-33077D01*
X64437Y-33115D01*
X64499Y-33153D01*
X64585Y-33153D01*
X64061Y-32620D02*
X64161Y-33420D01*
X64066Y-32658D02*
X64004Y-32620D01*
X63889Y-32620D01*
X63837Y-32658D01*
X63813Y-32696D01*
X63794Y-32772D01*
X63823Y-33001D01*
X63861Y-33077D01*
X63894Y-33115D01*
X63956Y-33153D01*
X64070Y-33153D01*
X64123Y-33115D01*
X63351Y-33115D02*
X63413Y-33153D01*
X63527Y-33153D01*
X63580Y-33115D01*
X63599Y-33039D01*
X63561Y-32734D01*
X63523Y-32658D01*
X63461Y-32620D01*
X63347Y-32620D01*
X63294Y-32658D01*
X63275Y-32734D01*
X63285Y-32810D01*
X63580Y-32887D01*
X63004Y-32620D02*
X63070Y-33153D01*
X63013Y-32696D02*
X62980Y-32658D01*
X62918Y-32620D01*
X62832Y-32620D01*
X62780Y-32658D01*
X62761Y-32734D01*
X62813Y-33153D01*
X62094Y-33115D02*
X62042Y-33153D01*
X61927Y-33153D01*
X61866Y-33115D01*
X61827Y-33039D01*
X61823Y-33001D01*
X61842Y-32925D01*
X61894Y-32887D01*
X61980Y-32887D01*
X62032Y-32849D01*
X62051Y-32772D01*
X62047Y-32734D01*
X62008Y-32658D01*
X61947Y-32620D01*
X61861Y-32620D01*
X61808Y-32658D01*
X61499Y-33153D02*
X61551Y-33115D01*
X61575Y-33077D01*
X61594Y-33001D01*
X61566Y-32772D01*
X61527Y-32696D01*
X61494Y-32658D01*
X61432Y-32620D01*
X61347Y-32620D01*
X61294Y-32658D01*
X61270Y-32696D01*
X61251Y-32772D01*
X61280Y-33001D01*
X61318Y-33077D01*
X61351Y-33115D01*
X61413Y-33153D01*
X61499Y-33153D01*
X60718Y-32620D02*
X60785Y-33153D01*
X60975Y-32620D02*
X61027Y-33039D01*
X61008Y-33115D01*
X60956Y-33153D01*
X60870Y-33153D01*
X60808Y-33115D01*
X60775Y-33077D01*
X60499Y-33153D02*
X60432Y-32620D01*
X60451Y-32772D02*
X60413Y-32696D01*
X60380Y-32658D01*
X60318Y-32620D01*
X60261Y-32620D01*
X59866Y-33115D02*
X59927Y-33153D01*
X60042Y-33153D01*
X60094Y-33115D01*
X60118Y-33077D01*
X60137Y-33001D01*
X60108Y-32772D01*
X60070Y-32696D01*
X60037Y-32658D01*
X59975Y-32620D01*
X59861Y-32620D01*
X59808Y-32658D01*
X59380Y-33115D02*
X59442Y-33153D01*
X59556Y-33153D01*
X59608Y-33115D01*
X59627Y-33039D01*
X59589Y-32734D01*
X59551Y-32658D01*
X59489Y-32620D01*
X59375Y-32620D01*
X59323Y-32658D01*
X59304Y-32734D01*
X59313Y-32810D01*
X59608Y-32887D01*
X58642Y-33153D02*
X58542Y-32353D01*
X58385Y-33153D02*
X58332Y-32734D01*
X58351Y-32658D01*
X58404Y-32620D01*
X58489Y-32620D01*
X58551Y-32658D01*
X58585Y-32696D01*
X57842Y-33153D02*
X57789Y-32734D01*
X57808Y-32658D01*
X57861Y-32620D01*
X57975Y-32620D01*
X58037Y-32658D01*
X57837Y-33115D02*
X57899Y-33153D01*
X58042Y-33153D01*
X58094Y-33115D01*
X58113Y-33039D01*
X58104Y-32963D01*
X58066Y-32887D01*
X58004Y-32849D01*
X57861Y-32849D01*
X57799Y-32810D01*
X57556Y-33153D02*
X57489Y-32620D01*
X57508Y-32772D02*
X57470Y-32696D01*
X57437Y-32658D01*
X57375Y-32620D01*
X57318Y-32620D01*
X56927Y-33153D02*
X56827Y-32353D01*
X56923Y-33115D02*
X56985Y-33153D01*
X57099Y-33153D01*
X57151Y-33115D01*
X57175Y-33077D01*
X57194Y-33001D01*
X57166Y-32772D01*
X57127Y-32696D01*
X57094Y-32658D01*
X57032Y-32620D01*
X56918Y-32620D01*
X56866Y-32658D01*
X56632Y-32620D02*
X56585Y-33153D01*
X56423Y-32772D01*
X56356Y-33153D01*
X56175Y-32620D01*
X55756Y-33153D02*
X55704Y-32734D01*
X55723Y-32658D01*
X55775Y-32620D01*
X55889Y-32620D01*
X55951Y-32658D01*
X55751Y-33115D02*
X55813Y-33153D01*
X55956Y-33153D01*
X56008Y-33115D01*
X56027Y-33039D01*
X56018Y-32963D01*
X55980Y-32887D01*
X55918Y-32849D01*
X55775Y-32849D01*
X55713Y-32810D01*
X55470Y-33153D02*
X55404Y-32620D01*
X55423Y-32772D02*
X55385Y-32696D01*
X55351Y-32658D01*
X55289Y-32620D01*
X55232Y-32620D01*
X54866Y-33115D02*
X54927Y-33153D01*
X55042Y-33153D01*
X55094Y-33115D01*
X55113Y-33039D01*
X55075Y-32734D01*
X55037Y-32658D01*
X54975Y-32620D01*
X54861Y-32620D01*
X54808Y-32658D01*
X54789Y-32734D01*
X54799Y-32810D01*
X55094Y-32887D01*
X54551Y-33115D02*
X54556Y-33153D01*
X54594Y-33230D01*
X54627Y-33268D01*
X67285Y-34423D02*
X67218Y-33890D01*
X67185Y-33623D02*
X67218Y-33661D01*
X67194Y-33700D01*
X67161Y-33661D01*
X67185Y-33623D01*
X67194Y-33700D01*
X66932Y-33890D02*
X66999Y-34423D01*
X66942Y-33966D02*
X66908Y-33928D01*
X66847Y-33890D01*
X66761Y-33890D01*
X66708Y-33928D01*
X66689Y-34004D01*
X66742Y-34423D01*
X66199Y-34423D02*
X66099Y-33623D01*
X66194Y-34385D02*
X66256Y-34423D01*
X66370Y-34423D01*
X66423Y-34385D01*
X66447Y-34347D01*
X66466Y-34271D01*
X66437Y-34042D01*
X66399Y-33966D01*
X66366Y-33928D01*
X66304Y-33890D01*
X66189Y-33890D01*
X66137Y-33928D01*
X65589Y-33890D02*
X65656Y-34423D01*
X65847Y-33890D02*
X65899Y-34309D01*
X65880Y-34385D01*
X65827Y-34423D01*
X65742Y-34423D01*
X65680Y-34385D01*
X65647Y-34347D01*
X65394Y-34385D02*
X65342Y-34423D01*
X65227Y-34423D01*
X65166Y-34385D01*
X65127Y-34309D01*
X65123Y-34271D01*
X65142Y-34195D01*
X65194Y-34157D01*
X65280Y-34157D01*
X65332Y-34119D01*
X65351Y-34042D01*
X65347Y-34004D01*
X65308Y-33928D01*
X65247Y-33890D01*
X65161Y-33890D01*
X65108Y-33928D01*
X64904Y-33890D02*
X64675Y-33890D01*
X64785Y-33623D02*
X64870Y-34309D01*
X64851Y-34385D01*
X64799Y-34423D01*
X64742Y-34423D01*
X64542Y-34423D02*
X64475Y-33890D01*
X64494Y-34042D02*
X64456Y-33966D01*
X64423Y-33928D01*
X64361Y-33890D01*
X64304Y-33890D01*
X64161Y-33890D02*
X64085Y-34423D01*
X63875Y-33890D02*
X64085Y-34423D01*
X64166Y-34614D01*
X64199Y-34652D01*
X64261Y-34690D01*
X63189Y-33890D02*
X63256Y-34423D01*
X63199Y-33966D02*
X63166Y-33928D01*
X63104Y-33890D01*
X63018Y-33890D01*
X62966Y-33928D01*
X62947Y-34004D01*
X62999Y-34423D01*
X62480Y-34385D02*
X62542Y-34423D01*
X62656Y-34423D01*
X62708Y-34385D01*
X62727Y-34309D01*
X62689Y-34004D01*
X62651Y-33928D01*
X62589Y-33890D01*
X62475Y-33890D01*
X62423Y-33928D01*
X62404Y-34004D01*
X62413Y-34080D01*
X62708Y-34157D01*
X62189Y-33890D02*
X62142Y-34423D01*
X61980Y-34042D01*
X61913Y-34423D01*
X61732Y-33890D01*
X61594Y-34385D02*
X61542Y-34423D01*
X61427Y-34423D01*
X61366Y-34385D01*
X61327Y-34309D01*
X61323Y-34271D01*
X61342Y-34195D01*
X61394Y-34157D01*
X61480Y-34157D01*
X61532Y-34119D01*
X61551Y-34042D01*
X61547Y-34004D01*
X61508Y-33928D01*
X61447Y-33890D01*
X61361Y-33890D01*
X61308Y-33928D01*
X60370Y-34423D02*
X60318Y-34004D01*
X60337Y-33928D01*
X60389Y-33890D01*
X60504Y-33890D01*
X60566Y-33928D01*
X60366Y-34385D02*
X60427Y-34423D01*
X60570Y-34423D01*
X60623Y-34385D01*
X60642Y-34309D01*
X60632Y-34233D01*
X60594Y-34157D01*
X60532Y-34119D01*
X60389Y-34119D01*
X60327Y-34080D01*
X60018Y-33890D02*
X60085Y-34423D01*
X60027Y-33966D02*
X59994Y-33928D01*
X59932Y-33890D01*
X59847Y-33890D01*
X59794Y-33928D01*
X59775Y-34004D01*
X59827Y-34423D01*
X59285Y-34423D02*
X59185Y-33623D01*
X59280Y-34385D02*
X59342Y-34423D01*
X59456Y-34423D01*
X59508Y-34385D01*
X59532Y-34347D01*
X59551Y-34271D01*
X59523Y-34042D01*
X59485Y-33966D01*
X59451Y-33928D01*
X59389Y-33890D01*
X59275Y-33890D01*
X59223Y-33928D01*
X58475Y-33890D02*
X58575Y-34690D01*
X58480Y-33928D02*
X58418Y-33890D01*
X58304Y-33890D01*
X58251Y-33928D01*
X58227Y-33966D01*
X58208Y-34042D01*
X58237Y-34271D01*
X58275Y-34347D01*
X58308Y-34385D01*
X58370Y-34423D01*
X58485Y-34423D01*
X58537Y-34385D01*
X57999Y-34423D02*
X57932Y-33890D01*
X57951Y-34042D02*
X57913Y-33966D01*
X57880Y-33928D01*
X57818Y-33890D01*
X57761Y-33890D01*
X57542Y-34423D02*
X57594Y-34385D01*
X57618Y-34347D01*
X57637Y-34271D01*
X57608Y-34042D01*
X57570Y-33966D01*
X57537Y-33928D01*
X57475Y-33890D01*
X57389Y-33890D01*
X57337Y-33928D01*
X57313Y-33966D01*
X57294Y-34042D01*
X57323Y-34271D01*
X57361Y-34347D01*
X57394Y-34385D01*
X57456Y-34423D01*
X57542Y-34423D01*
X57018Y-33890D02*
X57104Y-34576D01*
X57142Y-34652D01*
X57204Y-34690D01*
X57232Y-34690D01*
X56985Y-33623D02*
X57018Y-33661D01*
X56994Y-33700D01*
X56961Y-33661D01*
X56985Y-33623D01*
X56994Y-33700D01*
X56566Y-34385D02*
X56627Y-34423D01*
X56742Y-34423D01*
X56794Y-34385D01*
X56813Y-34309D01*
X56775Y-34004D01*
X56737Y-33928D01*
X56675Y-33890D01*
X56561Y-33890D01*
X56508Y-33928D01*
X56489Y-34004D01*
X56499Y-34080D01*
X56794Y-34157D01*
X56023Y-34385D02*
X56085Y-34423D01*
X56199Y-34423D01*
X56251Y-34385D01*
X56275Y-34347D01*
X56294Y-34271D01*
X56266Y-34042D01*
X56227Y-33966D01*
X56194Y-33928D01*
X56132Y-33890D01*
X56018Y-33890D01*
X55966Y-33928D01*
X55789Y-33890D02*
X55561Y-33890D01*
X55670Y-33623D02*
X55756Y-34309D01*
X55737Y-34385D01*
X55685Y-34423D01*
X55627Y-34423D01*
X55451Y-34385D02*
X55399Y-34423D01*
X55285Y-34423D01*
X55223Y-34385D01*
X55185Y-34309D01*
X55180Y-34271D01*
X55199Y-34195D01*
X55251Y-34157D01*
X55337Y-34157D01*
X55389Y-34119D01*
X55408Y-34042D01*
X55404Y-34004D01*
X55366Y-33928D01*
X55304Y-33890D01*
X55218Y-33890D01*
X55166Y-33928D01*
X68147Y-35160D02*
X67918Y-35160D01*
X68027Y-34893D02*
X68113Y-35579D01*
X68094Y-35655D01*
X68042Y-35693D01*
X67985Y-35693D01*
X67785Y-35693D02*
X67685Y-34893D01*
X67527Y-35693D02*
X67475Y-35274D01*
X67494Y-35198D01*
X67547Y-35160D01*
X67632Y-35160D01*
X67694Y-35198D01*
X67727Y-35236D01*
X67008Y-35655D02*
X67070Y-35693D01*
X67185Y-35693D01*
X67237Y-35655D01*
X67256Y-35579D01*
X67218Y-35274D01*
X67180Y-35198D01*
X67118Y-35160D01*
X67004Y-35160D01*
X66951Y-35198D01*
X66932Y-35274D01*
X66942Y-35350D01*
X67237Y-35427D01*
X66718Y-35160D02*
X66642Y-35693D01*
X66432Y-35160D02*
X66642Y-35693D01*
X66723Y-35884D01*
X66756Y-35922D01*
X66818Y-35960D01*
X66142Y-34893D02*
X66218Y-35046D01*
X65985Y-35693D02*
X65918Y-35160D01*
X65937Y-35312D02*
X65899Y-35236D01*
X65866Y-35198D01*
X65804Y-35160D01*
X65747Y-35160D01*
X65380Y-35655D02*
X65442Y-35693D01*
X65556Y-35693D01*
X65608Y-35655D01*
X65627Y-35579D01*
X65589Y-35274D01*
X65551Y-35198D01*
X65489Y-35160D01*
X65375Y-35160D01*
X65323Y-35198D01*
X65304Y-35274D01*
X65313Y-35350D01*
X65608Y-35427D01*
X64632Y-35160D02*
X64585Y-35693D01*
X64423Y-35312D01*
X64356Y-35693D01*
X64175Y-35160D01*
X63927Y-35693D02*
X63980Y-35655D01*
X64004Y-35617D01*
X64023Y-35541D01*
X63994Y-35312D01*
X63956Y-35236D01*
X63923Y-35198D01*
X63861Y-35160D01*
X63775Y-35160D01*
X63723Y-35198D01*
X63699Y-35236D01*
X63680Y-35312D01*
X63708Y-35541D01*
X63747Y-35617D01*
X63780Y-35655D01*
X63842Y-35693D01*
X63927Y-35693D01*
X63470Y-35693D02*
X63404Y-35160D01*
X63423Y-35312D02*
X63385Y-35236D01*
X63351Y-35198D01*
X63289Y-35160D01*
X63232Y-35160D01*
X63099Y-35693D02*
X62999Y-34893D01*
X63004Y-35389D02*
X62870Y-35693D01*
X62804Y-35160D02*
X63070Y-35465D01*
X62613Y-35693D02*
X62547Y-35160D01*
X62513Y-34893D02*
X62547Y-34931D01*
X62523Y-34970D01*
X62489Y-34931D01*
X62513Y-34893D01*
X62523Y-34970D01*
X62261Y-35160D02*
X62327Y-35693D01*
X62270Y-35236D02*
X62237Y-35198D01*
X62175Y-35160D01*
X62089Y-35160D01*
X62037Y-35198D01*
X62018Y-35274D01*
X62070Y-35693D01*
X61461Y-35160D02*
X61542Y-35808D01*
X61580Y-35884D01*
X61613Y-35922D01*
X61675Y-35960D01*
X61761Y-35960D01*
X61813Y-35922D01*
X61523Y-35655D02*
X61585Y-35693D01*
X61699Y-35693D01*
X61751Y-35655D01*
X61775Y-35617D01*
X61794Y-35541D01*
X61766Y-35312D01*
X61727Y-35236D01*
X61694Y-35198D01*
X61632Y-35160D01*
X61518Y-35160D01*
X61466Y-35198D01*
X60699Y-35693D02*
X60751Y-35655D01*
X60775Y-35617D01*
X60794Y-35541D01*
X60766Y-35312D01*
X60727Y-35236D01*
X60694Y-35198D01*
X60632Y-35160D01*
X60547Y-35160D01*
X60494Y-35198D01*
X60470Y-35236D01*
X60451Y-35312D01*
X60480Y-35541D01*
X60518Y-35617D01*
X60551Y-35655D01*
X60613Y-35693D01*
X60699Y-35693D01*
X60175Y-35160D02*
X60242Y-35693D01*
X60185Y-35236D02*
X60151Y-35198D01*
X60089Y-35160D01*
X60004Y-35160D01*
X59951Y-35198D01*
X59932Y-35274D01*
X59985Y-35693D01*
X59689Y-35617D02*
X59666Y-35655D01*
X59699Y-35693D01*
X59723Y-35655D01*
X59689Y-35617D01*
X59699Y-35693D01*
X58956Y-35465D02*
X58670Y-35465D01*
X59042Y-35693D02*
X58742Y-34893D01*
X58642Y-35693D01*
X58356Y-35693D02*
X58408Y-35655D01*
X58427Y-35579D01*
X58342Y-34893D01*
X58147Y-35160D02*
X57918Y-35160D01*
X58027Y-34893D02*
X58113Y-35579D01*
X58094Y-35655D01*
X58042Y-35693D01*
X57985Y-35693D01*
X57551Y-35655D02*
X57613Y-35693D01*
X57727Y-35693D01*
X57780Y-35655D01*
X57799Y-35579D01*
X57761Y-35274D01*
X57723Y-35198D01*
X57661Y-35160D01*
X57547Y-35160D01*
X57494Y-35198D01*
X57475Y-35274D01*
X57485Y-35350D01*
X57780Y-35427D01*
X57270Y-35693D02*
X57204Y-35160D01*
X57223Y-35312D02*
X57185Y-35236D01*
X57151Y-35198D01*
X57089Y-35160D01*
X57032Y-35160D01*
X56832Y-35160D02*
X56899Y-35693D01*
X56842Y-35236D02*
X56808Y-35198D01*
X56747Y-35160D01*
X56661Y-35160D01*
X56608Y-35198D01*
X56589Y-35274D01*
X56642Y-35693D01*
X56099Y-35693D02*
X56047Y-35274D01*
X56066Y-35198D01*
X56118Y-35160D01*
X56232Y-35160D01*
X56294Y-35198D01*
X56094Y-35655D02*
X56156Y-35693D01*
X56299Y-35693D01*
X56351Y-35655D01*
X56370Y-35579D01*
X56361Y-35503D01*
X56323Y-35427D01*
X56261Y-35389D01*
X56118Y-35389D01*
X56056Y-35350D01*
X55832Y-35160D02*
X55604Y-35160D01*
X55713Y-34893D02*
X55799Y-35579D01*
X55780Y-35655D01*
X55727Y-35693D01*
X55670Y-35693D01*
X55470Y-35693D02*
X55404Y-35160D01*
X55370Y-34893D02*
X55404Y-34931D01*
X55380Y-34970D01*
X55347Y-34931D01*
X55370Y-34893D01*
X55380Y-34970D01*
X55118Y-35160D02*
X55185Y-35693D01*
X55127Y-35236D02*
X55094Y-35198D01*
X55032Y-35160D01*
X54947Y-35160D01*
X54894Y-35198D01*
X54875Y-35274D01*
X54927Y-35693D01*
X54318Y-35160D02*
X54399Y-35808D01*
X54437Y-35884D01*
X54470Y-35922D01*
X54532Y-35960D01*
X54618Y-35960D01*
X54670Y-35922D01*
X54380Y-35655D02*
X54442Y-35693D01*
X54556Y-35693D01*
X54608Y-35655D01*
X54632Y-35617D01*
X54651Y-35541D01*
X54623Y-35312D01*
X54585Y-35236D01*
X54551Y-35198D01*
X54489Y-35160D01*
X54375Y-35160D01*
X54323Y-35198D01*
X67375Y-36430D02*
X67327Y-36963D01*
X67166Y-36582D01*
X67099Y-36963D01*
X66918Y-36430D01*
X66523Y-36925D02*
X66585Y-36963D01*
X66699Y-36963D01*
X66751Y-36925D01*
X66770Y-36849D01*
X66732Y-36544D01*
X66694Y-36468D01*
X66632Y-36430D01*
X66518Y-36430D01*
X66466Y-36468D01*
X66447Y-36544D01*
X66456Y-36620D01*
X66751Y-36697D01*
X66008Y-36925D02*
X66070Y-36963D01*
X66185Y-36963D01*
X66237Y-36925D01*
X66256Y-36849D01*
X66218Y-36544D01*
X66180Y-36468D01*
X66118Y-36430D01*
X66004Y-36430D01*
X65951Y-36468D01*
X65932Y-36544D01*
X65942Y-36620D01*
X66237Y-36697D01*
X65727Y-36963D02*
X65627Y-36163D01*
X65632Y-36659D02*
X65499Y-36963D01*
X65432Y-36430D02*
X65699Y-36735D01*
X65266Y-36925D02*
X65213Y-36963D01*
X65099Y-36963D01*
X65037Y-36925D01*
X64999Y-36849D01*
X64994Y-36811D01*
X65013Y-36735D01*
X65066Y-36697D01*
X65151Y-36697D01*
X65204Y-36659D01*
X65223Y-36582D01*
X65218Y-36544D01*
X65180Y-36468D01*
X65118Y-36430D01*
X65032Y-36430D01*
X64980Y-36468D01*
X64723Y-36925D02*
X64727Y-36963D01*
X64766Y-37040D01*
X64799Y-37078D01*
X63756Y-36963D02*
X63704Y-36544D01*
X63723Y-36468D01*
X63775Y-36430D01*
X63889Y-36430D01*
X63951Y-36468D01*
X63751Y-36925D02*
X63813Y-36963D01*
X63956Y-36963D01*
X64008Y-36925D01*
X64027Y-36849D01*
X64018Y-36773D01*
X63980Y-36697D01*
X63918Y-36659D01*
X63775Y-36659D01*
X63713Y-36620D01*
X62689Y-36430D02*
X62770Y-37078D01*
X62808Y-37154D01*
X62842Y-37192D01*
X62904Y-37230D01*
X62989Y-37230D01*
X63042Y-37192D01*
X62751Y-36925D02*
X62813Y-36963D01*
X62927Y-36963D01*
X62980Y-36925D01*
X63004Y-36887D01*
X63023Y-36811D01*
X62994Y-36582D01*
X62956Y-36506D01*
X62923Y-36468D01*
X62861Y-36430D01*
X62747Y-36430D01*
X62694Y-36468D01*
X62147Y-36430D02*
X62213Y-36963D01*
X62404Y-36430D02*
X62456Y-36849D01*
X62437Y-36925D01*
X62385Y-36963D01*
X62299Y-36963D01*
X62237Y-36925D01*
X62204Y-36887D01*
X61694Y-36925D02*
X61756Y-36963D01*
X61870Y-36963D01*
X61923Y-36925D01*
X61942Y-36849D01*
X61904Y-36544D01*
X61866Y-36468D01*
X61804Y-36430D01*
X61689Y-36430D01*
X61637Y-36468D01*
X61618Y-36544D01*
X61627Y-36620D01*
X61923Y-36697D01*
X61437Y-36925D02*
X61385Y-36963D01*
X61270Y-36963D01*
X61208Y-36925D01*
X61170Y-36849D01*
X61166Y-36811D01*
X61185Y-36735D01*
X61237Y-36697D01*
X61323Y-36697D01*
X61375Y-36659D01*
X61394Y-36582D01*
X61389Y-36544D01*
X61351Y-36468D01*
X61289Y-36430D01*
X61204Y-36430D01*
X61151Y-36468D01*
X60947Y-36430D02*
X60718Y-36430D01*
X60827Y-36163D02*
X60913Y-36849D01*
X60894Y-36925D01*
X60842Y-36963D01*
X60785Y-36963D01*
X60127Y-36963D02*
X60061Y-36430D01*
X60027Y-36163D02*
X60061Y-36201D01*
X60037Y-36240D01*
X60004Y-36201D01*
X60027Y-36163D01*
X60037Y-36240D01*
X59866Y-36925D02*
X59813Y-36963D01*
X59699Y-36963D01*
X59637Y-36925D01*
X59599Y-36849D01*
X59594Y-36811D01*
X59613Y-36735D01*
X59666Y-36697D01*
X59751Y-36697D01*
X59804Y-36659D01*
X59823Y-36582D01*
X59818Y-36544D01*
X59780Y-36468D01*
X59718Y-36430D01*
X59632Y-36430D01*
X59580Y-36468D01*
X58899Y-36963D02*
X58832Y-36430D01*
X58799Y-36163D02*
X58832Y-36201D01*
X58808Y-36240D01*
X58775Y-36201D01*
X58799Y-36163D01*
X58808Y-36240D01*
X58547Y-36430D02*
X58613Y-36963D01*
X58556Y-36506D02*
X58523Y-36468D01*
X58461Y-36430D01*
X58375Y-36430D01*
X58323Y-36468D01*
X58304Y-36544D01*
X58356Y-36963D01*
X58061Y-36430D02*
X57985Y-36963D01*
X57775Y-36430D01*
X57613Y-36963D02*
X57547Y-36430D01*
X57513Y-36163D02*
X57547Y-36201D01*
X57523Y-36240D01*
X57489Y-36201D01*
X57513Y-36163D01*
X57523Y-36240D01*
X57347Y-36430D02*
X57118Y-36430D01*
X57227Y-36163D02*
X57313Y-36849D01*
X57294Y-36925D01*
X57242Y-36963D01*
X57185Y-36963D01*
X56751Y-36925D02*
X56813Y-36963D01*
X56927Y-36963D01*
X56980Y-36925D01*
X56999Y-36849D01*
X56961Y-36544D01*
X56923Y-36468D01*
X56861Y-36430D01*
X56747Y-36430D01*
X56694Y-36468D01*
X56675Y-36544D01*
X56685Y-36620D01*
X56980Y-36697D01*
X56213Y-36963D02*
X56113Y-36163D01*
X56208Y-36925D02*
X56270Y-36963D01*
X56385Y-36963D01*
X56437Y-36925D01*
X56461Y-36887D01*
X56480Y-36811D01*
X56451Y-36582D01*
X56413Y-36506D01*
X56380Y-36468D01*
X56318Y-36430D01*
X56204Y-36430D01*
X56151Y-36468D01*
X55385Y-36963D02*
X55437Y-36925D01*
X55461Y-36887D01*
X55480Y-36811D01*
X55451Y-36582D01*
X55413Y-36506D01*
X55380Y-36468D01*
X55318Y-36430D01*
X55232Y-36430D01*
X55180Y-36468D01*
X55156Y-36506D01*
X55137Y-36582D01*
X55166Y-36811D01*
X55204Y-36887D01*
X55237Y-36925D01*
X55299Y-36963D01*
X55385Y-36963D01*
X54861Y-36430D02*
X54927Y-36963D01*
X54870Y-36506D02*
X54837Y-36468D01*
X54775Y-36430D01*
X54689Y-36430D01*
X54637Y-36468D01*
X54618Y-36544D01*
X54670Y-36963D01*
X66832Y-37700D02*
X66604Y-37700D01*
X66713Y-37433D02*
X66799Y-38119D01*
X66780Y-38195D01*
X66727Y-38233D01*
X66670Y-38233D01*
X66385Y-38233D02*
X66437Y-38195D01*
X66461Y-38157D01*
X66480Y-38081D01*
X66451Y-37852D01*
X66413Y-37776D01*
X66380Y-37738D01*
X66318Y-37700D01*
X66232Y-37700D01*
X66180Y-37738D01*
X66156Y-37776D01*
X66137Y-37852D01*
X66166Y-38081D01*
X66204Y-38157D01*
X66237Y-38195D01*
X66299Y-38233D01*
X66385Y-38233D01*
X65494Y-38195D02*
X65442Y-38233D01*
X65327Y-38233D01*
X65266Y-38195D01*
X65227Y-38119D01*
X65223Y-38081D01*
X65242Y-38005D01*
X65294Y-37967D01*
X65380Y-37967D01*
X65432Y-37929D01*
X65451Y-37852D01*
X65447Y-37814D01*
X65408Y-37738D01*
X65347Y-37700D01*
X65261Y-37700D01*
X65208Y-37738D01*
X64985Y-38233D02*
X64885Y-37433D01*
X64727Y-38233D02*
X64675Y-37814D01*
X64694Y-37738D01*
X64747Y-37700D01*
X64832Y-37700D01*
X64894Y-37738D01*
X64927Y-37776D01*
X64185Y-38233D02*
X64132Y-37814D01*
X64151Y-37738D01*
X64204Y-37700D01*
X64318Y-37700D01*
X64380Y-37738D01*
X64180Y-38195D02*
X64242Y-38233D01*
X64385Y-38233D01*
X64437Y-38195D01*
X64456Y-38119D01*
X64447Y-38043D01*
X64408Y-37967D01*
X64347Y-37929D01*
X64204Y-37929D01*
X64142Y-37890D01*
X63899Y-38233D02*
X63832Y-37700D01*
X63851Y-37852D02*
X63813Y-37776D01*
X63780Y-37738D01*
X63718Y-37700D01*
X63661Y-37700D01*
X63294Y-38195D02*
X63356Y-38233D01*
X63470Y-38233D01*
X63523Y-38195D01*
X63542Y-38119D01*
X63504Y-37814D01*
X63466Y-37738D01*
X63404Y-37700D01*
X63289Y-37700D01*
X63237Y-37738D01*
X63218Y-37814D01*
X63227Y-37890D01*
X63523Y-37967D01*
X62575Y-37700D02*
X62347Y-37700D01*
X62456Y-37433D02*
X62542Y-38119D01*
X62523Y-38195D01*
X62470Y-38233D01*
X62413Y-38233D01*
X62213Y-38233D02*
X62113Y-37433D01*
X61956Y-38233D02*
X61904Y-37814D01*
X61923Y-37738D01*
X61975Y-37700D01*
X62061Y-37700D01*
X62123Y-37738D01*
X62156Y-37776D01*
X61437Y-38195D02*
X61499Y-38233D01*
X61613Y-38233D01*
X61666Y-38195D01*
X61685Y-38119D01*
X61647Y-37814D01*
X61608Y-37738D01*
X61547Y-37700D01*
X61432Y-37700D01*
X61380Y-37738D01*
X61361Y-37814D01*
X61370Y-37890D01*
X61666Y-37967D01*
X61156Y-38233D02*
X61089Y-37700D01*
X61056Y-37433D02*
X61089Y-37471D01*
X61066Y-37510D01*
X61032Y-37471D01*
X61056Y-37433D01*
X61066Y-37510D01*
X60870Y-38233D02*
X60804Y-37700D01*
X60823Y-37852D02*
X60785Y-37776D01*
X60751Y-37738D01*
X60689Y-37700D01*
X60632Y-37700D01*
X60032Y-37700D02*
X59956Y-38233D01*
X59747Y-37700D01*
X59585Y-38233D02*
X59518Y-37700D01*
X59485Y-37433D02*
X59518Y-37471D01*
X59494Y-37510D01*
X59461Y-37471D01*
X59485Y-37433D01*
X59494Y-37510D01*
X59066Y-38195D02*
X59127Y-38233D01*
X59242Y-38233D01*
X59294Y-38195D01*
X59313Y-38119D01*
X59275Y-37814D01*
X59237Y-37738D01*
X59175Y-37700D01*
X59061Y-37700D01*
X59008Y-37738D01*
X58989Y-37814D01*
X58999Y-37890D01*
X59294Y-37967D01*
X58775Y-37700D02*
X58727Y-38233D01*
X58566Y-37852D01*
X58499Y-38233D01*
X58318Y-37700D01*
X57613Y-38233D02*
X57666Y-38195D01*
X57689Y-38157D01*
X57708Y-38081D01*
X57680Y-37852D01*
X57642Y-37776D01*
X57608Y-37738D01*
X57547Y-37700D01*
X57461Y-37700D01*
X57408Y-37738D01*
X57385Y-37776D01*
X57366Y-37852D01*
X57394Y-38081D01*
X57432Y-38157D01*
X57466Y-38195D01*
X57527Y-38233D01*
X57613Y-38233D01*
X57175Y-37700D02*
X56947Y-37700D01*
X57156Y-38233D02*
X57070Y-37548D01*
X57032Y-37471D01*
X56970Y-37433D01*
X56913Y-37433D01*
X56375Y-37700D02*
X56147Y-37700D01*
X56256Y-37433D02*
X56342Y-38119D01*
X56323Y-38195D01*
X56270Y-38233D01*
X56213Y-38233D01*
X56013Y-38233D02*
X55913Y-37433D01*
X55756Y-38233D02*
X55704Y-37814D01*
X55723Y-37738D01*
X55775Y-37700D01*
X55861Y-37700D01*
X55923Y-37738D01*
X55956Y-37776D01*
X55237Y-38195D02*
X55299Y-38233D01*
X55413Y-38233D01*
X55466Y-38195D01*
X55485Y-38119D01*
X55447Y-37814D01*
X55408Y-37738D01*
X55347Y-37700D01*
X55232Y-37700D01*
X55180Y-37738D01*
X55161Y-37814D01*
X55170Y-37890D01*
X55466Y-37967D01*
X65051Y-39465D02*
X65113Y-39503D01*
X65227Y-39503D01*
X65280Y-39465D01*
X65299Y-39389D01*
X65261Y-39084D01*
X65223Y-39008D01*
X65161Y-38970D01*
X65047Y-38970D01*
X64994Y-39008D01*
X64975Y-39084D01*
X64985Y-39160D01*
X65280Y-39237D01*
X64685Y-39503D02*
X64737Y-39465D01*
X64756Y-39389D01*
X64670Y-38703D01*
X64223Y-39465D02*
X64285Y-39503D01*
X64399Y-39503D01*
X64451Y-39465D01*
X64470Y-39389D01*
X64432Y-39084D01*
X64394Y-39008D01*
X64332Y-38970D01*
X64218Y-38970D01*
X64166Y-39008D01*
X64147Y-39084D01*
X64156Y-39160D01*
X64451Y-39237D01*
X63680Y-39465D02*
X63742Y-39503D01*
X63856Y-39503D01*
X63908Y-39465D01*
X63932Y-39427D01*
X63951Y-39351D01*
X63923Y-39122D01*
X63885Y-39046D01*
X63851Y-39008D01*
X63789Y-38970D01*
X63675Y-38970D01*
X63623Y-39008D01*
X63447Y-38970D02*
X63218Y-38970D01*
X63327Y-38703D02*
X63413Y-39389D01*
X63394Y-39465D01*
X63342Y-39503D01*
X63285Y-39503D01*
X63085Y-39503D02*
X63018Y-38970D01*
X63037Y-39122D02*
X62999Y-39046D01*
X62966Y-39008D01*
X62904Y-38970D01*
X62847Y-38970D01*
X62627Y-39503D02*
X62680Y-39465D01*
X62704Y-39427D01*
X62723Y-39351D01*
X62694Y-39122D01*
X62656Y-39046D01*
X62623Y-39008D01*
X62561Y-38970D01*
X62475Y-38970D01*
X62423Y-39008D01*
X62399Y-39046D01*
X62380Y-39122D01*
X62408Y-39351D01*
X62447Y-39427D01*
X62480Y-39465D01*
X62542Y-39503D01*
X62627Y-39503D01*
X62104Y-38970D02*
X62170Y-39503D01*
X62113Y-39046D02*
X62080Y-39008D01*
X62018Y-38970D01*
X61932Y-38970D01*
X61880Y-39008D01*
X61861Y-39084D01*
X61913Y-39503D01*
X61627Y-39503D02*
X61561Y-38970D01*
X61527Y-38703D02*
X61561Y-38741D01*
X61537Y-38780D01*
X61504Y-38741D01*
X61527Y-38703D01*
X61537Y-38780D01*
X61080Y-39465D02*
X61142Y-39503D01*
X61256Y-39503D01*
X61308Y-39465D01*
X61332Y-39427D01*
X61351Y-39351D01*
X61323Y-39122D01*
X61285Y-39046D01*
X61251Y-39008D01*
X61189Y-38970D01*
X61075Y-38970D01*
X61023Y-39008D01*
X60851Y-39465D02*
X60799Y-39503D01*
X60685Y-39503D01*
X60623Y-39465D01*
X60585Y-39389D01*
X60580Y-39351D01*
X60599Y-39275D01*
X60651Y-39237D01*
X60737Y-39237D01*
X60789Y-39199D01*
X60808Y-39122D01*
X60804Y-39084D01*
X60766Y-39008D01*
X60704Y-38970D01*
X60618Y-38970D01*
X60566Y-39008D01*
X59885Y-39503D02*
X59818Y-38970D01*
X59785Y-38703D02*
X59818Y-38741D01*
X59794Y-38780D01*
X59761Y-38741D01*
X59785Y-38703D01*
X59794Y-38780D01*
X59532Y-38970D02*
X59599Y-39503D01*
X59542Y-39046D02*
X59508Y-39008D01*
X59447Y-38970D01*
X59361Y-38970D01*
X59308Y-39008D01*
X59289Y-39084D01*
X59342Y-39503D01*
X58799Y-39503D02*
X58699Y-38703D01*
X58794Y-39465D02*
X58856Y-39503D01*
X58970Y-39503D01*
X59023Y-39465D01*
X59047Y-39427D01*
X59066Y-39351D01*
X59037Y-39122D01*
X58999Y-39046D01*
X58966Y-39008D01*
X58904Y-38970D01*
X58789Y-38970D01*
X58737Y-39008D01*
X58189Y-38970D02*
X58256Y-39503D01*
X58447Y-38970D02*
X58499Y-39389D01*
X58480Y-39465D01*
X58427Y-39503D01*
X58342Y-39503D01*
X58280Y-39465D01*
X58247Y-39427D01*
X57994Y-39465D02*
X57942Y-39503D01*
X57827Y-39503D01*
X57766Y-39465D01*
X57727Y-39389D01*
X57723Y-39351D01*
X57742Y-39275D01*
X57794Y-39237D01*
X57880Y-39237D01*
X57932Y-39199D01*
X57951Y-39122D01*
X57947Y-39084D01*
X57908Y-39008D01*
X57847Y-38970D01*
X57761Y-38970D01*
X57708Y-39008D01*
X57504Y-38970D02*
X57275Y-38970D01*
X57385Y-38703D02*
X57470Y-39389D01*
X57451Y-39465D01*
X57399Y-39503D01*
X57342Y-39503D01*
X57142Y-39503D02*
X57075Y-38970D01*
X57094Y-39122D02*
X57056Y-39046D01*
X57023Y-39008D01*
X56961Y-38970D01*
X56904Y-38970D01*
X56761Y-38970D02*
X56685Y-39503D01*
X56475Y-38970D02*
X56685Y-39503D01*
X56766Y-39694D01*
X56799Y-39732D01*
X56861Y-39770D01*
X56304Y-39427D02*
X56280Y-39465D01*
X56313Y-39503D01*
X56337Y-39465D01*
X56304Y-39427D01*
X56313Y-39503D01*
G54D14*
X73540Y-39190D02*
X73540Y-38890D01*
X73540Y-38890D02*
X72940Y-38890D01*
X72940Y-38890D02*
X72940Y-39190D01*
X74140Y-34790D02*
X72340Y-34790D01*
X72340Y-34790D02*
X72340Y-39190D01*
X72340Y-39190D02*
X74140Y-39190D01*
X74140Y-39190D02*
X74140Y-34790D01*
X74250Y-43650D02*
X72350Y-43650D01*
X72350Y-43650D02*
X72350Y-47650D01*
X72350Y-47650D02*
X74250Y-47650D01*
X74250Y-47650D02*
X74250Y-43650D01*
X73550Y-47650D02*
X73550Y-47400D01*
X73550Y-47400D02*
X73050Y-47400D01*
X73050Y-47400D02*
X73050Y-47650D01*
X72915Y-28895D02*
X73390Y-29395D01*
X72915Y-29395D02*
X72915Y-28145D01*
X72915Y-28145D02*
X74165Y-28145D01*
X74165Y-28145D02*
X74165Y-29395D01*
X74165Y-29395D02*
X72915Y-29395D01*
G54D15*
G36*
X68336Y-45177D02*
X68129Y-45222D01*
X68015Y-45249D01*
X67947Y-45277D01*
X67905Y-45322D01*
X67868Y-45397D01*
X67858Y-45421D01*
X67795Y-45576D01*
X67913Y-45740D01*
X68031Y-45905D01*
X67870Y-46064D01*
X67708Y-46223D01*
X67566Y-46120D01*
X67440Y-46043D01*
X67345Y-46018D01*
X67287Y-46045D01*
X67284Y-46050D01*
X67259Y-46076D01*
X67232Y-46070D01*
X67198Y-46024D01*
X67153Y-45931D01*
X67090Y-45786D01*
X67067Y-45730D01*
X66923Y-45377D01*
X67027Y-45295D01*
X67127Y-45178D01*
X67176Y-45035D01*
X67173Y-44884D01*
X67120Y-44741D01*
X67030Y-44635D01*
X66905Y-44569D01*
X66758Y-44546D01*
X66615Y-44570D01*
X66521Y-44619D01*
X66404Y-44748D01*
X66346Y-44894D01*
X66347Y-45046D01*
X66407Y-45192D01*
X66518Y-45311D01*
X66604Y-45379D01*
X66464Y-45723D01*
X66407Y-45861D01*
X66360Y-45975D01*
X66328Y-46051D01*
X66316Y-46076D01*
X66284Y-46071D01*
X66223Y-46046D01*
X66149Y-46025D01*
X66081Y-46045D01*
X66043Y-46067D01*
X65931Y-46140D01*
X65858Y-46180D01*
X65807Y-46186D01*
X65759Y-46158D01*
X65696Y-46096D01*
X65660Y-46058D01*
X65506Y-45900D01*
X65618Y-45737D01*
X65729Y-45574D01*
X65669Y-45420D01*
X65632Y-45336D01*
X65594Y-45285D01*
X65534Y-45254D01*
X65433Y-45228D01*
X65403Y-45222D01*
X65197Y-45177D01*
X65207Y-44956D01*
X65217Y-44736D01*
X65350Y-44710D01*
X65455Y-44689D01*
X65542Y-44670D01*
X65554Y-44667D01*
X65619Y-44619D01*
X65678Y-44508D01*
X65682Y-44500D01*
X65739Y-44350D01*
X65615Y-44181D01*
X65491Y-44012D01*
X65636Y-43864D01*
X65716Y-43787D01*
X65779Y-43733D01*
X65808Y-43716D01*
X65849Y-43734D01*
X65926Y-43779D01*
X66005Y-43830D01*
X66174Y-43944D01*
X66312Y-43886D01*
X66386Y-43851D01*
X66432Y-43813D01*
X66461Y-43752D01*
X66487Y-43650D01*
X66497Y-43604D01*
X66544Y-43380D01*
X66762Y-43390D01*
X66980Y-43400D01*
X67032Y-43614D01*
X67063Y-43730D01*
X67093Y-43801D01*
X67137Y-43844D01*
X67207Y-43880D01*
X67221Y-43886D01*
X67359Y-43944D01*
X67519Y-43830D01*
X67611Y-43769D01*
X67684Y-43727D01*
X67716Y-43716D01*
X67757Y-43739D01*
X67827Y-43796D01*
X67893Y-43859D01*
X68033Y-44002D01*
X67913Y-44179D01*
X67794Y-44357D01*
X67850Y-44503D01*
X67881Y-44578D01*
X67914Y-44626D01*
X67966Y-44658D01*
X68052Y-44683D01*
X68184Y-44710D01*
X68317Y-44736D01*
X68327Y-44956D01*
X68336Y-45177D01*
X68336Y-45177D01*
X68336Y-45177D01*
G37*
M02*
