G04 (created by PCBNEW (2013-03-19 BZR 4004)-stable) date 9/9/2013 12:01:13 AM*
%MOIN*%
G04 Gerber Fmt 3.4, Leading zero omitted, Abs format*
%FSLAX34Y34*%
G01*
G70*
G90*
G04 APERTURE LIST*
%ADD10C,0*%
%ADD11R,0.045X0.02*%
%ADD12R,0.0787X0.0177*%
%ADD13R,0.0177X0.0787*%
%ADD14C,0.0098*%
%ADD15R,0.0512X0.0118*%
G04 APERTURE END LIST*
G54D10*
G54D11*
X72200Y-29550D03*
X72200Y-29050D03*
X72200Y-28550D03*
X72200Y-28050D03*
X74700Y-28050D03*
X74700Y-28550D03*
X74700Y-29050D03*
X74700Y-29550D03*
G54D12*
X46734Y-32453D03*
X46734Y-32138D03*
X46734Y-31823D03*
X46734Y-31508D03*
X46734Y-31193D03*
X46734Y-30878D03*
X46734Y-30563D03*
X46734Y-30248D03*
X50500Y-30250D03*
X50500Y-32460D03*
X50500Y-32140D03*
X50500Y-31820D03*
X50500Y-31510D03*
X50500Y-31190D03*
X50500Y-30880D03*
X50500Y-30560D03*
G54D13*
X47518Y-29460D03*
X47832Y-29460D03*
X48148Y-29460D03*
X48462Y-29460D03*
X48778Y-29460D03*
X49092Y-29460D03*
X49408Y-29460D03*
X49722Y-29460D03*
X47520Y-33240D03*
X47830Y-33240D03*
X48150Y-33240D03*
X48460Y-33240D03*
X48770Y-33240D03*
X49090Y-33240D03*
X49410Y-33240D03*
X49730Y-33240D03*
G54D14*
X40274Y-42103D02*
X40428Y-42257D01*
X40135Y-42243D02*
X40288Y-42396D01*
X39996Y-42382D02*
X40149Y-42535D01*
X39857Y-42521D02*
X40010Y-42674D01*
X39718Y-42660D02*
X39871Y-42813D01*
X39578Y-42799D02*
X39732Y-42953D01*
X39578Y-43370D02*
X39732Y-43216D01*
X39718Y-43509D02*
X39871Y-43356D01*
X39857Y-43648D02*
X40010Y-43495D01*
X39996Y-43787D02*
X40149Y-43634D01*
X40135Y-43926D02*
X40288Y-43773D01*
X40274Y-44066D02*
X40428Y-43912D01*
X40845Y-44066D02*
X40691Y-43912D01*
X40984Y-43926D02*
X40831Y-43773D01*
X41123Y-43787D02*
X40970Y-43634D01*
X41262Y-43648D02*
X41109Y-43495D01*
X41401Y-43509D02*
X41248Y-43356D01*
X41541Y-43370D02*
X41387Y-43216D01*
X41541Y-42799D02*
X41387Y-42953D01*
X41401Y-42660D02*
X41248Y-42813D01*
X41262Y-42521D02*
X41109Y-42674D01*
X41123Y-42382D02*
X40970Y-42535D01*
X40984Y-42243D02*
X40831Y-42396D01*
X40845Y-42103D02*
X40691Y-42257D01*
G54D10*
G36*
X73376Y-40267D02*
X73588Y-40054D01*
X73659Y-40125D01*
X73447Y-40337D01*
X73376Y-40267D01*
X73376Y-40267D01*
G37*
G36*
X73515Y-40406D02*
X73727Y-40194D01*
X73798Y-40264D01*
X73586Y-40477D01*
X73515Y-40406D01*
X73515Y-40406D01*
G37*
G36*
X73655Y-40545D02*
X73867Y-40333D01*
X73937Y-40404D01*
X73725Y-40616D01*
X73655Y-40545D01*
X73655Y-40545D01*
G37*
G36*
X73237Y-40127D02*
X73449Y-39915D01*
X73520Y-39986D01*
X73307Y-40198D01*
X73237Y-40127D01*
X73237Y-40127D01*
G37*
G36*
X73032Y-40198D02*
X72819Y-39986D01*
X72890Y-39915D01*
X73102Y-40127D01*
X73032Y-40198D01*
X73032Y-40198D01*
G37*
G36*
X72892Y-40337D02*
X72680Y-40125D01*
X72751Y-40054D01*
X72963Y-40267D01*
X72892Y-40337D01*
X72892Y-40337D01*
G37*
G36*
X72753Y-40477D02*
X72541Y-40264D01*
X72612Y-40194D01*
X72824Y-40406D01*
X72753Y-40477D01*
X72753Y-40477D01*
G37*
G36*
X72614Y-40616D02*
X72402Y-40404D01*
X72472Y-40333D01*
X72684Y-40545D01*
X72614Y-40616D01*
X72614Y-40616D01*
G37*
G36*
X72475Y-40754D02*
X72263Y-40542D01*
X72334Y-40472D01*
X72546Y-40684D01*
X72475Y-40754D01*
X72475Y-40754D01*
G37*
G36*
X72336Y-40894D02*
X72124Y-40682D01*
X72194Y-40611D01*
X72407Y-40823D01*
X72336Y-40894D01*
X72336Y-40894D01*
G37*
G36*
X72197Y-41033D02*
X71984Y-40821D01*
X72055Y-40750D01*
X72267Y-40962D01*
X72197Y-41033D01*
X72197Y-41033D01*
G37*
G36*
X72057Y-41172D02*
X71845Y-40960D01*
X71916Y-40889D01*
X72128Y-41102D01*
X72057Y-41172D01*
X72057Y-41172D01*
G37*
G36*
X72819Y-42493D02*
X73032Y-42281D01*
X73102Y-42352D01*
X72890Y-42564D01*
X72819Y-42493D01*
X72819Y-42493D01*
G37*
G36*
X71845Y-41519D02*
X72057Y-41307D01*
X72128Y-41377D01*
X71916Y-41590D01*
X71845Y-41519D01*
X71845Y-41519D01*
G37*
G36*
X71984Y-41658D02*
X72197Y-41446D01*
X72267Y-41517D01*
X72055Y-41729D01*
X71984Y-41658D01*
X71984Y-41658D01*
G37*
G36*
X72124Y-41797D02*
X72336Y-41585D01*
X72407Y-41656D01*
X72194Y-41868D01*
X72124Y-41797D01*
X72124Y-41797D01*
G37*
G36*
X72263Y-41937D02*
X72475Y-41725D01*
X72546Y-41795D01*
X72334Y-42007D01*
X72263Y-41937D01*
X72263Y-41937D01*
G37*
G36*
X72402Y-42075D02*
X72614Y-41863D01*
X72684Y-41934D01*
X72472Y-42146D01*
X72402Y-42075D01*
X72402Y-42075D01*
G37*
G36*
X72541Y-42215D02*
X72753Y-42002D01*
X72824Y-42073D01*
X72612Y-42285D01*
X72541Y-42215D01*
X72541Y-42215D01*
G37*
G36*
X72680Y-42354D02*
X72892Y-42142D01*
X72963Y-42212D01*
X72751Y-42425D01*
X72680Y-42354D01*
X72680Y-42354D01*
G37*
G36*
X73449Y-42564D02*
X73237Y-42352D01*
X73307Y-42281D01*
X73520Y-42493D01*
X73449Y-42564D01*
X73449Y-42564D01*
G37*
G36*
X73588Y-42425D02*
X73376Y-42212D01*
X73447Y-42142D01*
X73659Y-42354D01*
X73588Y-42425D01*
X73588Y-42425D01*
G37*
G36*
X73727Y-42285D02*
X73515Y-42073D01*
X73586Y-42002D01*
X73798Y-42215D01*
X73727Y-42285D01*
X73727Y-42285D01*
G37*
G36*
X73867Y-42146D02*
X73655Y-41934D01*
X73725Y-41863D01*
X73937Y-42075D01*
X73867Y-42146D01*
X73867Y-42146D01*
G37*
G36*
X74005Y-42007D02*
X73793Y-41795D01*
X73864Y-41725D01*
X74076Y-41937D01*
X74005Y-42007D01*
X74005Y-42007D01*
G37*
G36*
X74145Y-41868D02*
X73932Y-41656D01*
X74003Y-41585D01*
X74215Y-41797D01*
X74145Y-41868D01*
X74145Y-41868D01*
G37*
G36*
X74284Y-41729D02*
X74072Y-41517D01*
X74142Y-41446D01*
X74355Y-41658D01*
X74284Y-41729D01*
X74284Y-41729D01*
G37*
G36*
X74423Y-41590D02*
X74211Y-41377D01*
X74282Y-41307D01*
X74494Y-41519D01*
X74423Y-41590D01*
X74423Y-41590D01*
G37*
G36*
X74211Y-41102D02*
X74423Y-40889D01*
X74494Y-40960D01*
X74282Y-41172D01*
X74211Y-41102D01*
X74211Y-41102D01*
G37*
G36*
X74072Y-40962D02*
X74284Y-40750D01*
X74355Y-40821D01*
X74142Y-41033D01*
X74072Y-40962D01*
X74072Y-40962D01*
G37*
G36*
X73932Y-40823D02*
X74145Y-40611D01*
X74215Y-40682D01*
X74003Y-40894D01*
X73932Y-40823D01*
X73932Y-40823D01*
G37*
G36*
X73793Y-40684D02*
X74005Y-40472D01*
X74076Y-40542D01*
X73864Y-40754D01*
X73793Y-40684D01*
X73793Y-40684D01*
G37*
G54D15*
X39230Y-29690D03*
X39230Y-29940D03*
X39230Y-30200D03*
X39230Y-30450D03*
X39230Y-30710D03*
X39230Y-30965D03*
X39230Y-31220D03*
X41430Y-31220D03*
X41430Y-30965D03*
X41430Y-30710D03*
X41430Y-30450D03*
X41430Y-30195D03*
X41430Y-29940D03*
X41430Y-29685D03*
M02*
